/* XPM */
static char *CPS_xpm[]={
"32 32 827 2",
"      c #621D1B",
" 0    c #762221",
" 1    c #802725",
" 2    c #822724",
" 3    c #812523",
" 4    c #7F2524",
" 5    c #7E2522",
" 6    c #7C2423",
" 7    c #7B2323",
" 8    c #782321",
" 9    c #772322",
" a    c #742321",
" b    c #722220",
" c    c #6F2120",
" d    c #6E211F",
" e    c #6A201D",
" f    c #D1B949",
" g    c #E3C93A",
" h    c #9A6122",
" i    c #631E1D",
" j    c #611D1B",
" k    c #611D1A",
" l    c #601D1B",
" m    c #5E1B1B",
" n    c #5D1B1A",
" o    c #5C1B19",
" p    c #5C1B1A",
" q    c #5A1A19",
" r    c #5A1B1A",
" s    c #59191A",
" t    c #591919",
" u    c #C6915E",
" v    c #E6D2C7",
" w    c #DEC1A6",
" x    c #904437",
" y    c #90473D",
" z    c #9D5A42",
" A    c #9E5C39",
" B    c #95562E",
" C    c #925F27",
" D    c #936324",
" E    c #956E24",
" F    c #8B691F",
" G    c #8E6F1D",
" H    c #8A7118",
" I    c #8B7716",
" J    c #897B13",
" K    c #CEAD4F",
" L    c #EBB62B",
" M    c #CAA544",
" N    c #6D311D",
" O    c #5F1D1B",
" P    c #5D1C1B",
" Q    c #5D1C1A",
" R    c #5A1B19",
" S    c #581B19",
" T    c #581A19",
" U    c #571A19",
" V    c #571918",
" W    c #571819",
" X    c #DB8A11",
" Y    c #FBBC1C",
" Z    c #F8C847",
" &    c #C0A33A",
"0     c #99892F",
"00    c #88721B",
"01    c #947E1C",
"02    c #8F731E",
"03    c #805C1A",
"04    c #8E671E",
"05    c #815817",
"06    c #825618",
"07    c #743F18",
"08    c #7A411A",
"09    c #71361A",
"0a    c #6E321A",
"0b    c #A6791E",
"0c    c #D3A31A",
"0d    c #A37E32",
"0e    c #D3B866",
"0f    c #A78548",
"0g    c #6E391C",
"0h    c #5A1B18",
"0i    c #591B18",
"0j    c #571B19",
"0k    c #561A18",
"0l    c #571A18",
"0m    c #561A19",
"0n    c #561919",
"0o    c #CC7812",
"0p    c #FABC1C",
"0q    c #A98B1D",
"0r    c #CAB687",
"0s    c #86432D",
"0t    c #712120",
"0u    c #70221F",
"0v    c #6D201F",
"0w    c #6A201F",
"0x    c #6A1F1E",
"0y    c #691F1E",
"0z    c #651F1D",
"0A    c #651D1B",
"0B    c #631E1C",
"0C    c #611E1C",
"0D    c #6E3D1E",
"0E    c #663814",
"0F    c #5B1B19",
"0G    c #5F2518",
"0H    c #8D681E",
"0I    c #CFB758",
"0J    c #AF934A",
"0K    c #6E3C1D",
"0L    c #551819",
"0M    c #551A18",
"0N    c #551917",
"0O    c #551818",
"0P    c #531818",
"0Q    c #541918",
"0R    c #722121",
"0S    c #8F7318",
"0T    c #92631D",
"0U    c #6D5310",
"0V    c #B7A273",
"0W    c #894B49",
"0X    c #68201C",
"0Y    c #681E1D",
"0Z    c #661E1C",
"0&    c #641D1C",
"1     c #7E4524",
"10    c #996833",
"11    c #A57536",
"12    c #A77D30",
"13    c #A57E24",
"14    c #9C7228",
"15    c #653017",
"16    c #591B17",
"17    c #561A17",
"18    c #5B2516",
"19    c #8E6521",
"1a    c #D3C272",
"1b    c #C3AB71",
"1c    c #70411E",
"1d    c #531917",
"1e    c #531717",
"1f    c #521918",
"1g    c #521917",
"1h    c #531817",
"1i    c #6E201E",
"1j    c #6B5114",
"1k    c #81541B",
"1l    c #6C201E",
"1m    c #663E11",
"1n    c #B4A963",
"1o    c #9F736C",
"1p    c #641E1D",
"1q    c #7F4526",
"1r    c #D3BD78",
"1s    c #FEFFC7",
"1t    c #FEFEDC",
"1u    c #FDF68F",
"1v    c #D8C653",
"1w    c #B3A431",
"1x    c #A89A25",
"1y    c #A1901B",
"1z    c #9B7D2E",
"1A    c #643216",
"1B    c #521916",
"1C    c #511916",
"1D    c #551F16",
"1E    c #8D6E41",
"1F    c #CBB877",
"1G    c #AF9641",
"1H    c #744921",
"1I    c #562016",
"1J    c #6B3C1B",
"1K    c #5C2518",
"1L    c #501716",
"1M    c #6A1F1F",
"1N    c #6A4D18",
"1O    c #7C5414",
"1P    c #661E1D",
"1Q    c #661D1D",
"1R    c #693815",
"1S    c #99914C",
"1T    c #AA8F7B",
"1U    c #AB7C35",
"1V    c #FFF478",
"1W    c #FEFFFD",
"1X    c #FFFFFE",
"1Y    c #FEFFFE",
"1Z    c #F9F697",
"1&    c #C2B74F",
"2     c #A3972F",
"20    c #958A21",
"21    c #878015",
"22    c #857D10",
"23    c #95871D",
"24    c #684014",
"25    c #4F1816",
"26    c #4F1715",
"27    c #501717",
"28    c #4F1716",
"29    c #541E16",
"2a    c #83601D",
"2b    c #BBA751",
"2c    c #F2EC48",
"2d    c #FFFE3E",
"2e    c #F4E62D",
"2f    c #A7761B",
"2g    c #671E1D",
"2h    c #6A4C17",
"2i    c #7D551B",
"2j    c #641D1B",
"2k    c #621C1C",
"2l    c #652C16",
"2m    c #837717",
"2n    c #E8E3A2",
"2o    c #F8EB93",
"2p    c #FEFFDF",
"2q    c #FFFFC2",
"2r    c #E3DC74",
"2s    c #AFA740",
"2t    c #968E27",
"2u    c #807B15",
"2v    c #77710C",
"2w    c #75710A",
"2x    c #757107",
"2y    c #7B710D",
"2z    c #65430E",
"2A    c #4C1715",
"2B    c #4D1715",
"2C    c #552215",
"2D    c #593012",
"2E    c #5A3F0C",
"2F    c #685909",
"2G    c #886F0E",
"2H    c #F1C530",
"2I    c #FEB713",
"2J    c #B66D10",
"2K    c #631D1C",
"2L    c #684516",
"2M    c #7D5B16",
"2N    c #5F1C1A",
"2O    c #5D1D1A",
"2P    c #78421B",
"2Q    c #C2AD2A",
"2R    c #786A15",
"2S    c #B1AA66",
"2T    c #EDE58F",
"2U    c #E8E480",
"2V    c #D7CE63",
"2W    c #B7B045",
"2X    c #8E8922",
"2Y    c #7E7814",
"2Z    c #736F0C",
"2&    c #706D07",
"3     c #6A6804",
"30    c #6C6B06",
"31    c #736C0B",
"32    c #6A6606",
"33    c #65540B",
"34    c #665F08",
"35    c #626003",
"36    c #6A6404",
"37    c #574208",
"38    c #6A510C",
"39    c #A79025",
"3a    c #F9AC1A",
"3b    c #F4A10C",
"3c    c #743712",
"3d    c #654312",
"3e    c #765616",
"3f    c #5B1C1A",
"3g    c #591C19",
"3h    c #9F811B",
"3i    c #9E8C27",
"3j    c #92852A",
"3k    c #7E721A",
"3l    c #B49D26",
"3m    c #F7EE3A",
"3n    c #FFFB3B",
"3o    c #F0ED35",
"3p    c #9E9919",
"3q    c #77720D",
"3r    c #716E0A",
"3s    c #74700C",
"3t    c #797210",
"3u    c #6B6608",
"3v    c #5E5803",
"3w    c #635905",
"3x    c #665E05",
"3y    c #57360D",
"3z    c #5C3212",
"3A    c #4D1B15",
"3B    c #491514",
"3C    c #491715",
"3D    c #613817",
"3E    c #6C560D",
"3F    c #4B1714",
"3G    c #4B1715",
"3H    c #5E1C1B",
"3I    c #633C15",
"3J    c #735612",
"3K    c #581B18",
"3L    c #6A3916",
"3M    c #A08E19",
"3N    c #8A8218",
"3O    c #7D7417",
"3P    c #867F1A",
"3Q    c #C49E0F",
"3R    c #FFC310",
"3S    c #FED420",
"3T    c #FEC919",
"3U    c #F0BC14",
"3V    c #605A04",
"3W    c #615A03",
"3X    c #5D5305",
"3Y    c #6A5F0A",
"3Z    c #70640F",
"3&    c #897E15",
"4     c #757203",
"40    c #4E2211",
"41    c #471514",
"42    c #461514",
"43    c #461615",
"44    c #471513",
"45    c #785C19",
"46    c #583B0D",
"47    c #4A1615",
"48    c #603916",
"49    c #684E16",
"4a    c #7E5D14",
"4b    c #897B10",
"4c    c #7E760E",
"4d    c #746C0C",
"4e    c #675C0A",
"4f    c #C59A0B",
"4g    c #FFC00B",
"4h    c #FEBA0D",
"4i    c #FEB70D",
"4j    c #DBA20C",
"4k    c #554C03",
"4l    c #6A5D15",
"4m    c #80742F",
"4n    c #625912",
"4o    c #585106",
"4p    c #564E06",
"4q    c #78640A",
"4r    c #6C6802",
"4s    c #57360E",
"4t    c #451513",
"4u    c #3F1211",
"4v    c #3A110F",
"4w    c #461F10",
"4x    c #6F5E13",
"4y    c #4D2111",
"4z    c #481614",
"4A    c #571B18",
"4B    c #5C3215",
"4C    c #785E12",
"4D    c #551A17",
"4E    c #531816",
"4F    c #735C0D",
"4G    c #6E600A",
"4H    c #6C6909",
"4I    c #6D6410",
"4J    c #666704",
"4K    c #927B04",
"4L    c #F5BB0B",
"4M    c #FFB90E",
"4N    c #FFB70D",
"4O    c #CE980E",
"4P    c #5E5115",
"4Q    c #504903",
"4R    c #504A01",
"4S    c #524B01",
"4T    c #554F02",
"4U    c #595502",
"4V    c #5E5A02",
"4W    c #897623",
"4X    c #665209",
"4Y    c #421312",
"4Z    c #240B0A",
"4&    c #1A0906",
"5     c #3F2A0E",
"50    c #62570D",
"51    c #3F1212",
"52    c #471614",
"53    c #571917",
"54    c #5C3114",
"55    c #745E12",
"56    c #521817",
"57    c #501817",
"58    c #64530A",
"59    c #6D6304",
"5a    c #686110",
"5b    c #615817",
"5c    c #615B14",
"5d    c #5F6307",
"5e    c #817507",
"5f    c #A5850C",
"5g    c #917818",
"5h    c #5C5402",
"5i    c #5D5600",
"5j    c #585102",
"5k    c #554F01",
"5l    c #534B01",
"5m    c #514A01",
"5n    c #534C02",
"5o    c #5A5403",
"5p    c #675C0E",
"5q    c #675606",
"5r    c #411313",
"5s    c #1A0808",
"5t    c #1A0807",
"5u    c #665115",
"5v    c #4B4008",
"5w    c #220A09",
"5x    c #3C1210",
"5y    c #471415",
"5z    c #541818",
"5A    c #5A2C16",
"5B    c #7A6710",
"5C    c #501816",
"5D    c #5A440B",
"5E    c #686603",
"5F    c #625D0F",
"5G    c #5E5C09",
"5H    c #605717",
"5I    c #615915",
"5J    c #64610D",
"5K    c #68620B",
"5L    c #716518",
"5M    c #665F02",
"5N    c #645D01",
"5O    c #615901",
"5P    c #5C5501",
"5Q    c #595101",
"5R    c #564D02",
"5S    c #544B02",
"5T    c #564E02",
"5U    c #615706",
"5V    c #564B06",
"5W    c #220B09",
"5X    c #190807",
"5Y    c #1A0706",
"5Z    c #75631B",
"5&    c #2E1C06",
"6     c #1C0907",
"60    c #1E0808",
"61    c #521818",
"62    c #582C14",
"63    c #7A6910",
"64    c #4E1816",
"65    c #4C1614",
"66    c #5E430B",
"67    c #6C6803",
"68    c #645F14",
"69    c #5F5C0A",
"6a    c #5E5910",
"6b    c #60551D",
"6c    c #645C16",
"6d    c #69620C",
"6e    c #625C0A",
"6f    c #616502",
"6g    c #666201",
"6h    c #665D01",
"6i    c #645B02",
"6j    c #5F5702",
"6k    c #595002",
"6l    c #574F02",
"6m    c #554C07",
"6n    c #493E05",
"6o    c #2F1C07",
"6p    c #695E0D",
"6q    c #210C07",
"6r    c #1D0807",
"6s    c #1C0807",
"6t    c #1D0909",
"6u    c #552613",
"6v    c #7F6B12",
"6w    c #4A1614",
"6x    c #55300F",
"6y    c #766B03",
"6z    c #655D18",
"6A    c #605C11",
"6B    c #5F5B0E",
"6C    c #615719",
"6D    c #655B18",
"6E    c #675F0E",
"6F    c #686011",
"6G    c #606506",
"6H    c #626502",
"6I    c #656203",
"6J    c #686002",
"6K    c #655B02",
"6L    c #605703",
"6M    c #5D5602",
"6N    c #5B5202",
"6O    c #554A08",
"6P    c #3B220A",
"6Q    c #230A0A",
"6R    c #270B0A",
"6S    c #503A0D",
"6T    c #534409",
"6U    c #1B0807",
"6V    c #1D0707",
"6W    c #4F1717",
"6X    c #83603D",
"6Y    c #9A8C27",
"6Z    c #785142",
"6&    c #784F3A",
"7     c #977B43",
"70    c #917911",
"71    c #696B08",
"72    c #65581E",
"73    c #625A15",
"74    c #5F5A14",
"75    c #665E17",
"76    c #70660A",
"77    c #615D12",
"78    c #60610C",
"79    c #5F6604",
"7a    c #656402",
"7b    c #695F02",
"7c    c #645C01",
"7d    c #625803",
"7e    c #605603",
"7f    c #5A4B08",
"7g    c #3D1310",
"7h    c #3E1312",
"7i    c #644F16",
"7j    c #382607",
"7k    c #1B0808",
"7l    c #1C0808",
"7m    c #4F1616",
"7n    c #E2A835",
"7o    c #F6B522",
"7p    c #E5CA49",
"7q    c #725216",
"7r    c #552B11",
"7s    c #542F0E",
"7t    c #726D05",
"7u    c #666214",
"7v    c #62591C",
"7w    c #625819",
"7x    c #635E14",
"7y    c #6B620D",
"7z    c #605914",
"7A    c #605F10",
"7B    c #616407",
"7C    c #626702",
"7D    c #666601",
"7E    c #6A6202",
"7F    c #675E03",
"7G    c #645B04",
"7H    c #635804",
"7I    c #49290E",
"7J    c #3C1310",
"7K    c #3D1212",
"7L    c #451A11",
"7M    c #6A5C16",
"7N    c #2A110B",
"7O    c #1C0707",
"7P    c #1D0809",
"7Q    c #1D0908",
"7R    c #1D0907",
"7S    c #4D1716",
"7T    c #AA690E",
"7U    c #D7A614",
"7V    c #C1AA55",
"7W    c #481514",
"7X    c #461513",
"7Y    c #441413",
"7Z    c #6A5508",
"7&    c #6D6C08",
"8     c #676018",
"80    c #645A1E",
"81    c #655E1A",
"82    c #665C0E",
"83    c #635C15",
"84    c #636011",
"85    c #626309",
"86    c #636803",
"87    c #686703",
"88    c #6C6403",
"89    c #6B6004",
"8a    c #685F04",
"8b    c #5B480D",
"8c    c #3C1311",
"8d    c #3D1312",
"8e    c #512D11",
"8f    c #5E4D0F",
"8g    c #2D0D0D",
"8h    c #1B0907",
"8i    c #1C0809",
"8j    c #1E0908",
"8k    c #4D1616",
"8l    c #511C14",
"8m    c #552514",
"8n    c #887424",
"8o    c #98723C",
"8p    c #461612",
"8q    c #431413",
"8r    c #441712",
"8s    c #58500B",
"8t    c #5B540D",
"8u    c #665F16",
"8v    c #86620C",
"8w    c #7E670F",
"8x    c #65640B",
"8y    c #636806",
"8z    c #656A03",
"8A    c #706603",
"8B    c #6D6402",
"8C    c #68470B",
"8D    c #513412",
"8E    c #5B4A0C",
"8F    c #3E1810",
"8G    c #3E1311",
"8H    c #684E15",
"8I    c #4E300E",
"8J    c #320F0F",
"8K    c #1F0908",
"8L    c #4B1615",
"8M    c #4B1614",
"8N    c #491614",
"8O    c #BEB24F",
"8P    c #7C532D",
"8Q    c #441512",
"8R    c #421412",
"8S    c #401311",
"8T    c #5E440B",
"8U    c #756B04",
"8V    c #666111",
"8W    c #6D6C06",
"8X    c #686C07",
"8Y    c #626305",
"8Z    c #626104",
"8&    c #736B03",
"9     c #675D05",
"90    c #655805",
"91    c #3C2C07",
"92    c #290E0B",
"93    c #3B1211",
"94    c #4D2C11",
"95    c #58470C",
"96    c #6C4410",
"97    c #75660E",
"98    c #431C10",
"99    c #270B0B",
"9a    c #1C0908",
"9b    c #1E0809",
"9c    c #210A0A",
"9d    c #3D1211",
"9e    c #4A1515",
"9f    c #481515",
"9g    c #563012",
"9h    c #C3AF54",
"9i    c #5C3117",
"9j    c #421311",
"9k    c #411312",
"9l    c #401411",
"9m    c #47220F",
"9n    c #656010",
"9o    c #695B06",
"9p    c #706605",
"9q    c #746905",
"9r    c #716104",
"9s    c #685606",
"9t    c #50320C",
"9u    c #3C140F",
"9v    c #35100E",
"9w    c #1A0806",
"9x    c #320F0E",
"9y    c #3C1211",
"9z    c #563113",
"9A    c #FBCB19",
"9B    c #D29713",
"9C    c #B27B10",
"9D    c #1E0909",
"9E    c #3B1110",
"9F    c #4A1714",
"9G    c #491515",
"9H    c #644911",
"9I    c #8D7C3E",
"9J    c #461712",
"9K    c #411412",
"9L    c #3F1312",
"9M    c #472411",
"9N    c #63600F",
"9O    c #251408",
"9P    c #31100D",
"9Q    c #3B1311",
"9R    c #3B120F",
"9S    c #3B1310",
"9T    c #3A1110",
"9U    c #260B0A",
"9V    c #200A08",
"9W    c #52310F",
"9X    c #655709",
"9Y    c #B68610",
"9Z    c #FEB00B",
"9&    c #8D4D0D",
"a     c #320F0D",
"a0    c #1D0808",
"a1    c #37100F",
"a2    c #481513",
"a3    c #471414",
"a4    c #441514",
"a5    c #5D5508",
"a6    c #5C440D",
"a7    c #411411",
"a8    c #401412",
"a9    c #46230F",
"aa    c #69630E",
"ab    c #1F0D08",
"ac    c #38100F",
"ad    c #3D1210",
"ae    c #3B1111",
"af    c #381210",
"ag    c #270C0A",
"ah    c #3E2C09",
"ai    c #5D5407",
"aj    c #4D4305",
"ak    c #362109",
"al    c #663D12",
"am    c #80470E",
"an    c #330E0E",
"ao    c #481615",
"ap    c #491F10",
"aq    c #5D5312",
"ar    c #624110",
"as    c #3F1412",
"at    c #482D0F",
"au    c #695E0F",
"av    c #280B0B",
"aw    c #3D1311",
"ax    c #391110",
"ay    c #291308",
"az    c #413108",
"aA    c #7A6E17",
"aB    c #4D4303",
"aC    c #2F1E05",
"aD    c #1B0706",
"aE    c #2F0D0C",
"aF    c #3E1310",
"aG    c #34100E",
"aH    c #1E0907",
"aI    c #1F0808",
"aJ    c #2D0D0C",
"aK    c #491513",
"aL    c #451514",
"aM    c #441412",
"aN    c #421313",
"aO    c #4C2812",
"aP    c #625A0D",
"aQ    c #573012",
"aR    c #3E2B0E",
"aS    c #554C09",
"aT    c #391210",
"aU    c #401811",
"aV    c #412B0B",
"aW    c #686006",
"aX    c #4F4505",
"aY    c #2B1B07",
"aZ    c #230B09",
"a&    c #2C0E0D",
"b     c #1E0807",
"b0    c #300E0E",
"b1    c #441513",
"b2    c #431313",
"b3    c #56400D",
"b4    c #645C0C",
"b5    c #564910",
"b6    c #5F520B",
"b7    c #4C2510",
"b8    c #60490C",
"b9    c #5B5106",
"ba    c #4D4105",
"bb    c #291707",
"bc    c #1A0707",
"bd    c #200908",
"be    c #200909",
"bf    c #2C0C0D",
"bg    c #451413",
"bh    c #431412",
"bi    c #A97E13",
"bj    c #B48216",
"bk    c #BE9013",
"bl    c #866414",
"bm    c #615808",
"bn    c #341C08",
"bo    c #1D0708",
"bp    c #1F0909",
"bq    c #1F0A08",
"br    c #290C0B",
"bs    c #471413",
"bt    c #CF990B",
"bu    c #F7AE16",
"bv    c #F6AD14",
"bw    c #BD870E",
"bx    c #431A10",
"by    c #3E1212",
"bz    c #210908",
"bA    c #1B0908",
"bB    c #280C0B",
"bC    c #461413",
"bD    c #451414",
"bE    c #2D0C0B",
"bF    c #966C09",
"bG    c #FEBE0B",
"bH    c #FFBB0A",
"bI    c #945C0F",
"bJ    c #411212",
"bK    c #1F0A09",
"bL    c #210909",
"bM    c #491615",
"bN    c #240B09",
"bO    c #250F08",
"bP    c #B17D0C",
"bQ    c #774210",
"bR    c #2F0D0D",
"bS    c #1F0809",
"bT    c #200A09",
"bU    c #210808",
"bV    c #21080A",
"   0 1 2 3 4 5 6 7 8 9 a b c d e f g h i j k l m n o p q r s q t",
" u v w x y z A B C D E F G H I J K L M N O P Q r R r S T U U V W",
" X Y Z &0 000102030405060708090a0b0c0d0e0f0g0h0i0j0j U0k V0l0m0n",
"0o0p0q0r0s0t0u0v0w0x0y0z0A0B0C O0D0E0F0G0H0I0J0K0L0M0N0O0O0P0Q0Q",
"0R0S0T0U0V0W e0X0Y0Z0&1 10111213141516170M18191a1b1c1d1e1f1g1h1g",
"1i1j1k1l1m1n1o1p0B1q1r1s1t1u1v1w1x1y1z1A1d1B1C1D1E1F1G1H1I1J1K1L",
"1M1N1O1P1Q1R1S1T1U1V1W1X1Y1Z1&2 202122232425262728292a2b2c2d2e2f",
"2g2h2i2j2k l2l2m2n2o2p1Y2q2r2s2t2u2v2w2x2y2z2A2B2C2D2E2F2G2H2I2J",
"2K2L2M2N Q2O2P2Q2R2S2T2U2V2W2X2Y2Z2&3 303132333435363738393a3b3c",
" j3d3e o3f3g3h3i3j3k3l3m3n3o3p3q3r3s3t3u3v3w3x3y3z3A3B3C3D3E3F3G",
"3H3I3J r3K3L3M3N3O3P3Q3R3S3T3U3V3W3X3X3Y3Z3&4 404142434445463B47",
" q48490m0Q4a4b4c4d4e4f4g4h4i4j4k4l4m4n4o4p4q4r4s4t4u4v4w4x4y4z4z",
"4A4B4C4D4E4F4G4H4I4J4K4L4M4N4O4P4Q4R4S4T4U4V4W4X4Y4Z4&5 5051524z",
"535455565758595a5b5c5d5e5f5g5h5i5j5k5l5m5n5o5p5q5r5s5t5u5v5w5x5y",
"5z5A5B5C255D5E5F5G5H5I5J5K5L5M5N5O5P5Q5R5S5T5U5V5W5X5Y5Z5&6 604v",
"6162636465666768696a6b6c6d6e6f6g6h6i6j5h6k6l6m6n5X5X6o6p6q6r6s6t",
"566u6v656w6x6y6z6A6B6C6D6E6F6G6H6I6J6K6L6M6N6O6P6Q6R6S6T6U6V6s6r",
"6W6X6Y6Z6&7 707172737475767778797a6g7b7c7d7e7f5x7g7h7i7j7k6 6s7l",
"7m7n7o7p7q7r7s7t7u7v7w7x7y7z7A7B7C7D7E7F7G7H7I7J7K7L7M7N7O7P7Q7R",
"7S7T7U7V7W7X7Y7Z7&8 808182838485868788898a8b5x8c8d8e8f8g8h8i7l8j",
"8k8l8m8n8o8p8q8r1j8s8t8u8v8w8x8y8z678A8B8C8D8E8F8G8H8I8J6s6 8K8J",
"8L8M8N408O8P8Q8R8S8T8U8V8W8X8Y8Z8&9 909192939495969798999a9b9c9d",
"9e3B9f7W9g9h9i9j9k9l9m9n9o9p9q9r9s9t9u9v9w9x9y9z9A9B9C8J7l7R9D9E",
"3G9F9G7W4t9H9I9J9K9L9M9N9O9P9Q9R9E9S9T9T9U9V9W9X9Y9Z9&a 7P7Ra0a1",
"9Ga24za3a49Ja5a6a7a8a9aaabacad8caeafag6rahaiajakalam4uan6t6t7R9E",
"8N3Bao52a4a4apaqarasatauavaw8cawaxayazaAaBaC4&aDa0aEaFaGaH60aIaJ",
"8LaKao7XaLaMaNaOaPaQaRaSaT7h8daUaVaWaXaY5saD7O8h6 6saZa&9bb 9bb0",
"479f41424t7Yb1b2b3b4b5b651b7b8b9babbbc9a6 a07O7Oa06t60bd8j8jbebf",
"6w4z9f41bgbg7Ybh8Rbibjbkblbm37bn7R6sa06Ubo9a7l6 a09bb 8jbp8Kbqbr",
"9G7W3BbsbsaM8qbh9ybtbubvbwbxbybz6r7RbA7Q6s7Pb 9b7Q8j7QbeaIbebdbB",
"478Nbs417XbCbDbhbEbFbGbHbIbJa17l7Q7Pa07Qa08ib 8j8j7Q60bK8KbqbLbL",
"8NbMa2a342bg7Y8RbNbObPbQa8a7bR6t7Q6ra07Q9b9Da0b bSbdbdbT8KbUbV9V"};
