/* XPM */
static char *SVERTEX_xpm[]={
"41 24 613 2",
"      c #6A6A69",
" 0    c #696868",
" 1    c #676867",
" 2    c #676668",
" 3    c #666565",
" 4    c #656565",
" 5    c #646363",
" 6    c #636163",
" 7    c #616162",
" 8    c #616160",
" 9    c #5F5F60",
" a    c #5F5F5F",
" b    c #5E5F5E",
" c    c #5D5D5D",
" d    c #5E5D5D",
" e    c #5C5D5C",
" f    c #5C5B5C",
" g    c #5A5A5B",
" h    c #595B5B",
" i    c #585959",
" j    c #595957",
" k    c #575758",
" l    c #585857",
" m    c #585758",
" n    c #575657",
" o    c #575757",
" p    c #565656",
" q    c #565756",
" r    c #555556",
" s    c #575656",
" t    c #005856",
" u    c #323130",
" v    c #353433",
" w    c #383736",
" x    c #626139",
" y    c #656463",
" z    c #686766",
" A    c #6B6A69",
" B    c #636463",
" C    c #636362",
" D    c #626363",
" E    c #616161",
" F    c #606060",
" G    c #5E5F5F",
" H    c #5C5D5D",
" I    c #5C5C5D",
" J    c #5C5B5B",
" K    c #5B5B5B",
" L    c #59595A",
" M    c #5A5959",
" N    c #565757",
" O    c #575756",
" P    c #565556",
" Q    c #545455",
" R    c #545554",
" S    c #545453",
" T    c #525352",
" U    c #535153",
" V    c #535251",
" W    c #515251",
" X    c #515151",
" Y    c #525250",
" Z    c #525152",
" &    c #525251",
"0     c #525052",
"00    c #525253",
"01    c #535352",
"02    c #525353",
"03    c #535354",
"04    c #605E5F",
"05    c #5D5E5D",
"06    c #5A5B5A",
"07    c #5A595A",
"08    c #565657",
"09    c #545555",
"0a    c #535355",
"0b    c #545454",
"0c    c #525452",
"0d    c #525153",
"0e    c #525151",
"0f    c #515052",
"0g    c #505150",
"0h    c #504F50",
"0i    c #4F4F4F",
"0j    c #4E4F4F",
"0k    c #4F4E4F",
"0l    c #4D4E4E",
"0m    c #4D4D4E",
"0n    c #4D4E4D",
"0o    c #4E4D4C",
"0p    c #4C4D4D",
"0q    c #4C4D4C",
"0r    c #4D4D4D",
"0s    c #4D4D4C",
"0t    c #4D4C4E",
"0u    c #4E4F4D",
"0v    c #4E4E4D",
"0w    c #4F4E4D",
"0x    c #5B5A5B",
"0y    c #585A58",
"0z    c #585858",
"0A    c #555656",
"0B    c #555453",
"0C    c #535353",
"0D    c #525051",
"0E    c #676652",
"0F    c #A8A85D",
"0G    c #A7A85D",
"0H    c #A7A75B",
"0I    c #7F8050",
"0J    c #4D4C4D",
"0K    c #4B4B4C",
"0L    c #4B4B4B",
"0M    c #4A4A4B",
"0N    c #494949",
"0O    c #4A4A4A",
"0P    c #49494A",
"0Q    c #484948",
"0R    c #494848",
"0S    c #474949",
"0T    c #494948",
"0U    c #484849",
"0V    c #4A4949",
"0W    c #4A484A",
"0X    c #494B49",
"0Y    c #4C4B4B",
"0Z    c #565455",
"0&    c #535252",
"1     c #51504F",
"10    c #504E50",
"11    c #7E7E52",
"12    c #FEFF66",
"13    c #FEFE66",
"14    c #FFFE65",
"15    c #E7E743",
"16    c #484847",
"17    c #474747",
"18    c #454546",
"19    c #464747",
"1a    c #464546",
"1b    c #444646",
"1c    c #454545",
"1d    c #444546",
"1e    c #454544",
"1f    c #454443",
"1g    c #444443",
"1h    c #434343",
"1i    c #434444",
"1j    c #454445",
"1k    c #444545",
"1l    c #444544",
"1m    c #444644",
"1n    c #454646",
"1o    c #474646",
"1p    c #515150",
"1q    c #4C4B4D",
"1r    c #4A4A49",
"1s    c #7A7B4D",
"1t    c #FEFE61",
"1u    c #FFFE61",
"1v    c #FFFF60",
"1w    c #E7E641",
"1x    c #424342",
"1y    c #424242",
"1z    c #414242",
"1A    c #404142",
"1B    c #414141",
"1C    c #404040",
"1D    c #414041",
"1E    c #414140",
"1F    c #40413F",
"1G    c #3F413F",
"1H    c #3F4040",
"1I    c #3F3F40",
"1J    c #403F3F",
"1K    c #3F4140",
"1L    c #404141",
"1M    c #424241",
"1N    c #414241",
"1O    c #434143",
"1P    c #434242",
"1Q    c #434342",
"1R    c #444344",
"1S    c #454645",
"1T    c #4E4E4E",
"1U    c #4B4C4B",
"1V    c #494B4A",
"1W    c #484747",
"1X    c #464545",
"1Y    c #424243",
"1Z    c #77774A",
"1&    c #FFFF5E",
"2     c #FEFF5B",
"20    c #FEFF5C",
"21    c #E5E440",
"22    c #373737",
"23    c #3B3C3C",
"24    c #3C3D3E",
"25    c #3C3C3D",
"26    c #3C3C3C",
"27    c #3D3D3C",
"28    c #3D3D3B",
"29    c #3C3B3C",
"2a    c #3A3B3B",
"2b    c #3B3A3A",
"2c    c #3C3C3B",
"2d    c #3B3B3D",
"2e    c #3D3B3B",
"2f    c #3E3D3D",
"2g    c #3D3E3D",
"2h    c #3F3E3E",
"2i    c #403F40",
"2j    c #40403F",
"2k    c #424343",
"2l    c #4B4B4A",
"2m    c #494947",
"2n    c #474746",
"2o    c #454444",
"2p    c #434243",
"2q    c #414042",
"2r    c #3F3E3F",
"2s    c #4A4A3F",
"2t    c #97973A",
"2u    c #9B9B30",
"2v    c #94932A",
"2w    c #858526",
"2x    c #1B1B1B",
"2y    c #303030",
"2z    c #443D37",
"2A    c #4A3F36",
"2B    c #443E36",
"2C    c #443E37",
"2D    c #3E3A36",
"2E    c #373837",
"2F    c #363738",
"2G    c #373738",
"2H    c #373836",
"2I    c #383737",
"2J    c #383839",
"2K    c #393839",
"2L    c #393A39",
"2M    c #3B3C3B",
"2N    c #3E3E3D",
"2O    c #414040",
"2P    c #484749",
"2Q    c #464847",
"2R    c #464646",
"2S    c #424143",
"2T    c #3F3D3D",
"2U    c #3D3C3D",
"2V    c #3A3C3B",
"2W    c #3B3B39",
"2X    c #393939",
"2Y    c #2C2B2B",
"2Z    c #171718",
"2&    c #181817",
"3     c #262627",
"30    c #B06529",
"31    c #FE902E",
"32    c #FE9D3B",
"33    c #FEB452",
"34    c #FEDE7B",
"35    c #FEEFA4",
"36    c #F9EC99",
"37    c #E59C4B",
"38    c #593B1E",
"39    c #323433",
"3a    c #333333",
"3b    c #343534",
"3c    c #343434",
"3d    c #353535",
"3e    c #363636",
"3f    c #373838",
"3g    c #383739",
"3h    c #393938",
"3i    c #3A393A",
"3j    c #3B3B3A",
"3k    c #3B3B3B",
"3l    c #3C3D3D",
"3m    c #3E3D3E",
"3n    c #434443",
"3o    c #424142",
"3p    c #3E403E",
"3q    c #3D3D3D",
"3r    c #393A3A",
"3s    c #373937",
"3t    c #353737",
"3u    c #363535",
"3v    c #292928",
"3w    c #161717",
"3x    c #171616",
"3y    c #161615",
"3z    c #191819",
"3A    c #7E4E29",
"3B    c #FF8A2D",
"3C    c #FE983A",
"3D    c #FFB252",
"3E    c #FED679",
"3F    c #FFED93",
"3G    c #FDCB74",
"3H    c #744213",
"3I    c #443423",
"3J    c #303032",
"3K    c #313132",
"3L    c #313332",
"3M    c #333535",
"3N    c #383838",
"3O    c #3D3C3C",
"3P    c #444444",
"3Q    c #414343",
"3R    c #424040",
"3S    c #403F3E",
"3T    c #383938",
"3U    c #373736",
"3V    c #353635",
"3W    c #353333",
"3X    c #323333",
"3Y    c #282829",
"3Z    c #151616",
"3&    c #151615",
"4     c #141414",
"40    c #151414",
"41    c #5D3A20",
"42    c #FE842A",
"43    c #FE9134",
"44    c #FEA247",
"45    c #FEB75C",
"46    c #FFBD65",
"47    c #865421",
"48    c #41301E",
"49    c #2B2C2B",
"4a    c #2C2C2C",
"4b    c #2E2D2C",
"4c    c #2F2D2D",
"4d    c #2F2F2E",
"4e    c #323332",
"4f    c #353534",
"4g    c #353735",
"4h    c #383A39",
"4i    c #3B393A",
"4j    c #3F403E",
"4k    c #3E3E3E",
"4l    c #3A3A3A",
"4m    c #38393A",
"4n    c #343334",
"4o    c #333232",
"4p    c #313131",
"4q    c #2C2D2D",
"4r    c #151617",
"4s    c #151513",
"4t    c #141515",
"4u    c #141313",
"4v    c #382619",
"4w    c #FF7D27",
"4x    c #FF852D",
"4y    c #FF8F36",
"4z    c #FE943E",
"4A    c #F39443",
"4B    c #613D1A",
"4C    c #292929",
"4D    c #292A2A",
"4E    c #2B2A2B",
"4F    c #2C2D2C",
"4G    c #2D2D2D",
"4H    c #2E2E2F",
"4I    c #2F3130",
"4J    c #313233",
"4K    c #323334",
"4L    c #373637",
"4M    c #3A3938",
"4N    c #3E3E3F",
"4O    c #3C3E3C",
"4P    c #383837",
"4Q    c #323232",
"4R    c #313230",
"4S    c #2F2F2F",
"4T    c #2E2F2F",
"4U    c #1A1A1A",
"4V    c #151413",
"4W    c #141514",
"4X    c #131413",
"4Y    c #FB7423",
"4Z    c #FB7826",
"4&    c #FD7C2A",
"5     c #F27C2D",
"50    c #FD8D3A",
"51    c #F29445",
"52    c #8C542C",
"53    c #292A29",
"54    c #2B2B2B",
"55    c #2B2C2C",
"56    c #2E2D2D",
"57    c #2F2E2D",
"58    c #2F302F",
"59    c #303131",
"5a    c #333132",
"5b    c #323233",
"5c    c #353334",
"5d    c #353536",
"5e    c #393837",
"5f    c #3A3A3B",
"5g    c #3B3A3C",
"5h    c #3A3A39",
"5i    c #383937",
"5j    c #353435",
"5k    c #333433",
"5l    c #313232",
"5m    c #302F30",
"5n    c #2F302E",
"5o    c #1E1E1E",
"5p    c #161514",
"5q    c #141415",
"5r    c #151515",
"5s    c #CE6420",
"5t    c #EA6E21",
"5u    c #BF5F1B",
"5v    c #874712",
"5w    c #E97125",
"5x    c #FF8937",
"5y    c #FE903C",
"5z    c #D07331",
"5A    c #563B2A",
"5B    c #2C2D2B",
"5C    c #2D2E2E",
"5D    c #302F2F",
"5E    c #313130",
"5F    c #343333",
"5G    c #343535",
"5H    c #3A3B3A",
"5I    c #3A3839",
"5J    c #353636",
"5K    c #333432",
"5L    c #242525",
"5M    c #161616",
"5N    c #161516",
"5O    c #171615",
"5P    c #A2531D",
"5Q    c #AF5817",
"5R    c #5A3610",
"5S    c #281E17",
"5T    c #954B19",
"5U    c #EB7325",
"5V    c #FD8030",
"5W    c #FE8634",
"5X    c #FA802E",
"5Y    c #995529",
"5Z    c #3A322C",
"5&    c #302E2F",
"6     c #303031",
"60    c #333131",
"61    c #363737",
"62    c #3E3F3E",
"63    c #383738",
"64    c #363637",
"65    c #343435",
"66    c #171817",
"67    c #191919",
"68    c #6A3E1A",
"69    c #60380E",
"6a    c #342618",
"6b    c #181918",
"6c    c #2B1F18",
"6d    c #CA611B",
"6e    c #EC7323",
"6f    c #F7782A",
"6g    c #FD7D2C",
"6h    c #FD7E2D",
"6i    c #E87128",
"6j    c #61402C",
"6k    c #333233",
"6l    c #333334",
"6m    c #353434",
"6n    c #363635",
"6o    c #424041",
"6p    c #3A3939",
"6q    c #383939",
"6r    c #363836",
"6s    c #363536",
"6t    c #272726",
"6u    c #242425",
"6v    c #282828",
"6w    c #272827",
"6x    c #32302E",
"6y    c #3F3429",
"6z    c #272627",
"6A    c #4B2C17",
"6B    c #CB611B",
"6C    c #E36C21",
"6D    c #EE7425",
"6E    c #F57627",
"6F    c #FA7928",
"6G    c #F97727",
"6H    c #864A1C",
"6I    c #383836",
"6J    c #39383A",
"6K    c #39393A",
"6L    c #444445",
"6M    c #424141",
"6N    c #393738",
"6O    c #2D2E2F",
"6P    c #1C1B1C",
"6Q    c #1A1A1B",
"6R    c #7A4114",
"6S    c #CC611A",
"6T    c #DB691E",
"6U    c #EB7223",
"6V    c #A05218",
"6W    c #4D3519",
"6X    c #383637",
"6Y    c #3A3B39",
"6Z    c #3B3A3B",
"6&    c #3D3D3E",
"7     c #474647",
"70    c #403E3F",
"71    c #3F3F3F",
"72    c #3E3C3E",
"73    c #3B3D3C",
"74    c #3A393B",
"75    c #1F1F1F",
"76    c #1B1C1C",
"77    c #1C1C1C",
"78    c #251E1B",
"79    c #A35216",
"7a    c #C85E19",
"7b    c #D3631C",
"7c    c #AD5517",
"7d    c #513717",
"7e    c #3C3936",
"7f    c #393B39",
"7g    c #3D3C3B",
"7h    c #3F4041",
"7i    c #484947",
"7j    c #474748",
"7k    c #454745",
"7l    c #3F403F",
"7m    c #3E3F40",
"7n    c #3E3F3F",
"7o    c #3D3E3E",
"7p    c #3D3B3D",
"7q    c #282728",
"7r    c #1D1D1D",
"7s    c #1D1E1E",
"7t    c #3B281A",
"7u    c #B15615",
"7v    c #AA5415",
"7w    c #533410",
"7x    c #39342E",
"7y    c #424042",
"7z    c #414243",
"7A    c #4C4A4C",
"7B    c #494A49",
"7C    c #434545",
"7D    c #404240",
"7E    c #403E40",
"7F    c #201F1F",
"7G    c #1E1F1E",
"7H    c #1E1E20",
"7I    c #583518",
"7J    c #643B0F",
"7K    c #2B241B",
"7L    c #212122",
"7M    c #404140",
"7N    c #4B4B4D",
"7O    c #4A4B4A",
"7P    c #212121",
"7Q    c #212120",
"7R    c #212021",
"7S    c #212022",
"7T    c #202020",
"7U    c #202021",
"7V    c #222222",
"7W    c #303130",
"7X    c #424443",
"7Y    c #444543",
"7Z    c #454344",
"7&    c #464644",
"8     c #504F4F",
"80    c #4E4C4C",
"81    c #4C4C4D",
"82    c #4C4C4C",
"83    c #4B4A4A",
"84    c #494A4A",
"85    c #484949",
"86    c #484848",
"87    c #474948",
"88    c #474546",
"89    c #464547",
"8a    c #222122",
"8b    c #232122",
"8c    c #222123",
"8d    c #222322",
"8e    c #222223",
"8f    c #454543",
"8g    c #464746",
"8h    c #474847",
"8i    c #49484A",
"8j    c #504E4F",
"8k    c #50504F",
"8l    c #4B4A4B",
"8m    c #494849",
"8n    c #232324",
"8o    c #252423",
"8p    c #242323",
"8q    c #242423",
"8r    c #242324",
"8s    c #252425",
"8t    c #242523",
"8u    c #242524",
"8v    c #232425",
"8w    c #252325",
"8x    c #484A49",
"8y    c #4B4A49",
"8z    c #4A4B4B",
"   0 1 2 3 4 5 6 7 8 9 a b c d e f g g h i i j k l m n o p q r s r t u v w x y z A",
" B C D E F a G H I J K L M i k N O P r r Q R S T T U V W X Y Z &0  Z Z & T00010203",
"04 b05 f0607 L l o08090a0b0c0d0e0f0g0h0i0i0j0k0l0m0n0o0p0o0q0l0r0l0s0m0t0u0v0w0k0i",
"0x0y0z N p0A0B0C020D0E0F0G0H0I0p0J0K0L0L0M0N0O0P0Q0N0R0S0T0N0U0V0W0W0N0N0X0M0L0Y0J",
"080Z0b0& X1 100u0q0r1112131415161718191a1b1c1d1e1f1g1h1i1j1e1k1l1c1m1n1o1o1716160U",
" Z1p0h0k0n1q0M1r0T191s1t1u1v1w1x1y1z1A1B1C1D1E1F1G1H1I1C1J1K1J1L1M1N1O1P1Q1R1j1S18",
"1T0m1U1V1r1W1o1X1k1Y1Z1&2 20212223242526272829232a2b2c292d262e272f2g2h2i2j1L1z2k1P",
"2l1r2m2n1n2o2p2q1I2r2s2t2u2v2w2x2y2z2A2B2C2D2E2F2G w2H2I2J2K2K2L2L2a2M29272N2h1H2O",
"2P2Q2R1R2S1L1I2T2U2V2W2X2Y2Z2&2Z3 303132333435363738393a3b3c3d3e3f3g3h3i3j3k3l2g3m",
"2R2o3n3o3p3q3q2b3r3s3t3u3v3w3x3y3z3A3B3C3D3E3F3G3H3I2y2y3J3K3L3c3M3d3e3N2K2X3i3k3O",
"3P3Q3R3S2f2e3j3T3U3V3W3X3Y3Z3&4 404142434445464748494a4b4c4d2y3K4e3a4f4g223g4h4i23",
"1Y2O4j4k2M4l4m3f3V4n4o4p4q4r4s4t4u4v4w4x4y4z4A4B4C4D4E4E4F4G4H4I3K4J4K3c3u4L3h4M4l",
"3o2O4N4O232L4P3e4f4Q4R4S4T4U4V4W4X404Y4Z4&5 5051523v535455565758595a5b5c5d3e5e2X5f",
"1B1K4N3O5g5h5i3U5j5k5l5m5n5o5p4 5q5r5s5t5u5v5w5x5y5z5A2Y5B5C4H5D5E4Q5F3d5G222G2K3k",
"1z1G2r2f265H5I2E5J3d5K5b2y5L5M5N3Z5O5P5Q5R5S5T5U5V5W5X5Y5Z5&5D6 603a5c3c614P3T3i5H",
"1P1B1I622N233r2J6364655F4o2y4U662Z6768696a6b6c6d6e6f6g6h6i6j4Q6k6l6m6n613N3T3h3k3k",
"3P2k6o1H4k273q5f6p6q6r6s6n3c6t6u6v6w6x6y6z67676A6B6C6D6E6F6G6H4f3u646I2X6J6K2a262U",
"1X6L1h6M1C1J6227262a3i2K6N3N3U6s613e6s3d6O6P6Q6Q6R6S6T6C6U6V6W6X633N3r6Y6Z3k276&6&",
"177 2R3n1y3o1L70717226736Z3j6Z743r6p2X3h3e75767778797a7b7c7d7e7f5f2a297g272g2r2r7h",
"0U7i7j7k1e1R1h2p1B1E7l7m7n3q7o26262U2e7p237q7r7r7s7t7u7v7w7x7325246&4N7n1J1H1C7y7z",
"7A7B0P2m7 191c1c7C3P1Q1Y3o7D2i1C2i2i2r7E2h3N7F7G7H7G7I7J7K7L3c4N1C2O7M1B1N1M2k1h1k",
"0l0q7N7O2l0Q0N7j177 2R1b1l2o1i3n1y3n2k1y1h277P7Q7R7Q7S7T7R7U7V7W1H7X3P7Y7Z7&2R1817",
"0i8 1T8081820L0M8384858687172n2n88891X1S1c1c2Y8a8a7L7V8b8c8d8d8e4F8f1o8g7 7j8h0U8i",
"0& & X X8j8k1T0r0r0r820L8l0V0O0O0N8m0U0N0R8m4o8n8o8p8q8r8s8t8u8v8w2j858x0N8y8l838z"};
