/* XPM */
static char *KEEP_xpm[]={
"64 24 348 2",
"      c #737173",
" 0    c #6B6D73",
" 1    c #6B6D6B",
" 2    c #6B696B",
" 3    c #636563",
" 4    c #636163",
" 5    c #5A6163",
" 6    c #5A5D5A",
" 7    c #5A595A",
" 8    c #52595A",
" 9    c #5A5552",
" a    c #525552",
" b    c #525152",
" c    c #52555A",
" d    c #63656B",
" e    c #8C826B",
" f    c #6B6963",
" g    c #5A5952",
" h    c #524D4A",
" i    c #52514A",
" j    c #4A4D4A",
" k    c #4A514A",
" l    c #6B6563",
" m    c #847963",
" n    c #F7D37B",
" o    c #FFDB84",
" p    c #D6C784",
" q    c #9C9673",
" r    c #4A4D52",
" s    c #4A494A",
" t    c #A58E52",
" u    c #BD9E52",
" v    c #9C864A",
" w    c #73694A",
" x    c #524D52",
" y    c #635D63",
" z    c #CEB66B",
" A    c #FFDF84",
" B    c #FFE794",
" C    c #FFF39C",
" D    c #FFFBAD",
" E    c #DEDFA5",
" F    c #ADAA8C",
" G    c #73756B",
" H    c #4A5152",
" I    c #424942",
" J    c #42454A",
" K    c #424542",
" L    c #5A554A",
" M    c #D6B25A",
" N    c #CEAA52",
" O    c #C6A652",
" P    c #84714A",
" Q    c #6B654A",
" R    c #B59642",
" S    c #9C8642",
" T    c #847142",
" U    c #5A615A",
" V    c #9C8A63",
" W    c #EFC773",
" X    c #FFFFAD",
" Y    c #FFFFB5",
" Z    c #FFFFBD",
" &    c #FFFFC6",
"0     c #EFEBB5",
"00    c #ADAE8C",
"01    c #6B6D63",
"02    c #424142",
"03    c #6B614A",
"04    c #C6A252",
"05    c #424139",
"06    c #A58A4A",
"07    c #BD9A4A",
"08    c #B59242",
"09    c #4A4D42",
"0a    c #9C8239",
"0b    c #A58639",
"0c    c #847539",
"0d    c #736542",
"0e    c #63615A",
"0f    c #D6B66B",
"0g    c #E7C773",
"0h    c #EFCF7B",
"0i    c #FFFBA5",
"0j    c #F7F3B5",
"0k    c #C6BE8C",
"0l    c #73715A",
"0m    c #394142",
"0n    c #393C39",
"0o    c #394139",
"0p    c #4A4942",
"0q    c #8C7D52",
"0r    c #5A5942",
"0s    c #393429",
"0t    c #292421",
"0u    c #8C7539",
"0v    c #AD9242",
"0w    c #BD9642",
"0x    c #947D42",
"0y    c #635942",
"0z    c #AD8E39",
"0A    c #AD8A39",
"0B    c #A58631",
"0C    c #525142",
"0D    c #947931",
"0E    c #8C7531",
"0F    c #7B6939",
"0G    c #635D42",
"0H    c #5A555A",
"0I    c #B59E5A",
"0J    c #DEBE63",
"0K    c #E7C373",
"0L    c #F7D784",
"0M    c #FFE38C",
"0N    c #FFEF9C",
"0O    c #FFF7A5",
"0P    c #F7E394",
"0Q    c #BDAA73",
"0R    c #4A4542",
"0S    c #393839",
"0T    c #9C8A5A",
"0U    c #DEBA63",
"0V    c #CEAE5A",
"0W    c #313029",
"0X    c #5A5131",
"0Y    c #393821",
"0Z    c #212018",
"0&    c #393831",
"1     c #736942",
"10    c #A58A39",
"11    c #947939",
"12    c #5A5542",
"13    c #A58231",
"14    c #9C8229",
"15    c #6B5D42",
"16    c #525952",
"17    c #736952",
"18    c #E7C36B",
"19    c #EFCB7B",
"1a    c #FFDF8C",
"1b    c #FFEB94",
"1c    c #FFF3A5",
"1d    c #FFEB9C",
"1e    c #D6BE7B",
"1f    c #313839",
"1g    c #313431",
"1h    c #393431",
"1i    c #6B6142",
"1j    c #7B7942",
"1k    c #DEBE6B",
"1l    c #AD925A",
"1m    c #B5964A",
"1n    c #846D39",
"1o    c #5A5142",
"1p    c #7B6D39",
"1q    c #B59A52",
"1r    c #D6B663",
"1s    c #DEC36B",
"1t    c #FFDB8C",
"1u    c #7B6D52",
"1v    c #313031",
"1w    c #7B7552",
"1x    c #EFD75A",
"1y    c #946D31",
"1z    c #BDAE4A",
"1A    c #E7C34A",
"1B    c #635939",
"1C    c #AD9663",
"1D    c #8C794A",
"1E    c #C6A24A",
"1F    c #736531",
"1G    c #AD8E42",
"1H    c #947D39",
"1I    c #6B6139",
"1J    c #D6B263",
"1K    c #EFD78C",
"1L    c #393C31",
"1M    c #BDB663",
"1N    c #FFC742",
"1O    c #FFB231",
"1P    c #946529",
"1Q    c #BDAA42",
"1R    c #FFBE42",
"1S    c #292C29",
"1T    c #DEC37B",
"1U    c #B59E6B",
"1V    c #6B5D4A",
"1W    c #423C39",
"1X    c #7B6D4A",
"1Y    c #B59652",
"1Z    c #212418",
"1&    c #847139",
"2     c #6B5D39",
"20    c #CEAA5A",
"21    c #CEB25A",
"22    c #FFE394",
"23    c #8C7952",
"24    c #636139",
"25    c #FFA629",
"26    c #FFC739",
"27    c #8C6129",
"28    c #B5A239",
"29    c #FFAA31",
"2a    c #FFAE31",
"2b    c #E7B639",
"2c    c #635531",
"2d    c #292829",
"2e    c #8C7D5A",
"2f    c #7B6D42",
"2g    c #4A4939",
"2h    c #423C29",
"2i    c #313021",
"2j    c #AD9239",
"2k    c #8C7131",
"2l    c #A58A31",
"2m    c #9C7D31",
"2n    c #BD9E4A",
"2o    c #EFCB73",
"2p    c #EFD37B",
"2q    c #EFD384",
"2r    c #181818",
"2s    c #A59A4A",
"2t    c #FFE352",
"2u    c #FFAE29",
"2v    c #FFC339",
"2w    c #8C5D29",
"2x    c #B59A39",
"2y    c #FFCB4A",
"2z    c #FFD784",
"2A    c #DEC373",
"2B    c #C6AA63",
"2C    c #4A4539",
"2D    c #524939",
"2E    c #7B6931",
"2F    c #312C21",
"2G    c #B59A42",
"2H    c #BDA24A",
"2I    c #F7DB8C",
"2J    c #A5925A",
"2K    c #101410",
"2L    c #4A3818",
"2M    c #E7B239",
"2N    c #FFE35A",
"2O    c #FFD742",
"2P    c #FFCB39",
"2Q    c #FFD352",
"2R    c #FFD373",
"2S    c #D69229",
"2T    c #4A3829",
"2U    c #E7CB7B",
"2V    c #847952",
"2W    c #9C8A4A",
"2X    c #9C8242",
"2Y    c #6B5931",
"2Z    c #212021",
"2&    c #423821",
"3     c #635529",
"30    c #5A5539",
"31    c #A58A42",
"32    c #BD9A42",
"33    c #D6BA63",
"34    c #E7CB73",
"35    c #393829",
"36    c #211C10",
"37    c #9C7529",
"38    c #FFD34A",
"39    c #FFD74A",
"3a    c #B59A31",
"3b    c #FFD35A",
"3c    c #F7BA52",
"3d    c #8C5D21",
"3e    c #312C29",
"3f    c #DECB8C",
"3g    c #E7D38C",
"3h    c #A59263",
"3i    c #BDA663",
"3j    c #524929",
"3k    c #7B6531",
"3l    c #4A4529",
"3m    c #292821",
"3n    c #7B7142",
"3o    c #C6AA52",
"3p    c #DEBA6B",
"3q    c #B59E63",
"3r    c #101818",
"3s    c #634929",
"3t    c #E7AA39",
"3u    c #FFDB5A",
"3v    c #FFC763",
"3w    c #422C18",
"3x    c #212421",
"3y    c #A58E63",
"3z    c #AD965A",
"3A    c #947942",
"3B    c #525139",
"3C    c #AD8A31",
"3D    c #736131",
"3E    c #B59239",
"3F    c #D6BA6B",
"3G    c #4A4129",
"3H    c #101810",
"3I    c #101418",
"3J    c #B57921",
"3K    c #845921",
"3L    c #AD8A29",
"3M    c #845918",
"3N    c #181C18",
"3O    c #B59A63",
"3P    c #524931",
"3Q    c #524D31",
"3R    c #73654A",
"3S    c #9C8639",
"3T    c #292429",
"3U    c #292018",
"3V    c #211C21",
"3W    c #8C865A",
"3X    c #DECB84",
"3Y    c #BDA66B",
"3Z    c #A58E4A",
"3&    c #524D39",
"4     c #9C8231",
"40    c #635D4A",
"41    c #8C7542",
"42    c #A58E42",
"43    c #4A4531",
"44    c #6B5D31",
"45    c #736539",
"46    c #CEB263",
"47    c #C6AA5A",
"48    c #CEAE63",
"49    c #181C21",
"4a    c #182021",
"4b    c #9C8631",
"4c    c #BDA252",
"4d    c #BDA652",
"4e    c #182018",
"4f    c #211C18",
"4g    c #4A454A",
"4h    c #292C21",
"4i    c #8C7942",
"4j    c #847542",
"4k    c #212429",
"4l    c #293029",
"4m    c #212829",
"4n    c #423C42",
"4o    c #42494A",
"4p    c #212821",
"4q    c #293031",
"     0 1 1 1 1 2 2 2 2 3 3 3 3 3 4 4 4 5 6 6 6 7 6 7 7 7 7 8 9 9 a a a a a a a b a a b b a b a a b b b a a a a a a a c 8 9 7 7 7",
" 1 1 1 2 2 2 d 3 3 e f 4 4 5 6 6 6 6 7 7 7 g 8 a a a a b a b b b b b b b b h h h i j h j j b i k b b b b b b b b b b b a a a a c",
" 2 2 l 3 3 4 4 4 m n o p q f 7 7 g c a a a b b b b k r j j j j j j s s s j j s s s s s j s t u v w j i j j j k k x b b b b b a a",
" 3 3 4 4 4 y 6 6 z n A B C D E F G b b H j j j j s s s s s s s s I J K K J K K K K K K K L M N O P Q R S T L j j j j j j j b b b",
" 4 4 U 6 6 6 7 V W n o B C X Y Z &0 0001 s s s K K K K K K K020202 K0202020202020202020203 t04 u050607 R08090a0b0c0d i j j j r j",
" y 6 6 6 7 70e0f0g0h o B C0i Y Z Z & & Z0j0k0l j0202020m0n0o0n0n0n0n0n0n0n0n0n0n0n0n0n0p0q0r050s0t0u0v0w0x0y0z0A0A0B0C0D0E0F0G i",
" 6 6 70H a a0I0J0K0h0L0M0N0i X Y Z Z Z Z Y Y0O0P0Q0R0S0S0n0S0S0S0S0S0S0S0S0S0S0S0S0S0n0T0K0U0V0W0X0Y0Z0&0p1 100z0A11121313141415",
" 7 716 a a17 M0U18190L1a1b1c0i Y Y Z Z Y Y X0O1d1e0S1f1g1h1g0p1i1j051g1g1g1g1g1g1g1g050g0g1k1l0W N O1m1n0n0C020p0y1o1p0B131314 j",
"16 a a a a1q M1r1s0g n1t B0N0O D X Y Y Y X0O0N B1u1g1v1v1v1w1x1y1z1A1B1v1v1v1v1v1v1v0& w1C0f121D0V O1E0X1F R1G1H1I K K0p1B0F0F s",
" a a b b1D O0V1J1k0K0h0L1a B0N0O0i X X D0O C1d1K1L1v1v051M1N1O1P1Q1O1R100&1S1S1S1v1L1T1U1V1W1g1X1Y O071Z1G R080z1n1B0B1&2 0C K0R",
" a b b g07 O20210U1s0g0h0L1a B1d C1c0O1c0N1b22231S1S241x1O252627281O292a2b2c2d1S1S2e0M0L0h031i2f2g1L2h2i1G R082j0Y2k2l0B0B2m0p J",
" a b b v2n1E O0V1r1k182o2p0L1a22 B1b1d1b B0M2q0Z2r2s2t2a2u2v262w2x292626262y0D2d1v1K0M2z2A1v2B1r21 u2C2D0&2g0X2E2F0A2l0B0B2k K K",
" b b032G2n2H O20211r1k0g2o0h0L o1a0M0M0M1a2I2J2K2K2L2M2N2O2P262w2x2a262Q2R2S2T1S0&0G1U2U2V151k1r M2W0W2H072X2Y0t2Z2&3 0E0B3002 K",
" a a31 R322n1E O0V M331k0K340h2p0L0L0L0L0L2p352K2K2K363738392P273a2a3b3c3d3e1S1S3f3g3h121v w3i1r213j0F2H072G R0&0E3k3l3m1g051S1g",
" b3n2j R2G2n2H O3o0V1J333p1s0g19190h0h0h0h3q3r2K2K2K2K2d3s3t3u2w3a3v2S3w2r3x1S Q0N B1a3y123z0G2h2Y3m2n2n2n R3A3B0z0A3C2l3D021v3x",
" g100z3E R322n2H O3o0V1J1r3F1k1s0g0g0g0g0g3G2r3H2r3I2r2d1v0s3J3K3L3M0Z3N2r2r2Z p1d22 o2g3O0K1k0V2c2F2F3j0u083P1&0z0z2l2l3Q021v2d",
"3R3S0z2j08 R322n1E O3o0V211r1r3F1k1k1k1k0I2r2r2r2r2r2r1v1v3T3N3U0Z2r3V3N2r2r2r3W3X1a3Y1W0g183p1r2C3Z2n0x0X3&1g3D3S0z2l4 1h020S2d",
" a b40414208 R2n2n2H O3o0V0V211r1r1r1r1r0X3N3N2r2r2r3N1S3x3N2r2r3N2r2Z2Z2r2r2r2r3N432g0q0g1s0U t2g3o042H07 T3&3 2F2&444502 K0S2d",
" a a b b b401&0v072n2H O O3o200V0V2146473x3N3N3N3N3N3N2Z3N3N3N3N3N3N2Z3x3N3N3N2r3N3N2d0S0r0T4843 T O042n07120x2j0z0D3 0W0n J K1g",
" a a a b b j3x2Z3l1&1m2n2H O O O3o4747453N3N3N3N3N3N3N2Z493N3N3N3N3N3x3T3N3N3N3N3N3N4a0S0n1W0n3x T u042n310p082j0z0z4b3x2d02 s s",
" 7 a a a b0S3x3x3x3x3m3l1&1m2n4c044d1q3m3V0Z0Z4e3V3N2Z0S1g0t49494e4f3x2d3V2Z3V492Z3x1S0n02020n2d2Z3m3l1&1i2f3E2j0z0A3k3x2d0S4g K",
" 7 816 a a0&3x3x3x3x3x3x3x4h3Q4i1m2n4j2Z2Z2Z2Z2Z2Z2Z2Z0n K0n2d2Z2Z2Z3x1S2Z2Z2Z3x1S0S0o K K K0o3x3x2Z2Z3x1S0y0x0A0z0A2h4k2d0n K0S",
" 6 7 7 7 a4l4m4k4k3x3x3x3x3x3x3x4h3Q0s2Z3x2Z3x3x3x2Z3x02 K4g4n0S3x2Z3x0W2Z3x1v0S02 K K K K4o K2d3x3x3x3x2d02 K h1i1n2d2d2d0S s0S",
" 6 7 7 7 s1S2d2d2d2d2d3T3m4m4p3x0t3x3x3x3x3x3x0t3x3x2d J s s s s0n1g2d1v3x1S4n s s s s s s s s021S4p2d2d1v K020n j j0n4q1S0n H K"};
