/* XPM */
static char *TRIANG_xpm[]={
"30 24 631 2",
"      c #5F5F60",
" 0    c #5F5E5E",
" 1    c #5F5D5D",
" 2    c #5C5D5C",
" 3    c #5C5B5C",
" 4    c #5B5B59",
" 5    c #5A5B5B",
" 6    c #5A5B5A",
" 7    c #595A5A",
" 8    c #595858",
" 9    c #595659",
" a    c #585956",
" b    c #565855",
" c    c #585757",
" d    c #565657",
" e    c #555855",
" f    c #555656",
" g    c #555755",
" h    c #555554",
" i    c #545454",
" j    c #545453",
" k    c #535454",
" l    c #535553",
" m    c #535353",
" n    c #535554",
" o    c #5F6060",
" p    c #5E5E5E",
" q    c #5E5E5D",
" r    c #5C5C5C",
" s    c #5B5C5C",
" t    c #5B5A5A",
" u    c #5B5A59",
" v    c #595959",
" w    c #585957",
" x    c #595859",
" y    c #585858",
" z    c #565756",
" A    c #575656",
" B    c #565755",
" C    c #565655",
" D    c #555454",
" E    c #545655",
" F    c #545555",
" G    c #545455",
" H    c #545554",
" I    c #525253",
" J    c #525454",
" K    c #535254",
" L    c #535352",
" M    c #545352",
" N    c #5D5D5D",
" O    c #5D5C5C",
" P    c #5B5B5A",
" Q    c #636364",
" R    c #C2BC8B",
" S    c #C3BB8C",
" T    c #C1BC88",
" U    c #C2B982",
" V    c #C2BC86",
" W    c #C7BF7C",
" X    c #C6BD75",
" Y    c #C3BB67",
" Z    c #C1B15C",
" &    c #C2B35B",
"0     c #BFAD54",
"00    c #BCA64E",
"01    c #BAA54A",
"02    c #B39C43",
"03    c #B6A03F",
"04    c #B29C3E",
"05    c #B19A3D",
"06    c #A08D3D",
"07    c #4F4F4F",
"08    c #4F5050",
"09    c #4F4F50",
"0a    c #504F4F",
"0b    c #595A58",
"0c    c #575957",
"0d    c #565858",
"0e    c #555655",
"0f    c #B19840",
"0g    c #B79B32",
"0h    c #B1982E",
"0i    c #B1992E",
"0j    c #B3992E",
"0k    c #B0972C",
"0l    c #B1972C",
"0m    c #AD9627",
"0n    c #B19629",
"0o    c #AD9625",
"0p    c #AC9423",
"0q    c #A99220",
"0r    c #AF9723",
"0s    c #AE9723",
"0t    c #AA9520",
"0u    c #A28D1A",
"0v    c #AB961E",
"0w    c #C3B353",
"0x    c #D6B438",
"0y    c #716523",
"0z    c #4B4C4C",
"0A    c #4B4C4B",
"0B    c #4C4C4C",
"0C    c #4C4D4C",
"0D    c #4D4C4D",
"0E    c #535453",
"0F    c #505252",
"0G    c #505050",
"0H    c #BA9D38",
"0I    c #A88726",
"0J    c #654F14",
"0K    c #665112",
"0L    c #644F13",
"0M    c #6B5515",
"0N    c #675116",
"0O    c #6B5416",
"0P    c #685315",
"0Q    c #695315",
"0R    c #5E4A13",
"0S    c #675216",
"0T    c #6A5618",
"0U    c #6D5919",
"0V    c #856F24",
"0W    c #F3E0AF",
"0X    c #FEDE69",
"0Y    c #E7B23D",
"0Z    c #6D621D",
"0&    c #474747",
"1     c #474847",
"10    c #474748",
"11    c #484848",
"12    c #494948",
"13    c #4E4E4E",
"14    c #4E4E4D",
"15    c #4B4D4B",
"16    c #4B4B4B",
"17    c #4A494B",
"18    c #B29933",
"19    c #AE8A27",
"1a    c #836927",
"1b    c #896E2D",
"1c    c #816726",
"1d    c #896E2C",
"1e    c #8B702D",
"1f    c #846A28",
"1g    c #876B29",
"1h    c #836827",
"1i    c #7F6425",
"1j    c #7A6020",
"1k    c #826624",
"1l    c #7F6422",
"1m    c #87712E",
"1n    c #E8E5C3",
"1o    c #FCDF62",
"1p    c #E8922A",
"1q    c #EFCE51",
"1r    c #625613",
"1s    c #262627",
"1t    c #424242",
"1u    c #444243",
"1v    c #444443",
"1w    c #444445",
"1x    c #4B494A",
"1y    c #494A49",
"1z    c #484747",
"1A    c #464645",
"1B    c #454644",
"1C    c #B49A35",
"1D    c #A98626",
"1E    c #8C6E28",
"1F    c #92762E",
"1G    c #92752E",
"1H    c #92742D",
"1I    c #91722D",
"1J    c #8E712B",
"1K    c #8D702B",
"1L    c #8B6E2B",
"1M    c #896C28",
"1N    c #866926",
"1O    c #846825",
"1P    c #917A35",
"1Q    c #EBE7CB",
"1R    c #FEDC65",
"1S    c #D58322",
"1T    c #86641B",
"1U    c #EDC74C",
"1V    c #5F5512",
"1W    c #1C1C1C",
"1X    c #323232",
"1Y    c #404040",
"1Z    c #424141",
"1&    c #454646",
"2     c #444442",
"20    c #404141",
"21    c #B09533",
"22    c #A88523",
"23    c #8C6F27",
"24    c #8F722A",
"25    c #8F722C",
"26    c #8E722B",
"27    c #8B702A",
"28    c #8A6D2A",
"29    c #896C27",
"2a    c #876A27",
"2b    c #856926",
"2c    c #947A34",
"2d    c #FEDD6E",
"2e    c #D07F20",
"2f    c #59440C",
"2g    c #886821",
"2h    c #E8C545",
"2i    c #5E5211",
"2j    c #1A1A1B",
"2k    c #323031",
"2l    c #3C3C3D",
"2m    c #3D3D3C",
"2n    c #3E3D3E",
"2o    c #424342",
"2p    c #424241",
"2q    c #3F403F",
"2r    c #3D3C3B",
"2s    c #AC9430",
"2t    c #B19329",
"2u    c #8D6E26",
"2v    c #8D6F28",
"2w    c #8D6F29",
"2x    c #8C6F29",
"2y    c #8A6E27",
"2z    c #8B6E27",
"2A    c #886B26",
"2B    c #876924",
"2C    c #947C35",
"2D    c #ECE6C5",
"2E    c #FDDD62",
"2F    c #D17E20",
"2G    c #58420C",
"2H    c #645013",
"2I    c #A0792B",
"2J    c #E9C145",
"2K    c #5C5211",
"2L    c #1A1919",
"2M    c #2C2D2C",
"2N    c #393938",
"2O    c #393A39",
"2P    c #3A3B3B",
"2Q    c #403F3F",
"2R    c #3E3E3D",
"2S    c #3C3C3C",
"2T    c #3B3A3A",
"2U    c #393939",
"2V    c #A78F2C",
"2W    c #B29129",
"2X    c #876A23",
"2Y    c #8B6E26",
"2Z    c #8A6E26",
"2&    c #886C26",
"3     c #876B24",
"30    c #876A25",
"31    c #937B31",
"32    c #ECE8C2",
"33    c #FDDC70",
"34    c #D2841D",
"35    c #5D450E",
"36    c #664F13",
"37    c #7A5E1D",
"38    c #A07B2A",
"39    c #E6BD3F",
"3a    c #5A4E10",
"3b    c #181818",
"3c    c #2D2C2D",
"3d    c #373737",
"3e    c #363837",
"3f    c #383838",
"3g    c #3B3C3B",
"3h    c #3A393A",
"3i    c #373838",
"3j    c #363735",
"3k    c #A48C2C",
"3l    c #A58221",
"3m    c #856921",
"3n    c #8A6D24",
"3o    c #896D24",
"3p    c #886C24",
"3q    c #876B23",
"3r    c #866B22",
"3s    c #957D30",
"3t    c #EBE6B7",
"3u    c #FDD560",
"3v    c #CB7719",
"3w    c #5A440C",
"3x    c #695314",
"3y    c #7B601D",
"3z    c #79601C",
"3A    c #9F7929",
"3B    c #E5BE3F",
"3C    c #5B4F10",
"3D    c #181718",
"3E    c #2A2929",
"3F    c #353534",
"3G    c #353635",
"3H    c #363637",
"3I    c #3B3C3D",
"3J    c #39393B",
"3K    c #373839",
"3L    c #353737",
"3M    c #333435",
"3N    c #A48C2B",
"3O    c #AD8B27",
"3P    c #876A20",
"3Q    c #896C22",
"3R    c #886B23",
"3S    c #876A21",
"3T    c #866A22",
"3U    c #876921",
"3V    c #957D2D",
"3W    c #ECE490",
"3X    c #FBCA55",
"3Y    c #BF6E15",
"3Z    c #5B460C",
"3&    c #6A5415",
"4     c #7C621D",
"40    c #7B611D",
"41    c #7A601C",
"42    c #9F7828",
"43    c #E0B93C",
"44    c #161716",
"45    c #262626",
"46    c #333333",
"47    c #353334",
"48    c #363536",
"49    c #3B3B3C",
"4a    c #39393A",
"4b    c #363738",
"4c    c #363636",
"4d    c #343433",
"4e    c #A18B2B",
"4f    c #AB8821",
"4g    c #82651F",
"4h    c #886B20",
"4i    c #876B20",
"4j    c #866B21",
"4k    c #866A21",
"4l    c #937C2C",
"4m    c #EBE689",
"4n    c #F4C147",
"4o    c #A65D0F",
"4p    c #5A440B",
"4q    c #6C5717",
"4r    c #7D631C",
"4s    c #7D611B",
"4t    c #79601A",
"4u    c #9B7527",
"4v    c #DFB93D",
"4w    c #594F0F",
"4x    c #161717",
"4y    c #2B2A2A",
"4z    c #323332",
"4A    c #343334",
"4B    c #3B3B3A",
"4C    c #383737",
"4D    c #353537",
"4E    c #353533",
"4F    c #A18A2B",
"4G    c #B6962A",
"4H    c #83661E",
"4I    c #83691F",
"4J    c #856A1F",
"4K    c #85681F",
"4L    c #937A2B",
"4M    c #ECE88C",
"4N    c #FCDA56",
"4O    c #BD6E16",
"4P    c #5D470C",
"4Q    c #675112",
"4R    c #7D621D",
"4S    c #7B611B",
"4T    c #7A5F1A",
"4U    c #9B7627",
"4V    c #D8B437",
"4W    c #584E0E",
"4X    c #161618",
"4Y    c #282828",
"4Z    c #343533",
"4&    c #3C3B3C",
"5     c #353536",
"50    c #9A8629",
"51    c #A8861E",
"52    c #7F641C",
"53    c #82671D",
"54    c #81671E",
"55    c #917A2A",
"56    c #EBE881",
"57    c #FCD94D",
"58    c #CC7E1C",
"59    c #5E480C",
"5a    c #675313",
"5b    c #7D621A",
"5c    c #7C621A",
"5d    c #7B601B",
"5e    c #7B5F19",
"5f    c #785E1A",
"5g    c #9C7626",
"5h    c #D8B337",
"5i    c #594E10",
"5j    c #191819",
"5k    c #2A2B2C",
"5l    c #343534",
"5m    c #363737",
"5n    c #3E3D3D",
"5o    c #3C3D3B",
"5p    c #3B3A3B",
"5q    c #373738",
"5r    c #9A852A",
"5s    c #B59629",
"5t    c #7E641C",
"5u    c #80671D",
"5v    c #8F7A28",
"5w    c #EBE77B",
"5x    c #FEDC50",
"5y    c #D3851E",
"5z    c #5F480C",
"5A    c #6D5713",
"5B    c #7F621A",
"5C    c #7F641B",
"5D    c #7B6119",
"5E    c #7B601A",
"5F    c #7A6019",
"5G    c #795E19",
"5H    c #A07827",
"5I    c #D6B135",
"5J    c #594D0E",
"5K    c #1A191A",
"5L    c #2D2D2D",
"5M    c #373637",
"5N    c #383739",
"5O    c #403F40",
"5P    c #3D3F3E",
"5Q    c #3E3C3D",
"5R    c #3A3939",
"5S    c #99852B",
"5T    c #BFA02F",
"5U    c #7A631A",
"5V    c #8D7927",
"5W    c #EAE775",
"5X    c #FEE350",
"5Y    c #D68A20",
"5Z    c #5E4A0B",
"5&    c #6C5913",
"6     c #7D621B",
"60    c #7E631A",
"61    c #7B611A",
"62    c #7A5F19",
"63    c #795F19",
"64    c #795E18",
"65    c #9D7626",
"66    c #D1AF33",
"67    c #594E0F",
"68    c #1B1B1B",
"69    c #30302F",
"6a    c #3F4141",
"6b    c #3F3F40",
"6c    c #3D3E3F",
"6d    c #3D3D3E",
"6e    c #98842B",
"6f    c #BCA133",
"6g    c #8B7425",
"6h    c #E9E671",
"6i    c #FDE049",
"6j    c #D58A22",
"6k    c #5E4B0D",
"6l    c #675513",
"6m    c #7B631A",
"6n    c #7C631A",
"6o    c #7D6219",
"6p    c #7C611A",
"6q    c #7C6119",
"6r    c #796018",
"6s    c #775E18",
"6t    c #9D7927",
"6u    c #CEAB32",
"6v    c #5D5110",
"6w    c #313130",
"6x    c #3C3B3B",
"6y    c #3D3D3D",
"6z    c #444444",
"6A    c #424443",
"6B    c #414241",
"6C    c #98852A",
"6D    c #B69728",
"6E    c #E9E16C",
"6F    c #FEE24C",
"6G    c #DA9021",
"6H    c #5D4B0D",
"6I    c #685612",
"6J    c #796219",
"6K    c #7B6319",
"6L    c #7B6218",
"6M    c #7A6018",
"6N    c #7A5F18",
"6O    c #795F17",
"6P    c #775E16",
"6Q    c #997624",
"6R    c #CDA831",
"6S    c #5A4E11",
"6T    c #1D1E1D",
"6U    c #323333",
"6V    c #3E3E3C",
"6W    c #3F3E3F",
"6X    c #3F3F3E",
"6Y    c #464748",
"6Z    c #464746",
"6&    c #464545",
"7     c #434543",
"70    c #424344",
"71    c #97832C",
"72    c #CBB93A",
"73    c #FFE549",
"74    c #EA9B27",
"75    c #775D18",
"76    c #897326",
"77    c #998232",
"78    c #998130",
"79    c #997F2D",
"7a    c #987E2B",
"7b    c #9A7B2A",
"7c    c #997A29",
"7d    c #997A27",
"7e    c #987924",
"7f    c #997623",
"7g    c #937223",
"7h    c #927021",
"7i    c #AF8A2F",
"7j    c #C9A731",
"7k    c #5A4F13",
"7l    c #1F2020",
"7m    c #313131",
"7n    c #403F41",
"7o    c #404041",
"7p    c #4B494B",
"7q    c #484948",
"7r    c #494748",
"7s    c #474647",
"7t    c #927F2D",
"7u    c #DEBE31",
"7v    c #F3C754",
"7w    c #F5E2A3",
"7x    c #F5E7A7",
"7y    c #F5E4A6",
"7z    c #F5E8A4",
"7A    c #F6EA9E",
"7B    c #F3E796",
"7C    c #F5E88D",
"7D    c #F3E57E",
"7E    c #F4E574",
"7F    c #F0DD67",
"7G    c #F4DA64",
"7H    c #EED155",
"7I    c #F0D656",
"7J    c #EECD4F",
"7K    c #EDD460",
"7L    c #C2A12D",
"7M    c #5B4F13",
"7N    c #222020",
"7O    c #383738",
"7P    c #434344",
"7Q    c #434545",
"7R    c #4B4C4D",
"7S    c #4A4B4A",
"7T    c #4B4B49",
"7U    c #4A4949",
"7V    c #494949",
"7W    c #4D4B45",
"7X    c #75681F",
"7Y    c #75691D",
"7Z    c #74681F",
"7&    c #756A1C",
"8     c #756B1C",
"80    c #726819",
"81    c #756A19",
"82    c #7B7316",
"83    c #7B7117",
"84    c #7B7015",
"85    c #7B7115",
"86    c #7B7114",
"87    c #7D7414",
"88    c #7C7314",
"89    c #7C7313",
"8a    c #7D7312",
"8b    c #766D14",
"8c    c #242522",
"8d    c #222222",
"8e    c #444646",
"8f    c #474745",
"8g    c #4E4C4D",
"8h    c #4D4C4B",
"8i    c #4A4B4B",
"8j    c #4A4A4A",
"8k    c #494A4A",
"8l    c #292828",
"8m    c #232223",
"8n    c #232224",
"8o    c #222223",
"8p    c #232323",
"8q    c #222224",
"8r    c #232423",
"8s    c #222422",
"8t    c #222324",
"8u    c #242423",
"8v    c #242322",
"8w    c #222323",
"8x    c #242324",
"8y    c #232424",
"8z    c #3C3D3C",
"8A    c #474848",
"8B    c #4C4B4C",
"8C    c #4C4A4A",
"8D    c #494A4C",
"8E    c #4C4B4A",
"8F    c #4B484A",
"8G    c #4A4A48",
"8H    c #232422",
"8I    c #242223",
"8J    c #242422",
"8K    c #222423",
"8L    c #252523",
"8M    c #222523",
"8N    c #252323",
"8O    c #413E3F",
"8P    c #494849",
"8Q    c #484949",
"8R    c #484849",
"   0 0 1 2 3 3 4 5 6 7 8 9 a b c d e f g h i j k l m n i j i",
" o p p q r s t u v w x y z A B C D E F G H k j m I m J K L M",
" N O s P v Q R S T U V W X Y Z &0 00010203040506070708090a09",
"0b0c0d0e h0f0g0h0i0j0k0l0m0n0o0p0q0r0s0t0u0v0w0x0y0z0A0B0C0D",
"0E m0F0G070H0I0J0K0L0M0N0O0P0Q0M0R0S0T0U0V0W0X0Y0Z0&1 101112",
"131415161718191a1b1c1d1e1f1g1h1i1j1k1l1m1n1o1p1q1r1s1t1u1v1w",
"1x1y1z1A1B1C1D1E1F1G1H1I1J1K1L1M1N1O1P1Q1R1S1T1U1V1W1X1Y1Y1Z",
"1&1w2 1t202122232425261J2728292a2b2c1Q2d2e2f2g2h2i2j2k2l2m2n",
"2o2p2q2n2r2s2t2u2v2w2x2y2z292A2B2C2D2E2F2G2H2I2J2K2L2M2N2O2P",
"2Q2R2S2T2U2V2W2X2z232Y2Z2&3 303132333435363738393a3b3c3d3e3f",
"2R3g3h3i3j3k3l3m3n3o3p3 3q3r3s3t3u3v3w3x3y3z3A3B3C3D3E3F3G3H",
"3I3J3K3L3M3N3O3P3Q3R3S3T3U3V3W3X3Y3Z3&4 404142433a4445464748",
"494a4b4c4d4e4f4g4h4i4j4k4l4m4n4o4p4q4r4s414t4u4v4w4x4y4z4A48",
"4B2O4C4D4E4F4G4H4I4J4K4L4M4N4O4P4Q4R4s4S4T4T4U4V4W4X4Y4d4Z4c",
"4&3h2N4b5 505152535455565758595a5b5c4s5d5e5f5g5h5i5j5k5l3G5m",
"5n5o5p2U5q5r5s5t5u5v5w5x5y5z5A5B5C5c5D5E5F5G5H5I5J5K5L485M5N",
"5O5P5Q4&5R5S5T5U5V5W5X5Y5Z5&6 5b60615F62636465666768692N2U2P",
"2p6a6b6c6d6e6f6g6h6i6j6k6l6m6n6o6p6q5D626r6s6t6u6v1W6w6x4&6y",
"6z6A6B201Y6C6D6E6F6G6H6I6J6J6K6L5D6M6N6M6O6P6Q6R6S6T6U6V6W6X",
"6Y6Z6&7 707172737475767778797a7b7c7d7e7f7g7h7i7j7k7l7m7n7o6B",
"7p7q7r0&7s7t7u7v7w7x7y7z7A7B7C7D7E7F7G7H7I7J7K7L7M7N7O7P1v7Q",
"7R7S7T7U7V7W7X7Y7Z7Y7&8 808182838485868788898a8b8c8d3d6&8e8f",
"8g8h8i8j8k7V8l8m8n8o8p8m8q8r8s8o8p8t8u8v8r8d8w8x8u8y8z0&1 8A",
"8B8C8D8E8F8G468x8H8r8w8I8J8y8K8t8p8I8K8m8y8L8M8x8N8L8O8P8Q8R"};
