/* XPM */
static char *CEDGE_xpm[]={
"41 24 615 2",
"      c #686969",
" 0    c #686869",
" 1    c #676868",
" 2    c #666767",
" 3    c #666665",
" 4    c #656464",
" 5    c #646364",
" 6    c #636362",
" 7    c #616162",
" 8    c #626160",
" 9    c #5F605F",
" a    c #5F5E5F",
" b    c #5E5D5D",
" c    c #5E5E5E",
" d    c #5D5E5D",
" e    c #5C5D5C",
" f    c #5A5B5B",
" g    c #5B5B5B",
" h    c #5A5A59",
" i    c #5A5858",
" j    c #595959",
" k    c #595858",
" l    c #585858",
" m    c #575858",
" n    c #575757",
" o    c #575756",
" p    c #565656",
" q    c #565757",
" r    c #565555",
" s    c #5C5D56",
" t    c #5C5B5C",
" u    c #5A5A5B",
" v    c #595B5B",
" w    c #585959",
" x    c #585958",
" y    c #656564",
" z    c #646363",
" A    c #626262",
" B    c #626162",
" C    c #616060",
" D    c #60605F",
" E    c #5D5C5E",
" F    c #5C5C5D",
" G    c #5B5B5A",
" H    c #5B5A5C",
" I    c #5A5959",
" J    c #595A59",
" K    c #585758",
" L    c #565756",
" M    c #575657",
" N    c #555556",
" O    c #545656",
" P    c #535455",
" Q    c #555354",
" R    c #545354",
" S    c #545353",
" T    c #535353",
" U    c #525253",
" V    c #535352",
" W    c #525252",
" X    c #505252",
" Y    c #525251",
" Z    c #515151",
" &    c #515150",
"0     c #525151",
"00    c #525352",
"01    c #515252",
"02    c #525354",
"03    c #5E5F5E",
"04    c #5E5F5D",
"05    c #5D5E5E",
"06    c #5C5C5B",
"07    c #5A5A5A",
"08    c #595A5A",
"09    c #575758",
"0a    c #565658",
"0b    c #555555",
"0c    c #545455",
"0d    c #535354",
"0e    c #525153",
"0f    c #515251",
"0g    c #504F51",
"0h    c #4F4F50",
"0i    c #4E4F4F",
"0j    c #4E4E4E",
"0k    c #4E4D4F",
"0l    c #4D4D4E",
"0m    c #4E4E4D",
"0n    c #4E4D4D",
"0o    c #4D4D4C",
"0p    c #4D4C4D",
"0q    c #4D4E4D",
"0r    c #4D4E4C",
"0s    c #4E4C4E",
"0t    c #4F4E4D",
"0u    c #4D4E4E",
"0v    c #50504E",
"0w    c #504F50",
"0x    c #5C5A5A",
"0y    c #575658",
"0z    c #555655",
"0A    c #555455",
"0B    c #515052",
"0C    c #4F5050",
"0D    c #4E4E50",
"0E    c #4F4E4F",
"0F    c #4D4C4E",
"0G    c #4D4C4C",
"0H    c #4C4B4D",
"0I    c #4B4C4B",
"0J    c #4B4A4B",
"0K    c #4A4A4B",
"0L    c #4A494B",
"0M    c #4A484A",
"0N    c #54554A",
"0O    c #D1D16E",
"0P    c #707143",
"0Q    c #484849",
"0R    c #494848",
"0S    c #494849",
"0T    c #48494A",
"0U    c #494A48",
"0V    c #484A4A",
"0W    c #4A494A",
"0X    c #49494A",
"0Y    c #494B49",
"0Z    c #4B4A4A",
"0&    c #4A4B4B",
"1     c #4C4C4B",
"10    c #575556",
"11    c #545654",
"12    c #535454",
"13    c #525353",
"14    c #505151",
"15    c #504F4E",
"16    c #4D4B4C",
"17    c #4C4B4A",
"18    c #4B4B4B",
"19    c #4A4A4A",
"1a    c #494948",
"1b    c #484948",
"1c    c #474848",
"1d    c #484748",
"1e    c #464647",
"1f    c #464646",
"1g    c #454546",
"1h    c #444644",
"1i    c #454545",
"1j    c #4A4B44",
"1k    c #F2F37C",
"1l    c #BFBF39",
"1m    c #454343",
"1n    c #444444",
"1o    c #454544",
"1p    c #444445",
"1q    c #454646",
"1r    c #464747",
"1s    c #484747",
"1t    c #464848",
"1u    c #494947",
"1v    c #494949",
"1w    c #525051",
"1x    c #4F4D4D",
"1y    c #4D4B4B",
"1z    c #4A4A49",
"1A    c #474847",
"1B    c #484848",
"1C    c #6A674D",
"1D    c #626351",
"1E    c #444344",
"1F    c #434243",
"1G    c #434343",
"1H    c #424242",
"1I    c #414141",
"1J    c #414242",
"1K    c #414041",
"1L    c #3F4141",
"1M    c #403F40",
"1N    c #404141",
"1O    c #41413F",
"1P    c #CECF69",
"1Q    c #E6E54B",
"1R    c #3C3B3C",
"1S    c #3F403F",
"1T    c #404041",
"1U    c #3F4140",
"1V    c #3F4041",
"1W    c #414241",
"1X    c #424243",
"1Y    c #434342",
"1Z    c #444342",
"1&    c #444443",
"2     c #444545",
"20    c #4E4D4E",
"21    c #4D4D4D",
"22    c #4C4B4C",
"23    c #494A4A",
"24    c #454647",
"25    c #464645",
"26    c #444544",
"27    c #424342",
"28    c #837A44",
"29    c #F8F06C",
"2a    c #9A985A",
"2b    c #40403E",
"2c    c #3F3E3E",
"2d    c #3D3E3D",
"2e    c #3D3D3D",
"2f    c #3C3D3E",
"2g    c #3C3C3C",
"2h    c #3C3B3D",
"2i    c #3C3B3A",
"2j    c #8B8B4F",
"2k    c #FFFE65",
"2l    c #42431E",
"2m    c #3A393A",
"2n    c #3C3C3B",
"2o    c #3C3D3C",
"2p    c #3C3D3D",
"2q    c #3D3E3E",
"2r    c #3E3D3D",
"2s    c #3F3E3F",
"2t    c #40403F",
"2u    c #404240",
"2v    c #4A4B4A",
"2w    c #434242",
"2x    c #424141",
"2y    c #3E3E3F",
"2z    c #817541",
"2A    c #FFD04A",
"2B    c #FEDF56",
"2C    c #CEC55C",
"2D    c #535141",
"2E    c #393939",
"2F    c #383839",
"2G    c #383939",
"2H    c #383738",
"2I    c #383737",
"2J    c #393937",
"2K    c #5C5D3D",
"2L    c #FEFE70",
"2M    c #6E7020",
"2N    c #2F3130",
"2O    c #383837",
"2P    c #393938",
"2Q    c #393A3A",
"2R    c #3C3A3A",
"2S    c #3C3C3A",
"2T    c #3D3C3C",
"2U    c #3E3E3C",
"2V    c #3E3D3F",
"2W    c #3F3F3F",
"2X    c #414040",
"2Y    c #474647",
"2Z    c #434341",
"2&    c #414140",
"3     c #3F3F40",
"30    c #3D3C3D",
"31    c #3A3A3B",
"32    c #7D6F3C",
"33    c #FFC443",
"34    c #FE9D2D",
"35    c #FEBC41",
"36    c #F3D454",
"37    c #8E8648",
"38    c #353435",
"39    c #343534",
"3a    c #343434",
"3b    c #333434",
"3c    c #333333",
"3d    c #343533",
"3e    c #323233",
"3f    c #323333",
"3g    c #EBEC78",
"3h    c #C5C530",
"3i    c #212221",
"3j    c #353434",
"3k    c #353634",
"3l    c #353535",
"3m    c #363736",
"3n    c #373836",
"3o    c #373737",
"3p    c #3A3A3A",
"3q    c #3B3C3B",
"3r    c #3C3C3D",
"3s    c #3D3D3E",
"3t    c #454345",
"3u    c #424343",
"3v    c #424241",
"3w    c #3D3F3E",
"3x    c #3B3A3C",
"3y    c #39383A",
"3z    c #373838",
"3A    c #7B6C3A",
"3B    c #FFC742",
"3C    c #FFBF3A",
"3D    c #FA9526",
"3E    c #FE9F2F",
"3F    c #FFC243",
"3G    c #CCAC48",
"3H    c #494734",
"3I    c #31312F",
"3J    c #302F31",
"3K    c #313131",
"3L    c #2F3031",
"3M    c #2F2F30",
"3N    c #2E2F2E",
"3O    c #2F2F2F",
"3P    c #B6B865",
"3Q    c #F7F749",
"3R    c #272718",
"3S    c #303030",
"3T    c #323132",
"3U    c #323232",
"3V    c #333233",
"3W    c #353534",
"3X    c #373636",
"3Y    c #373738",
"3Z    c #383938",
"3&    c #39393A",
"4     c #3B3B3A",
"40    c #434443",
"41    c #404140",
"42    c #3D3C3B",
"43    c #393838",
"44    c #363536",
"45    c #796936",
"46    c #FEC842",
"47    c #FFCB3E",
"48    c #FFC63C",
"49    c #FCA92D",
"4a    c #F58C23",
"4b    c #FAA833",
"4c    c #F2B942",
"4d    c #766537",
"4e    c #2D2E2E",
"4f    c #2E2D2D",
"4g    c #2D2C2C",
"4h    c #2C2B2B",
"4i    c #74743F",
"4j    c #FFFE5F",
"4k    c #565817",
"4l    c #262626",
"4m    c #302F2E",
"4n    c #2F312F",
"4o    c #313132",
"4p    c #353334",
"4q    c #353636",
"4r    c #363738",
"4s    c #393A3B",
"4t    c #404040",
"4u    c #3E3E3E",
"4v    c #3A3B3A",
"4w    c #393839",
"4x    c #363837",
"4y    c #363534",
"4z    c #353333",
"4A    c #796534",
"4B    c #FFC640",
"4C    c #FFCB3D",
"4D    c #FEC93C",
"4E    c #FEC43A",
"4F    c #FFB633",
"4G    c #EB821C",
"4H    c #F59127",
"4I    c #FEAE38",
"4J    c #CA9C3E",
"4K    c #38352C",
"4L    c #2A2A2A",
"4M    c #292929",
"4N    c #292829",
"4O    c #282828",
"4P    c #36372C",
"4Q    c #FEFE6A",
"4R    c #A6A620",
"4S    c #1D1F1F",
"4T    c #2E2E2E",
"4U    c #2E2F2F",
"4V    c #2F2F31",
"4W    c #343233",
"4X    c #373535",
"4Y    c #383937",
"4Z    c #3B3A3B",
"4&    c #3B3B3B",
"5     c #3A3939",
"50    c #353735",
"51    c #343435",
"52    c #333232",
"53    c #776533",
"54    c #FFC43F",
"55    c #FEC93A",
"56    c #FEC63A",
"57    c #FEC339",
"58    c #FFBF37",
"59    c #FCB230",
"5a    c #F4AA42",
"5b    c #FDB240",
"5c    c #EF9221",
"5d    c #7F5D29",
"5e    c #282827",
"5f    c #272827",
"5g    c #CFD05E",
"5h    c #DBDA34",
"5i    c #181717",
"5j    c #2B2C2B",
"5k    c #2D2F2F",
"5l    c #302F30",
"5m    c #333334",
"5n    c #363635",
"5o    c #373637",
"5p    c #383838",
"5q    c #393A39",
"5r    c #3A3A39",
"5s    c #373736",
"5t    c #343334",
"5u    c #786335",
"5v    c #FEC23B",
"5w    c #FEC539",
"5x    c #FEC638",
"5y    c #FFC236",
"5z    c #FEC03A",
"5A    c #FFD069",
"5B    c #FBB142",
"5C    c #C17719",
"5D    c #503C23",
"5E    c #2B2C2C",
"5F    c #2B2A2A",
"5G    c #292A29",
"5H    c #29292A",
"5I    c #A1A24C",
"5J    c #FEFF4F",
"5K    c #313215",
"5L    c #262525",
"5M    c #343436",
"5N    c #363637",
"5O    c #424142",
"5P    c #403F3E",
"5Q    c #343535",
"5R    c #796335",
"5S    c #FFBE39",
"5T    c #FDB932",
"5U    c #FFC637",
"5V    c #FECF53",
"5W    c #FFCF63",
"5X    c #F79E23",
"5Y    c #98621D",
"5Z    c #312F2D",
"5&    c #2D2C2E",
"6     c #2E2E2D",
"60    c #2C2E2E",
"61    c #2C2C2D",
"62    c #2B2B2C",
"63    c #2C2C2C",
"64    c #626238",
"65    c #66651B",
"66    c #202021",
"67    c #312F2F",
"68    c #303131",
"69    c #383638",
"6a    c #3F3F3E",
"6b    c #3E3C3D",
"6c    c #363838",
"6d    c #7B6335",
"6e    c #FFC33F",
"6f    c #FEC439",
"6g    c #FFDA66",
"6h    c #FEC048",
"6i    c #D4891F",
"6j    c #564328",
"6k    c #30312F",
"6l    c #303031",
"6m    c #2F3030",
"6n    c #2F302E",
"6o    c #2E2F30",
"6p    c #F2F25F",
"6q    c #BDBD2A",
"6r    c #181719",
"6s    c #333332",
"6t    c #343433",
"6u    c #363636",
"6v    c #353736",
"6w    c #3A3B3B",
"6x    c #3B3B3C",
"6y    c #434344",
"6z    c #3B3B3D",
"6A    c #7B6437",
"6B    c #FED051",
"6C    c #FFD45B",
"6D    c #F9AE2C",
"6E    c #A66E22",
"6F    c #413A30",
"6G    c #323332",
"6H    c #C6C654",
"6I    c #F0F03C",
"6J    c #191918",
"6K    c #2F2E2E",
"6L    c #373638",
"6M    c #3C3A3B",
"6N    c #464546",
"6O    c #3F4040",
"6P    c #3E3F40",
"6Q    c #3E3F3F",
"6R    c #3A3C3B",
"6S    c #7F6538",
"6T    c #FDB730",
"6U    c #E39824",
"6V    c #6C512D",
"6W    c #353635",
"6X    c #353536",
"6Y    c #808243",
"6Z    c #FFFF51",
"6&    c #54531B",
"7     c #252424",
"70    c #474648",
"71    c #3E403F",
"72    c #7E6539",
"73    c #BB7C26",
"74    c #4A4337",
"75    c #3B3A3A",
"76    c #2D2C2D",
"77    c #393739",
"78    c #57573B",
"79    c #FFFF5A",
"7a    c #A3A222",
"7b    c #1F201F",
"7c    c #3C3E3C",
"7d    c #3E3D3E",
"7e    c #3E4040",
"7f    c #484648",
"7g    c #474545",
"7h    c #464446",
"7i    c #434444",
"7j    c #4B463F",
"7k    c #3E403E",
"7l    c #1E1E1E",
"7m    c #272527",
"7n    c #3B3D3C",
"7o    c #3B3C3C",
"7p    c #3C3B3B",
"7q    c #E6E656",
"7r    c #D3D533",
"7s    c #1D1D1E",
"7t    c #313233",
"7u    c #414142",
"7v    c #4A4849",
"7w    c #454444",
"7x    c #444442",
"7y    c #414342",
"7z    c #1F1E1E",
"7A    c #20201E",
"7B    c #232423",
"7C    c #313133",
"7D    c #403F3F",
"7E    c #3E3F3E",
"7F    c #999948",
"7G    c #8E8E3D",
"7H    c #1F1F1F",
"7I    c #4C4C4C",
"7J    c #4A4949",
"7K    c #484847",
"7L    c #454645",
"7M    c #464644",
"7N    c #202121",
"7O    c #212121",
"7P    c #212120",
"7Q    c #2E2D2E",
"7R    c #424143",
"7S    c #434143",
"7T    c #434142",
"7U    c #232323",
"7V    c #222322",
"7W    c #424443",
"7X    c #444543",
"7Y    c #454344",
"7Z    c #474747",
"7&    c #515050",
"8     c #504E4F",
"80    c #4E4E4F",
"81    c #4C4B4B",
"82    c #494B4A",
"83    c #484A48",
"84    c #474849",
"85    c #474846",
"86    c #232223",
"87    c #212323",
"88    c #252625",
"89    c #454445",
"8a    c #444446",
"8b    c #2C2D2C",
"8c    c #222223",
"8d    c #474646",
"8e    c #464746",
"8f    c #474748",
"8g    c #49484A",
"8h    c #515051",
"8i    c #505050",
"8j    c #4F4E4E",
"8k    c #4D4E4F",
"8l    c #4C4A4A",
"8m    c #414143",
"8n    c #232425",
"8o    c #232424",
"8p    c #242423",
"8q    c #232524",
"8r    c #252325",
"8s    c #272626",
"8t    c #2E2E2F",
"8u    c #464545",
"8v    c #484647",
"8w    c #484947",
"8x    c #373837",
"8y    c #383637",
"8z    c #484949",
"8A    c #484A49",
"8B    c #4B4A49",
"   0 1 2 3 4 5 6 7 8 9 a b c d e e f g h i j k l m n n o o p q n r s t u u v w k x",
" y z A B C D b E F G H I J n K L M N N O P Q R S T U V W W X Y Z & W0  W0 0001 T02",
"03040506 u0708090a o0b0c R0d0e0f Y0g0h0h0h0i0j0k0l0m0n0o0p0o0p0q0o0q0r0s0t0q0u0v0w",
"0x J x0y0z0A0c V W0B0C0D0E0q0F0G0H0I0J0K0K0L0M0N0O0P0Q0Q0R0S0T0U0V0W0X0X0Y0Z0&1 0I",
"101112130 14150j0u161718191a1b1c1d1e1f1e1g1h1i1j1k1l1m1n1o1n1n1p1n1f1q1q1r1s1t1u1v",
" U1w0h1x0G1y0J1z1A1B1C1D1p1E1F1G1H1I1J1K1L1M1N1O1P1Q1R1S1M1T1U1V1T1W1X1Y1Z1&1&2 1f",
"2021220J231d2425262728292a2b2c2d2e2e2f2e2g2h1R2i2j2k2l2m1R2n2o2p2q2r2s2t2t2u1J1X1G",
"2v231b1r1f1m2w2x1N2y2z2A2B2C2D2E2F2G2H2I2J2H2H2H2K2L2M2N2H2O2P2E2Q2R2S2T2U2V2W2W2X",
"1c2Y1i1&2Z2&3 2c303132333435363738393a3b3c3d3e3c3f3g3h3i3j3k3l3m3n3o2P2Q3p3q3r3s2c",
"1q3t3u3v3 3w2e3x3y3z3A3B3C3D3E3F3G3H3I3J3K3L3M3N3O3P3Q3R3S3T3U3V3a3W3X3Y3Z3&4 3q2o",
"401H412W2q423p433z4445464748494a4b4c4d4e4f4g4h4h4h4i4j4k4l4m4n4o3e3b4p4q4r432F4s2n",
"3u4t4t4u424v4w4x4y4z4A4B4C4D4E4F4G4H4I4J4K4L4M4N4O4P4Q4R4S4T4U4V3K3T4W3l4X3X4Y3p4Z",
"27412W304&5 2F505152535455565758595a5b5c5d4N4O5e5f4M5g5h5i5j5k5l5l3T3c5m5n5o5p2E5q",
"1I3 2y2p4Z5r2O5s3l5t5u5v5w5x5y5z5A5B5C5D5E5F5G5H5H4L5I5J5K5L4T3S3K3f3U3a5M5N2P5r4v",
"5O1T5P2U3q314w3o5n5Q5R5S5T5U5V5W5X5Y5Z5&6 6061626163644j656667683T3U5Q5n3m693z5q2m",
"3u1I4t6a6b4&314w6c506d6e6f6g6h6i6j686k6l3M6m6n3M3O6o3S6p6q6r6l6s6t5Q6u6v5s2E2E6w6x",
"6y1G1W3 4u2e6z3p5 436A6B6C6D6E6F5t3c3e5252523U3U6G4o6s6H6I6J6K515n3o6L5p2G3p6M1R2e",
"6N2 3u1I6O6P6Q2T2g6R6S6T6U6V5p4q3X5N6W445n6X6X3W3a3l446Y6Z6&7 5o2I2G5q2m3p2n3r2p2d",
"701r1i401Y1I1T712c3s727374754v3k765p4w2F432G2G773Z434w78797a7b2F4v4Z2n2o7c7d7d7e2t",
"1B1A7f7g7h7i1F5O1I1I7j7k4u7d3s4p7l7m5N7n4&7o7p7o2i4&6w2n7q7r7s7t3s2V2q2W6P2W1K7u1X",
"0I0W7v1d7f256N7w6y7x1X7y1W1K1K387z7A7B7C3w4t7D7E2y7E7E6a7F7G7H4T4t2X411I1W3v3u1G2 ",
"0q7I7I0&237J7K1d2Y7L1f7M7w2 1G3z7N7O7P7O7Q3p3v1Y7R3v7S1W7T307U7V2W7W1n7X7Y7M1f1g7Z",
"7&8 800p7I81182v8283841B1a851B3 7U8686877V881R1F891p1p898a2 8b8c7E258d8e2Y8f1A0Q8g",
" T Z8h0g8i8j8k0n7I0G228l0K19198m7 8n8o8p8q8r8s8t8u8v7K1d0Q8w8x8n8y1a8z8A1v8B0J0Z0&"};
