/* XPM */
static char *SMOOTH_xpm[]={
"30 24 591 2",
"      c #605F5E",
" 0    c #5F5F60",
" 1    c #5D5F5D",
" 2    c #5D5D5F",
" 3    c #5C5C5C",
" 4    c #5B5D5B",
" 5    c #5B5C5C",
" 6    c #595959",
" 7    c #5A585A",
" 8    c #595B5B",
" 9    c #595A5A",
" a    c #585A58",
" b    c #585859",
" c    c #585656",
" d    c #565858",
" e    c #575755",
" f    c #565757",
" g    c #555656",
" h    c #555455",
" i    c #575455",
" j    c #555554",
" k    c #545553",
" l    c #535553",
" m    c #545555",
" n    c #535354",
" o    c #545454",
" p    c #545353",
" q    c #535454",
" r    c #535353",
" s    c #5F605F",
" t    c #5E5F5F",
" u    c #5E5F5E",
" v    c #5E5E5D",
" w    c #5C5D5C",
" x    c #5C5C5B",
" y    c #5A5A5A",
" z    c #595B59",
" A    c #585858",
" B    c #575958",
" C    c #595857",
" D    c #575857",
" E    c #565756",
" F    c #575656",
" G    c #656454",
" H    c #565654",
" I    c #555456",
" J    c #545455",
" K    c #535453",
" L    c #545453",
" M    c #545354",
" N    c #525254",
" O    c #535252",
" P    c #545352",
" Q    c #5D5E5D",
" R    c #5C5C5D",
" S    c #5C5B5C",
" T    c #5B5C5A",
" U    c #5A5959",
" V    c #C39744",
" W    c #CDC15F",
" X    c #A49654",
" Y    c #A8994F",
" Z    c #AC9348",
" &    c #BCA142",
"0     c #C0993B",
"00    c #CBA540",
"01    c #E2AD3B",
"02    c #FAC94D",
"03    c #ADA763",
"04    c #5B5C50",
"05    c #515050",
"06    c #504F51",
"07    c #515051",
"08    c #504F50",
"09    c #4F504F",
"0a    c #4F4F4E",
"0b    c #4E504F",
"0c    c #4F4E4F",
"0d    c #4F4F4F",
"0e    c #50504F",
"0f    c #504F4F",
"0g    c #5A595A",
"0h    c #575858",
"0i    c #585756",
"0j    c #565755",
"0k    c #545554",
"0l    c #DB7F1F",
"0m    c #FCAE45",
"0n    c #FADD79",
"0o    c #D6A440",
"0p    c #C28F39",
"0q    c #A8833B",
"0r    c #977C3F",
"0s    c #846F42",
"0t    c #A08E41",
"0u    c #D19234",
"0v    c #D1B959",
"0w    c #F4E77D",
"0x    c #A6A55F",
"0y    c #57584C",
"0z    c #4C4B4C",
"0A    c #4C4C4B",
"0B    c #4B4B4B",
"0C    c #4B4C4C",
"0D    c #4B4C4B",
"0E    c #4C4C4C",
"0F    c #4C4D4C",
"0G    c #535253",
"0H    c #505252",
"0I    c #4F514F",
"0J    c #4F4E4E",
"0K    c #966531",
"0L    c #D19636",
"0M    c #CF9546",
"0N    c #F6E48C",
"0O    c #AAAB7F",
"0P    c #55564D",
"0Q    c #494A49",
"0R    c #49494A",
"0S    c #8F7A42",
"0T    c #84633D",
"0U    c #484748",
"0V    c #6E6842",
"0W    c #CAAD45",
"0X    c #F2E47B",
"0Y    c #C0C071",
"0Z    c #646349",
"0&    c #464647",
"1     c #464746",
"10    c #484747",
"11    c #474847",
"12    c #474948",
"13    c #484848",
"14    c #4D4E4E",
"15    c #4A4B4B",
"16    c #4B4A4B",
"17    c #494949",
"18    c #9A6327",
"19    c #9A7839",
"1a    c #474545",
"1b    c #866E38",
"1c    c #F1BD55",
"1d    c #F2E8A6",
"1e    c #9B9965",
"1f    c #BBA74B",
"1g    c #D6B143",
"1h    c #9E8435",
"1i    c #58553D",
"1j    c #414243",
"1k    c #424141",
"1l    c #645E3F",
"1m    c #C2AB51",
"1n    c #FFEA72",
"1o    c #CBC96F",
"1p    c #717148",
"1q    c #484844",
"1r    c #424243",
"1s    c #424342",
"1t    c #444443",
"1u    c #434444",
"1v    c #444444",
"1w    c #494B49",
"1x    c #494849",
"1y    c #484847",
"1z    c #464646",
"1A    c #464544",
"1B    c #434344",
"1C    c #AD6B1F",
"1D    c #80673A",
"1E    c #404041",
"1F    c #403F3F",
"1G    c #5D5538",
"1H    c #F7BD44",
"1I    c #F9D26A",
"1J    c #FFF6A1",
"1K    c #EAD75E",
"1L    c #BDA82F",
"1M    c #BEA128",
"1N    c #7B6931",
"1O    c #3C3E3C",
"1P    c #3D3D3C",
"1Q    c #3D3C3C",
"1R    c #55523E",
"1S    c #BA9C3E",
"1T    c #FEDC56",
"1U    c #F2C944",
"1V    c #766537",
"1W    c #3E3E3E",
"1X    c #40403F",
"1Y    c #3F413F",
"1Z    c #414142",
"1&    c #444544",
"2     c #434243",
"20    c #414141",
"21    c #3F4041",
"22    c #3F4040",
"23    c #AC681C",
"24    c #5F4A39",
"25    c #3B3D3C",
"26    c #424038",
"27    c #9D8D27",
"28    c #FCEB90",
"29    c #FDF3D2",
"2a    c #F5BD5E",
"2b    c #FDD984",
"2c    c #EBE77C",
"2d    c #B1A42B",
"2e    c #A28D1B",
"2f    c #726528",
"2g    c #383737",
"2h    c #5D5C3C",
"2i    c #A18A37",
"2j    c #CA9326",
"2k    c #D8901F",
"2l    c #C7761F",
"2m    c #483F36",
"2n    c #3B3A3B",
"2o    c #3C3B3C",
"2p    c #3D3E3D",
"2q    c #3F3D3D",
"2r    c #424140",
"2s    c #3F3F40",
"2t    c #3D3D3E",
"2u    c #3D3B3C",
"2v    c #3A3B3A",
"2w    c #BA7422",
"2x    c #554C38",
"2y    c #373836",
"2z    c #5F5B22",
"2A    c #7E600E",
"2B    c #897F20",
"2C    c #C6B963",
"2D    c #F4D673",
"2E    c #CAA432",
"2F    c #EEAC3B",
"2G    c #FCD86A",
"2H    c #F0D744",
"2I    c #D5D241",
"2J    c #C39B31",
"2K    c #C9851C",
"2L    c #90571B",
"2M    c #54452F",
"2N    c #E5BA41",
"2O    c #5E462B",
"2P    c #373737",
"2Q    c #383839",
"2R    c #393939",
"2S    c #393A39",
"2T    c #3B3B3B",
"2U    c #3F3D3E",
"2V    c #3C3D3C",
"2W    c #3B393B",
"2X    c #383838",
"2Y    c #363837",
"2Z    c #C2741D",
"2&    c #414133",
"3     c #343233",
"30    c #7B6118",
"31    c #6F650C",
"32    c #605903",
"33    c #5B5401",
"34    c #8D731A",
"35    c #B9832A",
"36    c #856C14",
"37    c #DA891D",
"38    c #E8891B",
"39    c #D6891F",
"3a    c #7B511D",
"3b    c #39332F",
"3c    c #313131",
"3d    c #787342",
"3e    c #C17F22",
"3f    c #323334",
"3g    c #343433",
"3h    c #363536",
"3i    c #373736",
"3j    c #383837",
"3k    c #383938",
"3l    c #3C3E3D",
"3m    c #3A3A3A",
"3n    c #353635",
"3o    c #3A3634",
"3p    c #C87418",
"3q    c #323032",
"3r    c #2F302F",
"3s    c #816316",
"3t    c #86771C",
"3u    c #71671A",
"3v    c #676606",
"3w    c #6C6505",
"3x    c #766A0A",
"3y    c #A56E1E",
"3z    c #9F7416",
"3A    c #D37A14",
"3B    c #B26B11",
"3C    c #4C4628",
"3D    c #2B2C2D",
"3E    c #2D2D2D",
"3F    c #C59E3C",
"3G    c #6A4722",
"3H    c #303031",
"3I    c #323132",
"3J    c #323332",
"3K    c #343535",
"3L    c #343536",
"3M    c #373636",
"3N    c #3C3B3B",
"3O    c #3B393A",
"3P    c #373637",
"3Q    c #353433",
"3R    c #403830",
"3S    c #B7731E",
"3T    c #2F2F2F",
"3U    c #2C2E2D",
"3V    c #695D14",
"3W    c #80711D",
"3X    c #736719",
"3Y    c #6B601C",
"3Z    c #626408",
"3&    c #696703",
"4     c #8B6513",
"40    c #B9891D",
"41    c #B8690D",
"42    c #5D5304",
"43    c #413B27",
"44    c #2A2A2A",
"45    c #5A5938",
"46    c #CE8924",
"47    c #36302B",
"48    c #2E2F2F",
"49    c #313030",
"4a    c #313232",
"4b    c #343333",
"4c    c #353636",
"4d    c #39393A",
"4e    c #383836",
"4f    c #363435",
"4g    c #333534",
"4h    c #503D2A",
"4i    c #B67825",
"4j    c #3B3C35",
"4k    c #756D40",
"4l    c #B78E34",
"4m    c #806E18",
"4n    c #6A6016",
"4o    c #645A1C",
"4p    c #625C15",
"4q    c #957917",
"4r    c #756A09",
"4s    c #CE8B20",
"4t    c #9D6609",
"4u    c #69590A",
"4v    c #29282A",
"4w    c #2A2A2B",
"4x    c #B9A747",
"4y    c #764C1C",
"4z    c #2E2E2E",
"4A    c #2F3130",
"4B    c #313130",
"4C    c #333333",
"4D    c #333434",
"4E    c #3A3B3B",
"4F    c #333535",
"4G    c #A67933",
"4H    c #E48E2D",
"4I    c #C99B42",
"4J    c #74552E",
"4K    c #35322A",
"4L    c #846F20",
"4M    c #73681C",
"4N    c #675B1F",
"4O    c #665D1A",
"4P    c #A6771F",
"4Q    c #8D8617",
"4R    c #BE6F11",
"4S    c #826506",
"4T    c #4D3E23",
"4U    c #2B2A2C",
"4V    c #38362C",
"4W    c #CE9027",
"4X    c #36312C",
"4Y    c #2F2E2E",
"4Z    c #2F2F30",
"4&    c #313332",
"5     c #333234",
"50    c #343534",
"51    c #3B3A3A",
"52    c #393938",
"53    c #383637",
"54    c #363537",
"55    c #8D5B21",
"56    c #DA9231",
"57    c #9E9C63",
"58    c #33342C",
"59    c #7E7423",
"5a    c #AD8C28",
"5b    c #917B19",
"5c    c #AA7E1C",
"5d    c #C39F2F",
"5e    c #B0680B",
"5f    c #634A1F",
"5g    c #B97320",
"5h    c #574127",
"5i    c #95722A",
"5j    c #804F18",
"5k    c #2F3030",
"5l    c #323233",
"5m    c #353535",
"5n    c #363636",
"5o    c #363736",
"5p    c #3E3D3D",
"5q    c #3B3C3D",
"5r    c #3C3734",
"5s    c #C59C57",
"5t    c #B2B092",
"5u    c #393933",
"5v    c #313133",
"5w    c #323232",
"5x    c #424029",
"5y    c #58531C",
"5z    c #565015",
"5A    c #C68922",
"5B    c #6E4415",
"5C    c #1A1B1B",
"5D    c #29231B",
"5E    c #BC771F",
"5F    c #E58324",
"5G    c #483016",
"5H    c #272927",
"5I    c #353334",
"5J    c #353435",
"5K    c #363535",
"5L    c #373837",
"5M    c #383937",
"5N    c #3F3F3F",
"5O    c #3C3D3D",
"5P    c #3C3C3B",
"5Q    c #3A3A39",
"5R    c #AC894B",
"5S    c #D2CF95",
"5T    c #42423C",
"5U    c #585237",
"5V    c #C17914",
"5W    c #3D2C1A",
"5X    c #272727",
"5Y    c #584423",
"5Z    c #C27A1B",
"5&    c #8E4E15",
"6     c #221E19",
"60    c #1D1C1D",
"61    c #333231",
"62    c #363635",
"63    c #383738",
"64    c #383A3A",
"65    c #414241",
"66    c #404040",
"67    c #3D3E3F",
"68    c #3D3D3D",
"69    c #877144",
"6a    c #E4DB8E",
"6b    c #5D5E48",
"6c    c #393838",
"6d    c #8D7233",
"6e    c #A25E11",
"6f    c #2B2B26",
"6g    c #926D26",
"6h    c #C4731A",
"6i    c #513F2D",
"6j    c #202020",
"6k    c #1D1B1C",
"6l    c #242526",
"6m    c #363737",
"6n    c #393A3A",
"6o    c #3B3C3B",
"6p    c #3D3B3D",
"6q    c #454345",
"6r    c #444243",
"6s    c #424143",
"6t    c #414140",
"6u    c #3F403F",
"6v    c #3D3E3E",
"6w    c #826638",
"6x    c #EADB8F",
"6y    c #6C6C55",
"6z    c #B87B27",
"6A    c #90621B",
"6B    c #BF7E25",
"6C    c #A86014",
"6D    c #40362B",
"6E    c #282929",
"6F    c #1F1F1F",
"6G    c #252526",
"6H    c #242423",
"6I    c #3C3C3C",
"6J    c #3E3E3D",
"6K    c #3E3F3F",
"6L    c #474746",
"6M    c #464645",
"6N    c #454544",
"6O    c #454445",
"6P    c #434342",
"6Q    c #404140",
"6R    c #40413F",
"6S    c #403F41",
"6T    c #69573B",
"6U    c #ECD37E",
"6V    c #A3A163",
"6W    c #BF6C0D",
"6X    c #E79A28",
"6Y    c #985E20",
"6Z    c #3A3834",
"6&    c #232325",
"7     c #2E2E2D",
"70    c #222221",
"71    c #333334",
"72    c #242425",
"73    c #494A4B",
"74    c #4A4A48",
"75    c #474949",
"76    c #454546",
"77    c #444644",
"78    c #454443",
"79    c #434343",
"7a    c #63533D",
"7b    c #E6A747",
"7c    c #D6791D",
"7d    c #784D21",
"7e    c #434142",
"7f    c #303030",
"7g    c #202221",
"7h    c #3F3E3F",
"7i    c #292728",
"7j    c #343432",
"7k    c #424343",
"7l    c #4B494A",
"7m    c #484A4A",
"7n    c #494948",
"7o    c #474748",
"7p    c #474547",
"7q    c #454545",
"7r    c #AE6723",
"7s    c #A2621A",
"7t    c #292B2A",
"7u    c #454444",
"7v    c #3E3D3E",
"7w    c #2B2B2C",
"7x    c #222223",
"7y    c #3D3C3E",
"7z    c #444345",
"7A    c #3E3E3F",
"7B    c #292928",
"7C    c #4D4D4D",
"7D    c #4D4D4C",
"7E    c #4A4B4A",
"7F    c #4A4A4A",
"7G    c #484949",
"7H    c #494848",
"7I    c #474747",
"7J    c #4C4946",
"7K    c #302F30",
"7L    c #454646",
"7M    c #454645",
"7N    c #2B2B2B",
"7O    c #292929",
"7P    c #232324",
"7Q    c #3C3A3B",
"7R    c #282729",
"7S    c #383939",
"7T    c #464847",
"7U    c #4C4A4C",
"7V    c #4C4A4A",
"7W    c #4B484A",
"7X    c #4A484A",
"7Y    c #494A4A",
"7Z    c #494749",
"7&    c #484849",
"8     c #494846",
"80    c #484948",
"81    c #2C2C2B",
"82    c #484546",
"83    c #464648",
"84    c #484645",
"85    c #323131",
"86    c #282827",
"87    c #232323",
"88    c #252525",
"89    c #474947",
"8a    c #474848",
"8b    c #494748",
"8c    c #3B3B38",
"8d    c #252626",
"   0 1 2 3 4 5 6 7 8 9 a b c d e f g g h i j k l m n o p q r",
" s t u v w x y z A B 6 C D E F G h H I J K p L M N n O L P r",
" Q R S T 6 U V W X Y Z &0 000102030405060708090a0b0b0c0d0e0f",
"0g0h0i0j0k o0l0m0n0o0p0q0r0s0t0u0v0w0x0y0z0A0B0C0D0B0A0C0E0F",
" M0G0H0I0c0J0K0L0M0N0O0P0Q0R0S0T0U0V0W0X0Y0Z0&1 0&101 111213",
"09140E15161718191a1b1c1d1e1f1g1h1i1j1k1l1m1n1o1p1q1r1s1t1u1v",
"1w1x1y1z1A1B1C1D1E1F1G1H1I1J1K1L1M1N1O1P1Q1R1S1T1U1V1W1X1Y1Z",
"1 1&2 202122232425262728292a2b2c2d2e2f2g2h2i2j2k2l2m2n2o2p2q",
"1s2r2s2t2u2v2w2x2y2z2A2B2C2D2E2F2G2H2I2J2K2L2M2N2O2P2Q2R2S2T",
"222U2V2W2X2Y2Z2&3 303132333435363738393a3b3c3d3e3f3g3h3i3j3k",
"3l3m3m2P3n3o3p3q3r3s3t3u3v3w3x3y3z3A3B3C3D3E3F3G3H3I3J3K3L3M",
"3N3O2g3P3Q3R3S3T3U3V3W3X3Y3Z3&4 404142434445464748494a3 4b4c",
"2v4d4e4f4g4h4i4j4k4l4m4n4o4p4q4r4s4t4u4v4w4x4y4z3T4A4B4C4D4c",
"4E3m2X3M4F4G4H4I4J4K4L4M4N4O4P4Q4R4S4T4U4V4W4X4Y4Z4B4&5 503n",
"2o51525354555657493r58595a5b5c5d5e5f5g5h5i5j4Y5k3c3J5l5m5n5o",
"5p5q513k2g3P5r5s5t5u5v5w5x5y5z5A5B5C5D5E5F5G5H5l3 5I5J5K5L5M",
"1F5N5O5P2n5Q2X3P5R5S5T5n5m5J5U5V5W5X5Y5Z5&6 6061625o6363645Q",
"65226667682o2T513m696a6b526c6d6e6f6g6h6i3f6j6k6l6m6n3m4E6o6p",
"6q6r6s1k6t2s6u6v6v5O6w6x6y2o6z6A6B6C6D6o2T6E6F6G6H2T6I6J6J6K",
"6L6M6N6O6P1r1s2r6Q6R6S6T6U6V6W6X6Y6Z6&506v7 7071723H5N6t6Q20",
"7374750U0&7677781u1t1s797a7b7c7d657e2Q5X5Q7f7g7h1P7i7j1u7k6O",
"0D0B7l7m7n137o1y7p7p7q7q777r7s7t1t7u1&7v7w2P7x7y7z7A7B2T6M0&",
"7C7D0C7E7F0Q7G7F7H137n7I7I7J3T7K6M7L7M6K7N7O7P7v1z767Q7R7S7T",
"0C7U7V7E7W7X7Y7G7Z177&7n8 80812o828384858687885L898a8b8c8d65"};
