/* XPM */
static char *MIRROR_xpm[]={
"30 24 591 2",
"      c #605F5E",
" 0    c #5E605F",
" 1    c #5E5F5E",
" 2    c #5D5F5F",
" 3    c #5D5C5C",
" 4    c #5D5B5D",
" 5    c #5C5C5B",
" 6    c #5B5B59",
" 7    c #585B5A",
" 8    c #5A5B5A",
" 9    c #59595A",
" a    c #595959",
" b    c #5B585A",
" c    c #7B6653",
" d    c #F58532",
" e    c #E47D34",
" f    c #595A59",
" g    c #585857",
" h    c #565655",
" i    c #575555",
" j    c #575455",
" k    c #545455",
" l    c #545553",
" m    c #545555",
" n    c #545554",
" o    c #545453",
" p    c #535453",
" q    c #535353",
" r    c #60605F",
" s    c #5F5E5E",
" t    c #5F5F5E",
" u    c #5E5D5E",
" v    c #5D5D5D",
" w    c #5B5B5B",
" x    c #5B5A5A",
" y    c #575759",
" z    c #595859",
" A    c #585757",
" B    c #595858",
" C    c #776050",
" D    c #F98531",
" E    c #E37B34",
" F    c #575756",
" G    c #555655",
" H    c #565555",
" I    c #555454",
" J    c #535354",
" K    c #545354",
" L    c #545353",
" M    c #535352",
" N    c #525353",
" O    c #525454",
" P    c #5B5C5B",
" Q    c #5A595A",
" R    c #585758",
" S    c #565856",
" T    c #6D6C57",
" U    c #8C8B7B",
" V    c #ACA77F",
" W    c #706D58",
" X    c #735D4C",
" Y    c #FC832F",
" Z    c #E57A32",
" &    c #6D664D",
"0     c #A08E47",
"00    c #857A45",
"01    c #676147",
"02    c #50504F",
"03    c #4F504E",
"04    c #4F4F50",
"05    c #4F4F4F",
"06    c #4F5050",
"07    c #504F50",
"08    c #504F4F",
"09    c #585858",
"0a    c #575757",
"0b    c #565757",
"0c    c #535253",
"0d    c #7C7A62",
"0e    c #D1C78E",
"0f    c #D9C974",
"0g    c #BBA538",
"0h    c #AB9324",
"0i    c #6D633E",
"0j    c #6F5849",
"0k    c #FE812D",
"0l    c #E7782F",
"0m    c #4A4A4B",
"0n    c #796C3A",
"0o    c #A48D20",
"0p    c #B29826",
"0q    c #C1A22D",
"0r    c #A89130",
"0s    c #676141",
"0t    c #4C4C4B",
"0u    c #4C4B4B",
"0v    c #4B4C4C",
"0w    c #4B4C4B",
"0x    c #4C4C4C",
"0y    c #4C4D4C",
"0z    c #4D4C4D",
"0A    c #545454",
"0B    c #525152",
"0C    c #505050",
"0D    c #4F4E4F",
"0E    c #52514D",
"0F    c #B5A658",
"0G    c #D2B94A",
"0H    c #A48919",
"0I    c #7A6E21",
"0J    c #554E25",
"0K    c #3E3825",
"0L    c #292A26",
"0M    c #634C3B",
"0N    c #FE7F2C",
"0O    c #E17129",
"0P    c #232323",
"0Q    c #31302A",
"0R    c #343122",
"0S    c #4A4220",
"0T    c #726320",
"0U    c #A3862A",
"0V    c #BE9C26",
"0W    c #8B7B2F",
"0X    c #4A4A45",
"0Y    c #474847",
"0Z    c #474747",
"0&    c #484848",
"1     c #494847",
"10    c #4A4849",
"11    c #4E504F",
"12    c #4E4C4D",
"13    c #4C4D4D",
"14    c #4A4A4C",
"15    c #504E49",
"16    c #BDA54B",
"17    c #BAA029",
"18    c #8B721D",
"19    c #3B3624",
"1a    c #1E1E1E",
"1b    c #1C1D1E",
"1c    c #1D1D1D",
"1d    c #1C1D1C",
"1e    c #4E3626",
"1f    c #FD7B2A",
"1g    c #DE6C26",
"1h    c #1E1D1C",
"1i    c #1D1C1D",
"1j    c #20201F",
"1k    c #1D1D1C",
"1l    c #1C1C1D",
"1m    c #2D2A1C",
"1n    c #8C7220",
"1o    c #B6952C",
"1p    c #938126",
"1q    c #464441",
"1r    c #434342",
"1s    c #434343",
"1t    c #434544",
"1u    c #454544",
"1v    c #4B4B4B",
"1w    c #49494A",
"1x    c #484747",
"1y    c #454746",
"1z    c #97843E",
"1A    c #BE9A27",
"1B    c #7C651C",
"1C    c #21201C",
"1D    c #1C1B1C",
"1E    c #1B1C1B",
"1F    c #1B1B1B",
"1G    c #1C1C1B",
"1H    c #46301F",
"1I    c #F77727",
"1J    c #D86A25",
"1K    c #1C1B1A",
"1L    c #1B1C1C",
"1M    c #1E1D1D",
"1N    c #201E1A",
"1O    c #816A24",
"1P    c #B8972C",
"1Q    c #74672A",
"1R    c #3F3F40",
"1S    c #3F403F",
"1T    c #403F40",
"1U    c #424241",
"1V    c #464647",
"1W    c #454445",
"1X    c #434243",
"1Y    c #5D583D",
"1Z    c #CAA82E",
"1&    c #8D7318",
"2     c #25251C",
"20    c #1A1A1B",
"21    c #191A1A",
"22    c #1B1C1D",
"23    c #202020",
"24    c #2B2B2B",
"25    c #323132",
"26    c #594333",
"27    c #EF7224",
"28    c #D16723",
"29    c #1A1B19",
"2a    c #333233",
"2b    c #323233",
"2c    c #312F30",
"2d    c #262727",
"2e    c #1F1F1A",
"2f    c #9E7F26",
"2g    c #AF9422",
"2h    c #4B4933",
"2i    c #3C3B3C",
"2j    c #3C3D3C",
"2k    c #3D3E3E",
"2l    c #434242",
"2m    c #414241",
"2n    c #3E4040",
"2o    c #9B8433",
"2p    c #B18E20",
"2q    c #3C331B",
"2r    c #181819",
"2s    c #171818",
"2t    c #1D1C1C",
"2u    c #2D2D2D",
"2v    c #363636",
"2w    c #353535",
"2x    c #343535",
"2y    c #563F31",
"2z    c #E56F22",
"2A    c #C96221",
"2B    c #19181A",
"2C    c #181919",
"2D    c #191818",
"2E    c #303130",
"2F    c #343433",
"2G    c #343434",
"2H    c #514622",
"2I    c #CEA637",
"2J    c #736621",
"2K    c #3A3839",
"2L    c #393A39",
"2M    c #3B3B3A",
"2N    c #404040",
"2O    c #3D3D3D",
"2P    c #44423A",
"2Q    c #BD9D2B",
"2R    c #9A7D21",
"2S    c #191919",
"2T    c #181817",
"2U    c #2E2F30",
"2V    c #323231",
"2W    c #313131",
"2X    c #313130",
"2Y    c #503C2D",
"2Z    c #D96A20",
"2&    c #BE5D1F",
"3     c #171717",
"30    c #181718",
"31    c #2A2B2A",
"32    c #302F30",
"33    c #313031",
"34    c #313132",
"35    c #333132",
"36    c #313231",
"37    c #B88E36",
"38    c #9C841A",
"39    c #313332",
"3a    c #373637",
"3b    c #393937",
"3c    c #3D3E3C",
"3d    c #3A3A3B",
"3e    c #534D33",
"3f    c #BE9E27",
"3g    c #6C5218",
"3h    c #161716",
"3i    c #2C2C2D",
"3j    c #2E2E2D",
"3k    c #2D2E2E",
"3l    c #2C2B2B",
"3m    c #4B3729",
"3n    c #CC651F",
"3o    c #B3591D",
"3p    c #171617",
"3q    c #151515",
"3r    c #181716",
"3s    c #282A29",
"3t    c #2D2D2E",
"3u    c #303030",
"3v    c #9A7B31",
"3w    c #BB9829",
"3x    c #332F19",
"3y    c #363536",
"3z    c #363736",
"3A    c #3B3B3C",
"3B    c #554F34",
"3C    c #BC9925",
"3D    c #594718",
"3E    c #161515",
"3F    c #282829",
"3G    c #302E2F",
"3H    c #2D2E2D",
"3I    c #2C2B2C",
"3J    c #2A2A2A",
"3K    c #292A2A",
"3L    c #292928",
"3M    c #463427",
"3N    c #C15F1D",
"3O    c #A9561B",
"3P    c #151415",
"3Q    c #141514",
"3R    c #151414",
"3S    c #282627",
"3T    c #2A292A",
"3U    c #2C2C2C",
"3V    c #2F2E2F",
"3W    c #302F2E",
"3X    c #816931",
"3Y    c #CFAC30",
"3Z    c #343014",
"3&    c #2E2F2E",
"4     c #353635",
"40    c #3B3B3B",
"41    c #39393A",
"42    c #574F32",
"43    c #BC9926",
"44    c #5C4B17",
"45    c #2F2F2F",
"46    c #29292A",
"47    c #453227",
"48    c #BD5D1C",
"49    c #A7541B",
"4a    c #161616",
"4b    c #141414",
"4c    c #141314",
"4d    c #282728",
"4e    c #292A29",
"4f    c #2B2B2C",
"4g    c #2D2D2B",
"4h    c #2E2D2D",
"4i    c #2E302F",
"4j    c #856D31",
"4k    c #D3AD33",
"4l    c #302D15",
"4m    c #262726",
"4n    c #363635",
"4o    c #3B3A3C",
"4p    c #393939",
"4q    c #4C4931",
"4r    c #BD9B29",
"4s    c #79641B",
"4t    c #242425",
"4u    c #2F302F",
"4v    c #2E2D2F",
"4w    c #2C2D2D",
"4x    c #2B2C2B",
"4y    c #473529",
"4z    c #C35F1C",
"4A    c #A8531B",
"4B    c #161615",
"4C    c #151514",
"4D    c #2A2B2C",
"4E    c #2E2D2E",
"4F    c #2E3030",
"4G    c #A28639",
"4H    c #C7A42C",
"4I    c #292715",
"4J    c #1F2120",
"4K    c #3B3A37",
"4L    c #B19524",
"4M    c #A28421",
"4N    c #303031",
"4O    c #4C382B",
"4P    c #C9601B",
"4Q    c #B2581B",
"4R    c #171716",
"4S    c #161717",
"4T    c #272727",
"4U    c #2F2F2E",
"4V    c #313030",
"4W    c #D7BB49",
"4X    c #A3861F",
"4Y    c #1E1D18",
"4Z    c #363737",
"4&    c #3D3D3E",
"5     c #3C3C3B",
"50    c #393A3A",
"51    c #807225",
"52    c #CDA62F",
"53    c #534D2D",
"54    c #353334",
"55    c #343233",
"56    c #333133",
"57    c #323131",
"58    c #313232",
"59    c #4F3A2D",
"5a    c #D0621A",
"5b    c #B7581A",
"5c    c #191819",
"5d    c #181719",
"5e    c #303131",
"5f    c #323130",
"5g    c #333232",
"5h    c #5A5336",
"5i    c #F5DC56",
"5j    c #675813",
"5k    c #1A1A1A",
"5l    c #343436",
"5m    c #3F3F3F",
"5n    c #3E3F3F",
"5o    c #3D3C3C",
"5p    c #4B4934",
"5q    c #BC9D2C",
"5r    c #BB9C30",
"5s    c #383738",
"5t    c #383736",
"5u    c #353735",
"5v    c #343536",
"5w    c #533E2F",
"5x    c #D5651A",
"5y    c #BD5B1A",
"5z    c #1A1B1B",
"5A    c #353534",
"5B    c #343534",
"5C    c #353536",
"5D    c #CDBF5C",
"5E    c #C0A431",
"5F    c #302C16",
"5G    c #1F1E1E",
"5H    c #373737",
"5I    c #414142",
"5J    c #404041",
"5K    c #3F3E3E",
"5L    c #6C5F25",
"5M    c #D9AC3B",
"5N    c #A58C36",
"5O    c #393A3B",
"5P    c #383939",
"5Q    c #383938",
"5R    c #574033",
"5S    c #D8661A",
"5T    c #BF5B1B",
"5U    c #1C1C1C",
"5V    c #1B1B1A",
"5W    c #343533",
"5X    c #383838",
"5Y    c #373839",
"5Z    c #ADA55A",
"5&    c #E7D05D",
"6     c #695B10",
"60    c #212222",
"61    c #444443",
"62    c #424343",
"63    c #424142",
"64    c #414242",
"65    c #31312E",
"66    c #847023",
"67    c #E2BA41",
"68    c #C5A63D",
"69    c #49463D",
"6a    c #3C3C3C",
"6b    c #3B3C3B",
"6c    c #5A4334",
"6d    c #DA661B",
"6e    c #BF5B1A",
"6f    c #1E1E1C",
"6g    c #3B3A3B",
"6h    c #48453B",
"6i    c #BCB466",
"6j    c #EBD86F",
"6k    c #816E14",
"6l    c #24231D",
"6m    c #1D1E1E",
"6n    c #1F1F1F",
"6o    c #282929",
"6p    c #3F3F3E",
"6q    c #464748",
"6r    c #464746",
"6s    c #464545",
"6t    c #434443",
"6u    c #25251E",
"6v    c #7A6C20",
"6w    c #D0B237",
"6x    c #F0D851",
"6y    c #9F924D",
"6z    c #635D40",
"6A    c #45443F",
"6B    c #5D4738",
"6C    c #DB6619",
"6D    c #C15C1B",
"6E    c #1F1E1F",
"6F    c #1E1E1F",
"6G    c #5F5B3B",
"6H    c #9E9963",
"6I    c #EAE191",
"6J    c #D6B859",
"6K    c #786812",
"6L    c #29271F",
"6M    c #1F201F",
"6N    c #424042",
"6O    c #4B494B",
"6P    c #484948",
"6Q    c #494748",
"6R    c #474647",
"6S    c #202021",
"6T    c #4C481D",
"6U    c #978125",
"6V    c #D1B847",
"6W    c #EFE06F",
"6X    c #F7E882",
"6Y    c #7C7650",
"6Z    c #5F483B",
"6&    c #DE661A",
"7     c #C25B19",
"70    c #212021",
"71    c #6E6433",
"72    c #F5E46A",
"73    c #EBDE7E",
"74    c #CFB850",
"75    c #968318",
"76    c #534D19",
"77    c #222322",
"78    c #222120",
"79    c #202122",
"7a    c #222221",
"7b    c #3F4040",
"7c    c #444444",
"7d    c #4B4B4A",
"7e    c #4B494A",
"7f    c #494A49",
"7g    c #484849",
"7h    c #484749",
"7i    c #2C2D2C",
"7j    c #222223",
"7k    c #252422",
"7l    c #3A3720",
"7m    c #5C551D",
"7n    c #71651C",
"7o    c #4F492E",
"7p    c #624B3C",
"7q    c #DD651A",
"7r    c #C35C1A",
"7s    c #473F1E",
"7t    c #6B6518",
"7u    c #635D14",
"7v    c #3F3E1C",
"7w    c #272725",
"7x    c #242424",
"7y    c #232223",
"7z    c #252525",
"7A    c #3A3C3A",
"7B    c #444446",
"7C    c #464646",
"7D    c #4E4D4C",
"7E    c #4C4B4A",
"7F    c #4A4A4A",
"7G    c #494949",
"7H    c #48494A",
"7I    c #454645",
"7J    c #2B2A2A",
"7K    c #232224",
"7L    c #543D31",
"7M    c #C45D1A",
"7N    c #232524",
"7O    c #222422",
"7P    c #232423",
"7Q    c #242423",
"7R    c #242222",
"7S    c #272626",
"7T    c #444445",
"7U    c #4C4B4C",
"7V    c #4C4A4A",
"7W    c #494A4C",
"7X    c #4B484A",
"7Y    c #4A4A48",
"7Z    c #4A4949",
"7&    c #424244",
"8     c #222323",
"80    c #252223",
"81    c #252523",
"82    c #583D2B",
"83    c #D56317",
"84    c #C45D19",
"85    c #262326",
"86    c #252424",
"87    c #232322",
"88    c #242223",
"89    c #242324",
"8a    c #232523",
"8b    c #262626",
"8c    c #333335",
"8d    c #484847",
"   0 1 2 3 4 5 6 7 8 9 a b c d e f g h i j k l m n o p o q p",
" r s t u v w x 6 9 y z A B C D E F G H I p J K o q L M N q O",
" u 3 P x Q Q R S h T U V W X Y Z N &0 0001020304050505060708",
" z090a0b k o0c0d0e0f0g0h0i0j0k0l0m0n0o0p0q0r0s0t0u0v0w0x0y0z",
"0A q0B0C0D0E0F0G0H0I0J0K0L0M0N0O0P0Q0R0S0T0U0V0W0X0Y0Z0&1 10",
"1112131415161718191a1b1c1d1e1f1g1h1i1j1k1l1m1n1o1p1q1r1s1t1u",
"1v1w1x1y1z1A1B1C1D1D1E1F1G1H1I1J1K1G1L1M1L1F1N1O1P1Q1R1S1T1U",
"1V1W1X1Y1Z1&2 2021222324252627282920212a2b2c2d2e2f2g2h2i2j2k",
"2l2m2n2o2p2q2r2s2t2u2v2w2x2y2z2A2B2C2D2E2F2G2x2E2H2I2J2K2L2M",
"2N2O2P2Q2R2S2T232U2V252W2X2Y2Z2&3 303 3132333435363738393a3b",
"3c3d3e3f3g3h203i323j3k3i3l3m3n3o3p3q3r3s3i3k3t3u3u3v3w3x3y3z",
"3A3d3B3C3D3E3F3G3H3I3J3K3L3M3N3O3P3Q3R3S3T3I3U3V3W3X3Y3Z3&4 ",
"40414243441L453&3U3U3K463F4748494a4b4c4d4e4f4g4h4i4j4k4l4m4n",
"4o4p4q4r4s4t2V4u4v4w4x4f244y4z4A3h4B4C4d4D2u4E454F4G4H4I4J2w",
"3A2L4K4L4M3J2b364N3u453j3&4O4P4Q2s4R4S4T4h4U3G4N4V4W4X4Y1d4Z",
"4&5 505152532w545556575836595a5b5c5d2C4h5e5f2W5g5h5i5j5k1F5l",
"5m5n5o5p5q5r5s5t3z5u3y2G5v5w5x5y5k5z1F575A2G5B5C5D5E5F1D5G5H",
"5I5J2n5K5L5M5N3d5O504p5P5Q5R5S5T1D5U5V5W4Z5X5Y5Z5&6 2t1c602L",
"6162636465666768695o6a6b5o6c6d6e6f1M6f3a6g6h6i6j6k6l6m6n6o6p",
"6q6r6s6t3A6u6v6w6x6y6z6A2N6B6C6D5G6E6F6G6H6I6J6K6L1j1j6M4 6N",
"6O6P6Q0Z6R2W6S6T6U6V6W6X6Y6Z6&7 707172737475767778797a317b7c",
"0w7d7e7f7g7h7i7j7k7l7m7n7o7p7q7r7j7s7t7u7v7w7x7y7y777z7A7B7C",
"7D0z7E7F7G7H7I7J7K7y7j0P7y7L6C7M7N770P7O7P7Q7R7P7Q7S4Z7T0Z0&",
"7U7V7W7E7X7Y7Z7&4x7P8 808182838485868788898a8 7K8b8c8d1 6P0&"};
