/* XPM */
static char *CBORDER_xpm[]={
"41 24 836 2",
"      c #696969",
" 0    c #686868",
" 1    c #686768",
" 2    c #666667",
" 3    c #656566",
" 4    c #646565",
" 5    c #636464",
" 6    c #6D6D6B",
" 7    c #898989",
" 8    c #797973",
" 9    c #605F60",
" a    c #6D6E6E",
" b    c #636363",
" c    c #5E5D5C",
" d    c #5C5C5D",
" e    c #5C5D5B",
" f    c #5B5A5C",
" g    c #5B5B5A",
" h    c #595B5A",
" i    c #585859",
" j    c #595959",
" k    c #575859",
" l    c #575758",
" m    c #575757",
" n    c #575656",
" o    c #575657",
" p    c #555656",
" q    c #555655",
" r    c #565656",
" s    c #565655",
" t    c #5C5C55",
" u    c #5C5B5C",
" v    c #5B5B5C",
" w    c #5A5A5B",
" x    c #5A5B5A",
" y    c #5A5A59",
" z    c #5A5959",
" A    c #646365",
" B    c #636362",
" C    c #616062",
" D    c #606061",
" E    c #5F5F60",
" F    c #5D5E5E",
" G    c #959496",
" H    c #FFFFFE",
" I    c #E4D86F",
" J    c #656A74",
" K    c #95979D",
" L    c #FFFEFF",
" M    c #DBD67A",
" N    c #585858",
" O    c #767675",
" P    c #EFEEF0",
" Q    c #D4D1A9",
" R    c #555555",
" S    c #545456",
" T    c #CFCFC8",
" U    c #D3D4BC",
" V    c #5F5E4F",
" W    c #545354",
" X    c #6F6F5E",
" Y    c #AFAE78",
" Z    c #949161",
" &    c #535153",
"0     c #525251",
"00    c #525152",
"01    c #505151",
"02    c #525253",
"03    c #515252",
"04    c #515152",
"05    c #535253",
"06    c #545353",
"07    c #5F5E60",
"08    c #5E5E5E",
"09    c #5E5C5E",
"0a    c #5B5C5C",
"0b    c #5A5A5A",
"0c    c #59595A",
"0d    c #8C8754",
"0e    c #D4B35A",
"0f    c #AA872C",
"0g    c #7C776F",
"0h    c #BFA16F",
"0i    c #EBB474",
"0j    c #AD8B4F",
"0k    c #5D6172",
"0l    c #9B9189",
"0m    c #FEDEB8",
"0n    c #C39C53",
"0o    c #414556",
"0p    c #5D6072",
"0q    c #FEEAC7",
"0r    c #F7DBA5",
"0s    c #4D5253",
"0t    c #444D67",
"0u    c #A3A888",
"0v    c #FEFF95",
"0w    c #CCCA60",
"0x    c #4D4C4C",
"0y    c #4D4C4D",
"0z    c #4D4E4C",
"0A    c #4D4D4C",
"0B    c #4E4D4E",
"0C    c #4D4D4D",
"0D    c #4D4D4E",
"0E    c #4E4F4E",
"0F    c #4F4E4D",
"0G    c #4E4F4D",
"0H    c #4E504E",
"0I    c #504E50",
"0J    c #5B5C5B",
"0K    c #58595A",
"0L    c #595859",
"0M    c #565758",
"0N    c #555556",
"0O    c #545454",
"0P    c #54565A",
"0Q    c #555857",
"0R    c #99885C",
"0S    c #BCAE91",
"0T    c #9F947B",
"0U    c #59564D",
"0V    c #A6985B",
"0W    c #CABAA0",
"0X    c #C2AF86",
"0Y    c #706545",
"0Z    c #7C6821",
"0&    c #7F7562",
"1     c #9A8D75",
"10    c #97762F",
"11    c #AF811F",
"12    c #706547",
"13    c #796D56",
"14    c #AA8538",
"15    c #C6972C",
"16    c #BBAE31",
"17    c #494849",
"18    c #484848",
"19    c #484948",
"1a    c #484849",
"1b    c #49494A",
"1c    c #4A4948",
"1d    c #4A494A",
"1e    c #494A4B",
"1f    c #4B4B4A",
"1g    c #4A4B4B",
"1h    c #4B4A4C",
"1i    c #4B4B4C",
"1j    c #4B4B4D",
"1k    c #525252",
"1l    c #504F50",
"1m    c #B1B399",
"1n    c #D9DBC5",
"1o    c #B8A067",
"1p    c #AB9A80",
"1q    c #8D847B",
"1r    c #646274",
"1s    c #817B79",
"1t    c #BEAF94",
"1u    c #B7AA94",
"1v    c #978D85",
"1w    c #5F6173",
"1x    c #9A8E77",
"1y    c #A6967E",
"1z    c #A49479",
"1A    c #656A81",
"1B    c #655C48",
"1C    c #7E7159",
"1D    c #84755B",
"1E    c #837554",
"1F    c #4A505A",
"1G    c #605E3D",
"1H    c #444444",
"1I    c #434543",
"1J    c #444544",
"1K    c #454545",
"1L    c #454444",
"1M    c #464645",
"1N    c #454646",
"1O    c #464647",
"1P    c #464646",
"1Q    c #474848",
"1R    c #535252",
"1S    c #515250",
"1T    c #4F504F",
"1U    c #4E4E4E",
"1V    c #4C4D4E",
"1W    c #4C4C4C",
"1X    c #EDE893",
"1Y    c #FEE09B",
"1Z    c #977F50",
"1&    c #666877",
"2     c #3F4062",
"20    c #25274F",
"21    c #343447",
"22    c #8E8B8F",
"23    c #7B747B",
"24    c #212147",
"25    c #272942",
"26    c #8F8676",
"27    c #A49780",
"28    c #3F3E58",
"29    c #25284B",
"2a    c #5C5651",
"2b    c #85765E",
"2c    c #887B5D",
"2d    c #DAD589",
"2e    c #CACE89",
"2f    c #454442",
"2g    c #3F4040",
"2h    c #40413F",
"2i    c #3F4140",
"2j    c #413F41",
"2k    c #414040",
"2l    c #414140",
"2m    c #424042",
"2n    c #424243",
"2o    c #424343",
"2p    c #434344",
"2q    c #454546",
"2r    c #4E4D4F",
"2s    c #4B4B4B",
"2t    c #474747",
"2u    c #78723B",
"2v    c #82652E",
"2w    c #A79347",
"2x    c #83755D",
"2y    c #3E3A39",
"2z    c #17192C",
"2A    c #25232A",
"2B    c #6B6355",
"2C    c #494449",
"2D    c #1A1C37",
"2E    c #191A2A",
"2F    c #3A3C42",
"2G    c #4A4E60",
"2H    c #232645",
"2I    c #222444",
"2J    c #282A38",
"2K    c #4E5369",
"2L    c #787B7B",
"2M    c #FFFF9B",
"2N    c #FFFC81",
"2O    c #4D4B39",
"2P    c #3C3B3C",
"2Q    c #3C3B3B",
"2R    c #3D3C3C",
"2S    c #3C3D3C",
"2T    c #3D3D3D",
"2U    c #3E3D3E",
"2V    c #3F3E3E",
"2W    c #404140",
"2X    c #414141",
"2Y    c #434243",
"2Z    c #434442",
"2&    c #4C4B4B",
"3     c #4A4A49",
"30    c #494848",
"31    c #54554C",
"32    c #434B65",
"33    c #726751",
"34    c #86785D",
"35    c #8E8064",
"36    c #746F6E",
"37    c #4F4C47",
"38    c #69604D",
"39    c #9C8E73",
"3a    c #8E7F68",
"3b    c #303345",
"3c    c #36302A",
"3d    c #756B56",
"3e    c #8D7F67",
"3f    c #3C3A3F",
"3g    c #1A1A20",
"3h    c #413B30",
"3i    c #776851",
"3j    c #78633B",
"3k    c #BA862D",
"3l    c #ECC527",
"3m    c #3E3C37",
"3n    c #383738",
"3o    c #373937",
"3p    c #383838",
"3q    c #383A39",
"3r    c #393A3A",
"3s    c #3B3A3B",
"3t    c #3B3B3B",
"3u    c #3D3D3C",
"3v    c #3D3E3E",
"3w    c #403E3E",
"3x    c #40403F",
"3y    c #494947",
"3z    c #464545",
"3A    c #434343",
"3B    c #60604E",
"3C    c #FEFE98",
"3D    c #F3DE78",
"3E    c #8F7B48",
"3F    c #83745A",
"3G    c #4E4A5A",
"3H    c #3E4061",
"3I    c #696054",
"3J    c #928368",
"3K    c #887C68",
"3L    c #726B6A",
"3M    c #5A5966",
"3N    c #8A7C64",
"3O    c #8F8068",
"3P    c #8C7D65",
"3Q    c #65687C",
"3R    c #534B3C",
"3S    c #70634C",
"3T    c #786B50",
"3U    c #73664C",
"3V    c #4B5268",
"3W    c #57532D",
"3X    c #333433",
"3Y    c #333233",
"3Z    c #343434",
"3&    c #343435",
"4     c #353636",
"40    c #363637",
"41    c #373837",
"42    c #393938",
"43    c #39393A",
"44    c #3A3B3B",
"45    c #3B3C3B",
"46    c #3E3D3D",
"47    c #3E3F3F",
"48    c #454747",
"49    c #424443",
"4a    c #424141",
"4b    c #9A9654",
"4c    c #FEEF76",
"4d    c #E7BC49",
"4e    c #49494C",
"4f    c #535567",
"4g    c #24274D",
"4h    c #25264B",
"4i    c #3B3F53",
"4j    c #767476",
"4k    c #4E4B5F",
"4l    c #1E2244",
"4m    c #262840",
"4n    c #7C7265",
"4o    c #877860",
"4p    c #424055",
"4q    c #2B2F55",
"4r    c #4B4444",
"4s    c #776951",
"4t    c #74664D",
"4u    c #ABA369",
"4v    c #8C917C",
"4w    c #4F4F39",
"4x    c #2F2F31",
"4y    c #303030",
"4z    c #303130",
"4A    c #323232",
"4B    c #323333",
"4C    c #333333",
"4D    c #363636",
"4E    c #373637",
"4F    c #373737",
"4G    c #393939",
"4H    c #3B3A3A",
"4I    c #3C3C3D",
"4J    c #444443",
"4K    c #424342",
"4L    c #424040",
"4M    c #3D3D3E",
"4N    c #554E3F",
"4O    c #7E671C",
"4P    c #71633F",
"4Q    c #6A5C46",
"4R    c #1D1D27",
"4S    c #141527",
"4T    c #3B3630",
"4U    c #534C3C",
"4V    c #32313F",
"4W    c #1E1F3B",
"4X    c #161829",
"4Y    c #40424D",
"4Z    c #474E62",
"4&    c #2B2E55",
"5     c #222648",
"50    c #1F2337",
"51    c #4C5163",
"52    c #5F6170",
"53    c #F2F193",
"54    c #FFFE8B",
"55    c #9B963F",
"56    c #2C2C2C",
"57    c #2E2D2C",
"58    c #2F2D2D",
"59    c #2F2F2E",
"5a    c #313132",
"5b    c #323332",
"5c    c #353534",
"5d    c #353735",
"5e    c #383739",
"5f    c #3B393A",
"5g    c #3B3C3C",
"5h    c #414242",
"5i    c #3F403F",
"5j    c #3E3E42",
"5k    c #464751",
"5l    c #564C36",
"5m    c #6F6147",
"5n    c #726347",
"5o    c #45495A",
"5p    c #353025",
"5q    c #615640",
"5r    c #7A6B52",
"5s    c #524A3C",
"5t    c #212532",
"5u    c #221E1B",
"5v    c #605741",
"5w    c #6F6048",
"5x    c #262327",
"5y    c #141422",
"5z    c #29231F",
"5A    c #574C39",
"5B    c #4F4737",
"5C    c #EFBC4B",
"5D    c #F1CF57",
"5E    c #7A7639",
"5F    c #4C3F2B",
"5G    c #CA9A3D",
"5H    c #B09347",
"5I    c #897E4F",
"5J    c #696345",
"5K    c #5D4C34",
"5L    c #443930",
"5M    c #333434",
"5N    c #333535",
"5O    c #353537",
"5P    c #383737",
"5Q    c #3A3839",
"5R    c #424241",
"5S    c #404040",
"5T    c #3F3F3E",
"5U    c #C7C863",
"5V    c #E0E270",
"5W    c #AF953C",
"5X    c #6A5D41",
"5Y    c #665947",
"5Z    c #574E4B",
"5&    c #3F435C",
"6     c #675B42",
"60    c #736349",
"61    c #74654C",
"62    c #65605F",
"63    c #403C3B",
"64    c #5F543F",
"65    c #6E6248",
"66    c #72644C",
"67    c #545359",
"68    c #2C2B24",
"69    c #423B2B",
"6a    c #685A42",
"6b    c #695A41",
"6c    c #5C5542",
"6d    c #605827",
"6e    c #433F26",
"6f    c #2A292A",
"6g    c #FFC046",
"6h    c #FFEC75",
"6i    c #FEFFA6",
"6j    c #FFFFB2",
"6k    c #FEEB7F",
"6l    c #FFB951",
"6m    c #F39235",
"6n    c #7A4A20",
"6o    c #363536",
"6p    c #383939",
"6q    c #414241",
"6r    c #5D5C45",
"6s    c #FEFE6B",
"6t    c #FEF068",
"6u    c #917A53",
"6v    c #626772",
"6w    c #484A63",
"6x    c #202144",
"6y    c #222442",
"6z    c #5C544C",
"6A    c #403E51",
"6B    c #2F3053",
"6C    c #39363E",
"6D    c #6F6046",
"6E    c #716348",
"6F    c #60554C",
"6G    c #4A4E6C",
"6H    c #4D453D",
"6I    c #65593F",
"6J    c #685A41",
"6K    c #67593E",
"6L    c #56596F",
"6M    c #25272B",
"6N    c #292A2A",
"6O    c #2B2A2A",
"6P    c #C99D43",
"6Q    c #FEE36E",
"6R    c #FEFC95",
"6S    c #FFF28E",
"6T    c #FED167",
"6U    c #FEAA46",
"6V    c #AF601F",
"6W    c #3F3326",
"6X    c #373636",
"6Y    c #3A3A3A",
"6Z    c #434142",
"6&    c #3F3F3F",
"7     c #796E2D",
"70    c #9D7427",
"71    c #8D7428",
"72    c #504631",
"73    c #32303D",
"74    c #212341",
"75    c #1A1A2F",
"76    c #3C3E48",
"77    c #4C5266",
"78    c #2B3056",
"79    c #232649",
"7a    c #212339",
"7b    c #5C5F71",
"7c    c #65666E",
"7d    c #2C2E50",
"7e    c #212447",
"7f    c #2D2B39",
"7g    c #64563E",
"7h    c #675940",
"7i    c #B2AB60",
"7j    c #D4D579",
"7k    c #939353",
"7l    c #2C2C2D",
"7m    c #2C2D2D",
"7n    c #B67D34",
"7o    c #FEC254",
"7p    c #FECF63",
"7q    c #FEC35B",
"7r    c #FFAB47",
"7s    c #B1601F",
"7t    c #3E3327",
"7u    c #363435",
"7v    c #383637",
"7w    c #3B3B3A",
"7x    c #424142",
"7y    c #333B51",
"7z    c #393427",
"7A    c #625238",
"7B    c #67573C",
"7C    c #574B34",
"7D    c #222734",
"7E    c #2C2720",
"7F    c #60523B",
"7G    c #64563C",
"7H    c #272226",
"7I    c #171A2C",
"7J    c #1A181C",
"7K    c #42392C",
"7L    c #38342C",
"7M    c #232746",
"7N    c #242549",
"7O    c #1C1D2A",
"7P    c #3B4057",
"7Q    c #42475D",
"7R    c #D7D97E",
"7S    c #FFFF78",
"7T    c #D0CE5B",
"7U    c #2F2E30",
"7V    c #2F2F2F",
"7W    c #77542E",
"7X    c #FFA53C",
"7Y    c #FFA640",
"7Z    c #FE9E3C",
"7&    c #EF7A28",
"8     c #F17B27",
"80    c #674731",
"81    c #353536",
"82    c #434444",
"83    c #615F47",
"84    c #70724D",
"85    c #4F5255",
"86    c #584A34",
"87    c #645539",
"88    c #65553A",
"89    c #595351",
"8a    c #413D3C",
"8b    c #504630",
"8c    c #66573E",
"8d    c #474445",
"8e    c #332F2A",
"8f    c #363023",
"8g    c #60533B",
"8h    c #64543D",
"8i    c #3E3A3B",
"8j    c #181920",
"8k    c #27241C",
"8l    c #4E4430",
"8m    c #554934",
"8n    c #C79F38",
"8o    c #D5BA4B",
"8p    c #BFAE3A",
"8q    c #323132",
"8r    c #313232",
"8s    c #4C3C31",
"8t    c #FE902C",
"8u    c #FE8C2D",
"8v    c #C6681F",
"8w    c #DA6A21",
"8x    c #FE8328",
"8y    c #FE8428",
"8z    c #CA6928",
"8A    c #4E3E36",
"8B    c #3A3938",
"8C    c #3B3A3C",
"8D    c #3B3B3C",
"8E    c #D6D558",
"8F    c #FEFE5F",
"8G    c #F3CC37",
"8H    c #826F38",
"8I    c #D9D45D",
"8J    c #BABC65",
"8K    c #846D38",
"8L    c #64543B",
"8M    c #65573D",
"8N    c #6A5D40",
"8O    c #4A5069",
"8P    c #544835",
"8Q    c #594D36",
"8R    c #64573E",
"8S    c #68583F",
"8T    c #53566C",
"8U    c #36322A",
"8V    c #393223",
"8W    c #5E5139",
"8X    c #564A37",
"8Y    c #393A39",
"8Z    c #544D31",
"8&    c #343535",
"9     c #ED7927",
"90    c #C2621A",
"91    c #403326",
"92    c #503D32",
"93    c #F77321",
"94    c #FF7E27",
"95    c #FF7E25",
"96    c #F07625",
"97    c #8F542C",
"98    c #403C3A",
"99    c #3C3C3C",
"9a    c #3E3E3D",
"9b    c #3D3E3F",
"9c    c #585646",
"9d    c #F2EE4E",
"9e    c #FEF64E",
"9f    c #CDA537",
"9g    c #41485C",
"9h    c #848E7F",
"9i    c #FFFF65",
"9j    c #FFF462",
"9k    c #AF8E4A",
"9l    c #747068",
"9m    c #867F57",
"9n    c #F9F96E",
"9o    c #EBED6D",
"9p    c #947532",
"9q    c #66563F",
"9r    c #66573F",
"9s    c #8D804B",
"9t    c #606773",
"9u    c #574C35",
"9v    c #564A35",
"9w    c #605239",
"9x    c #63543C",
"9y    c #605D63",
"9z    c #2F3545",
"9A    c #383938",
"9B    c #393839",
"9C    c #794622",
"9D    c #473828",
"9E    c #262626",
"9F    c #60412B",
"9G    c #F67220",
"9H    c #FE7A24",
"9I    c #FF7923",
"9J    c #FF7821",
"9K    c #D66924",
"9L    c #654934",
"9M    c #403F40",
"9N    c #3F3F40",
"9O    c #535145",
"9P    c #857935",
"9Q    c #9C8C32",
"9R    c #7D7A45",
"9S    c #F2E23E",
"9T    c #FFE738",
"9U    c #9F8B2B",
"9V    c #333646",
"9W    c #959A60",
"9X    c #FFFE6A",
"9Y    c #FEEE63",
"9Z    c #67584B",
"9&    c #656A7C",
"a     c #757570",
"a0    c #FEFF6F",
"a1    c #FEFE6E",
"a2    c #B89339",
"a3    c #63533B",
"a4    c #93894A",
"a5    c #A3A56F",
"a6    c #6C6C45",
"a7    c #3C3C3B",
"a8    c #313333",
"a9    c #1F1F20",
"aa    c #212223",
"ab    c #7B431F",
"ac    c #F8711F",
"ad    c #FC7521",
"ae    c #FF7521",
"af    c #FD7421",
"ag    c #F9711E",
"ah    c #9D562C",
"ai    c #414243",
"aj    c #4C4C4B",
"ak    c #4A4A4B",
"al    c #4A4949",
"am    c #474948",
"an    c #474647",
"ao    c #464746",
"ap    c #464445",
"aq    c #575140",
"ar    c #555140",
"as    c #444244",
"at    c #6C653C",
"au    c #D0BB35",
"av    c #EED12C",
"aw    c #7F7335",
"ax    c #37393B",
"ay    c #717147",
"az    c #FEFF69",
"aA    c #FEFF6A",
"aB    c #7C6940",
"aC    c #485170",
"aD    c #59617F",
"aE    c #C7C96B",
"aF    c #FEF650",
"aG    c #4A473D",
"aH    c #3E3F3E",
"aI    c #232323",
"aJ    c #202020",
"aK    c #20201F",
"aL    c #9F4F1A",
"aM    c #EF6D1C",
"aN    c #F5711E",
"aO    c #F7711E",
"aP    c #F6711E",
"aQ    c #914C18",
"aR    c #464340",
"aS    c #4B4D4D",
"aT    c #4B4C4B",
"aU    c #4B4A4A",
"aV    c #484A49",
"aW    c #484847",
"aX    c #464747",
"aY    c #454544",
"aZ    c #454445",
"a&    c #444345",
"b     c #4F4D41",
"b0    c #A8952F",
"b1    c #CAB330",
"b2    c #7D7136",
"b3    c #414142",
"b4    c #3E3F41",
"b5    c #D3D155",
"b6    c #FEFD5D",
"b7    c #F4E94A",
"b8    c #434143",
"b9    c #424242",
"ba    c #323231",
"bb    c #212121",
"bc    c #212221",
"bd    c #2A2522",
"be    c #B75819",
"bf    c #E8691B",
"bg    c #ED6D1B",
"bh    c #A0531C",
"bi    c #47433D",
"bj    c #4F5050",
"bk    c #4F4F4F",
"bl    c #4D4F4E",
"bm    c #4C4A4B",
"bn    c #494949",
"bo    c #454647",
"bp    c #474746",
"bq    c #454645",
"br    c #444545",
"bs    c #7A6D36",
"bt    c #A38E2F",
"bu    c #A29132",
"bv    c #444445",
"bw    c #444446",
"bx    c #444645",
"by    c #444644",
"bz    c #242524",
"bA    c #242422",
"bB    c #242323",
"bC    c #382B21",
"bD    c #D06019",
"bE    c #884717",
"bF    c #47423B",
"bG    c #474849",
"bH    c #49484A",
"bI    c #515151",
"bJ    c #515051",
"bK    c #504F4F",
"bL    c #4C4C4D",
"bM    c #4D4B4B",
"bN    c #494A49",
"bO    c #4A4848",
"bP    c #48494A",
"bQ    c #494748",
"bR    c #474748",
"bS    c #494847",
"bT    c #484747",
"bU    c #484748",
"bV    c #484947",
"bW    c #2B292A",
"bX    c #252524",
"bY    c #242525",
"bZ    c #242625",
"b&    c #3D2D20",
"c     c #2E2822",
"c0    c #313031",
"c1    c #454443",
"c2    c #4A4A4A",
"   0 1 2 3 4 5 6 7 8 9 4 a b c d e f g h i i j k l l m n o p q r s t u v w x y z k",
" A b B C D E F G H I J K L M N O P Q R S T U V W X Y Z &0 0 000 0102030 040 050506",
"0708090a0b0c j0d0e0f0g0h0i0j0k0l0m0n0o0p0q0r0s0t0u0v0w0x0y0y0z0A0A0B0C0D0E0F0G0H0I",
"0J0K0L0M q0N0O0P0Q0R0S0T0U0V0W0X0Y0Z0&1 10111213141516171818191a1b1c1d1e1f1g1h1i1j",
"0N s0O1k031l1m1n1o1p1q1r1s1t1u1v1w1x1y1z1A1B1C1D1E1F1G1H1I1J1K1L1K1M1K1N1O1P181Q18",
"1R1S1T1U1V1W1X1Y1Z1&2 202122232425262728292a2b2c2d2e2f2g2h2i2j2k2l2m2n2o2n2p1J2q1M",
"2r0C2s1e1a2t2u2v2w2x2y2z2A2B2C2D2E2F2G2H2I2J2K2L2M2N2O2P2Q2R2R2S2T2U2V2g2W2X2X2Y2Z",
"2&3 302t1K3132333435363738393a3b3c3d3e3f3g3h3i3j3k3l3m3n3n3o3p3q3r3s3t3u2T3v3w3x2k",
"3y2t3z3A3B3C3D3E3F3G3H3I3J3K3L3M3N3O3P3Q3R3S3T3U3V3W3X3Y3Z3&4 40413n424344452P4647",
"481I494a4b4c4d4e4f4g4h4i4j4k4l4m4n4o4p4q4r4s4t4u4v4w4x4y4z4A4B4C3Z4D4E4F3n4G4H2P4I",
"4J4K4L474M4N4O4P4Q4R4S4T4U4V4W4X4Y4Z4&5 505152535455565758594y5a5b4C5c5d4F5e3q5f5g",
"2o5h5i2U5j5k5l5m5n5o5p5q5r5s5t5u5v5w5x5y5z5A5B5C5D5E5F5G5H5I5J5K5L4B5M5N5O4E5P5Q3t",
"5R5S5T5U5V5W5X5Y5Z5&6 606162636465666768696a6b6c6d6e6f6g6h6i6j6k6l6m6n5N6o4D3n6p4G",
"6q2k6r6s6t6u6v6w6x6y6z3S6A6B6C6D6E6F6G6H6I6J6K6L6M6N6O6P6Q6R6S6T6U6V6W3Z4D6X3p3p6Y",
"6Z2W6&7 707172737475767778797a7b7c7d7e7f7g7h7i7j7k7l7m7n7o7p7q7r7s7t5M7u4D7v5P3r7w",
"2n7x5S7y7z7A7B7C7D7E7F7G7H7I7J7K7L7M7N7O7P7Q7R7S7T7U7V7W7X7Y7Z7&8 8081405P423r3t45",
"82838485868788898a8b6K8c8d8e8f8g8h8i8j8k8l8m8n8o8p8q8r8s8t8u8v8w8x8y8z8A8B4H8C8D4I",
"2q8E8F8G8H878I8J8K8L8M8N8O8P8Q8R8S8T8U8V8W7G8X8Y8Z5c8&4D9 909192939495969798999a9b",
"9c9d9e9f9g9h9i9j9k9l9m9n9o9p9q9r9s9t9u9v9w9x9y9z9A5e9A9B9C9D9E579F9G9H9I9J9K9L9M9N",
"199O9P9Q1K9R9S9T9U9V9W9X9Y9Z9&a a0a1a27Fa3a4a5a65g7w3t442Ra7a8a9aaabacadaeafagahai",
"ajakalamanaoapaqarasatauavawaxayazaAaBaCaDaE9iaFaGaHaH5T5T9N3taIaJaKaLaMaNaOaPaQaR",
"1UaSaTaU1eaVaW1QaX1N1PaYaZa&3Ab b0b1b2b3b4b5b6b77x5Rb86q6Zb3b9babbbcbdbebfbgbhbi2t",
"bjbkbl0C0x0xbmakalbn1818am1Qaobo1Pbpbq1PbrbsbtbuaZbvbvaZbwbxby9bbzbAbBbCbDbEbFbGbH",
"02bIbJbK1l1T0B0BbL0CbM1iaUbNaU1dbObPbnbn1a17bQbRbSbTaWbU1abV1982bWbXbYbZb&c c0c1c2"};
