/* XPM */
static char *SFACE_xpm[]={
"41 24 750 2",
"      c #6A6A69",
" 0    c #696868",
" 1    c #676867",
" 2    c #676668",
" 3    c #666565",
" 4    c #656565",
" 5    c #646363",
" 6    c #636163",
" 7    c #616162",
" 8    c #616160",
" 9    c #5F5F60",
" a    c #5F5F5F",
" b    c #5E5F5E",
" c    c #5D5D5D",
" d    c #5E5D5D",
" e    c #5C5D5C",
" f    c #5C5B5C",
" g    c #5A5A5B",
" h    c #595B5B",
" i    c #585959",
" j    c #595858",
" k    c #585958",
" l    c #575758",
" m    c #565657",
" n    c #575657",
" o    c #565656",
" p    c #555656",
" q    c #555555",
" r    c #5C5D56",
" s    c #5C5C5B",
" t    c #5B5B5B",
" u    c #5A5B5B",
" v    c #585859",
" w    c #595958",
" x    c #575857",
" y    c #636463",
" z    c #636362",
" A    c #626363",
" B    c #616161",
" C    c #606060",
" D    c #5E5F5F",
" E    c #5C5D5D",
" F    c #5C5C5D",
" G    c #AEAE82",
" H    c #B7B87B",
" I    c #6E6E61",
" J    c #5A5959",
" K    c #565757",
" L    c #575756",
" M    c #565556",
" N    c #555556",
" O    c #545455",
" P    c #555453",
" Q    c #535452",
" R    c #525353",
" S    c #535352",
" T    c #535253",
" U    c #535351",
" V    c #535153",
" W    c #525152",
" X    c #525052",
" Y    c #525151",
" Z    c #525252",
" &    c #515151",
"0     c #525352",
"00    c #525253",
"01    c #515252",
"02    c #545353",
"03    c #5F605F",
"04    c #5F5F5E",
"05    c #5E5D5E",
"06    c #5B5C5B",
"07    c #5B5A5B",
"08    c #585758",
"09    c #626158",
"0a    c #EEEE8E",
"0b    c #ECE75F",
"0c    c #FCFA75",
"0d    c #D9DA95",
"0e    c #8E8E76",
"0f    c #5D5D54",
"0g    c #505151",
"0h    c #504F50",
"0i    c #4F4F50",
"0j    c #505050",
"0k    c #504F4F",
"0l    c #4F4F4E",
"0m    c #4E4F4F",
"0n    c #4D4E4D",
"0o    c #4D4E4E",
"0p    c #4D4D4E",
"0q    c #4D4C4C",
"0r    c #4D4C4E",
"0s    c #4D4C4D",
"0t    c #4D4E4C",
"0u    c #4D4D4C",
"0v    c #4E4D4C",
"0w    c #4E4D4E",
"0x    c #4D4D4D",
"0y    c #4E4F4E",
"0z    c #4F504E",
"0A    c #5A5B5A",
"0B    c #595959",
"0C    c #575958",
"0D    c #585757",
"0E    c #565756",
"0F    c #565554",
"0G    c #545454",
"0H    c #535454",
"0I    c #9E9D6C",
"0J    c #F3EE61",
"0K    c #AB9670",
"0L    c #AF9C65",
"0M    c #CDC04F",
"0N    c #EFEC60",
"0O    c #F3F47F",
"0P    c #C3C27E",
"0Q    c #7E7E5F",
"0R    c #4B4B4B",
"0S    c #4B4B4C",
"0T    c #4A4B4B",
"0U    c #4B4949",
"0V    c #484A4A",
"0W    c #4A4A49",
"0X    c #494949",
"0Y    c #48484A",
"0Z    c #494749",
"0&    c #494849",
"1     c #484848",
"10    c #484948",
"11    c #49494A",
"12    c #4A4948",
"13    c #4A494A",
"14    c #494A4B",
"15    c #4B4B4A",
"16    c #4A4C4C",
"17    c #4C4B4C",
"18    c #4B4C4C",
"19    c #565454",
"1a    c #535252",
"1b    c #515150",
"1c    c #54544F",
"1d    c #EFEE81",
"1e    c #C1B454",
"1f    c #9B8668",
"1g    c #9C8667",
"1h    c #998465",
"1i    c #927E60",
"1j    c #A89659",
"1k    c #CBBF46",
"1l    c #EBE85B",
"1m    c #F3F271",
"1n    c #B3B567",
"1o    c #686A4C",
"1p    c #464546",
"1q    c #454645",
"1r    c #444444",
"1s    c #454445",
"1t    c #434544",
"1u    c #434443",
"1v    c #454444",
"1w    c #444544",
"1x    c #454545",
"1y    c #464444",
"1z    c #474645",
"1A    c #464545",
"1B    c #464646",
"1C    c #474748",
"1D    c #474747",
"1E    c #484949",
"1F    c #4E4E4F",
"1G    c #4C4C4E",
"1H    c #4D4D4B",
"1I    c #8D8D5E",
"1J    c #F3F254",
"1K    c #95805A",
"1L    c #947E5F",
"1M    c #937E5F",
"1N    c #917B5D",
"1O    c #8D7A5B",
"1P    c #8A7759",
"1Q    c #867356",
"1R    c #847251",
"1S    c #A1914C",
"1T    c #CEC83B",
"1U    c #F9F954",
"1V    c #E1E260",
"1W    c #9FA160",
"1X    c #6A6B46",
"1Y    c #3F4041",
"1Z    c #404040",
"1&    c #403E3F",
"2     c #3F4040",
"20    c #3F3F3F",
"21    c #404041",
"22    c #41413F",
"23    c #3F4140",
"24    c #414041",
"25    c #424141",
"26    c #414241",
"27    c #434142",
"28    c #434243",
"29    c #434344",
"2a    c #444344",
"2b    c #454546",
"2c    c #4C4E4D",
"2d    c #4C4C4C",
"2e    c #4B4A49",
"2f    c #4A4949",
"2g    c #484748",
"2h    c #4C4D47",
"2i    c #E7E778",
"2j    c #C5B74A",
"2k    c #8B7657",
"2l    c #897556",
"2m    c #887457",
"2n    c #857054",
"2o    c #857154",
"2p    c #816E52",
"2q    c #7E6B50",
"2r    c #7A674C",
"2s    c #776449",
"2t    c #746246",
"2u    c #746340",
"2v    c #A09636",
"2w    c #F3F166",
"2x    c #C2C133",
"2y    c #3A3B3B",
"2z    c #3C3B3B",
"2A    c #3C3C3A",
"2B    c #3C3B3C",
"2C    c #3B3B3C",
"2D    c #3D3D3C",
"2E    c #3D3C3C",
"2F    c #3D3D3D",
"2G    c #3E3D3D",
"2H    c #3F3E3F",
"2I    c #403F3E",
"2J    c #404141",
"2K    c #414242",
"2L    c #424242",
"2M    c #444243",
"2N    c #494947",
"2O    c #474746",
"2P    c #454646",
"2Q    c #848355",
"2R    c #F6F357",
"2S    c #8A754D",
"2T    c #836E50",
"2U    c #826E50",
"2V    c #816C50",
"2W    c #745F43",
"2X    c #7A6649",
"2Y    c #7B674C",
"2Z    c #776549",
"2&    c #746247",
"3     c #6F5E44",
"30    c #6B5B41",
"31    c #69583E",
"32    c #736643",
"33    c #FEFF7B",
"34    c #626231",
"35    c #373638",
"36    c #383737",
"37    c #363836",
"38    c #383738",
"39    c #393738",
"3a    c #393839",
"3b    c #383938",
"3c    c #393938",
"3d    c #393A3A",
"3e    c #3B3B3B",
"3f    c #3C3C3C",
"3g    c #3E3F3F",
"3h    c #403F3F",
"3i    c #414140",
"3j    c #484849",
"3k    c #474846",
"3l    c #434444",
"3m    c #434343",
"3n    c #414042",
"3o    c #DBDA6B",
"3p    c #B8AE3D",
"3q    c #7C684B",
"3r    c #7D674A",
"3s    c #7C674B",
"3t    c #756246",
"3u    c #918251",
"3v    c #CDC675",
"3w    c #8D7D4F",
"3x    c #6D5B42",
"3y    c #6D5B40",
"3z    c #695740",
"3A    c #66563E",
"3B    c #63543A",
"3C    c #B2AC6B",
"3D    c #E4E33C",
"3E    c #343433",
"3F    c #323332",
"3G    c #323433",
"3H    c #333433",
"3I    c #333334",
"3J    c #353435",
"3K    c #353535",
"3L    c #363737",
"3M    c #373738",
"3N    c #383937",
"3O    c #3A3B39",
"3P    c #3A3A3A",
"3Q    c #3B3C3C",
"3R    c #3C3D3C",
"3S    c #3D3C3D",
"3T    c #3F3E3E",
"3U    c #464645",
"3V    c #424140",
"3W    c #7B7A4C",
"3X    c #F9F854",
"3Y    c #887543",
"3Z    c #766344",
"3&    c #766144",
"4     c #766245",
"40    c #6F5A3E",
"41    c #D8D476",
"42    c #FEFF88",
"43    c #FEFF77",
"44    c #70622E",
"45    c #604E35",
"46    c #5F5037",
"47    c #605038",
"48    c #5B4D36",
"49    c #F4F386",
"4a    c #9D8D29",
"4b    c #7D4416",
"4c    c #C58234",
"4d    c #D2A24A",
"4e    c #CCB363",
"4f    c #C4B277",
"4g    c #B7AA71",
"4h    c #B18F52",
"4i    c #A46A34",
"4j    c #47382C",
"4k    c #333434",
"4l    c #343434",
"4m    c #373737",
"4n    c #383838",
"4o    c #393939",
"4p    c #444545",
"4q    c #424243",
"4r    c #3F403E",
"4s    c #3D3D3E",
"4t    c #D9DB65",
"4u    c #C2B63F",
"4v    c #735D40",
"4w    c #725D40",
"4x    c #725C40",
"4y    c #705D40",
"4z    c #655337",
"4A    c #D9CF52",
"4B    c #FFFB74",
"4C    c #D8D54B",
"4D    c #39301A",
"4E    c #56462F",
"4F    c #54452D",
"4G    c #82784B",
"4H    c #F7F650",
"4I    c #3A392D",
"4J    c #BE601B",
"4K    c #FFAF40",
"4L    c #FFCC5F",
"4M    c #FFF289",
"4N    c #FEFFAA",
"4O    c #FEF99D",
"4P    c #FFCA69",
"4Q    c #B36522",
"4R    c #4B341B",
"4S    c #313131",
"4T    c #333233",
"4U    c #363635",
"4V    c #39383A",
"4W    c #3A3B3A",
"4X    c #3C3A3B",
"4Y    c #797949",
"4Z    c #F8F94E",
"4&    c #816F3C",
"5     c #6E593D",
"50    c #6D5A3D",
"51    c #6D593E",
"52    c #6A573B",
"53    c #5F4C32",
"54    c #443920",
"55    c #4B4110",
"56    c #5C5716",
"57    c #382D1D",
"58    c #54432B",
"59    c #51422A",
"5a    c #4E4029",
"5b    c #CFCD76",
"5c    c #B8B624",
"5d    c #252424",
"5e    c #BA6927",
"5f    c #FEA83C",
"5g    c #FEBE54",
"5h    c #FED870",
"5i    c #FFE47D",
"5j    c #FFCC6B",
"5k    c #C5762E",
"5l    c #4A3218",
"5m    c #2E2E2E",
"5n    c #303030",
"5o    c #313030",
"5p    c #323233",
"5q    c #353636",
"5r    c #363638",
"5s    c #3B393A",
"5t    c #3F4141",
"5u    c #DADA5C",
"5v    c #C2BA37",
"5w    c #6D573B",
"5x    c #6C573B",
"5y    c #6A563C",
"5z    c #69573A",
"5A    c #655238",
"5B    c #5B492D",
"5C    c #56442A",
"5D    c #3F321F",
"5E    c #2B2314",
"5F    c #463823",
"5G    c #514128",
"5H    c #4E3E27",
"5I    c #5F542F",
"5J    c #FFFE61",
"5K    c #525119",
"5L    c #161617",
"5M    c #AE6523",
"5N    c #FF9D36",
"5O    c #FFA841",
"5P    c #FEB14E",
"5Q    c #FEB04F",
"5R    c #F1933E",
"5S    c #583816",
"5T    c #2F2D2C",
"5U    c #2E2F2D",
"5V    c #30302F",
"5W    c #303130",
"5X    c #323132",
"5Y    c #343332",
"5Z    c #343534",
"5&    c #373637",
"6     c #40413F",
"60    c #3E3F3D",
"61    c #8C8C52",
"62    c #FFFE78",
"63    c #CCC688",
"64    c #83734E",
"65    c #685539",
"66    c #685439",
"67    c #675438",
"68    c #604C33",
"69    c #59472B",
"6a    c #57462A",
"6b    c #503E27",
"6c    c #4F3F28",
"6d    c #4E3D27",
"6e    c #AFA95A",
"6f    c #E2DE33",
"6g    c #191817",
"6h    c #181617",
"6i    c #653E1C",
"6j    c #FE902C",
"6k    c #FE9333",
"6l    c #FF9536",
"6m    c #FE9339",
"6n    c #FF963C",
"6o    c #C9722F",
"6p    c #40352D",
"6q    c #2E2E2F",
"6r    c #302F30",
"6s    c #313333",
"6t    c #323334",
"6u    c #353434",
"6v    c #393A39",
"6w    c #49493B",
"6x    c #919130",
"6y    c #E0DF3E",
"6z    c #FEFF84",
"6A    c #DBD896",
"6B    c #9C8E68",
"6C    c #6F5C3D",
"6D    c #5C482E",
"6E    c #57452A",
"6F    c #57432A",
"6G    c #544329",
"6H    c #524228",
"6I    c #4F3F26",
"6J    c #F2F26B",
"6K    c #7D7B1B",
"6L    c #191918",
"6M    c #181818",
"6N    c #452B18",
"6O    c #FE8327",
"6P    c #FE8329",
"6Q    c #F67E29",
"6R    c #E26B1F",
"6S    c #FD832D",
"6T    c #FE8E35",
"6U    c #F18230",
"6V    c #95562C",
"6W    c #363330",
"6X    c #323231",
"6Y    c #343333",
"6Z    c #343535",
"6&    c #373636",
"7     c #373837",
"70    c #424342",
"71    c #3C3C3E",
"72    c #666432",
"73    c #C1C02B",
"74    c #F2F153",
"75    c #F4F49F",
"76    c #C3BC8D",
"77    c #796C43",
"78    c #534127",
"79    c #534128",
"7a    c #514027",
"7b    c #4F3E26",
"7c    c #83783E",
"7d    c #FFF842",
"7e    c #272619",
"7f    c #191919",
"7g    c #191818",
"7h    c #F27220",
"7i    c #EF7220",
"7j    c #884A14",
"7k    c #3A2616",
"7l    c #DA661E",
"7m    c #FD7E27",
"7n    c #FF852F",
"7o    c #FF842E",
"7p    c #E2742A",
"7q    c #664530",
"7r    c #353536",
"7s    c #363637",
"7t    c #393838",
"7u    c #3A3A39",
"7v    c #3E3C3C",
"7w    c #474537",
"7x    c #88872A",
"7y    c #DBD92F",
"7z    c #FFFD6D",
"7A    c #DEDB90",
"7B    c #938858",
"7C    c #5C4A2D",
"7D    c #4E3E25",
"7E    c #D7D364",
"7F    c #BFBE20",
"7G    c #1A1919",
"7H    c #1A1A19",
"7I    c #18191A",
"7J    c #B5571B",
"7K    c #7E4410",
"7L    c #342514",
"7M    c #432818",
"7N    c #E96C1E",
"7O    c #FD7926",
"7P    c #FE7E28",
"7Q    c #FE7E29",
"7R    c #FF7D28",
"7S    c #C86527",
"7T    c #4D3E33",
"7U    c #39393B",
"7V    c #3C3B3A",
"7W    c #3D3C3E",
"7X    c #464644",
"7Y    c #444443",
"7Z    c #424343",
"7&    c #414040",
"8     c #3F3F40",
"80    c #3E3E3F",
"81    c #3E3C3D",
"82    c #3C3C3B",
"83    c #1B1B1B",
"84    c #4C4C17",
"85    c #B1AC1B",
"86    c #F0ED49",
"87    c #F3F279",
"88    c #C4BE70",
"89    c #918545",
"8a    c #FFFF58",
"8b    c #535419",
"8c    c #1B1A1B",
"8d    c #1A1B1B",
"8e    c #1A1A1A",
"8f    c #3E2A17",
"8g    c #3C2913",
"8h    c #1A1B1A",
"8i    c #1B191B",
"8j    c #643719",
"8k    c #E96C1C",
"8l    c #F97422",
"8m    c #FE7825",
"8n    c #FF7926",
"8o    c #FE7924",
"8p    c #F47222",
"8q    c #94532B",
"8r    c #453C38",
"8s    c #3D3E3E",
"8t    c #484747",
"8u    c #403F40",
"8v    c #292829",
"8w    c #1D1D1D",
"8x    c #1D1B1C",
"8y    c #292A1B",
"8z    c #706C17",
"8A    c #CDC927",
"8B    c #FFFC56",
"8C    c #E9E837",
"8D    c #1C1D1D",
"8E    c #1D1C1C",
"8F    c #1C1D1C",
"8G    c #1B1B1C",
"8H    c #1B1C1C",
"8I    c #1C1C1C",
"8J    c #8E4718",
"8K    c #E46B1C",
"8L    c #F06F1F",
"8M    c #F67222",
"8N    c #F87321",
"8O    c #FA7523",
"8P    c #E26A1E",
"8Q    c #5E3F20",
"8R    c #3E3F3E",
"8S    c #40403F",
"8T    c #484947",
"8U    c #454745",
"8V    c #454544",
"8W    c #252523",
"8X    c #1D1E1D",
"8Y    c #1D1D1E",
"8Z    c #1D1E1E",
"8&    c #4E4D1C",
"9     c #56541D",
"90    c #1E1C1D",
"91    c #1E1C1E",
"92    c #1D1D1C",
"93    c #1C1E1D",
"94    c #1E1E1E",
"95    c #1E1D1E",
"96    c #24201E",
"97    c #AA5217",
"98    c #DD671B",
"99    c #E56A1C",
"9a    c #EC6E1E",
"9b    c #E56B1D",
"9c    c #6F4218",
"9d    c #413E3A",
"9e    c #414142",
"9f    c #4B4B49",
"9g    c #474647",
"9h    c #464747",
"9i    c #454747",
"9j    c #222223",
"9k    c #201F20",
"9l    c #1E201F",
"9m    c #1F1F1F",
"9n    c #1F1E1F",
"9o    c #201E1F",
"9p    c #1F1E1E",
"9q    c #201F1F",
"9r    c #20201E",
"9s    c #1F1F20",
"9t    c #1E1E1F",
"9u    c #1F1F21",
"9v    c #1F201F",
"9w    c #1E1F1E",
"9x    c #32261E",
"9y    c #C25D17",
"9z    c #D36219",
"9A    c #D8651A",
"9B    c #794414",
"9C    c #453F38",
"9D    c #4E4E4D",
"9E    c #4C4D4C",
"9F    c #4A4A4B",
"9G    c #464848",
"9H    c #3F403F",
"9I    c #232221",
"9J    c #202121",
"9K    c #202120",
"9L    c #202020",
"9M    c #212121",
"9N    c #202021",
"9O    c #212021",
"9P    c #2D2D2D",
"9Q    c #212120",
"9R    c #222022",
"9S    c #4D311C",
"9T    c #C25A17",
"9U    c #764011",
"9V    c #352D25",
"9W    c #444645",
"9X    c #464745",
"9Y    c #474546",
"9Z    c #4E4E50",
"9&    c #4F4E4E",
"a     c #4C4D4D",
"a0    c #4C4C4B",
"a1    c #4A4C4B",
"a2    c #4B4A4B",
"a3    c #232322",
"a4    c #232223",
"a5    c #222222",
"a6    c #222122",
"a7    c #222322",
"a8    c #212221",
"a9    c #212123",
"aa    c #212223",
"ab    c #232222",
"ac    c #212122",
"ad    c #343334",
"ae    c #242425",
"af    c #232122",
"ag    c #222123",
"ah    c #222323",
"ai    c #412E1C",
"aj    c #30281F",
"ak    c #222423",
"al    c #2A2928",
"am    c #3F3D3E",
"an    c #464746",
"ao    c #4E4E4E",
"ap    c #252425",
"aq    c #242525",
"ar    c #252323",
"as    c #232424",
"at    c #242323",
"au    c #232323",
"av    c #252423",
"aw    c #242324",
"ax    c #232324",
"ay    c #242424",
"az    c #252325",
"aA    c #262525",
"aB    c #2D2C2D",
"aC    c #242523",
"aD    c #242524",
"aE    c #232425",
"aF    c #252524",
"aG    c #242625",
"aH    c #272728",
"aI    c #4B4A4A",
"   0 1 2 3 4 5 6 7 8 9 a b c d e f g g h i j k l j l m m n o o p q r s g t u v w x",
" y z A B C a D E F G H I J i l K L M N N O P Q R S T U V W X Y Z &0  &0001 U01 S02",
"0304050607 g w08090a0b0c0d0e0f X0g0h0i0j0k0l0m0l0n0o0o0p0q0r0s0t0u0v0w0x0w0l0l0y0z",
"0A0B0C0D0E0F0G0H0I0J0K0L0M0N0O0P0Q0R0S0T0T0U0V0W0X0Y0X0Z0&1 1 10111112131415161718",
" m19021a X1b0y1c1d1e1f1g1h1i1j1k1l1m1n1o1p1q1r1r1s1r1t1u1v1w1w1x1y1x1z1A1B1C1D1E1E",
" T W0j1F1G1H0R1I1J1K1L1M1N1O1P1Q1R1S1T1U1V1W1X1Y1Z1&2 2021222324252627281u292a1x2b",
"0y2c2d2e2f2g2h2i2j2k2l2m2n2o2p2q2r2s2t2u2v2w2x2y2z2A2B2C2B2z2D2E2F2G2H2I2 2J2K2L2M",
"150W2N2O2P1v2Q2R2S2T2U2V2W2X2Y2Z2&3 30313233343536373638393a3b3c3d2y3e3f2D2G3g3h3i",
"3j3k2b3l3m3n3o3p3q3r3s3t3u3v3w3x3y3z3A3B3C3D3E3F3F3G3F3H3I3J3K3L3M3N3a3O3P3Q3R3S3T",
"3U1w3l3V203W3X3Y3Z3&4 404142434445464748494a4b4c4d4e4f4g4h4i4j4k4l3K4m384n4o3P2z3S",
"4p4q3i4r4s4t4u4v4w4x4y4z4A4B4C4D4E4F4F4G4H4I4J4K4L4M4N4O4P4Q4R4S4T4k4l4U374n4V4W4X",
"3m24202G4Y4Z4&5 505152535455565758595a5b5c5d5e5f5g5h5i5j5k5l5m5n5o5p4k3K5q5r383a5s",
"2L5t2H2D5u5v5w5x5y5z5A5B5C5D5E5F5G5H5I5J5K5L5M5N5O5P5Q5R5S5T5U5V5W5X5Y5Z5q5&4m3a3d",
"256 606162636465666768696a5C6b5G6c6d6e6f6g6h6i6j6k6l6m6n6o6p6q6r5W6s6t6u3K4m4n6v4o",
"2L3i1&6w6x6y6z6A6B6C6D6E6F6G6H5G6I6H6J6K6L6M6N6O6P6Q6R6S6T6U6V6W6X6Y6Y6Z6&7 394o2y",
"7021203T713e7273747576777879797a7b7c7d7e7f7f7g7h7i7j7k7l7m7n7o7p7q6u7r7s3M7t7u3e3f",
"1r2L2J2 207v3R2y7w7x7y7z7A7B7C7a7D7E7F7G7H7H7I7J7K7L6M7M7N7O7P7Q7R7S7T3b3a7U7V2E7W",
"7X7Y7Z267&8 8081826Y838485868788898a8b8c8d8c8e8f8g8h8i8e8j8k8l8m8n8o8p8q8r2B2E8s60",
"8t2b1r1r3m261Z8u808v8w8x838y8z8A8B8C8D8E8F838x8G8H8H8I8H8H8J8K8L8M8N8O8P8Q4s8R2H8S",
"3j8T1C8U8V2a3m282H8W8X8Y8Z8I8Z8F8&9 90918X92938w9494958w8w969798999a9b9c9d1Y219e2K",
"0S9f0&1E9g9h9i1q3i9j9k9l949m9n9o9p9o9p9q9p9r9s9t9s9n9u9v9q9w9x9y9z9A9B9C9e2L297Y3l",
"9D9E2d9F0R130&9G9H9I9J9K9L9M9J9N9M9K9O9O9L9N9N9N9J9L9P9Q9O9Q9R9S9T9U9V1Z299W1B9X9Y",
"0j9Z9&0oa a0a1a22Da3a49ja5a5a6a5a7a7a8a9a5a8aaa5abacadaea5afagahaiajakalaman2g3j10",
"00 Z &0h0k9&aoao4mapaeaqarasatauavawataxayazataxavaA7uaBapaCaDaEazaFaqaGaH3613aI0T"};
