/* XPM */
static char *CVERTEX_xpm[]={
"41 24 596 2",
"      c #686869",
" 0    c #686768",
" 1    c #666666",
" 2    c #646564",
" 3    c #636564",
" 4    c #636262",
" 5    c #616161",
" 6    c #606060",
" 7    c #5E5F5F",
" 8    c #5D5D5F",
" 9    c #5E5E5E",
" a    c #5D5D5D",
" b    c #5C5C5D",
" c    c #5C5B5C",
" d    c #5B5B5C",
" e    c #5A5A5B",
" f    c #5A5B5A",
" g    c #5A5A59",
" h    c #5A5959",
" i    c #575859",
" j    c #575758",
" k    c #585758",
" l    c #575657",
" m    c #575757",
" n    c #555756",
" o    c #555655",
" p    c #565656",
" q    c #565655",
" r    c #5D5C55",
" s    c #5B5C5C",
" t    c #5B5A5A",
" u    c #5A5B5B",
" v    c #595958",
" w    c #585759",
" x    c #646565",
" y    c #626362",
" z    c #636161",
" A    c #616261",
" B    c #616160",
" C    c #5F5E60",
" D    c #5D5F5D",
" E    c #5D5C5D",
" F    c #5B5B5A",
" G    c #5B5B5B",
" H    c #5A595A",
" I    c #585959",
" J    c #565856",
" K    c #565657",
" L    c #565556",
" M    c #565456",
" N    c #545555",
" O    c #545354",
" P    c #555455",
" Q    c #545453",
" R    c #545254",
" S    c #535253",
" T    c #535252",
" U    c #535352",
" V    c #525152",
" W    c #525251",
" X    c #515251",
" Y    c #525252",
" Z    c #505251",
" &    c #515151",
"0     c #535353",
"00    c #525452",
"01    c #605E5F",
"02    c #5E5F5E",
"03    c #5A5958",
"04    c #585858",
"05    c #575858",
"06    c #575656",
"07    c #565554",
"08    c #545454",
"09    c #525352",
"0a    c #515252",
"0b    c #505051",
"0c    c #4F504F",
"0d    c #505050",
"0e    c #4F4F4F",
"0f    c #4E4F4F",
"0g    c #4E4D4D",
"0h    c #4E4D4E",
"0i    c #4D4D4E",
"0j    c #4D4D4C",
"0k    c #4D4D4D",
"0l    c #4E4E4D",
"0m    c #4D4E4C",
"0n    c #4D4F4D",
"0o    c #4F4D4F",
"0p    c #4F4E4D",
"0q    c #4E4F4E",
"0r    c #5B5A5B",
"0s    c #5A5859",
"0t    c #585757",
"0u    c #585756",
"0v    c #535453",
"0w    c #505150",
"0x    c #4F5050",
"0y    c #4B4C4C",
"0z    c #4B4B4C",
"0A    c #4A4C4C",
"0B    c #4A4C4A",
"0C    c #4B4A4B",
"0D    c #49494A",
"0E    c #4A4A4A",
"0F    c #4A494A",
"0G    c #49484A",
"0H    c #484948",
"0I    c #484848",
"0J    c #484849",
"0K    c #494848",
"0L    c #494849",
"0M    c #48494A",
"0N    c #4A4A49",
"0O    c #494A4A",
"0P    c #4A494B",
"0Q    c #4A4A4B",
"0R    c #4A4B4A",
"0S    c #4C4C4B",
"0T    c #4B4C4D",
"0U    c #555556",
"0V    c #535355",
"0W    c #545352",
"0X    c #4F504E",
"0Y    c #4D4C4C",
"0Z    c #4D4C4B",
"0&    c #4B4A4A",
"1     c #494A49",
"10    c #484949",
"11    c #474849",
"12    c #464747",
"13    c #464746",
"14    c #454547",
"15    c #464546",
"16    c #464645",
"17    c #444645",
"18    c #444544",
"19    c #454444",
"1a    c #434443",
"1b    c #434444",
"1c    c #454343",
"1d    c #454544",
"1e    c #444444",
"1f    c #444545",
"1g    c #454546",
"1h    c #454545",
"1i    c #464647",
"1j    c #474747",
"1k    c #494748",
"1l    c #484A49",
"1m    c #525151",
"1n    c #484749",
"1o    c #474748",
"1p    c #7A7650",
"1q    c #737458",
"1r    c #444445",
"1s    c #444343",
"1t    c #444443",
"1u    c #424243",
"1v    c #424341",
"1w    c #424141",
"1x    c #424241",
"1y    c #424142",
"1z    c #414041",
"1A    c #404141",
"1B    c #403F40",
"1C    c #40413F",
"1D    c #3F403F",
"1E    c #403F3F",
"1F    c #413F40",
"1G    c #403F41",
"1H    c #414042",
"1I    c #424242",
"1J    c #454645",
"1K    c #4F4E4F",
"1L    c #4C4C4E",
"1M    c #4B4B4B",
"1N    c #494949",
"1O    c #484748",
"1P    c #474746",
"1Q    c #464545",
"1R    c #444344",
"1S    c #434343",
"1T    c #8E8345",
"1U    c #FEF46C",
"1V    c #A5A45D",
"1W    c #454540",
"1X    c #3E403F",
"1Y    c #3D3D3D",
"1Z    c #3D3D3E",
"1&    c #3D3E3C",
"2     c #3C3D3D",
"20    c #3D3C3B",
"21    c #3C3C3C",
"22    c #3B3B3D",
"23    c #3C3B3C",
"24    c #3C3B3A",
"25    c #3C3B3B",
"26    c #3B3B3B",
"27    c #3D3C3C",
"28    c #3D3E3E",
"29    c #3F3E3E",
"2a    c #414140",
"2b    c #404241",
"2c    c #424343",
"2d    c #4A4949",
"2e    c #464847",
"2f    c #454445",
"2g    c #434242",
"2h    c #404041",
"2i    c #41403F",
"2j    c #3E3E3F",
"2k    c #8C7F42",
"2l    c #FFCD47",
"2m    c #FEDA54",
"2n    c #D9CF5C",
"2o    c #656345",
"2p    c #393939",
"2q    c #393A38",
"2r    c #393938",
"2s    c #393838",
"2t    c #383839",
"2u    c #393839",
"2v    c #383737",
"2w    c #383738",
"2x    c #363836",
"2y    c #373736",
"2z    c #363837",
"2A    c #373838",
"2B    c #3A3939",
"2C    c #3A3B3B",
"2D    c #3F3F3D",
"2E    c #3F3E3F",
"2F    c #404040",
"2G    c #494948",
"2H    c #474646",
"2I    c #454646",
"2J    c #434543",
"2K    c #414343",
"2L    c #3D3F3E",
"2M    c #3B3B3A",
"2N    c #8A7A3D",
"2O    c #FEC242",
"2P    c #FEA331",
"2Q    c #FEB93E",
"2R    c #F9D451",
"2S    c #9A904A",
"2T    c #343534",
"2U    c #353535",
"2V    c #343435",
"2W    c #343335",
"2X    c #333434",
"2Y    c #343533",
"2Z    c #323233",
"2&    c #333333",
"3     c #333334",
"30    c #343433",
"31    c #353334",
"32    c #353634",
"33    c #363736",
"34    c #373836",
"35    c #373737",
"36    c #393A3A",
"37    c #3A3A3A",
"38    c #3B3C3B",
"39    c #3C3C3D",
"3a    c #414141",
"3b    c #3F3F40",
"3c    c #3E3F3F",
"3d    c #3C3D3C",
"3e    c #373837",
"3f    c #87753A",
"3g    c #FEC743",
"3h    c #FEC13A",
"3i    c #FA9626",
"3j    c #FE942B",
"3k    c #FEC343",
"3l    c #D3AE47",
"3m    c #504D37",
"3n    c #313031",
"3o    c #2F312F",
"3p    c #303030",
"3q    c #2F3031",
"3r    c #2F2F30",
"3s    c #2E2F2E",
"3t    c #302F2F",
"3u    c #2E3030",
"3v    c #313231",
"3w    c #323232",
"3x    c #333233",
"3y    c #343434",
"3z    c #353534",
"3A    c #373636",
"3B    c #373738",
"3C    c #383938",
"3D    c #39393A",
"3E    c #434544",
"3F    c #3F4040",
"3G    c #3B3C3D",
"3H    c #3B3B39",
"3I    c #383939",
"3J    c #363636",
"3K    c #867238",
"3L    c #FFC843",
"3M    c #FFCE3F",
"3N    c #FEC63D",
"3O    c #FAA82D",
"3P    c #F78922",
"3Q    c #FDA631",
"3R    c #F9B83E",
"3S    c #90783B",
"3T    c #2E2E2D",
"3U    c #2C2E2D",
"3V    c #2D2C2C",
"3W    c #2C2B2B",
"3X    c #6E6E3C",
"3Y    c #BDBD3C",
"3Z    c #BDBE3C",
"3&    c #BDBD3B",
"4     c #989738",
"40    c #313132",
"41    c #353636",
"42    c #363738",
"43    c #393A3B",
"44    c #3C3C3B",
"45    c #424342",
"46    c #3E3E3E",
"47    c #806A34",
"48    c #FEC642",
"49    c #FEC93B",
"4a    c #FEC83D",
"4b    c #FEC43A",
"4c    c #FEB733",
"4d    c #F38D21",
"4e    c #EC8621",
"4f    c #FCA832",
"4g    c #C9983C",
"4h    c #453F2F",
"4i    c #2A2A2A",
"4j    c #292929",
"4k    c #292829",
"4l    c #292828",
"4m    c #797A3F",
"4n    c #FEFE40",
"4o    c #FEFE41",
"4p    c #FEFF42",
"4q    c #CACA3B",
"4r    c #2E2F2F",
"4s    c #2F2F31",
"4t    c #313131",
"4u    c #323132",
"4v    c #343233",
"4w    c #373535",
"4x    c #383937",
"4y    c #3B3A3B",
"4z    c #403F3E",
"4A    c #373939",
"4B    c #363537",
"4C    c #333332",
"4D    c #7F6934",
"4E    c #FFBA3B",
"4F    c #FFC93C",
"4G    c #FEC63B",
"4H    c #FEC338",
"4I    c #FEBF37",
"4J    c #FEB833",
"4K    c #F6B347",
"4L    c #FDB94A",
"4M    c #F39521",
"4N    c #936523",
"4O    c #302D2A",
"4P    c #282828",
"4Q    c #282827",
"4R    c #282927",
"4S    c #79793E",
"4T    c #FEFF40",
"4U    c #FFFE3F",
"4V    c #FFFE40",
"4W    c #CACB3A",
"4X    c #2D2E2E",
"4Y    c #302F30",
"4Z    c #363635",
"4&    c #373637",
"5     c #383838",
"50    c #393A39",
"51    c #3B3C3A",
"52    c #7E6834",
"53    c #FFC13E",
"54    c #FFC437",
"55    c #FEC439",
"56    c #FFC236",
"57    c #FEC03A",
"58    c #FFD36F",
"59    c #FCB84F",
"5a    c #D3821B",
"5b    c #5B4223",
"5c    c #2C2B2C",
"5d    c #2B2A2A",
"5e    c #292A29",
"5f    c #29292A",
"5g    c #6C6C3B",
"5h    c #FEFE3C",
"5i    c #FEFF3C",
"5j    c #FEFE3D",
"5k    c #C6C533",
"5l    c #232323",
"5m    c #323333",
"5n    c #343436",
"5o    c #363637",
"5p    c #3A3A39",
"5q    c #3A3B3A",
"5r    c #3E3C3D",
"5s    c #3B3C3C",
"5t    c #3A3A3B",
"5u    c #363838",
"5v    c #353635",
"5w    c #353434",
"5x    c #806734",
"5y    c #FEBC3A",
"5z    c #FEBA31",
"5A    c #FFC537",
"5B    c #FECF52",
"5C    c #FED263",
"5D    c #F9A62C",
"5E    c #AA6B19",
"5F    c #3B342B",
"5G    c #2C2D2D",
"5H    c #2C2E2E",
"5I    c #2C2C2D",
"5J    c #2B2B2C",
"5K    c #2C2C2C",
"5L    c #292928",
"5M    c #181717",
"5N    c #161515",
"5O    c #161617",
"5P    c #181616",
"5Q    c #2B2C2C",
"5R    c #343535",
"5S    c #383638",
"5T    c #3A393A",
"5U    c #3E3D3F",
"5V    c #3C3A3B",
"5W    c #806836",
"5X    c #FEC142",
"5Y    c #FEBF36",
"5Z    c #FFD863",
"5&    c #FDC24B",
"6     c #E18F1F",
"60    c #6A4B23",
"61    c #313030",
"62    c #313130",
"63    c #303130",
"64    c #2F3030",
"65    c #2F302E",
"66    c #2F2F2F",
"67    c #2E2F30",
"68    c #2D2D2D",
"69    c #171718",
"6a    c #181718",
"6b    c #181819",
"6c    c #1F1E1E",
"6d    c #333331",
"6e    c #353736",
"6f    c #3B3B3C",
"6g    c #424040",
"6h    c #3E3D3D",
"6i    c #826837",
"6j    c #FFCF56",
"6k    c #FEDA65",
"6l    c #FAAF2C",
"6m    c #B77620",
"6n    c #483D2F",
"6o    c #323332",
"6p    c #333232",
"6q    c #323131",
"6r    c #1C1C1C",
"6s    c #181918",
"6t    c #191918",
"6u    c #1A1919",
"6v    c #19191A",
"6w    c #242423",
"6x    c #373638",
"6y    c #434244",
"6z    c #414142",
"6A    c #3F3F3F",
"6B    c #846A38",
"6C    c #FEB932",
"6D    c #EC9E22",
"6E    c #865E28",
"6F    c #363737",
"6G    c #353536",
"6H    c #262726",
"6I    c #1A1A1A",
"6J    c #1B1A1A",
"6K    c #1B1A1B",
"6L    c #1C1C1B",
"6M    c #3D3E3D",
"6N    c #444644",
"6O    c #434243",
"6P    c #414242",
"6Q    c #846A39",
"6R    c #BE7E24",
"6S    c #544834",
"6T    c #3A393B",
"6U    c #393739",
"6V    c #1D1D1D",
"6W    c #1B1D1C",
"6X    c #1C1C1D",
"6Y    c #1C1D1D",
"6Z    c #222021",
"6&    c #3A3938",
"7     c #3C3E3C",
"70    c #3E3D3E",
"71    c #3E4040",
"72    c #40403F",
"73    c #484A48",
"74    c #484847",
"75    c #474647",
"76    c #464646",
"77    c #444442",
"78    c #414241",
"79    c #4F473C",
"7a    c #3E3C3E",
"7b    c #353333",
"7c    c #1E1C1E",
"7d    c #222423",
"7e    c #383637",
"7f    c #1D1E1E",
"7g    c #1D1D1E",
"7h    c #1D1E1F",
"7i    c #1E1E1F",
"7j    c #3E3F40",
"7k    c #434142",
"7l    c #414040",
"7m    c #343333",
"7n    c #1F1E1F",
"7o    c #212222",
"7p    c #2F2F2E",
"7q    c #3E3F3E",
"7r    c #3F3F3E",
"7s    c #222223",
"7t    c #1F1F1F",
"7u    c #202020",
"7v    c #20201F",
"7w    c #242525",
"7x    c #4C4C4D",
"7y    c #494B4B",
"7z    c #474848",
"7A    c #212021",
"7B    c #212121",
"7C    c #212120",
"7D    c #2A292A",
"7E    c #383837",
"7F    c #434241",
"7G    c #424143",
"7H    c #434143",
"7I    c #212221",
"7J    c #2B2A2B",
"7K    c #414240",
"7L    c #454344",
"7M    c #464644",
"7N    c #4F5051",
"7O    c #4E504F",
"7P    c #4E4E4E",
"7Q    c #4D4E4D",
"7R    c #4C4C4C",
"7S    c #4C4B4B",
"7T    c #4B494B",
"7U    c #474847",
"7V    c #3A3C3A",
"7W    c #212123",
"7X    c #222222",
"7Y    c #232322",
"7Z    c #222221",
"7&    c #252525",
"8     c #444446",
"80    c #272827",
"81    c #222322",
"82    c #242422",
"83    c #2B292A",
"84    c #515050",
"85    c #4D4C4E",
"86    c #4C4B4A",
"87    c #232324",
"88    c #242424",
"89    c #232325",
"8a    c #252424",
"8b    c #252325",
"8c    c #2C2D2E",
"8d    c #434342",
"8e    c #484646",
"8f    c #484947",
"8g    c #2F2E2D",
"8h    c #4B4A49",
"8i    c #4A4B4B",
"     0 1 2 2 3 4 5 5 6 7 8 9 a b c d e f g h i j j k l m n o p q q r d s t u v v w",
" x y z A B C D E E F G H I i k J K L M N O P Q R S S T U V W X Y Z W & W T T0  Y00",
"0102 a s G u03040506070808 Q090a V0b0c0d0e0f0f0f0g0h0i0j0j0j0k0j0i0l0l0m0n0o0p0q0f",
"0r0s0t0u L q0v08 T0w0x0e0h0l0k0y0y0z0A0B0C0D0E0F0G0H0I0H0J0J0K0L0M0N0O0P0O0Q0R0S0T",
" m0U0V0W Y0x0X0l0Y0Z0&0R1 10110I1213121415161718191a1b191c181d1e1f1g1h1i121j0I1k1l",
" T1m0d0i0k0Y0R0O1n1o1p1q1r1s1t1u1v1w1x1y1z1A1B1A1C1D1B1E1D1F1G1A1A1H1I1u1t1c181e1J",
"1K1L1M0C1N1O1P1Q1R1S1T1U1V1W1X1Y1Z1&2 1Y20212223242525262527202 2828291B1C2a2b2c1u",
"0z2d0L2e162f2g2h2i2j2k2l2m2n2o2p2q2r2s2t2u2v2w2w2w2x2y2z2A2w2s2q2B2C25201Y2D2E2F2F",
"2G2H2I2J2K1w1E2L272M2N2O2P2Q2R2S2T2U2V2W2X2Y2Z2&2Z2X3 3031322U3334352r363738391Z29",
"16182g3a3b3c3d372u3e3f3g3h3i3j3k3l3m3n3o3p3q3r3s3t3u3t3p3v3w3w3x3y3z3A3B3C3D2M383d",
"3E1u2a3F283G3H3I3J3J3K3L3M3N3O3P3Q3R3S3T3U3V3W3W3W3X3Y3Z3&4 3o402Z2X3141422s2t4344",
"452F3F4620263C2v2U3 4748494a4b4c4d4e4f4g4h4i4j4k4l4m4n4o4p4q4r4s4t4u4v2U4w3A4x374y",
"1v2F4z21263D4A4B2T4C4D4E4F4G4H4I4J4K4L4M4N4O4P4Q4R4S4T4U4V4W4X4Y4Y4u2&3 4Z4&5 2p50",
"1I2h2j2751502t4&2U2&52535455565758595a5b5c5d5e5f5f5g5h5i5j5k5l3p4t5m3w3y5n5o2r5p5q",
"1I2h1E5r5s5t2u5u5v5w5x5y5z5A5B5C5D5E5F5G4X5H5I5J5I5K5L5M5N5O5P5Q4u3w5R4Z335S2A505T",
"1I2a1B5U2 5V372t3e2y5W5X5Y5Z5&6 603t61626364653r6667685M696a6b6c6d5R3J6e2y2p2p2C6f",
"1b1S6g2F3c6h21372B2p6i6j6k6l6m6n2&4C2Z306o6p3w3w6o406q6r6s6t6u6v6w4&6x5 3I375V231Y",
"1J196y6z1F6A291Y446f6B6C6D6E354Z3A6F3J2U2U6G6G3z3y2U2U6H6I6J6J6K6L5G2q5T3744392 6M",
"0I1j6N1S6O6P1F2F2E1Y6Q6R6S4y6T413V332r3C3I3I3I6U3C2s2u6p6V6L6W6X6Y6Z6&3d7 70707172",
"73747576151R77786z1A791D466M7a7b7c7d7e6f265s255s24262C445K7f7g7h7i7i5G6A7j6A1z6z1u",
"0y1N0O100I1P762f1a1u457k1y7l1z7m7n6c7o7p1Z2F1E7q2j7q467r517s7t7t7u7v7w46781x2c1S1f",
"0i0k7x1M7y2G0K7z2e1h2I1f1r1h1a317A7u7B7C7D7E1w7F7G1x7H787k3n7B7I7B7I7J7K7L7M761g1j",
"7N7O7P7Q0Y7R7S7T0P0L0I1O0I7U7U7V7W7X7Y7Z5l7&2v6O2f1r1r2f8 45807s81828318751o7U0J0G",
" Y V840b0d7P0h850k0Y0T860E0&0F1w878888898a8b8a8c8d8e741O0I8f504X4Y8g412e0D8h0C0&8i"};
