/* XPM */
static char *CPSC_xpm[]={
"32 32 769 2",
"      c #621C1C",
" 0    c #772322",
" 1    c #802624",
" 2    c #822525",
" 3    c #7F2623",
" 4    c #7D2523",
" 5    c #7C2624",
" 6    c #7B2522",
" 7    c #792321",
" 8    c #772321",
" 9    c #742220",
" a    c #712120",
" b    c #6F201F",
" c    c #6D201E",
" d    c #6B1F1E",
" e    c #844927",
" f    c #AE8732",
" g    c #77381F",
" h    c #631D1C",
" i    c #621D1B",
" j    c #611C1B",
" k    c #5F1C1A",
" l    c #5D1D1B",
" m    c #5D1C19",
" n    c #5C1C1A",
" o    c #5B1A1A",
" p    c #5A1A19",
" q    c #591A19",
" r    c #5A1A1A",
" s    c #581918",
" t    c #712021",
" u    c #7C2523",
" v    c #7D2524",
" w    c #7C2524",
" x    c #7C2423",
" y    c #AC5F2C",
" z    c #D9B878",
" A    c #B17942",
" B    c #8B492A",
" C    c #874924",
" D    c #7D481B",
" E    c #7B491A",
" F    c #825A1B",
" G    c #836017",
" H    c #7F6116",
" I    c #8B6D17",
" J    c #B39639",
" K    c #FACE43",
" L    c #BF9749",
" M    c #67251D",
" N    c #5E1B1C",
" O    c #5D1B1B",
" P    c #5C1B1A",
" Q    c #5B1B19",
" R    c #591B19",
" S    c #581A1A",
" T    c #571A18",
" U    c #581A19",
" V    c #561A19",
" W    c #792423",
" X    c #7A2423",
" Y    c #772323",
" Z    c #772221",
" &    c #BF6C16",
"0     c #F0AC19",
"00    c #D5B85D",
"01    c #8B6C20",
"02    c #82551D",
"03    c #7A4A1A",
"04    c #74391C",
"05    c #7B421B",
"06    c #6D311A",
"07    c #70301B",
"08    c #631E1C",
"09    c #6B2A1E",
"0a    c #A1791D",
"0b    c #875527",
"0c    c #B19235",
"0d    c #A07E3D",
"0e    c #68301B",
"0f    c #581A18",
"0g    c #581919",
"0h    c #571A19",
"0i    c #561A18",
"0j    c #571A17",
"0k    c #561A17",
"0l    c #551A19",
"0m    c #551919",
"0n    c #762322",
"0o    c #752120",
"0p    c #742221",
"0q    c #742321",
"0r    c #732220",
"0s    c #7B2A1E",
"0t    c #BC991F",
"0u    c #8B5F23",
"0v    c #AD9A64",
"0w    c #8E5648",
"0x    c #681F1C",
"0y    c #651E1C",
"0z    c #641F1D",
"0A    c #763621",
"0B    c #884F2B",
"0C    c #956525",
"0D    c #895420",
"0E    c #7C501A",
"0F    c #5B1C19",
"0G    c #78481F",
"0H    c #B39533",
"0I    c #A58640",
"0J    c #6C381D",
"0K    c #561918",
"0L    c #541917",
"0M    c #551917",
"0N    c #541918",
"0O    c #551918",
"0P    c #541818",
"0Q    c #72221F",
"0R    c #71221F",
"0S    c #6E201F",
"0T    c #6D211F",
"0U    c #6C1F1E",
"0V    c #6B5810",
"0W    c #691E1D",
"0X    c #6A291B",
"0Y    c #8A722D",
"0Z    c #B69982",
"0&    c #854B2B",
"1     c #D3BC7D",
"10    c #FEF2B6",
"11    c #FBF488",
"12    c #C9B947",
"13    c #A99B29",
"14    c #9C8E1A",
"15    c #8B7315",
"16    c #622D17",
"17    c #551A17",
"18    c #551817",
"19    c #67341B",
"1a    c #BCA25C",
"1b    c #B1954D",
"1c    c #926D28",
"1d    c #9E7E24",
"1e    c #5D2719",
"1f    c #521916",
"1g    c #531716",
"1h    c #521917",
"1i    c #531718",
"1j    c #6D2020",
"1k    c #6C201F",
"1l    c #6C201E",
"1m    c #691F1D",
"1n    c #671E1D",
"1o    c #6B5913",
"1p    c #661E1C",
"1q    c #631E1B",
"1r    c #83601C",
"1s    c #BFB765",
"1t    c #FDFCE7",
"1u    c #FEFFFE",
"1v    c #F7F0A7",
"1w    c #B3AA42",
"1x    c #918721",
"1y    c #827A13",
"1z    c #7B750C",
"1A    c #7C750A",
"1B    c #5D2C13",
"1C    c #5A2915",
"1D    c #5D3413",
"1E    c #776015",
"1F    c #A79722",
"1G    c #FED933",
"1H    c #B77613",
"1I    c #501816",
"1J    c #511817",
"1K    c #511816",
"1L    c #6A201D",
"1M    c #691F1E",
"1N    c #671F1E",
"1O    c #651F1B",
"1P    c #796112",
"1Q    c #5E1D1B",
"1R    c #64271B",
"1S    c #D2B739",
"1T    c #DECB61",
"1U    c #C5BB76",
"1V    c #E9D866",
"1W    c #F7F466",
"1X    c #C6C33F",
"1Y    c #857E14",
"1Z    c #75700B",
"1&    c #706C08",
"2     c #6B6707",
"20    c #665E04",
"21    c #6B6306",
"22    c #5C4B08",
"23    c #5D440C",
"24    c #562E11",
"25    c #A47C1F",
"26    c #DA9511",
"27    c #7A3E14",
"28    c #4E1716",
"29    c #4F1617",
"2a    c #4E1715",
"2b    c #4F1716",
"2c    c #671E1E",
"2d    c #661F1D",
"2e    c #651D1D",
"2f    c #621E1C",
"2g    c #611D1B",
"2h    c #776314",
"2i    c #5D1B1A",
"2j    c #896319",
"2k    c #AE9C2F",
"2l    c #A79A3B",
"2m    c #AE9D49",
"2n    c #E8B415",
"2o    c #FEC81A",
"2p    c #FFBD12",
"2q    c #716406",
"2r    c #645B05",
"2s    c #625A05",
"2t    c #686304",
"2u    c #6B630A",
"2v    c #68500B",
"2w    c #4C1816",
"2x    c #4D1714",
"2y    c #4D1615",
"2z    c #6A471B",
"2A    c #522812",
"2B    c #4E1616",
"2C    c #4C1715",
"2D    c #4E1815",
"2E    c #641D1C",
"2F    c #621E1D",
"2G    c #5F1D1A",
"2H    c #5E1C19",
"2I    c #5D1D1A",
"2J    c #725E10",
"2K    c #581B18",
"2L    c #571B19",
"2M    c #7B6C0E",
"2N    c #92871C",
"2O    c #857919",
"2P    c #7F7117",
"2Q    c #B8920D",
"2R    c #FEBC0E",
"2S    c #EDAB0C",
"2T    c #5C560A",
"2U    c #83782F",
"2V    c #675A17",
"2W    c #585105",
"2X    c #735A0B",
"2Y    c #706705",
"2Z    c #4A1715",
"2&    c #4B1615",
"3     c #491615",
"30    c #6F5A14",
"31    c #4C1A13",
"32    c #4A1615",
"33    c #4B1514",
"34    c #4B1715",
"35    c #4D1716",
"36    c #4C1616",
"37    c #601D1B",
"38    c #601D1A",
"39    c #591A18",
"3a    c #725F10",
"3b    c #561B18",
"3c    c #592316",
"3d    c #6F6806",
"3e    c #70650C",
"3f    c #716B14",
"3g    c #6E6B07",
"3h    c #676103",
"3i    c #76680C",
"3j    c #88620F",
"3k    c #565001",
"3l    c #534B01",
"3m    c #514B01",
"3n    c #565002",
"3o    c #5D5803",
"3p    c #6D650A",
"3q    c #4E1F12",
"3r    c #471513",
"3s    c #4D1A15",
"3t    c #674F13",
"3u    c #491614",
"3v    c #4A1514",
"3w    c #5E1B1B",
"3x    c #5B1C1A",
"3y    c #5A1B18",
"3z    c #581A17",
"3A    c #67550F",
"3B    c #592814",
"3C    c #625A04",
"3D    c #67600D",
"3E    c #655E11",
"3F    c #615B16",
"3G    c #636309",
"3H    c #62580E",
"3I    c #5D5804",
"3J    c #635A01",
"3K    c #5D5402",
"3L    c #585102",
"3M    c #524C02",
"3N    c #645D04",
"3O    c #4E2312",
"3P    c #461514",
"3Q    c #552A15",
"3R    c #58390F",
"3S    c #461614",
"3T    c #481514",
"3U    c #491513",
"3V    c #4A1515",
"3W    c #491515",
"3X    c #5B1A19",
"3Y    c #531918",
"3Z    c #695312",
"3&    c #726604",
"4     c #676014",
"40    c #605D0B",
"41    c #615917",
"42    c #645B18",
"43    c #5B560A",
"44    c #626702",
"45    c #676202",
"46    c #675D02",
"47    c #605803",
"48    c #5B5303",
"49    c #574E04",
"4a    c #615A05",
"4b    c #481B12",
"4c    c #431413",
"4d    c #674712",
"4e    c #4C2310",
"4f    c #451614",
"4g    c #461413",
"4h    c #491414",
"4i    c #531917",
"4j    c #531916",
"4k    c #695210",
"4l    c #4B1616",
"4m    c #7F631B",
"4n    c #6B6311",
"4o    c #645D13",
"4p    c #635B14",
"4q    c #655D17",
"4r    c #5B530A",
"4s    c #63630B",
"4t    c #656803",
"4u    c #696502",
"4v    c #685D04",
"4w    c #625903",
"4x    c #5D5303",
"4y    c #5B4709",
"4z    c #411511",
"4A    c #431411",
"4B    c #604910",
"4C    c #441712",
"4D    c #451513",
"4E    c #441414",
"4F    c #451414",
"4G    c #451413",
"4H    c #471614",
"4I    c #471613",
"4J    c #551816",
"4K    c #501917",
"4L    c #7A4A30",
"4M    c #AC902F",
"4N    c #7F5833",
"4O    c #7C5626",
"4P    c #96761D",
"4Q    c #736B07",
"4R    c #6A5F1B",
"4S    c #655B1B",
"4T    c #675D18",
"4U    c #63540B",
"4V    c #64620F",
"4W    c #636705",
"4X    c #6A6702",
"4Y    c #6D6203",
"4Z    c #665C03",
"4&    c #615607",
"5     c #4B290E",
"50    c #411411",
"51    c #461B11",
"52    c #5D4710",
"53    c #431513",
"54    c #431313",
"55    c #431412",
"56    c #451514",
"57    c #471514",
"58    c #511717",
"59    c #511917",
"5a    c #4D1715",
"5b    c #A5630D",
"5c    c #EBAA18",
"5d    c #7D5913",
"5e    c #5E3812",
"5f    c #461612",
"5g    c #63490A",
"5h    c #696509",
"5i    c #6B601A",
"5j    c #685D1A",
"5k    c #6A570C",
"5l    c #666211",
"5m    c #666A07",
"5n    c #6D6903",
"5o    c #6F6504",
"5p    c #6C6004",
"5q    c #5D4809",
"5r    c #3E1210",
"5s    c #3F1311",
"5t    c #512B14",
"5u    c #51360D",
"5v    c #421411",
"5w    c #411413",
"5x    c #421512",
"5y    c #441412",
"5z    c #531818",
"5A    c #501717",
"5B    c #4F1815",
"5C    c #4C1814",
"5D    c #562114",
"5E    c #7F4F11",
"5F    c #594807",
"5G    c #481E12",
"5H    c #441513",
"5I    c #441711",
"5J    c #644C0B",
"5K    c #787205",
"5L    c #645C10",
"5M    c #66620A",
"5N    c #595607",
"5O    c #676704",
"5P    c #746B04",
"5Q    c #655805",
"5R    c #58400A",
"5S    c #684E10",
"5T    c #44230F",
"5U    c #3D1311",
"5V    c #614613",
"5W    c #47220E",
"5X    c #401412",
"5Y    c #401413",
"5Z    c #411412",
"5&    c #431312",
"6     c #451313",
"60    c #461412",
"61    c #501916",
"62    c #511716",
"63    c #4B1614",
"64    c #4A1613",
"65    c #481513",
"66    c #4A1E10",
"67    c #5A4A07",
"68    c #471D10",
"69    c #3E1512",
"6a    c #4B280D",
"6b    c #766313",
"6c    c #796907",
"6d    c #766C05",
"6e    c #746506",
"6f    c #645108",
"6g    c #382208",
"6h    c #371110",
"6i    c #3B1310",
"6j    c #55370F",
"6k    c #755410",
"6l    c #8E730F",
"6m    c #4B1E11",
"6n    c #401212",
"6o    c #411312",
"6p    c #421312",
"6q    c #491514",
"6r    c #451612",
"6s    c #481E10",
"6t    c #5A4D06",
"6u    c #441D11",
"6v    c #3E1311",
"6w    c #675910",
"6x    c #3C1310",
"6y    c #3C130F",
"6z    c #3C1410",
"6A    c #36120E",
"6B    c #180706",
"6C    c #210909",
"6D    c #34100E",
"6E    c #44210E",
"6F    c #8F730B",
"6G    c #FBB00F",
"6H    c #81470E",
"6I    c #3F1411",
"6J    c #401311",
"6K    c #411313",
"6L    c #290B0C",
"6M    c #300E0E",
"6N    c #4F1817",
"6O    c #4B1515",
"6P    c #481515",
"6Q    c #461613",
"6R    c #421413",
"6S    c #461F0F",
"6T    c #544A07",
"6U    c #401B10",
"6V    c #3D1611",
"6W    c #5C4C10",
"6X    c #3A130F",
"6Y    c #3B130F",
"6Z    c #3A1211",
"6&    c #35110E",
"7     c #261408",
"70    c #3B2F06",
"71    c #463D03",
"72    c #342704",
"73    c #3D270A",
"74    c #80530B",
"75    c #3F190C",
"76    c #3C1211",
"77    c #3E1411",
"78    c #401312",
"79    c #2B0D0D",
"7a    c #1E0807",
"7b    c #4C1514",
"7c    c #491715",
"7d    c #461414",
"7e    c #44200F",
"7f    c #524809",
"7g    c #44220F",
"7h    c #5C4A10",
"7i    c #3A1310",
"7j    c #3B1610",
"7k    c #43270A",
"7l    c #564606",
"7m    c #443A04",
"7n    c #251606",
"7o    c #1B0806",
"7p    c #1E0909",
"7q    c #1C0908",
"7r    c #1C0807",
"7s    c #1A0708",
"7t    c #1F0908",
"7u    c #240A09",
"7v    c #240B0A",
"7w    c #310F0E",
"7x    c #300E0D",
"7y    c #1E0808",
"7z    c #431512",
"7A    c #411410",
"7B    c #48250F",
"7C    c #E79E17",
"7D    c #C38612",
"7E    c #66480A",
"7F    c #4D3909",
"7G    c #44230D",
"7H    c #35110F",
"7I    c #180707",
"7J    c #210B08",
"7K    c #310F0D",
"7L    c #3B1210",
"7M    c #39110F",
"7N    c #32100D",
"7O    c #2C0C0D",
"7P    c #250C0A",
"7Q    c #1C0806",
"7R    c #1B0908",
"7S    c #1D0908",
"7T    c #1E0907",
"7U    c #461513",
"7V    c #441512",
"7W    c #421412",
"7X    c #401411",
"7Y    c #431910",
"7Z    c #F9B90A",
"7&    c #FEB40B",
"8     c #66380F",
"80    c #3B120F",
"81    c #2F100C",
"82    c #36100F",
"83    c #1F0A09",
"84    c #391211",
"85    c #3D1212",
"86    c #3E1310",
"87    c #320E0D",
"88    c #2E0E0D",
"89    c #270A0B",
"8a    c #200909",
"8b    c #4B1716",
"8c    c #481615",
"8d    c #3E1312",
"8e    c #66390E",
"8f    c #6D3B0E",
"8g    c #3B110F",
"8h    c #290D0A",
"8i    c #1C0808",
"8j    c #37100E",
"8k    c #300F0C",
"8l    c #230A0A",
"8m    c #3D1211",
"8n    c #411212",
"8o    c #4A1716",
"8p    c #481614",
"8q    c #3C1311",
"8r    c #3B1211",
"8s    c #3C1111",
"8t    c #210A08",
"8u    c #300F0D",
"8v    c #3F1213",
"8w    c #411311",
"8x    c #421313",
"8y    c #471515",
"8z    c #734B0F",
"8A    c #AC900C",
"8B    c #B79D09",
"8C    c #88670D",
"8D    c #522711",
"8E    c #86660D",
"8F    c #997A0B",
"8G    c #98780B",
"8H    c #98790A",
"8I    c #98790C",
"8J    c #795C0A",
"8K    c #3A2508",
"8L    c #8B7408",
"8M    c #96790B",
"8N    c #91720A",
"8O    c #4F260F",
"8P    c #2B1609",
"8Q    c #96780B",
"8R    c #3F1212",
"8S    c #401211",
"8T    c #4D1C14",
"8U    c #C5AE0B",
"8V    c #DCC809",
"8W    c #9A7D0C",
"8X    c #89660D",
"8Y    c #BDA50A",
"8Z    c #BEA50A",
"8&    c #987A0C",
"9     c #A4880C",
"90    c #B19509",
"91    c #F9E706",
"92    c #A3860B",
"93    c #A3880B",
"94    c #7C620A",
"95    c #524007",
"96    c #E6D106",
"97    c #A3870A",
"98    c #BBA20A",
"99    c #ECD805",
"9a    c #4A2010",
"9b    c #3E1D0C",
"9c    c #F8E405",
"9d    c #3E1211",
"9e    c #481613",
"9f    c #9E7E0C",
"9g    c #D0BD0A",
"9h    c #4A1B13",
"9i    c #431311",
"9j    c #3F1412",
"9k    c #492011",
"9l    c #F3E007",
"9m    c #2B0C0C",
"9n    c #534107",
"9o    c #CDB708",
"9p    c #623B0F",
"9q    c #492110",
"9r    c #F7E705",
"9s    c #230B09",
"9t    c #401313",
"9u    c #D6C409",
"9v    c #734C10",
"9w    c #441413",
"9x    c #4B2111",
"9y    c #F9E906",
"9z    c #544107",
"9A    c #DFCB07",
"9B    c #AA8F0B",
"9C    c #EDD907",
"9D    c #4A1F10",
"9E    c #F8E706",
"9F    c #1D0909",
"9G    c #330F0E",
"9H    c #421214",
"9I    c #481415",
"9J    c #D7C509",
"9K    c #744E11",
"9L    c #441514",
"9M    c #461A11",
"9N    c #F9EA05",
"9O    c #3A1110",
"9P    c #200A08",
"9Q    c #5D4409",
"9R    c #ECDA06",
"9S    c #C3A90A",
"9T    c #6D490F",
"9U    c #3B1C0C",
"9V    c #FFEE07",
"9W    c #1D0807",
"9X    c #210A09",
"9Y    c #2A0C0C",
"9Z    c #2D0D0C",
"9&    c #4A1415",
"a     c #A3850E",
"a0    c #BFA80A",
"a1    c #421311",
"a2    c #3F1312",
"a3    c #FFF206",
"a4    c #1D0907",
"a5    c #5D460B",
"a6    c #D5C009",
"a7    c #997A0D",
"a8    c #E1CD07",
"a9    c #37140E",
"aa    c #2D1809",
"ab    c #FFF006",
"ac    c #1F0909",
"ad    c #1F0808",
"ae    c #220A0A",
"af    c #391110",
"ag    c #4A1614",
"ah    c #481414",
"ai    c #4D1C13",
"aj    c #D6C509",
"ak    c #CBB70A",
"al    c #734D10",
"am    c #6C4510",
"an    c #95770D",
"ao    c #B2990A",
"ap    c #FFF205",
"aq    c #270B0C",
"ar    c #1F0809",
"as    c #68480D",
"at    c #D5C109",
"au    c #3F1211",
"av    c #3E1213",
"aw    c #CFB908",
"ax    c #978507",
"ay    c #251008",
"az    c #FEF106",
"aA    c #412C08",
"aB    c #412E09",
"aC    c #412D08",
"aD    c #3B2708",
"aE    c #22090A",
"aF    c #2B0D0C",
"aG    c #471415",
"aH    c #4B1C13",
"aI    c #97780E",
"aJ    c #D6C30A",
"aK    c #BEA80B",
"aL    c #6B440F",
"aM    c #E1D007",
"aN    c #441911",
"aO    c #220909",
"aP    c #1F0A08",
"aQ    c #5D3B0D",
"aR    c #C2AB0A",
"aS    c #42240D",
"aT    c #D4C507",
"aU    c #4F3B07",
"aV    c #E3D307",
"aW    c #E3D406",
"aX    c #E3D407",
"aY    c #E3D508",
"aZ    c #A39207",
"a&    c #210808",
"b     c #21080A",
"   0 1 2 1 3 4 5 6 7 8 9 a b c d e f g h i j k l m m n o p q r s",
" t u v w x y z A B C D E F G H I J K L M N O P r Q r R S T U T V",
" W W X Y Z &0 000102030405060708090a0b0c0d0e q0f0g0h0i0j0k V0l0m",
"0n0o0p0q0r0s0t0u0v0w0x0y0z0A0B0C0D0E0F Q0G0H0I0J0K0L0L0M0N0O0P0N",
"0r0Q0R0S0T0U0V0W0X0Y0Z0&1 101112131415161718191a1b1c1d1e1f1g1h1i",
"1j0S1k1l1m1n1o1p1q i1r1s1t1u1v1w1x1y1z1A1B1h1C1D1E1F1G1H1I1J1K1K",
"1L1L1M1N1O1q1P  1Q1R1S1T1U1V1W1X1Y1Z1&2 202122232425262728292a2b",
"2c2d2e h2f2g2h2i Q2j2k2l2m2n2o2p2q2r2s2t2u2v2w2x2y2z2A2B2C2D2a2y",
"2E2F2g2G2H2I2J2K2L2M2N2O2P2Q2R2S2T2U2V2W2X2Y2Z2&3 30313233343536",
"3738 k n o393a3b3c3d3e3f3g3h3i3j3k3l3m3n3o3p3q3r3s3t323u3v3 3v36",
" k3w3x3y3z0h3A1f3B3C3D3E3F3G3H3I3J3K3L3M3L3N3O3P3Q3R3S3T3 3U3V3W",
"3X r0g0h0O3Y3Z2b2D3&4 404142434445464748494a4b4c4d4e3S4f4g3T3 4h",
"0h3b174i4j1h4k2D4l4m4n4o4p4q4r4s4t4u4v4w4x4y4z4A4B4C4D4E4F4G4H4I",
"0h V4J4i4K4L4M4N4O4P4Q4R4S4T4U4V4W4X4Y4Z4&5 5051525354554E563P57",
"0L1h58595a5b5c5d5e5f5g5h5i5j5k5l5m5n5o5p5q5r5s5t5u5v5w5x535y4D4G",
"5z1J5A5B5C5D5E5F5G5H5I5J5K5L5M5N5O5P5Q5R5S5T5U5V5W5X5Y5Z4A5&6 60",
"61622a5a6364656667685X696a6b6c6d6e6f6g6h6i6j6k6l6m6n506o6p555453",
"1I2a5a4l3u6q3S6r6s6t6u5s6v6w6x6y6z6A6B6C6D6E6F6G6H6I5s6J6K556L6M",
"6N2y4l6O6P576Q5H6R6S6T6U6V6W6X6Y6Z6&7 7071727374757677786o6o797a",
"2a2&7b7c577d4G556p6J7e7f7g7h7i7j7k7l7m7n7o7p7q7r7s7q7t7u7v7w7x7y",
"2C2C2Z3T576r7z555Z7A5U7B7C7D7E7F7G7H7I7J7q7K7L7M7N7O7P7Q7R7S7T7y",
"362Z32657U4G7V7W6J7X5s7Y7Z7&8 7L80816B7K8283846x855r6v868788898a",
"8b348c3r574G556p6o788d5U8e8f7L808g8h8i8j7L8k8l8m768m5s6J5X8n5v85",
"8o3v6q8p3S4D7V547W6I6v5U5r8q7L8r6Z7t7y6i8s7L8t8u76855s8v8n8w8x7W",
"3V3 8y8p4G8z8A8B8C8D8E8F8F8G8H8I8J8K8L8M8N8O828P8Q8d6v8R8S6n6K6R",
"3 328c8T8U8V8W8X8Y8Z8&9 909192939495969798999a9b9c9d8S6J505Z6p5&",
"3V6q9e9f9g9h5H9i6R7X9j869k9l5r8m9m9n9o5U76969p9q9r9s5s5X9t8w6K8x",
"6q8y579u9v4G9w4c6o5X5s6v9x9y5r857r9z9A8E9B9C9D9D9E9F9G6o5X5Z6R9H",
"3 3T9I9J9K9L9w7z4c8x6J6J9M9N5s9O9P9Q9R9S9y9T6i9U9V9W9X9Y9Z5U7W54",
"9&6q57a a04E4c9w5&a18wa29Ma3a26Ma4a5a66va7a8a9aaab7Sacadae7uaf8d",
"agah8yaiajakalamanao6p6K6Jap78aqarasatauavawaxayazaAaBaCaD6CaEaF",
"3v3WaG57aHaIajaJaKaL7W7X5ZaMaNaOaPaQaRa26naSaTaUaVaWaXaYaZa&b 9P"};
