/* XPM */
static char *INV_xpm[]={
"64 24 484 2",
"      c #737173",
" 0    c #6B716B",
" 1    c #6B6D73",
" 2    c #6B6D6B",
" 3    c #6B696B",
" 4    c #6B6963",
" 5    c #636563",
" 6    c #6B6D63",
" 7    c #D6CF6B",
" 8    c #CECF63",
" 9    c #636163",
" a    c #5A6163",
" b    c #5A5D63",
" c    c #5A5D5A",
" d    c #5A595A",
" e    c #5A5952",
" f    c #52555A",
" g    c #525552",
" h    c #525152",
" i    c #8C925A",
" j    c #A5A65A",
" k    c #52595A",
" l    c #73716B",
" m    c #948E73",
" n    c #9C965A",
" o    c #AD9E52",
" p    c #B59E42",
" q    c #C6AE42",
" r    c #E7CB29",
" s    c #EFDB39",
" t    c #736D5A",
" u    c #525952",
" v    c #524D52",
" w    c #524D4A",
" x    c #4A4D52",
" y    c #52514A",
" z    c #4A514A",
" A    c #4A4D4A",
" B    c #4A5152",
" C    c #6B6542",
" D    c #847529",
" E    c #E7DF5A",
" F    c #FFDF42",
" G    c #8C7D42",
" H    c #948A6B",
" I    c #CECF8C",
" J    c #A5A673",
" K    c #94927B",
" L    c #A59E84",
" M    c #ADA66B",
" N    c #BDAA6B",
" O    c #BDAE63",
" P    c #B59E5A",
" Q    c #8C7D39",
" R    c #7B714A",
" S    c #736D4A",
" T    c #847942",
" U    c #9C8A42",
" V    c #7B7552",
" W    c #4A494A",
" X    c #5A594A",
" Y    c #6B6D52",
" Z    c #5A554A",
" &    c #6B6139",
"0     c #9C8621",
"00    c #8C7921",
"01    c #7B7121",
"02    c #635931",
"03    c #636139",
"04    c #9C9242",
"05    c #948631",
"06    c #C6AE4A",
"07    c #ADA252",
"08    c #947D4A",
"09    c #FFE739",
"0a    c #F7EB42",
"0b    c #7B7542",
"0c    c #6B6552",
"0d    c #5A5942",
"0e    c #7B6931",
"0f    c #847939",
"0g    c #9C9252",
"0h    c #42494A",
"0i    c #4A4942",
"0j    c #4A4542",
"0k    c #424542",
"0l    c #E7DF52",
"0m    c #FFDF39",
"0n    c #A59218",
"0o    c #847121",
"0p    c #736921",
"0q    c #5A5931",
"0r    c #4A454A",
"0s    c #7B6D31",
"0t    c #5A5539",
"0u    c #73694A",
"0v    c #D6BE5A",
"0w    c #948E52",
"0x    c #6B655A",
"0y    c #CEB231",
"0z    c #BDA631",
"0A    c #84795A",
"0B    c #736D52",
"0C    c #B59E4A",
"0D    c #CEBA5A",
"0E    c #E7CF52",
"0F    c #DEC34A",
"0G    c #C6AA42",
"0H    c #635D42",
"0I    c #AD9A52",
"0J    c #635D4A",
"0K    c #424942",
"0L    c #424142",
"0M    c #BDB239",
"0N    c #DEBA31",
"0O    c #A59242",
"0P    c #42454A",
"0Q    c #847131",
"0R    c #525142",
"0S    c #9C8A4A",
"0T    c #DEC763",
"0U    c #636142",
"0V    c #8C7918",
"0W    c #FFDF63",
"0X    c #FFFB9C",
"0Y    c #FFFFBD",
"0Z    c #FFFB8C",
"0&    c #FFE35A",
"1     c #EFCF42",
"10    c #CEAA31",
"11    c #D6CB63",
"12    c #9C9652",
"13    c #424139",
"14    c #394142",
"15    c #393C39",
"16    c #5A5139",
"17    c #6B6121",
"18    c #A59A4A",
"19    c #8C7129",
"1a    c #5A5542",
"1b    c #C6AA5A",
"1c    c #CEBE5A",
"1d    c #C6C75A",
"1e    c #B5B25A",
"1f    c #7B6929",
"1g    c #BDAA4A",
"1h    c #636152",
"1i    c #9C8A31",
"1j    c #D6B242",
"1k    c #DEBE4A",
"1l    c #FFF384",
"1m    c #FFFFEF",
"1n    c #FFFFFF",
"1o    c #FFFFD6",
"1p    c #FFEF6B",
"1q    c #E7C742",
"1r    c #D6AE31",
"1s    c #D6B631",
"1t    c #847D4A",
"1u    c #948A42",
"1v    c #CEA629",
"1w    c #FFDB21",
"1x    c #C6AE29",
"1y    c #393839",
"1z    c #5A5131",
"1A    c #6B5D21",
"1B    c #7B6D39",
"1C    c #BDAA52",
"1D    c #947D29",
"1E    c #A59631",
"1F    c #FFEB6B",
"1G    c #FFC310",
"1H    c #736539",
"1I    c #847118",
"1J    c #6B6531",
"1K    c #D6BE4A",
"1L    c #C6A229",
"1M    c #B59A31",
"1N    c #D6BA42",
"1O    c #FFEB73",
"1P    c #FFFFCE",
"1Q    c #FFFF9C",
"1R    c #FFE773",
"1S    c #D6C352",
"1T    c #BDA639",
"1U    c #B59A29",
"1V    c #A58E18",
"1W    c #635929",
"1X    c #4A4539",
"1Y    c #4A4939",
"1Z    c #393831",
"1&    c #313831",
"2     c #313439",
"20    c #313431",
"21    c #6B5D39",
"22    c #948642",
"23    c #635539",
"24    c #4A4931",
"25    c #6B5D18",
"26    c #313839",
"27    c #847129",
"28    c #4A4D42",
"29    c #635D39",
"2a    c #736929",
"2b    c #7B7110",
"2c    c #6B6518",
"2d    c #635D21",
"2e    c #CE9E21",
"2f    c #5A555A",
"2g    c #A58E31",
"2h    c #EFE7A5",
"2i    c #E7DBA5",
"2j    c #CEBE52",
"2k    c #E7CF63",
"2l    c #DECF7B",
"2m    c #A58618",
"2n    c #AD9621",
"2o    c #C69E29",
"2p    c #B59621",
"2q    c #BDA218",
"2r    c #7B6D29",
"2s    c #736518",
"2t    c #313031",
"2u    c #423C39",
"2v    c #9C924A",
"2w    c #FFC742",
"2x    c #735529",
"2y    c #B5A242",
"2z    c #F7B239",
"2A    c #947539",
"2B    c #4A4529",
"2C    c #635139",
"2D    c #D6C363",
"2E    c #BDBA63",
"2F    c #949252",
"2G    c #525139",
"2H    c #947D10",
"2I    c #635918",
"2J    c #524D29",
"2K    c #5A5D31",
"2L    c #847521",
"2M    c #736529",
"2N    c #AD8608",
"2O    c #FFEF52",
"2P    c #BDAA31",
"2Q    c #947918",
"2R    c #9C8218",
"2S    c #AD8E29",
"2T    c #A58A29",
"2U    c #A58629",
"2V    c #9C8221",
"2W    c #AD8618",
"2X    c #A58E10",
"2Y    c #393439",
"2Z    c #736118",
"2&    c #312C29",
"3     c #E7C34A",
"30    c #FFA631",
"31    c #F79E29",
"32    c #734D29",
"33    c #B59639",
"34    c #E77918",
"35    c #FF9A29",
"36    c #D69A31",
"37    c #424129",
"38    c #292C29",
"39    c #B5B252",
"3a    c #FFCB21",
"3b    c #7B6D10",
"3c    c #6B6521",
"3d    c #4A4929",
"3e    c #393C42",
"3f    c #524D42",
"3g    c #7B6D21",
"3h    c #6B6529",
"3i    c #525539",
"3j    c #8C7508",
"3k    c #F7CF18",
"3l    c #F7DF18",
"3m    c #AD9A10",
"3n    c #A57D18",
"3o    c #A58621",
"3p    c #8C7518",
"3q    c #8C7510",
"3r    c #847110",
"3s    c #846D10",
"3t    c #9C7D18",
"3u    c #AD8221",
"3v    c #948210",
"3w    c #6B6118",
"3x    c #FFBA39",
"3y    c #F79221",
"3z    c #EF8A18",
"3A    c #F7AE31",
"3B    c #B59231",
"3C    c #E78218",
"3D    c #FFA229",
"3E    c #F7A631",
"3F    c #846931",
"3G    c #292829",
"3H    c #423C29",
"3I    c #635D18",
"3J    c #7B7942",
"3K    c #E7A610",
"3L    c #6B5D42",
"3M    c #5A5939",
"3N    c #736D08",
"3O    c #7B7108",
"3P    c #7B7510",
"3Q    c #847108",
"3R    c #847508",
"3S    c #846D08",
"3T    c #7B6908",
"3U    c #7B6508",
"3V    c #846910",
"3W    c #A57929",
"3X    c #524D31",
"3Y    c #FFB631",
"3Z    c #F79621",
"3&    c #FFB231",
"4     c #6B4921",
"40    c #B58E31",
"41    c #F78E21",
"42    c #FFAA29",
"43    c #FFAA39",
"44    c #CE8E31",
"45    c #393429",
"46    c #7B6910",
"47    c #393C31",
"48    c #8C7D29",
"49    c #525131",
"4a    c #525542",
"4b    c #6B6908",
"4c    c #6B6108",
"4d    c #736510",
"4e    c #737108",
"4f    c #737100",
"4g    c #7B6D08",
"4h    c #8C6918",
"4i    c #846D18",
"4j    c #313029",
"4k    c #8C6529",
"4l    c #FFBE39",
"4m    c #FFCB4A",
"4n    c #FFBA31",
"4o    c #FFAE29",
"4p    c #FFC36B",
"4q    c #E79E39",
"4r    c #734921",
"4s    c #423829",
"4t    c #736918",
"4u    c #424131",
"4v    c #DED352",
"4w    c #FFE342",
"4x    c #394139",
"4y    c #8C7D31",
"4z    c #424539",
"4A    c #6B6510",
"4B    c #736D10",
"4C    c #736910",
"4D    c #524918",
"4E    c #635D10",
"4F    c #312C31",
"4G    c #524129",
"4H    c #D69229",
"4I    c #FFCF4A",
"4J    c #FFBE52",
"4K    c #FFBE6B",
"4L    c #B57118",
"4M    c #393421",
"4N    c #293029",
"4O    c #4A4531",
"4P    c #8C7929",
"4Q    c #736531",
"4R    c #212421",
"4S    c #73715A",
"4T    c #CEB239",
"4U    c #B5B26B",
"4V    c #6B6D08",
"4W    c #737508",
"4X    c #7B7508",
"4Y    c #947518",
"4Z    c #5A5510",
"4&    c #6B6110",
"5     c #946521",
"50    c #BD8E31",
"51    c #FFBA5A",
"52    c #7B5121",
"53    c #EFD742",
"54    c #524929",
"55    c #181C21",
"56    c #B5A64A",
"57    c #292C21",
"58    c #7B6918",
"59    c #736542",
"5a    c #FFDB29",
"5b    c #BDAE29",
"5c    c #635D29",
"5d    c #7B7908",
"5e    c #847908",
"5f    c #4A4521",
"5g    c #5A4529",
"5h    c #DE8A21",
"5i    c #B58A31",
"5j    c #293031",
"5k    c #948A39",
"5l    c #F7C331",
"5m    c #292821",
"5n    c #211C18",
"5o    c #212021",
"5p    c #393021",
"5q    c #B5A652",
"5r    c #6B6D4A",
"5s    c #B59A39",
"5t    c #6B614A",
"5u    c #736908",
"5v    c #393818",
"5w    c #847929",
"5x    c #423C31",
"5y    c #524529",
"5z    c #BDAA5A",
"5A    c #7B6D18",
"5B    c #5A5929",
"5C    c #736521",
"5D    c #6B6918",
"5E    c #393418",
"5F    c #212429",
"5G    c #FFEB4A",
"5H    c #7B7139",
"5I    c #393431",
"5J    c #BDAE52",
"5K    c #AD9642",
"5L    c #8C8252",
"5M    c #393821",
"5N    c #292421",
"5O    c #181C18",
"5P    c #6B5918",
"5Q    c #DEC321",
"5R    c #635910",
"5S    c #C6BE5A",
"5T    c #F7E373",
"5U    c #BDAA29",
"5V    c #6B6129",
"5W    c #292429",
"5X    c #312C18",
"5Y    c #524510",
"5Z    c #5A5110",
"5&    c #524D10",
"6     c #313418",
"60    c #736D42",
"61    c #7B7129",
"62    c #9C8A21",
"63    c #FFD329",
"64    c #CE9A10",
"65    c #7B7118",
"66    c #312C21",
"67    c #423C18",
"68    c #C6AE52",
"69    c #5A5118",
"6a    c #6B6142",
"6b    c #5A5129",
"6c    c #4A4129",
"6d    c #9C966B",
"6e    c #C6A631",
"6f    c #A5A26B",
"6g    c #635510",
"6h    c #424118",
"6i    c #EFE373",
"6j    c #BDBA4A",
"6k    c #423C42",
"6l    c #9C7D39",
"6m    c #FFE731",
"6n    c #DECB21",
"6o    c #FFF352",
"6p    c #FFC721",
"6q    c #6B5518",
"6r    c #313429",
"6s    c #5A5552",
"6t    c #B5A621",
"6u    c #736D31",
"6v    c #7B6921",
"6w    c #8C6D21",
"6x    c #393829",
"6y    c #212829",
"     0 1 2 2 3 2 3 3 4 4 5 6 7 8 9 9 a b c c c c d d d d d e f g g g g g g g g g g h h h g g h h g g g g i j e g g g k k e d d d",
" 2 2 2 3 3 3 5 5 l m n o p q r s t d d d d d u g g g g g g h h h h h h h v w x y z y w z A x y B y C C D E F G h g h g g g g g g",
" H I J K L M N O P Q R S d d S T U V g g h h h h h h v A A A A A A W A A A W W W X Y W Z C & D0 0001020304050607 Z h h h h h g g",
"08090a U0b S0c c c c d d k g0d0e h0f0g z A A A A W W W W W W0h0h0i0h0j0k0k0k0k0k0l0m0n0o0p0q030r W W W W0s0t W0u0v0w y z B h h h",
"0x0y0z0A c c d d0B0C0D0E0F0G Q0e A A0H0I0J W W0K0k0k0k0k0k0k0L0k0L0k0L0L0L0L0L0L0M0N0O0L0L0L0L0k0k0k0k0P0Q0t W W0R0S0T0B A A A x",
" c0U0V0z0B d e U0E0W0X0Y0Z0&1 10 C W W0R110Z120k0L0L0L13140L151515151515151515151617 T18150L0L0L0L0L0L0k190i0k W W W1a1b1c1d1e Z",
" c0U1f0U1g1h1i1j1k1l1m1n1o1p1q1r1s1t1u051v1w1x1515151y15151y1y1y1y1y1y1y1y1y1y1y1z1A1y1B1C131515150L0L0L1D0k0k0k0k0k0d &1E1F1G1H",
" d X1I g1J1K1L1M1N1O0Y1P1Q1R1S1T1U1V1W1X1X1V1Y1y1y1Z1&2 2020 C2122232020202020202425261y1H0v1X1y151515152728292a012b2c2d03 r2e0R",
"2f g0o X h2g2h2i2j2k2l1g1T2m2n2o2p2q2r151y2s2020202t2t2t2u2v2w2x2y2z2A2t2t2t2t2t2B252020202C2D2E2F2G02012H0V2I2J2K0L0L0k0k2L0h W",
" g g2M C0d2N0&2O2P2Q2R2S2T2U2V2R2W2X0V1y2Y2Z202t2t2t2&0U3 30313233343536373838382B1A2t202t20390m3a3b3c3d2L15153e0L0L0L0k3f3g0k W",
" g g3h213i3j3k3l3m3n3o3p3q3r3s3t3q3u3v1&203w2t2t38202v3x3y3z3A323B3C3D303E3F3G383H3I2&2t2t203J3a3K1Z1y1X0p151515140L0L0L3L1W0k0k",
" h h3M273i3N3O3r3P3P3Q3R3Q3S3T3U3V3W2R202t2s2t383X0F3Y3Z3D3&3x4 4041423&3D4344453H3I382t2t2t2046471&1y1t481515153e150L0L1B490L0k",
" h h4a3g0R4b4c3b3w4d4e4f4g4g3T3T3T4h4i20202s2t384j4k4l4m3Y3Y4n4 40354o3&4p4q4r384s3I382t2t2t204t4u022a4v4w241515154x0L0L4y4z202t",
" h h y0V A4A3w4B2Z254C4e3O3Q3Q3S3S3s4D20204E2t4F38384G4H4I4l3Y4 40354J4K4L4M3G383H3w4N2t4O024P3b3g2J4u2K4Q2r1Z2t20202020001Z384R",
" h h4S4T4U o4V4d2s253w4B4W4X3R3j3j4Y4Z4R204&2t2t2t2t384j5 3x4l3250514q5238383838 j532L2r3g544u3P202 1y38554M564M4R4R4R57584R4R4R",
" h h595a5b y5c4C2s17584C3O5d5e3j3Q4M5f4Z203I2020202t2t2t2t5g5h325i4L4s5j2t5j2t2t5k5l1J2t2020473b1y202t5m5n5o5p5q2G202t2J2I4R4R4R",
" g h h5r5s5t A2d4g4c2b4C5u4X3S3b4u5o205v3h5w1Z202020202020201Z5x5y2t2t2020202020205x064u1Z264u4t20384R5o3G20384j5z0u0L &2J3G4R3G",
" g h h h3M5A w5B5C0q5D4C4d255E4R2t5F382t1L5G5H1y1y1y1y2Y2 2 2 2 202 20202020205I1&2Y0t5J1y1y244&2t5o5o5F1y150L20205K5L0s5M5N4R2t",
" g g h h h5c3h0t0p W0L3G2t3G5O555o5E4Z255P5Q0t151y1y1y1y1y1y1y1y1y1y1y1y1y1y1y1y1y1y1y G0S1y245R4R4R381y150L0L0k20205S5T5U3G2t1y",
" g g g g h y4&5V5A A205W385o5X5Y5Z5&6 2t2t4R1y14154x1515151515151515151y1y1y201y1515151y5K602B5&4R2t150L0L0L0i0H61586263644N0L0j",
" f g g g g h4a5u650k5N66675R5Z5E5o5o5o5o2 5o2t0L0L0L0L0L0L0L0L0L0L0L15203G382t3G150L0L2t38685c692t1y0k6a0s173g6b244j4R6c2t1y0k A",
" d2f g g g g g6d6e6f6g5R6h5m4R5o5o5o5o5o3G2t4R0L0k0k0k0k0k0k0L0k0k0L2t4R5o5o4N5o5F1y0L205o5f6i6j1J4P275c246k0k1y2t3G3G38130k A A",
" c d d d e g g6l6m6n4j4R4R4R4R4R4R5o5o4R5o2Y4R20 W0j0P0i0P0P0k0k4x203G5o5o5o5o5o5o4R1y153G5M6o6p6q6r1y1y204N2 203G3G2&2015 A h v",
" c c c d d d6s X6t6u385N4R4R4R4R4R4R4R4R4R38203G0k W A W W W0k1y2t4R4R4R4R4R4R4R4R4R5F3G2t386v6w6x385m383G6y3G383G2t0L W6k15 h h"};
