/* XPM */
static char *CNONE_xpm[]={
"41 24 840 2",
"      c #6A6A69",
" 0    c #686769",
" 1    c #676768",
" 2    c #676767",
" 3    c #656566",
" 4    c #646465",
" 5    c #646463",
" 6    c #6D6D6C",
" 7    c #8A8989",
" 8    c #7A7A73",
" 9    c #605F61",
" a    c #656464",
" b    c #6E6E6E",
" c    c #636262",
" d    c #5D5C5E",
" e    c #5C5B5D",
" f    c #5B5C5B",
" g    c #5B5A5C",
" h    c #5B5A5A",
" i    c #5A5B5A",
" j    c #585858",
" k    c #595958",
" l    c #595859",
" m    c #585758",
" n    c #575757",
" o    c #565756",
" p    c #565657",
" q    c #555657",
" r    c #555556",
" s    c #565556",
" t    c #5C5C56",
" u    c #5C5D5B",
" v    c #5B5B5A",
" w    c #595B5A",
" x    c #585859",
" y    c #595959",
" z    c #656365",
" A    c #636363",
" B    c #626162",
" C    c #616061",
" D    c #616161",
" E    c #605F5F",
" F    c #5D5D5D",
" G    c #949594",
" H    c #FEFFFE",
" I    c #E3D870",
" J    c #656A73",
" K    c #94969D",
" L    c #FFFFFF",
" M    c #DAD77B",
" N    c #575758",
" O    c #757677",
" P    c #F0EFEF",
" Q    c #D5D2A9",
" R    c #555455",
" S    c #CFCFC9",
" T    c #D5D5BB",
" U    c #5E5E4F",
" V    c #525452",
" W    c #6E6D60",
" X    c #AFAE76",
" Y    c #929260",
" Z    c #515252",
" &    c #525250",
"0     c #525152",
"00    c #525251",
"01    c #525051",
"02    c #525151",
"03    c #525252",
"04    c #535352",
"05    c #535353",
"06    c #525353",
"07    c #606060",
"08    c #5E5E5F",
"09    c #5C5C5C",
"0a    c #5B5B5B",
"0b    c #585958",
"0c    c #8D8653",
"0d    c #D5B45A",
"0e    c #AC882C",
"0f    c #7D7671",
"0g    c #BFA06E",
"0h    c #EBB375",
"0i    c #AE8B50",
"0j    c #5E6171",
"0k    c #9B8F88",
"0l    c #FFDDB8",
"0m    c #C39C52",
"0n    c #3F4457",
"0o    c #5F6173",
"0p    c #FEEBC6",
"0q    c #F8DAA6",
"0r    c #4D5254",
"0s    c #444C68",
"0t    c #A2A887",
"0u    c #FFFE94",
"0v    c #CCCA60",
"0w    c #4E4D4D",
"0x    c #4C4D4C",
"0y    c #4D4E4E",
"0z    c #4D4D4D",
"0A    c #4D4D4C",
"0B    c #4E4D4E",
"0C    c #4D4C4E",
"0D    c #4D4E4D",
"0E    c #4E4E4D",
"0F    c #4F4E4F",
"0G    c #4F4F4E",
"0H    c #4F4F50",
"0I    c #5A5A5B",
"0J    c #575657",
"0K    c #555757",
"0L    c #545655",
"0M    c #545459",
"0N    c #555857",
"0O    c #98895C",
"0P    c #BCAE92",
"0Q    c #9F937C",
"0R    c #59584D",
"0S    c #A8975B",
"0T    c #CABBA1",
"0U    c #C1B086",
"0V    c #716446",
"0W    c #7D6820",
"0X    c #807661",
"0Y    c #9B8E75",
"0Z    c #98782E",
"0&    c #B0811E",
"1     c #6E6448",
"10    c #786C56",
"11    c #AB8638",
"12    c #C6962B",
"13    c #B9B030",
"14    c #494948",
"15    c #494949",
"16    c #474849",
"17    c #4A4949",
"18    c #49484A",
"19    c #4A484A",
"1a    c #494A49",
"1b    c #4A4A4B",
"1c    c #4A4B4B",
"1d    c #4B4A4A",
"1e    c #4C4B4C",
"1f    c #4B4C4D",
"1g    c #565656",
"1h    c #555555",
"1i    c #535455",
"1j    c #505151",
"1k    c #4F514F",
"1l    c #B2B399",
"1m    c #D9DAC6",
"1n    c #B8A066",
"1o    c #AA9B80",
"1p    c #C8BCA8",
"1q    c #D6D1CE",
"1r    c #B0A490",
"1s    c #BFAE95",
"1t    c #C4B79C",
"1u    c #CAC1AF",
"1v    c #868892",
"1w    c #9B8E76",
"1x    c #A4977D",
"1y    c #A2947A",
"1z    c #656981",
"1A    c #665D49",
"1B    c #7F7158",
"1C    c #83755A",
"1D    c #827353",
"1E    c #4A4F5A",
"1F    c #615E3F",
"1G    c #454444",
"1H    c #444545",
"1I    c #434543",
"1J    c #444544",
"1K    c #464645",
"1L    c #464545",
"1M    c #464646",
"1N    c #474746",
"1O    c #474747",
"1P    c #484849",
"1Q    c #484848",
"1R    c #515152",
"1S    c #515050",
"1T    c #50504F",
"1U    c #4D4D4E",
"1V    c #4C4E4C",
"1W    c #4C4B4B",
"1X    c #EEE993",
"1Y    c #FFDF9C",
"1Z    c #977E50",
"1&    c #676977",
"2     c #E4E3E5",
"20    c #FEFEFE",
"21    c #B99553",
"22    c #8E8C90",
"23    c #C1BCB5",
"24    c #EED09C",
"25    c #928775",
"26    c #A4977F",
"27    c #EDEAD8",
"28    c #F8F9DA",
"29    c #A49065",
"2a    c #85785E",
"2b    c #887A5D",
"2c    c #DAD68A",
"2d    c #CBCC88",
"2e    c #454642",
"2f    c #3F3F3F",
"2g    c #404041",
"2h    c #41413F",
"2i    c #3F4140",
"2j    c #414041",
"2k    c #424141",
"2l    c #414241",
"2m    c #434142",
"2n    c #434243",
"2o    c #434443",
"2p    c #434344",
"2q    c #444344",
"2r    c #454545",
"2s    c #454546",
"2t    c #4B4C4C",
"2u    c #49494A",
"2v    c #474847",
"2w    c #77723C",
"2x    c #83662E",
"2y    c #A89247",
"2z    c #85775F",
"2A    c #A37B3D",
"2B    c #B27D38",
"2C    c #8D7425",
"2D    c #6C6355",
"2E    c #A9885B",
"2F    c #E1B477",
"2G    c #B99341",
"2H    c #3B3B42",
"2I    c #515361",
"2J    c #F7DBAE",
"2K    c #FEE0A5",
"2L    c #68543E",
"2M    c #50556A",
"2N    c #767B7B",
"2O    c #FFFE9B",
"2P    c #FFFD80",
"2Q    c #4E4B38",
"2R    c #3B3B3C",
"2S    c #3C3B3C",
"2T    c #3C3B3B",
"2U    c #3D3D3C",
"2V    c #3D3C3C",
"2W    c #3D3D3D",
"2X    c #3E3D3D",
"2Y    c #3F3E3F",
"2Z    c #403F3E",
"2&    c #3F4040",
"3     c #404141",
"30    c #414242",
"31    c #424242",
"32    c #444243",
"33    c #4B4B4C",
"34    c #4A4A49",
"35    c #484949",
"36    c #464747",
"37    c #454446",
"38    c #55554B",
"39    c #464D65",
"3a    c #736750",
"3b    c #86775C",
"3c    c #8F8066",
"3d    c #756F6D",
"3e    c #585348",
"3f    c #73684D",
"3g    c #9B8C72",
"3h    c #948569",
"3i    c #665928",
"3j    c #766B55",
"3k    c #8D7E65",
"3l    c #8E773D",
"3m    c #76591E",
"3n    c #62592E",
"3o    c #766951",
"3p    c #77613C",
"3q    c #BB852D",
"3r    c #EBC727",
"3s    c #3E3C35",
"3t    c #383738",
"3u    c #393738",
"3v    c #393839",
"3w    c #383938",
"3x    c #393938",
"3y    c #393A3A",
"3z    c #3A3B3B",
"3A    c #3B3B3B",
"3B    c #3C3C3C",
"3C    c #3E3F3F",
"3D    c #403F3F",
"3E    c #414140",
"3F    c #484847",
"3G    c #464647",
"3H    c #5F604F",
"3I    c #FFFF98",
"3J    c #F4DE78",
"3K    c #8E7C49",
"3L    c #84755A",
"3M    c #D2CC9D",
"3N    c #C3C3AA",
"3O    c #8C7A58",
"3P    c #918269",
"3Q    c #A29379",
"3R    c #A8A08F",
"3S    c #827F7A",
"3T    c #8B7D63",
"3U    c #908168",
"3V    c #8D7D63",
"3W    c #65687C",
"3X    c #534B3B",
"3Y    c #6F634C",
"3Z    c #7A6B51",
"3&    c #74664C",
"4     c #4C5267",
"40    c #57542F",
"41    c #323332",
"42    c #333433",
"43    c #333334",
"44    c #353435",
"45    c #353535",
"46    c #363737",
"47    c #373738",
"48    c #383937",
"49    c #3A3B39",
"4a    c #3A3A3A",
"4b    c #3B3C3C",
"4c    c #3C3D3C",
"4d    c #3D3C3D",
"4e    c #3F3E3E",
"4f    c #999654",
"4g    c #FEEF77",
"4h    c #E7BC48",
"4i    c #49494D",
"4j    c #747572",
"4k    c #FEFFB6",
"4l    c #FFECA0",
"4m    c #947F51",
"4n    c #757376",
"4o    c #CDC9AA",
"4p    c #FFFED6",
"4q    c #E9C872",
"4r    c #7F7663",
"4s    c #877A60",
"4t    c #DED6A6",
"4u    c #E3E4B6",
"4v    c #A28E5D",
"4w    c #776951",
"4x    c #74664D",
"4y    c #ABA369",
"4z    c #8C917C",
"4A    c #4F4F39",
"4B    c #2F2F31",
"4C    c #303030",
"4D    c #303130",
"4E    c #323232",
"4F    c #323333",
"4G    c #333333",
"4H    c #343434",
"4I    c #363636",
"4J    c #373637",
"4K    c #373737",
"4L    c #393939",
"4M    c #3B3A3A",
"4N    c #3C3C3D",
"4O    c #444443",
"4P    c #424343",
"4Q    c #404040",
"4R    c #3D3E3E",
"4S    c #554E3D",
"4T    c #7E671C",
"4U    c #72633F",
"4V    c #786647",
"4W    c #AA772D",
"4X    c #CA9031",
"4Y    c #6E6339",
"4Z    c #544A3B",
"4&    c #C9A361",
"5     c #F7CF83",
"50    c #B39044",
"51    c #40434D",
"52    c #484C61",
"53    c #F5EDB0",
"54    c #FEFEB2",
"55    c #7E6343",
"56    c #4D5164",
"57    c #5F6071",
"58    c #F2F191",
"59    c #FEFF8B",
"5a    c #9C953F",
"5b    c #2D2C2B",
"5c    c #2E2C2C",
"5d    c #2E2E2D",
"5e    c #2F2F2F",
"5f    c #303031",
"5g    c #313231",
"5h    c #343433",
"5i    c #333534",
"5j    c #373638",
"5k    c #373938",
"5l    c #3A3839",
"5m    c #393B3B",
"5n    c #3A3B3C",
"5o    c #434342",
"5p    c #3F403F",
"5q    c #3E3E3E",
"5r    c #3D3E42",
"5s    c #464650",
"5t    c #574B35",
"5u    c #6F6147",
"5v    c #716347",
"5w    c #46495A",
"5x    c #393424",
"5y    c #60563F",
"5z    c #7A6B52",
"5A    c #60563B",
"5B    c #3C3932",
"5C    c #5E531E",
"5D    c #615641",
"5E    c #6E624A",
"5F    c #9D6E26",
"5G    c #A4742A",
"5H    c #6A5B26",
"5I    c #574D39",
"5J    c #4F4637",
"5K    c #F0BC4B",
"5L    c #F2D056",
"5M    c #7A763B",
"5N    c #4C3E2B",
"5O    c #CA993D",
"5P    c #B09246",
"5Q    c #89804F",
"5R    c #696245",
"5S    c #5C4C35",
"5T    c #443B30",
"5U    c #323334",
"5V    c #343435",
"5W    c #363536",
"5X    c #373636",
"5Y    c #3A3A39",
"5Z    c #414142",
"5&    c #C8C764",
"6     c #E1E270",
"60    c #B0963B",
"61    c #6B5C41",
"62    c #80714C",
"63    c #A69B60",
"64    c #656866",
"65    c #675B41",
"66    c #72634A",
"67    c #74664B",
"68    c #66615E",
"69    c #3F3D3C",
"6a    c #5F533D",
"6b    c #6E6048",
"6c    c #73654A",
"6d    c #555359",
"6e    c #2C2B25",
"6f    c #463E2A",
"6g    c #685A41",
"6h    c #675A41",
"6i    c #5C5442",
"6j    c #615727",
"6k    c #444027",
"6l    c #2A2A29",
"6m    c #FEC045",
"6n    c #FFED75",
"6o    c #FEFFA6",
"6p    c #FFFEB2",
"6q    c #FFEB7E",
"6r    c #FEBA51",
"6s    c #F19336",
"6t    c #7B4820",
"6u    c #343334",
"6v    c #363535",
"6w    c #363637",
"6x    c #3A3938",
"6y    c #40413F",
"6z    c #5C5D45",
"6A    c #FFFE6C",
"6B    c #FFEF67",
"6C    c #907B53",
"6D    c #626672",
"6E    c #BFC17C",
"6F    c #FFFE86",
"6G    c #F6D861",
"6H    c #7F6F4B",
"6I    c #71644B",
"6J    c #D2CE7E",
"6K    c #E7E692",
"6L    c #B9A752",
"6M    c #6E6147",
"6N    c #706249",
"6O    c #94885D",
"6P    c #7F847C",
"6Q    c #675F43",
"6R    c #66583F",
"6S    c #685941",
"6T    c #67583F",
"6U    c #565A70",
"6V    c #25262B",
"6W    c #292A29",
"6X    c #2A2B2B",
"6Y    c #C99D44",
"6Z    c #FFE26E",
"6&    c #FEFD93",
"7     c #FEF28E",
"70    c #FED168",
"71    c #FFA844",
"72    c #B0601E",
"73    c #3F3427",
"74    c #353434",
"75    c #383838",
"76    c #383839",
"77    c #3A393A",
"78    c #3F3F40",
"79    c #796D2C",
"7a    c #9C7328",
"7b    c #8C7526",
"7c    c #514632",
"7d    c #C0A249",
"7e    c #E7C85C",
"7f    c #D09D2E",
"7g    c #484648",
"7h    c #585F69",
"7i    c #F6F892",
"7j    c #FFFF92",
"7k    c #A38440",
"7l    c #5D6071",
"7m    c #65656E",
"7n    c #F2F392",
"7o    c #FFFF91",
"7p    c #C1AD51",
"7q    c #63563F",
"7r    c #675941",
"7s    c #B1AA60",
"7t    c #D4D579",
"7u    c #939553",
"7v    c #2B2C2D",
"7w    c #2C2C2D",
"7x    c #B67D34",
"7y    c #FEC354",
"7z    c #FFD062",
"7A    c #FFC35B",
"7B    c #FFAA46",
"7C    c #B0601F",
"7D    c #3F3327",
"7E    c #363435",
"7F    c #373838",
"7G    c #393A39",
"7H    c #3B3A3B",
"7I    c #424143",
"7J    c #414141",
"7K    c #413F40",
"7L    c #343B51",
"7M    c #383427",
"7N    c #615439",
"7O    c #66573C",
"7P    c #574C35",
"7Q    c #2A2C33",
"7R    c #5A4D1C",
"7S    c #5F523A",
"7T    c #64563E",
"7U    c #A07B2B",
"7V    c #AB7F3B",
"7W    c #806417",
"7X    c #423A2C",
"7Y    c #483F2E",
"7Z    c #FFE672",
"7&    c #FEF37D",
"8     c #735D31",
"80    c #3E4257",
"81    c #42485D",
"82    c #D7DB7D",
"83    c #FFFE79",
"84    c #D1CD5B",
"85    c #2F302E",
"86    c #2F2F30",
"87    c #775330",
"88    c #FEA53C",
"89    c #FFA740",
"8a    c #FF9E3A",
"8b    c #EE7928",
"8c    c #F17A28",
"8d    c #674732",
"8e    c #373736",
"8f    c #444343",
"8g    c #606147",
"8h    c #70724D",
"8i    c #515156",
"8j    c #584B34",
"8k    c #63543A",
"8l    c #65553A",
"8m    c #595452",
"8n    c #433F3C",
"8o    c #4F442F",
"8p    c #66593E",
"8q    c #474446",
"8r    c #35312A",
"8s    c #383122",
"8t    c #63553E",
"8u    c #6A593C",
"8v    c #664C1F",
"8w    c #56471A",
"8x    c #4D432F",
"8y    c #564934",
"8z    c #C89E39",
"8A    c #D6BA4B",
"8B    c #BEAE3A",
"8C    c #4B3B31",
"8D    c #FF902D",
"8E    c #FF8D2D",
"8F    c #C5671E",
"8G    c #D96A20",
"8H    c #FF8229",
"8I    c #FE822A",
"8J    c #CA6927",
"8K    c #503F35",
"8L    c #39383A",
"8M    c #39393A",
"8N    c #D6D559",
"8O    c #FEFE60",
"8P    c #F4CC37",
"8Q    c #816F37",
"8R    c #645439",
"8S    c #D8D55C",
"8T    c #BABB63",
"8U    c #846D39",
"8V    c #64553C",
"8W    c #66563D",
"8X    c #6B5C3F",
"8Y    c #4A4E68",
"8Z    c #534936",
"8&    c #584D35",
"9     c #65563E",
"90    c #675940",
"91    c #53576B",
"92    c #37322A",
"93    c #383323",
"94    c #5D513A",
"95    c #64543D",
"96    c #554A37",
"97    c #554E30",
"98    c #EB7A26",
"99    c #C3611A",
"9a    c #413225",
"9b    c #503D32",
"9c    c #F67321",
"9d    c #FF7F26",
"9e    c #FE7F27",
"9f    c #F17623",
"9g    c #8F532D",
"9h    c #403C3A",
"9i    c #3D3D3E",
"9j    c #595847",
"9k    c #F2EE4E",
"9l    c #FEF64E",
"9m    c #CDA439",
"9n    c #40495C",
"9o    c #858E7E",
"9p    c #FFFF65",
"9q    c #FFF362",
"9r    c #AF8D4A",
"9s    c #737169",
"9t    c #877F57",
"9u    c #FAFA6D",
"9v    c #EDEC6E",
"9w    c #937434",
"9x    c #66583E",
"9y    c #67573E",
"9z    c #8C824B",
"9A    c #606773",
"9B    c #554A35",
"9C    c #63543C",
"9D    c #605D63",
"9E    c #2F3545",
"9F    c #393739",
"9G    c #393838",
"9H    c #774621",
"9I    c #48392A",
"9J    c #262525",
"9K    c #2C2E2C",
"9L    c #61402C",
"9M    c #F6731F",
"9N    c #FF7923",
"9O    c #FF7A22",
"9P    c #FF7821",
"9Q    c #D56924",
"9R    c #674836",
"9S    c #3F4041",
"9T    c #484A48",
"9U    c #535144",
"9V    c #867835",
"9W    c #9D8D33",
"9X    c #464546",
"9Y    c #7E7A45",
"9Z    c #F4E33E",
"9&    c #FEE836",
"a     c #9E8C2D",
"a0    c #323845",
"a1    c #949960",
"a2    c #FFFF6B",
"a3    c #FEEE61",
"a4    c #67594A",
"a5    c #656A7C",
"a6    c #75736F",
"a7    c #FFFE70",
"a8    c #FEFF6E",
"a9    c #B89338",
"aa    c #60513B",
"ab    c #62543B",
"ac    c #93894A",
"ad    c #A3A56F",
"ae    c #6C6C45",
"af    c #3B3B3A",
"ag    c #3C3C3B",
"ah    c #313333",
"ai    c #1F1F20",
"aj    c #212223",
"ak    c #7B431F",
"al    c #F8711F",
"am    c #FC7521",
"an    c #FF7521",
"ao    c #FD7421",
"ap    c #F9711E",
"aq    c #9D562C",
"ar    c #414243",
"as    c #4C4C4A",
"at    c #4A494A",
"au    c #494A4A",
"av    c #484748",
"aw    c #474848",
"ax    c #57533F",
"ay    c #565241",
"az    c #6B663D",
"aA    c #CFBA34",
"aB    c #EDD22D",
"aC    c #807235",
"aD    c #37373C",
"aE    c #717046",
"aF    c #FFFE6A",
"aG    c #FEFE69",
"aH    c #7C6941",
"aI    c #4A526F",
"aJ    c #57607E",
"aK    c #C7C86B",
"aL    c #FFF651",
"aM    c #4A483B",
"aN    c #3D3E3F",
"aO    c #3E3F3E",
"aP    c #3F403E",
"aQ    c #3F3F3E",
"aR    c #232323",
"aS    c #202021",
"aT    c #A0501A",
"aU    c #EF6D1C",
"aV    c #F5701E",
"aW    c #F7721E",
"aX    c #F6701D",
"aY    c #914D19",
"aZ    c #46423F",
"a&    c #4B4C4B",
"b     c #4B4B4B",
"b0    c #4A4A4A",
"b1    c #494849",
"b2    c #464748",
"b3    c #464746",
"b4    c #444546",
"b5    c #444444",
"b6    c #4E4D40",
"b7    c #A79430",
"b8    c #CBB431",
"b9    c #7D7035",
"ba    c #3E3E41",
"bb    c #D4D257",
"bc    c #FEFD5D",
"bd    c #F3E84A",
"be    c #434241",
"bf    c #424142",
"bg    c #424241",
"bh    c #313131",
"bi    c #212221",
"bj    c #212121",
"bk    c #292521",
"bl    c #B7581B",
"bm    c #E86B1A",
"bn    c #ED6B1C",
"bo    c #A1541B",
"bp    c #49443E",
"bq    c #454646",
"br    c #504F4F",
"bs    c #4E4F50",
"bt    c #4E4E4E",
"bu    c #4C4C4D",
"bv    c #4D4C4C",
"bw    c #4A4B4C",
"bx    c #494848",
"by    c #484647",
"bz    c #474648",
"bA    c #454645",
"bB    c #7A6D36",
"bC    c #A38E2F",
"bD    c #A29132",
"bE    c #454445",
"bF    c #444445",
"bG    c #444446",
"bH    c #444645",
"bI    c #444644",
"bJ    c #242524",
"bK    c #242422",
"bL    c #242323",
"bM    c #382B21",
"bN    c #D06019",
"bO    c #884717",
"bP    c #47423B",
"bQ    c #505050",
"bR    c #4F4F4F",
"bS    c #4D4C4D",
"bT    c #4A4848",
"bU    c #494748",
"bV    c #474748",
"bW    c #494847",
"bX    c #484747",
"bY    c #484947",
"bZ    c #484948",
"b&    c #434444",
"c     c #2B292A",
"c0    c #252524",
"c1    c #242525",
"c2    c #242625",
"c3    c #3D2D20",
"c4    c #2E2822",
"c5    c #313031",
"c6    c #454443",
"   0 1 2 3 4 5 6 7 8 9 a b c d e f g h i j k l m j n o p n q r r s t u g v w x x y",
" z A B C D E F G H I J K L M N O P Q r R S T U V W X Y Z &0 000 010 02030304030506",
"0708 F090a i0b0c0d0e0f0g0h0i0j0k0l0m0n0o0p0q0r0s0t0u0v0w0x0y0z0y0A0B0C0D0E0E0F0G0H",
"0I x x0J0K0L R0M0N0O0P0Q0R0S0T0U0V0W0X0Y0Z0&1 1011121314151617181915151a1b1c1d1e1f",
"1g1h1i051j1k1l1m1n1o1p1q1r1s1t1u1v1w1x1y1z1A1B1C1D1E1F1G1H1I1G1J1H1K1L1M1N1N1O1P1Q",
"1R1S1T1U1V1W1X1Y1Z1&2 20212223 H2425262728292a2b2c2d2e2f2g2h2i2j2k2l2m2n2o2p2q2r2s",
"0y0A2t1a2u2v2w2x2y2z2A2B2C2D2E2F2G2H2I2J2K2L2M2N2O2P2Q2R2S2T2U2V2W2X2Y2Z2&3 303132",
"333435363738393a3b3c3d3e3f3g3h1K3i3j3k3l3m3n3o3p3q3r3s3t3u3v3w3x3y3z3A3B2U2X3C3D3E",
"3F3G1H2q3H3I3J3K3L3M3N3O3P3Q3R3S3T3U3V3W3X3Y3Z3&4 4041424344454647483v494a4b4c4d4e",
"1L2o313E4f4g4h4i4j4k4l4m4n4o4p4q4r4s4t4u4v4w4x4y4z4A4B4C4D4E4F4G4H4I4J4K3t4L4M2S4N",
"4O4P4Q2&4R4S4T4U4V4W4X4Y4Z4&5 505152535455565758595a5b5c5d5e5f5g4E5h5i4I5j5k5l5m5n",
"5o2l5p5q5r5s5t5u5v5w5x5y5z5A5B5C5D5E5F5G5H5I5J5K5L5M5N5O5P5Q5R5S5T4F5U5V5W5X3t5Y4M",
"5Z4Q3C5&6 606162636465666768696a6b6c6d6e6f6g6h6i6j6k6l6m6n6o6p6q6r6s6t6u6v6w4K6x4a",
"2k6y6z6A6B6C6D6E6F6G6H6I6J6K6L6M6N6O6P6Q6R6S6T6U6V6W6X6Y6Z6&7 70717273744I4I757677",
"2m4Q78797a7b7c7d7e7f7g7h7i7j7k7l7m7n7o7p7q7r7s7t7u7v7w7x7y7z7A7B7C7D4H7E6v7F3x7G7H",
"7I7J7K7L7M7N7O7P7Q7R7S7T7U7V7W7X7Y7Z7&8 808182838485868788898a8b8c8d6v8e754L7G5Y3B",
"8f8g8h8i8j8k8l8m8n8o6T8p8q8r8s7S8t8u8v8w8x8y8z8A8B4E418C8D8E8F8G8H8I8J8K8L8M3z3B4d",
"1L8N8O8P8Q8R8S8T8U8V8W8X8Y8Z8&9 909192939495967G974H4I4I98999a9b9c9d9e9f9g9h2U9i9i",
"9j9k9l9m9n9o9p9q9r9s9t9u9v9w9x9y9z9A7P9B7S9C9D9E9F5k9G3v9H9I9J9K9L9M9N9O9P9Q9R2Y9S",
"9T9U9V9W9X9Y9Z9&a a0a1a2a3a4a5a6a7a8a9aaabacadae4baf3A3z2Vagahaiajakalamanaoapaqar",
"asatauavaw361Maxay2qazaAaBaCaDaEaFaGaHaIaJaK9paLaMaNaO3CaPaQ2RaRaiaSaTaUaVaWaXaYaZ",
"0z0Aa&b aub0b11Qb2b31Lb41J8fb5b6b7b8b92mbabbbcbdbebfbgbf2l2m5Zbhbibjbkblbmbnbobpbq",
"brbsbt0Ebubvbw1c34au1Q1Qbxbybz1M1M1L1MbAbAbBbCbDbEbFbFbEbGbHbIaNbJbKbLbMbNbObP1618",
"050200bQbRbRbt1UbvbS1W33b b0at2uaubT35bxawb1bUbVbWbX3Fav1PbYbZb&c c0c1c2c3c4c5c6b0"};
