/* XPM */
static char *SEDGE_xpm[]={
"41 24 626 2",
"      c #686969",
" 0    c #676769",
" 1    c #686768",
" 2    c #666866",
" 3    c #656566",
" 4    c #656464",
" 5    c #646365",
" 6    c #626362",
" 7    c #616061",
" 8    c #606061",
" 9    c #606060",
" a    c #605F5F",
" b    c #5E5E5D",
" c    c #5D5D5D",
" d    c #5D5D5C",
" e    c #5C5D5D",
" f    c #5C5C5B",
" g    c #5A5A5B",
" h    c #5B5B5B",
" i    c #5A5B5B",
" j    c #585859",
" k    c #595958",
" l    c #575857",
" m    c #575957",
" n    c #585759",
" o    c #585757",
" p    c #565756",
" q    c #575755",
" r    c #575657",
" s    c #575655",
" t    c #565556",
" u    c #5C5D56",
" v    c #5C5B5C",
" w    c #595B5B",
" x    c #585959",
" y    c #595957",
" z    c #656463",
" A    c #636363",
" B    c #626262",
" C    c #626261",
" D    c #606161",
" E    c #5E5F60",
" F    c #5F5E5F",
" G    c #5D5D5E",
" H    c #5C5C5C",
" I    c #5B5B5C",
" J    c #5A5A5A",
" K    c #585958",
" L    c #595758",
" M    c #575856",
" N    c #555655",
" O    c #555455",
" P    c #555456",
" Q    c #5E5F57",
" R    c #A3A587",
" S    c #545354",
" T    c #525354",
" U    c #525253",
" V    c #515352",
" W    c #535251",
" X    c #515253",
" Y    c #525251",
" Z    c #505150",
" &    c #515252",
"0     c #525151",
"00    c #515152",
"01    c #535253",
"02    c #535352",
"03    c #60605F",
"04    c #5D5F5E",
"05    c #595959",
"06    c #575757",
"07    c #575758",
"08    c #565657",
"09    c #545656",
"0a    c #535553",
"0b    c #555454",
"0c    c #545253",
"0d    c #515351",
"0e    c #515151",
"0f    c #505151",
"0g    c #515050",
"0h    c #565550",
"0i    c #D9D8A9",
"0j    c #FEFE49",
"0k    c #757547",
"0l    c #4D4E4E",
"0m    c #4D4D4D",
"0n    c #4E4E4E",
"0o    c #4E4D4D",
"0p    c #4C4E4E",
"0q    c #4D4D4C",
"0r    c #4C4C4E",
"0s    c #4E4E4D",
"0t    c #4E4C4E",
"0u    c #4E4D4E",
"0v    c #4D4F4D",
"0w    c #4E4E4F",
"0x    c #4F4E4E",
"0y    c #504F50",
"0z    c #5B5C5A",
"0A    c #585758",
"0B    c #585856",
"0C    c #565555",
"0D    c #545453",
"0E    c #535353",
"0F    c #4F4F50",
"0G    c #4E504E",
"0H    c #4E4F4F",
"0I    c #4D4D4E",
"0J    c #4C4C4D",
"0K    c #4C4B4B",
"0L    c #4B4B4B",
"0M    c #52504C",
"0N    c #CDCB9E",
"0O    c #FFFF57",
"0P    c #92923D",
"0Q    c #494A49",
"0R    c #49494A",
"0S    c #4A4949",
"0T    c #4A4848",
"0U    c #484948",
"0V    c #484847",
"0W    c #484848",
"0X    c #494849",
"0Y    c #494949",
"0Z    c #484A49",
"0&    c #494A4A",
"1     c #4B4A4A",
"10    c #4D4C4B",
"11    c #555556",
"12    c #545355",
"13    c #4F5051",
"14    c #4E4E4C",
"15    c #4B4B4C",
"16    c #4B4C4A",
"17    c #4B494A",
"18    c #4A4A49",
"19    c #484748",
"1a    c #464647",
"1b    c #C6C693",
"1c    c #FFFF61",
"1d    c #8F903A",
"1e    c #464546",
"1f    c #454644",
"1g    c #454544",
"1h    c #434543",
"1i    c #434544",
"1j    c #434445",
"1k    c #444444",
"1l    c #454344",
"1m    c #444544",
"1n    c #444344",
"1o    c #444545",
"1p    c #464644",
"1q    c #444645",
"1r    c #464746",
"1s    c #484647",
"1t    c #484849",
"1u    c #535252",
"1v    c #4A4A4A",
"1w    c #474747",
"1x    c #454645",
"1y    c #444343",
"1z    c #434242",
"1A    c #B8B984",
"1B    c #FEFE5B",
"1C    c #A0A037",
"1D    c #414141",
"1E    c #414140",
"1F    c #3F3E3F",
"1G    c #3C3C3C",
"1H    c #3F3F3F",
"1I    c #403F3F",
"1J    c #40403F",
"1K    c #403F40",
"1L    c #3F3F41",
"1M    c #404041",
"1N    c #424140",
"1O    c #424142",
"1P    c #434243",
"1Q    c #444342",
"1R    c #434444",
"1S    c #454546",
"1T    c #464545",
"1U    c #4C4C4B",
"1V    c #4A494B",
"1W    c #464747",
"1X    c #454545",
"1Y    c #434342",
"1Z    c #414240",
"1&    c #3F3F40",
"2     c #3E3D3E",
"20    c #B0B074",
"21    c #FEFE5D",
"22    c #B0AF35",
"23    c #3C3D3D",
"24    c #3D3C3D",
"25    c #3B3C3D",
"26    c #2C2B2C",
"27    c #1E1D1D",
"28    c #363735",
"29    c #3C3B3B",
"2a    c #3C3B3C",
"2b    c #3B3D3B",
"2c    c #3C3C3B",
"2d    c #3D3E3D",
"2e    c #3F3E3E",
"2f    c #404141",
"2g    c #424141",
"2h    c #434341",
"2i    c #494848",
"2j    c #474746",
"2k    c #414142",
"2l    c #3A3A3B",
"2m    c #393A3A",
"2n    c #AFAF6C",
"2o    c #FFFE5C",
"2p    c #B5B439",
"2q    c #383939",
"2r    c #393937",
"2s    c #383838",
"2t    c #2A2C2A",
"2u    c #1C1E1E",
"2v    c #191919",
"2w    c #1F201F",
"2x    c #353435",
"2y    c #373737",
"2z    c #383839",
"2A    c #393A38",
"2B    c #3A3939",
"2C    c #3A3B39",
"2D    c #3B3C3C",
"2E    c #3C3D3B",
"2F    c #3C3C3D",
"2G    c #3E3F3F",
"2H    c #404140",
"2I    c #464646",
"2J    c #454444",
"2K    c #434343",
"2L    c #3D3C3C",
"2M    c #3B3B3B",
"2N    c #3B3A39",
"2O    c #9A9A5A",
"2P    c #FFFF5E",
"2Q    c #B9B835",
"2R    c #343535",
"2S    c #333534",
"2T    c #323434",
"2U    c #2C2C2C",
"2V    c #1B1B1B",
"2W    c #181819",
"2X    c #181818",
"2Y    c #1E1F1E",
"2Z    c #313130",
"2&    c #323333",
"3     c #333333",
"30    c #343434",
"31    c #353635",
"32    c #363536",
"33    c #363636",
"34    c #363637",
"35    c #393838",
"36    c #3A393A",
"37    c #3E3E3D",
"38    c #3E3F3D",
"39    c #474745",
"3a    c #424242",
"3b    c #414242",
"3c    c #3B3A3B",
"3d    c #383A3A",
"3e    c #393837",
"3f    c #373636",
"3g    c #363434",
"3h    c #353333",
"3i    c #878653",
"3j    c #FEFF5A",
"3k    c #BEBE32",
"3l    c #373730",
"3m    c #313030",
"3n    c #68472D",
"3o    c #DD7F2C",
"3p    c #CE8233",
"3q    c #C58D3E",
"3r    c #C5A255",
"3s    c #B7AA70",
"3t    c #B5A76F",
"3u    c #B1884E",
"3v    c #6E492A",
"3w    c #2F2F2F",
"3x    c #313331",
"3y    c #333334",
"3z    c #363435",
"3A    c #353736",
"3B    c #363738",
"3C    c #39393A",
"3D    c #3D3D3D",
"3E    c #444443",
"3F    c #414041",
"3G    c #3E3D3C",
"3H    c #393B39",
"3I    c #353634",
"3J    c #343435",
"3K    c #313231",
"3L    c #7E7D4D",
"3M    c #FEFF5D",
"3N    c #D1D231",
"3O    c #33352D",
"3P    c #2D2C2D",
"3Q    c #2C2B2B",
"3R    c #543A26",
"3S    c #FF8E2D",
"3T    c #FE9C3A",
"3U    c #FEB552",
"3V    c #FEDF7B",
"3W    c #FEFA9E",
"3X    c #FEEB91",
"3Y    c #DC9345",
"3Z    c #5D3811",
"3&    c #322E2A",
"4     c #2D2D2F",
"40    c #302F2F",
"41    c #323031",
"42    c #343333",
"43    c #373838",
"44    c #393938",
"45    c #393B3A",
"46    c #424343",
"47    c #3F403F",
"48    c #393839",
"49    c #323332",
"4a    c #787847",
"4b    c #FEFF5C",
"4c    c #D7D72D",
"4d    c #38392C",
"4e    c #2A2B2A",
"4f    c #292929",
"4g    c #212322",
"4h    c #231C17",
"4i    c #FF8829",
"4j    c #FF9636",
"4k    c #FEA848",
"4l    c #FFBF60",
"4m    c #FFCB6D",
"4n    c #EFA452",
"4o    c #613B11",
"4p    c #362C24",
"4q    c #2B2A2B",
"4r    c #2D2C2C",
"4s    c #2D2D2E",
"4t    c #2E2E2E",
"4u    c #31302F",
"4v    c #313131",
"4w    c #333233",
"4x    c #333433",
"4y    c #383836",
"4z    c #424243",
"4A    c #404040",
"4B    c #3E3F3E",
"4C    c #3D3D3C",
"4D    c #383837",
"4E    c #363537",
"4F    c #353534",
"4G    c #333432",
"4H    c #727246",
"4I    c #F9F75C",
"4J    c #D7D82D",
"4K    c #393A2D",
"4L    c #2B2A2C",
"4M    c #252525",
"4N    c #181716",
"4O    c #151514",
"4P    c #E87726",
"4Q    c #FE8A2F",
"4R    c #FE9539",
"4S    c #FF9F44",
"4T    c #FD9C46",
"4U    c #874C1A",
"4V    c #372D21",
"4W    c #2A2A2A",
"4X    c #2C2C2D",
"4Y    c #2E2D2F",
"4Z    c #303030",
"4&    c #323334",
"5     c #343433",
"50    c #383938",
"51    c #3A3A3A",
"52    c #3F4041",
"53    c #3D3F3D",
"54    c #3B3B3A",
"55    c #5F6041",
"56    c #F8F95F",
"57    c #DEDF2E",
"58    c #494930",
"59    c #2C2D2D",
"5a    c #2B2C2C",
"5b    c #262625",
"5c    c #141515",
"5d    c #161615",
"5e    c #BD6020",
"5f    c #FE8127",
"5g    c #FF842D",
"5h    c #FE8932",
"5i    c #F47D31",
"5j    c #DF873A",
"5k    c #5F422C",
"5l    c #2B2B2A",
"5m    c #2B2C2B",
"5n    c #2D2B2D",
"5o    c #2D2E2D",
"5p    c #2F2F2E",
"5q    c #2F2F30",
"5r    c #313233",
"5s    c #353536",
"5t    c #383738",
"5u    c #393B3B",
"5v    c #424241",
"5w    c #3E403F",
"5x    c #3B3D3C",
"5y    c #BFBF4E",
"5z    c #E5E530",
"5A    c #4C4A30",
"5B    c #30302F",
"5C    c #282928",
"5D    c #19191A",
"5E    c #161616",
"5F    c #171716",
"5G    c #1A1819",
"5H    c #A5531F",
"5I    c #FB7623",
"5J    c #FC7824",
"5K    c #BE5F1C",
"5L    c #ED7224",
"5M    c #FD8B35",
"5N    c #FE913A",
"5O    c #BC6A2E",
"5P    c #39322C",
"5Q    c #2E2F2F",
"5R    c #2E2F30",
"5S    c #2F2F31",
"5T    c #303031",
"5U    c #313232",
"5V    c #3A3B3B",
"5W    c #373638",
"5X    c #3D3D35",
"5Y    c #4E4E33",
"5Z    c #323233",
"5&    c #1C1D1C",
"6     c #161617",
"60    c #1B1A1A",
"61    c #29292B",
"62    c #724527",
"63    c #EA6C1F",
"64    c #A55117",
"65    c #492F11",
"66    c #854419",
"67    c #F37525",
"68    c #FF832F",
"69    c #FE8733",
"6a    c #F07D2C",
"6b    c #69462D",
"6c    c #313032",
"6d    c #343536",
"6e    c #383737",
"6f    c #3E3E3F",
"6g    c #3B3B3C",
"6h    c #3B3A3A",
"6i    c #363737",
"6j    c #1F1E1F",
"6k    c #181919",
"6l    c #1D1E1D",
"6m    c #292828",
"6n    c #5A3F2C",
"6o    c #A55115",
"6p    c #4E310F",
"6q    c #1E1B18",
"6r    c #1C1A19",
"6s    c #B5581A",
"6t    c #F07322",
"6u    c #FD7B29",
"6v    c #FF7F2C",
"6w    c #C76528",
"6x    c #4B3B31",
"6y    c #343634",
"6z    c #3A3A3C",
"6A    c #3D3C3B",
"6B    c #3E3D3D",
"6C    c #444445",
"6D    c #413F40",
"6E    c #3D3F3E",
"6F    c #3A393B",
"6G    c #242323",
"6H    c #1B1C1B",
"6I    c #1A1A19",
"6J    c #2A2A2B",
"6K    c #343635",
"6L    c #373635",
"6M    c #3C3633",
"6N    c #4E361A",
"6O    c #383027",
"6P    c #1B1C1C",
"6Q    c #3D2918",
"6R    c #D2621B",
"6S    c #ED7022",
"6T    c #F57425",
"6U    c #FD7A26",
"6V    c #FD7927",
"6W    c #F07326",
"6X    c #8D502C",
"6Y    c #373938",
"6Z    c #3A3839",
"6&    c #3B393A",
"7     c #3E3E3E",
"70    c #474647",
"71    c #404241",
"72    c #3D3E3E",
"73    c #242424",
"74    c #1D1C1E",
"75    c #1D1B1B",
"76    c #201E20",
"77    c #2C2E2D",
"78    c #393939",
"79    c #363638",
"7a    c #1F1F20",
"7b    c #1C1C1C",
"7c    c #673A19",
"7d    c #D6651B",
"7e    c #E46B1F",
"7f    c #EC7121",
"7g    c #F47324",
"7h    c #F87525",
"7i    c #DC691F",
"7j    c #553C23",
"7k    c #3B3C3B",
"7l    c #3F3E3D",
"7m    c #3F403E",
"7n    c #3F413F",
"7o    c #484A4A",
"7p    c #474848",
"7q    c #454747",
"7r    c #454443",
"7s    c #404240",
"7t    c #3C3D3C",
"7u    c #1F1E1E",
"7v    c #1E1C1E",
"7w    c #2E2C2D",
"7x    c #3D3D3B",
"7y    c #1E1D1E",
"7z    c #1D1D1D",
"7A    c #201E1C",
"7B    c #964C18",
"7C    c #D06119",
"7D    c #D9661C",
"7E    c #E36B1E",
"7F    c #D9681E",
"7G    c #623C14",
"7H    c #403D38",
"7I    c #3D3D3F",
"7J    c #3D3E3F",
"7K    c #3F4040",
"7L    c #404142",
"7M    c #484949",
"7N    c #454647",
"7O    c #424342",
"7P    c #222222",
"7Q    c #313132",
"7R    c #20201F",
"7S    c #201F1F",
"7T    c #2F241E",
"7U    c #AE5515",
"7V    c #C85F18",
"7W    c #C75F18",
"7X    c #623B11",
"7Y    c #413D39",
"7Z    c #414241",
"7&    c #4D4E4D",
"8     c #4B4B4D",
"80    c #494A4B",
"81    c #464645",
"82    c #393738",
"83    c #434443",
"84    c #424443",
"85    c #414341",
"86    c #414243",
"87    c #424143",
"88    c #202020",
"89    c #212120",
"8a    c #212021",
"8b    c #573519",
"8c    c #AA5216",
"8d    c #693C0F",
"8e    c #2E251D",
"8f    c #464445",
"8g    c #515150",
"8h    c #4F4F4F",
"8i    c #4C4C4C",
"8j    c #4B4A4B",
"8k    c #474646",
"8l    c #444546",
"8m    c #282828",
"8n    c #222122",
"8o    c #212122",
"8p    c #432D1A",
"8q    c #2D261F",
"8r    c #222323",
"8s    c #222322",
"8t    c #2C2D2E",
"8u    c #525252",
"8v    c #515051",
"8w    c #4F4F4E",
"8x    c #4E4F4E",
"8y    c #4C4D4D",
"8z    c #494948",
"8A    c #494748",
"8B    c #252424",
"8C    c #252323",
"8D    c #242423",
"8E    c #242324",
"8F    c #252425",
"8G    c #242523",
"8H    c #242524",
"8I    c #232425",
"8J    c #252325",
"8K    c #2F2E2D",
"8L    c #4B4A49",
"8M    c #4A4B4B",
"   0 1 2 3 4 5 6 7 8 9 a b c d e f g h i j k l m n o p p q r s t t u v g g w x x y",
" z A B C D E F G H I h J K L l M r N O P Q R S T U V W X Y Z & & &0 0000 Y Y Y0102",
"0304 e v J J05060708090a0b0c0d0e0f0g0f0h0i0j0k0l0m0n0o0p0q0m0r0s0t0u0m0m0v0w0w0x0y",
"0z k0A0B0C N0D0E X0e0F0G0H0I0u0J0K0L0M0N0O0P0Q0R0S0T0U0V0W0X0Y0Z0U0S0Q0&1 1 0L100K",
" N1112 U0e130w0o14151617180X0X0W191a1b1c1d1e1f1g1h1i1j1k1l1m1n1o1p1q1e1e1r1s190U1t",
"1u0 0y0n0m0L1v0Q0U1w1a1x1m1g1y1z1z1A1B1C1D1E1F1G1H1I1J1K1L1M1I1E1N1D1O1P1Q1R1o1S1T",
"0x0J1U1V0R0V1W1X1n1Y1Y1Z1J1&1H2 202122232425262728292a2a2a2b2c232d2 2e1J1I2f2g2h1P",
"0K0&2i2j1X1R1P2k1E1F2d2d2a2l2m2n2o2p2q2r2s2t2u2v2w2x2y2y2s2z2A2B2C2l2D2E2F2e2G1H2H",
"0U2I2J2K1O1E1H2G2L2M2N2q2s282O2P2Q2R2S2T2U2V2W2X2Y2Z2&3 30313233342y35362l2D2F3738",
"391o3a3b1&372E3c3d3e3f3g3h3i3j3k3l3m3n3o3p3q3r3s3t3u3v3w2Z3x3 3y2R3z3A3B353C2l1G3D",
"3E1z3F2G3G2D3H2z333I3J3K3L3M3N3O3P3Q3R3S3T3U3V3W3X3Y3Z3&4 3w40413 423031432z44452M",
"463F47372E3c483B3I30494a4b4c4d4e4f4g4h4i4j4k4l4m4n4o4p4q4r4s4t4u4v4w4x30334y482m3c",
"4z4A4B4C2D364D4E4F4G4H4I4J4K4L4e4M4N4O4P4Q4R4S4T4U4V4W4W2U4X4Y4Z4v494&5 322y4D5051",
"1O525324543C503f3155565758595a5b2W5c5d5e5f5g5h5i5j5k5l5m5n5o5p5q2Z5r3 305s345t505u",
"5v1M5w375x512z5t335y5z5A2Z5B5C5D5E5F5G5H5I5J5K5L5M5N5O5P5Q5R5S5T5U4&3y5s334D482B2l",
"4z1D1I1H3D295V505W5X5Y5 5Z3w5&6 5F606162636465666768696a6b6c5U49302x6d2y6e2z3C2l29",
"1y2K1Z4A6f3D6g6h514D5t6i3 6j6k6k6l6m496n6o6p6q6r6s6t6u6v6v6w6x6y5s2y2s4D44366z6A6B",
"1e6C1z3a6D6f6E2F2c3c6F2R6G6H6I2V6J6K6L6M6N6O6P606Q6R6S6T6U6V6W6X6Y2z6Z6&3c29232d7 ",
"702I1e2K1Y711M5w727 2s73747576776e3C443678797a7b7b7c7d7e7f7g7h7i7j297k1G232 7l7m7n",
"7o1w7p7q1x7r2K1z7s1&7t7u7v6j7w6h242L2D7x1G1G5C7y7z7A7B7C7D7E7F7G7H7I7J6f1&7K3F7L1D",
"160L7M0Y191w7N1m7r1R7O4M7P5o6f1D471K1K4B1&1F7Q7R7S2Y7T7U7V7W7X7Y7K4A1D5v7Z3a462K1R",
"7&0m8 0L800Z0U7p702I81823J1O832K2K83848586875V7P88898a8b8c8d8e5q4A2K2K1i1X1f8f391w",
"8g8h0n0I0m8i8j8j0S0R0Y1X1n707p8k7N1T1X1T1e8l1k8m8n8n8o7P8p8q8r8s8t712j701w1w190W1t",
" Y8u8v8v8w8x0I0n8y8i150L1 1 0&0Y0Q188z8z0Y0X8A3C8B8C8D8E8F8G8H8I8J8K1R0Z0Y8L8j1 8M"};
