/* XPM */
static char *EDGE_xpm[]={
"30 24 603 2",
"      c #605E5E",
" 0    c #605F5F",
" 1    c #5F5E5D",
" 2    c #5D5D5D",
" 3    c #5D5C5D",
" 4    c #5D5C5C",
" 5    c #5C5B59",
" 6    c #595B5B",
" 7    c #5A5B5B",
" 8    c #5A5A5A",
" 9    c #595759",
" a    c #5A5859",
" b    c #585956",
" c    c #585856",
" d    c #555855",
" e    c #575858",
" f    c #565756",
" g    c #565655",
" h    c #555555",
" i    c #545454",
" j    c #545554",
" k    c #535353",
" l    c #545555",
" m    c #545453",
" n    c #535453",
" o    c #535354",
" p    c #5F5F5F",
" q    c #5E5E5E",
" r    c #5F5F5E",
" s    c #5E5D5D",
" t    c #5C5D5D",
" u    c #5D5B5B",
" v    c #5B5B5A",
" w    c #5A595A",
" x    c #5A5A59",
" y    c #585758",
" z    c #595959",
" A    c #575757",
" B    c #585756",
" C    c #575756",
" D    c #565656",
" E    c #545556",
" F    c #555455",
" G    c #555655",
" H    c #555554",
" I    c #535454",
" J    c #535253",
" K    c #535452",
" L    c #535352",
" M    c #545353",
" N    c #5B5C5C",
" O    c #58595A",
" P    c #575758",
" Q    c #555755",
" R    c #565555",
" S    c #847E5B",
" T    c #C3B561",
" U    c #CCC164",
" V    c #E1D368",
" W    c #E8CF5E",
" X    c #BB9B46",
" Y    c #8C7B48",
" Z    c #645F4C",
" &    c #505050",
"0     c #504F50",
"00    c #4F4F4F",
"01    c #4F5050",
"02    c #4F4F50",
"03    c #4F4F4E",
"04    c #4F4E50",
"05    c #50504E",
"06    c #4F504F",
"07    c #585A59",
"08    c #575959",
"09    c #545354",
"0a    c #525253",
"0b    c #525353",
"0c    c #515152",
"0d    c #727157",
"0e    c #D4D27D",
"0f    c #FFFF97",
"0g    c #FEFE85",
"0h    c #FEFE84",
"0i    c #FEF480",
"0j    c #FEE87A",
"0k    c #F4D167",
"0l    c #D5AD44",
"0m    c #CDA73C",
"0n    c #AA8E3D",
"0o    c #585349",
"0p    c #4B4C4B",
"0q    c #4C4C4C",
"0r    c #4C4C4B",
"0s    c #4C4C4D",
"0t    c #4B4B4B",
"0u    c #4B4C4C",
"0v    c #4D4D4D",
"0w    c #4D4C4D",
"0x    c #525252",
"0y    c #515151",
"0z    c #4E4E4E",
"0A    c #51524E",
"0B    c #ABAA68",
"0C    c #FFFE8E",
"0D    c #FEFE9E",
"0E    c #FEFFCF",
"0F    c #FEFEE6",
"0G    c #FFFFA0",
"0H    c #FEF586",
"0I    c #F9E278",
"0J    c #DAB455",
"0K    c #D0A84B",
"0L    c #C8A042",
"0M    c #BB9735",
"0N    c #B79535",
"0O    c #6F633F",
"0P    c #464647",
"0Q    c #464646",
"0R    c #474746",
"0S    c #484647",
"0T    c #464747",
"0U    c #484748",
"0V    c #484949",
"0W    c #4D4E4E",
"0X    c #4D4B4C",
"0Y    c #4A4B4B",
"0Z    c #494A4B",
"0&    c #4A4949",
"1     c #474748",
"10    c #AF934E",
"11    c #FEF681",
"12    c #FFFFA2",
"13    c #FEFFE6",
"14    c #FEFEFF",
"15    c #FEFFF7",
"16    c #F4E998",
"17    c #DCB757",
"18    c #D3AC50",
"19    c #CFA84B",
"1a    c #BD963C",
"1b    c #A9852F",
"1c    c #9D7E29",
"1d    c #8D7021",
"1e    c #514A37",
"1f    c #414242",
"1g    c #424343",
"1h    c #434342",
"1i    c #434443",
"1j    c #434444",
"1k    c #454545",
"1l    c #49494A",
"1m    c #484747",
"1n    c #454746",
"1o    c #454544",
"1p    c #444343",
"1q    c #857246",
"1r    c #F6C64F",
"1s    c #FAE07D",
"1t    c #FFFEF2",
"1u    c #FEFFFF",
"1v    c #FEFEFE",
"1w    c #FFFFFE",
"1x    c #F5F1DF",
"1y    c #D1B565",
"1z    c #CBAA54",
"1A    c #CEAA50",
"1B    c #CEA84C",
"1C    c #B38D34",
"1D    c #AA862F",
"1E    c #A0802B",
"1F    c #82681E",
"1G    c #755F1E",
"1H    c #3F3F3B",
"1I    c #3E3D3E",
"1J    c #3F3F3E",
"1K    c #3F3E3E",
"1L    c #40403F",
"1M    c #403F40",
"1N    c #424241",
"1O    c #454445",
"1P    c #434243",
"1Q    c #424242",
"1R    c #585141",
"1S    c #EABE4D",
"1T    c #F4C551",
"1U    c #DBB34F",
"1V    c #E9D198",
"1W    c #FDFCF9",
"1X    c #FCF9F5",
"1Y    c #D4BB71",
"1Z    c #C9AB56",
"1&    c #C5A753",
"2     c #C1A34E",
"20    c #BB9B47",
"21    c #906F26",
"22    c #A37E2B",
"23    c #A6842D",
"24    c #856B1F",
"25    c #81661D",
"26    c #615225",
"27    c #3A3A3A",
"28    c #3A3B3B",
"29    c #3B3C3C",
"2a    c #3D3E3E",
"2b    c #3E3D3D",
"2c    c #404242",
"2d    c #403F3F",
"2e    c #3D3D3D",
"2f    c #3D3C3C",
"2g    c #977C3B",
"2h    c #F0C14C",
"2i    c #DCB14A",
"2j    c #D6AD4B",
"2k    c #D9AF4E",
"2l    c #E3C376",
"2m    c #FAF7EE",
"2n    c #D9C284",
"2o    c #C9AC57",
"2p    c #C4A754",
"2q    c #C0A450",
"2r    c #BEA04B",
"2s    c #9D8236",
"2t    c #73581A",
"2u    c #7F631E",
"2v    c #7A611B",
"2w    c #795F19",
"2x    c #775D17",
"2y    c #413B2E",
"2z    c #383637",
"2A    c #383837",
"2B    c #393938",
"2C    c #3B3B3A",
"2D    c #3E3F40",
"2E    c #3E3D3F",
"2F    c #3B3B3B",
"2G    c #393939",
"2H    c #A78534",
"2I    c #E1B648",
"2J    c #D0A746",
"2K    c #D3AA48",
"2L    c #D5AB4A",
"2M    c #D6AE4C",
"2N    c #B49343",
"2O    c #AF9346",
"2P    c #C2A452",
"2Q    c #C1A24F",
"2R    c #BEA14D",
"2S    c #BB9E4A",
"2T    c #806724",
"2U    c #72571A",
"2V    c #74581B",
"2W    c #75591A",
"2X    c #614A10",
"2Y    c #59450D",
"2Z    c #5B440D",
"2&    c #423A26",
"3     c #333534",
"30    c #353435",
"31    c #363735",
"32    c #383738",
"33    c #383839",
"34    c #3D3E3D",
"35    c #3A3B3C",
"36    c #373837",
"37    c #423E36",
"38    c #B89031",
"39    c #AF8C35",
"3a    c #CDA543",
"3b    c #CEA646",
"3c    c #CFA748",
"3d    c #CBA245",
"3e    c #876B25",
"3f    c #826723",
"3g    c #896D28",
"3h    c #AA8E40",
"3i    c #BA9C4B",
"3j    c #AE9141",
"3k    c #72581A",
"3l    c #71581A",
"3m    c #73581B",
"3n    c #745A1A",
"3o    c #5F490F",
"3p    c #58440D",
"3q    c #58430C",
"3r    c #4E3F19",
"3s    c #323133",
"3t    c #343232",
"3u    c #353335",
"3v    c #353635",
"3w    c #373636",
"3x    c #3C3C3D",
"3y    c #393837",
"3z    c #494233",
"3A    c #AD882D",
"3B    c #866C22",
"3C    c #AA8934",
"3D    c #CCA244",
"3E    c #CCA344",
"3F    c #95772C",
"3G    c #826721",
"3H    c #806622",
"3I    c #816422",
"3J    c #7F6521",
"3K    c #836A27",
"3L    c #6F5419",
"3M    c #73571A",
"3N    c #735719",
"3O    c #76581A",
"3P    c #5E480F",
"3Q    c #57420D",
"3R    c #56410C",
"3S    c #564311",
"3T    c #313130",
"3U    c #313132",
"3V    c #323433",
"3W    c #343534",
"3X    c #353536",
"3Y    c #3B3A3C",
"3Z    c #39393A",
"3&    c #383737",
"4     c #363635",
"40    c #343434",
"41    c #997A28",
"42    c #836C22",
"43    c #836B22",
"44    c #A98834",
"45    c #B7933B",
"46    c #816722",
"47    c #806422",
"48    c #7F6421",
"49    c #7E6521",
"4a    c #55410E",
"4b    c #4C380C",
"4c    c #564010",
"4d    c #624B13",
"4e    c #6F5418",
"4f    c #5C470E",
"4g    c #55400C",
"4h    c #53410D",
"4i    c #554213",
"4j    c #303131",
"4k    c #313232",
"4l    c #333333",
"4m    c #353433",
"4n    c #373738",
"4o    c #353434",
"4p    c #7E6624",
"4q    c #826C22",
"4r    c #846A24",
"4s    c #695318",
"4t    c #7C621E",
"4u    c #816621",
"4v    c #806521",
"4w    c #71591A",
"4x    c #4F3C0C",
"4y    c #4A380B",
"4z    c #4F3B0D",
"4A    c #513C0C",
"4B    c #563F0D",
"4C    c #56400E",
"4D    c #533F0D",
"4E    c #4E3F17",
"4F    c #313030",
"4G    c #313233",
"4H    c #343433",
"4I    c #363636",
"4J    c #3B3B3C",
"4K    c #393A39",
"4L    c #383838",
"4M    c #373737",
"4N    c #363535",
"4O    c #54441C",
"4P    c #7F6720",
"4Q    c #826B22",
"4R    c #7B6320",
"4S    c #4C390D",
"4T    c #503C0F",
"4U    c #654F15",
"4V    c #7D631E",
"4W    c #80641F",
"4X    c #7F6320",
"4Y    c #5C4812",
"4Z    c #4B3A0C",
"4&    c #4C390C",
"5     c #4E3C0C",
"50    c #533D0C",
"51    c #57400C",
"52    c #57400D",
"53    c #563E0D",
"54    c #57400E",
"55    c #392D14",
"56    c #2B2B2B",
"57    c #333233",
"58    c #363737",
"59    c #3D3D3E",
"5a    c #3C3C3B",
"5b    c #4A3D1C",
"5c    c #604A13",
"5d    c #816820",
"5e    c #664F16",
"5f    c #4C380D",
"5g    c #4B380C",
"5h    c #4B390D",
"5i    c #503E0D",
"5j    c #6A5217",
"5k    c #755B1A",
"5l    c #503D0D",
"5m    c #4D390C",
"5n    c #513B0C",
"5o    c #553F0D",
"5p    c #58400C",
"5q    c #56410E",
"5r    c #563F0C",
"5s    c #58420C",
"5t    c #2A2418",
"5u    c #1C1B1C",
"5v    c #323030",
"5w    c #393838",
"5x    c #3F3F3F",
"5y    c #3E3F3F",
"5z    c #3D3D3C",
"5A    c #3B3C3B",
"5B    c #3A3A3B",
"5C    c #453E2D",
"5D    c #553E0D",
"5E    c #664F14",
"5F    c #54410E",
"5G    c #4C3A0B",
"5H    c #4A370C",
"5I    c #4A390D",
"5J    c #4D3A0C",
"5K    c #503E0C",
"5L    c #523E0D",
"5M    c #4E3A0C",
"5N    c #533E0B",
"5O    c #56410D",
"5P    c #59420E",
"5Q    c #59400C",
"5R    c #58410D",
"5S    c #3C3013",
"5T    c #1A1A1A",
"5U    c #1B1A1B",
"5V    c #212121",
"5W    c #353535",
"5X    c #393839",
"5Y    c #3B3A3A",
"5Z    c #414142",
"5&    c #404041",
"6     c #3C3D3E",
"60    c #4A3D23",
"61    c #553F0F",
"62    c #533F0E",
"63    c #4F3C0D",
"64    c #4D390D",
"65    c #4B390C",
"66    c #4F3F0D",
"67    c #523D0D",
"68    c #523D0C",
"69    c #57440D",
"6a    c #5D450D",
"6b    c #5C450D",
"6c    c #543F0F",
"6d    c #201F1B",
"6e    c #1B1C1C",
"6f    c #1C1C1D",
"6g    c #262626",
"6h    c #3A3939",
"6i    c #444443",
"6j    c #424142",
"6k    c #414241",
"6l    c #414141",
"6m    c #3E3E3E",
"6n    c #4F3F1B",
"6o    c #513D0D",
"6p    c #503C0D",
"6q    c #513C0D",
"6r    c #4E3E0D",
"6s    c #523C0B",
"6t    c #503C0B",
"6u    c #543F0C",
"6v    c #58430B",
"6w    c #5D450E",
"6x    c #5F460C",
"6y    c #5D430D",
"6z    c #2E2619",
"6A    c #1E1D1E",
"6B    c #1E1D1D",
"6C    c #1E1E1E",
"6D    c #1F1F1E",
"6E    c #2D2E2E",
"6F    c #464748",
"6G    c #464746",
"6H    c #464545",
"6I    c #434543",
"6J    c #424244",
"6K    c #424342",
"6L    c #42423F",
"6M    c #544315",
"6N    c #4E3B0D",
"6O    c #4E3A0D",
"6P    c #513C0E",
"6Q    c #55400F",
"6R    c #4F3E0C",
"6S    c #533E0D",
"6T    c #58410B",
"6U    c #5D440E",
"6V    c #5C430D",
"6W    c #453613",
"6X    c #201F20",
"6Y    c #1F1F1F",
"6Z    c #1F1F20",
"6&    c #202020",
"7     c #222221",
"70    c #4A4A49",
"71    c #4A484A",
"72    c #484847",
"73    c #454645",
"74    c #444444",
"75    c #47463F",
"76    c #58481E",
"77    c #513B0D",
"78    c #594110",
"79    c #5A4311",
"7a    c #58430F",
"7b    c #57430D",
"7c    c #53410C",
"7d    c #543F0D",
"7e    c #5E460E",
"7f    c #58420E",
"7g    c #382E1A",
"7h    c #202021",
"7i    c #212120",
"7j    c #202221",
"7k    c #212122",
"7l    c #202121",
"7m    c #212221",
"7n    c #272828",
"7o    c #4A4B4C",
"7p    c #494B4A",
"7q    c #494849",
"7r    c #484848",
"7s    c #474747",
"7t    c #474647",
"7u    c #3D3E3F",
"7v    c #322C20",
"7w    c #4D3B17",
"7x    c #5A4215",
"7y    c #5B4310",
"7z    c #58430E",
"7A    c #55420D",
"7B    c #54410F",
"7C    c #4F3E12",
"7D    c #3C321A",
"7E    c #272621",
"7F    c #222222",
"7G    c #222323",
"7H    c #232222",
"7I    c #212323",
"7J    c #232322",
"7K    c #232323",
"7L    c #222224",
"7M    c #242424",
"7N    c #242324",
"7O    c #252325",
"7P    c #4D4C4C",
"7Q    c #4C4B4C",
"7R    c #4B4A4A",
"7S    c #494949",
"7T    c #494848",
"7U    c #424243",
"7V    c #232223",
"7W    c #282522",
"7X    c #2D2921",
"7Y    c #2E2A20",
"7Z    c #262421",
"7&    c #232423",
"8     c #232324",
"80    c #242423",
"81    c #232424",
"82    c #222422",
"83    c #242323",
"84    c #252424",
"85    c #252423",
"86    c #242524",
"87    c #4C4A4A",
"88    c #494A4C",
"89    c #4C4B4A",
"8a    c #4B484A",
"8b    c #4A4A48",
"8c    c #4A4A4A",
"8d    c #494A47",
"8e    c #454745",
"8f    c #242426",
"8g    c #242223",
"8h    c #242422",
"8i    c #222423",
"8j    c #222523",
"8k    c #252225",
"8l    c #232523",
"8m    c #252526",
"8n    c #252625",
"8o    c #232525",
"8p    c #252326",
"   0 1 2 3 4 5 6 7 8 9 a b c d e f g h h i j k l j m j n i o",
" p q r s t u v w x y z A B C D E F G h H m o o I J K L n k M",
" 2 4 N v z O P C Q R F S T U V W X Y Z &0 0000010203040506 &",
"0708 f f i090a0b0c0d0e0f0g0h0i0j0k0l0m0n0o0p0p0q0r0s0t0u0v0w",
" I0x0y0y0 0z0w0A0B0C0D0E0F0G0H0I0J0K0L0M0N0O0P0Q0R0S0T0U0U0V",
"040W0X0Y0Z0&1 10111213141415161718191a1b1c1d1e1f1g1h1i1g1j1k",
"0t1l1m1n1o1p1q1r1s1t1u1v1w1x1y1z1A1B1C1D1E1F1G1H1I1J1K1L1M1N",
"0P1O1P1Q1L1R1S1T1U1V1W1v1X1Y1Z1&2 20212223242526272728292a2b",
"1g2c2d2e2f2g2h2i2j2k2l2m2n2o2p2q2r2s2t2t2u2v2w2x2y2z2A2B272C",
"2D2E2e2F2G2H2I2J2K2L2M2N2O2P2Q2R2S2T2U2V2W2X2Y2Z2&3 30313233",
"34352G363738393a3b3c3d3e3f3g3h3i3j3k3l3m3n3o3p3q3r3s3t3u3v3w",
"3x273y3w3z3A3B3C3D3E3F3G3H3I3J3g3K3L3M3N3O3P3Q3R3S3T3U3V3W3X",
"3Y3Z3&4 404142434445463H474849484a4b4c4d4e4f4g4h4i4j4k4l4m3X",
"3Y3Z4n3w4o4p434q4r4s4t4u4v3J4v4w4x4y4z4A4B4C4B4D4E4F4G3V4H4I",
"4J4K4L4M4N4O4P4Q4R4S4T4U4V4W4X4Y4Z4&5 50515253545556574o3v58",
"595a272G335b5c5d5e5f5g5h5i5j5k5l5g5m5n5o5p5q5r5s5t5u5v3X4M5w",
"5x5y5z5A5B5C5D5E5F5G5f5H5I5J5K5L5M4A5N5O5P5Q5R5S5T5U5V5W5X5Y",
"5Z5&2D1K6 2F60616263645h655f6667685R3Q696a6b6c6d6e6e6f6g6h2f",
"6i1g6j6k6l1M6m6n6o4A6p5J5M6q6r6s6t6u6v6w6x6y6z6A6B6C6C6D6E5x",
"6F6G6H6I6J6K1Q6L6M6N6O6N6P6Q6R6N4x6S6T6U6V6W6D6D6X6Y6Z6&7 4K",
"7071720S0P0Q737475765O7778797a7b7c7d7e7f7g7h7i7j7k7l7k7m7 7n",
"0p7o7p707q7r7s7t6G7u7v7w7x7y7z7A7B7C7D7E7F7G7H7I7J7K7L7M7N7O",
"0s7P7Q7R1l0V0V7S7T7U7N7V7G7W7X7Y7Z7&7F7G8 808182837&81848586",
"7Q8788898a8b0&8c8d8e8f8g8h818i7K7V7&7V81808j8k838l7O8m8n8o8p"};
