/* XPM */
static char *CINSIDE_xpm[]={
"41 24 831 2",
"      c #696969",
" 0    c #686868",
" 1    c #686768",
" 2    c #666667",
" 3    c #656566",
" 4    c #646565",
" 5    c #636464",
" 6    c #606162",
" 7    c #565661",
" 8    c #595A61",
" 9    c #605F60",
" a    c #5E5F60",
" b    c #5A5B5F",
" c    c #5D5D5E",
" d    c #5E5D5C",
" e    c #5C5C5D",
" f    c #5C5D5B",
" g    c #5B5A5C",
" h    c #5B5B5A",
" i    c #595B5A",
" j    c #585859",
" k    c #595959",
" l    c #575859",
" m    c #575758",
" n    c #575757",
" o    c #575656",
" p    c #575657",
" q    c #555656",
" r    c #555655",
" s    c #565656",
" t    c #565655",
" u    c #5C5C55",
" v    c #646365",
" w    c #636363",
" x    c #636362",
" y    c #616062",
" z    c #606061",
" A    c #5F5F60",
" B    c #5D5E5E",
" C    c #4E4E5E",
" D    c #272A51",
" E    c #282B46",
" F    c #5E6375",
" G    c #4D5065",
" H    c #25264F",
" I    c #2E2F48",
" J    c #585858",
" K    c #4F4F57",
" L    c #2A2B50",
" M    c #32334E",
" N    c #555555",
" O    c #545456",
" P    c #373855",
" Q    c #353856",
" R    c #505150",
" S    c #545354",
" T    c #4E4F54",
" U    c #3D3D53",
" V    c #444352",
" W    c #535153",
" X    c #525251",
" Y    c #525152",
" Z    c #505151",
" &    c #525253",
"0     c #515252",
"00    c #515152",
"01    c #535253",
"02    c #545353",
"03    c #5F5E60",
"04    c #5E5E5E",
"05    c #5E5C5E",
"06    c #5B5C5C",
"07    c #5A5A5A",
"08    c #59595A",
"09    c #46454D",
"0a    c #1B1D36",
"0b    c #21212E",
"0c    c #7C776F",
"0d    c #55545D",
"0e    c #1D1F39",
"0f    c #292B3F",
"0g    c #5E6272",
"0h    c #4A4E67",
"0i    c #202243",
"0j    c #181A31",
"0k    c #414556",
"0l    c #4B5169",
"0m    c #24264A",
"0n    c #212545",
"0o    c #373D54",
"0p    c #444D67",
"0q    c #3A4163",
"0r    c #212448",
"0s    c #2D3047",
"0t    c #4D4C4C",
"0u    c #4D4C4D",
"0v    c #4D4E4C",
"0w    c #4D4D4C",
"0x    c #4E4D4E",
"0y    c #4D4D4D",
"0z    c #4D4D4E",
"0A    c #4E4F4E",
"0B    c #4F4E4D",
"0C    c #4E4F4D",
"0D    c #4E504E",
"0E    c #504E50",
"0F    c #5B5C5B",
"0G    c #58595A",
"0H    c #595859",
"0I    c #565758",
"0J    c #555556",
"0K    c #545454",
"0L    c #54565A",
"0M    c #454A58",
"0N    c #786D5E",
"0O    c #BDAE91",
"0P    c #988E7C",
"0Q    c #393C4E",
"0R    c #70695E",
"0S    c #C9B9A0",
"0T    c #A69987",
"0U    c #2B3045",
"0V    c #262425",
"0W    c #7F7562",
"0X    c #9A8D75",
"0Y    c #232432",
"0Z    c #141624",
"0&    c #645A47",
"1     c #796D56",
"10    c #443E3C",
"11    c #15172A",
"12    c #292836",
"13    c #494849",
"14    c #484848",
"15    c #484948",
"16    c #484849",
"17    c #49494A",
"18    c #4A4948",
"19    c #4A494A",
"1a    c #494A4B",
"1b    c #4B4B4A",
"1c    c #4A4B4B",
"1d    c #4B4A4C",
"1e    c #4B4B4C",
"1f    c #4B4B4D",
"1g    c #525252",
"1h    c #504F50",
"1i    c #3C3F57",
"1j    c #313659",
"1k    c #625B5C",
"1l    c #AB9A80",
"1m    c #C7BDA8",
"1n    c #D5D2CF",
"1o    c #AEA490",
"1p    c #BEAE94",
"1q    c #C4B79E",
"1r    c #CBC0AF",
"1s    c #868791",
"1t    c #978C75",
"1u    c #A6967E",
"1v    c #A49479",
"1w    c #646A81",
"1x    c #615948",
"1y    c #7F7259",
"1z    c #84755B",
"1A    c #746854",
"1B    c #36405B",
"1C    c #3C3D3F",
"1D    c #444444",
"1E    c #434543",
"1F    c #444544",
"1G    c #454545",
"1H    c #454444",
"1I    c #464645",
"1J    c #454646",
"1K    c #464647",
"1L    c #464646",
"1M    c #474848",
"1N    c #535252",
"1O    c #515250",
"1P    c #4F504F",
"1Q    c #4E4E4E",
"1R    c #4C4D4E",
"1S    c #4C4C4C",
"1T    c #282A4B",
"1U    c #232747",
"1V    c #30344C",
"1W    c #656877",
"1X    c #E4E3E5",
"1Y    c #FEFEFD",
"1Z    c #B89353",
"1&    c #8D8A8F",
"2     c #C3BCB5",
"20    c #FFFEFF",
"21    c #EFD19D",
"22    c #908774",
"23    c #A49780",
"24    c #EEEAD8",
"25    c #F6F8DA",
"26    c #A49067",
"27    c #85765E",
"28    c #7B6E58",
"29    c #413D52",
"2a    c #31375B",
"2b    c #3F3E40",
"2c    c #3F4040",
"2d    c #40413F",
"2e    c #3F4140",
"2f    c #413F41",
"2g    c #414040",
"2h    c #414140",
"2i    c #424042",
"2j    c #424243",
"2k    c #424343",
"2l    c #434344",
"2m    c #454546",
"2n    c #4E4D4F",
"2o    c #4B4B4B",
"2p    c #474747",
"2q    c #34363E",
"2r    c #20212D",
"2s    c #5F564B",
"2t    c #83755D",
"2u    c #A27B3C",
"2v    c #B27C37",
"2w    c #8E7426",
"2x    c #6B6455",
"2y    c #A9875C",
"2z    c #E1B379",
"2A    c #BA943F",
"2B    c #3B3C42",
"2C    c #515360",
"2D    c #F7DDAD",
"2E    c #FEE0A4",
"2F    c #68553D",
"2G    c #505469",
"2H    c #4A4F6B",
"2I    c #24274A",
"2J    c #232447",
"2K    c #373639",
"2L    c #3C3B3C",
"2M    c #3C3B3B",
"2N    c #3D3C3C",
"2O    c #3C3D3C",
"2P    c #3D3D3D",
"2Q    c #3E3D3E",
"2R    c #3F3E3E",
"2S    c #404140",
"2T    c #414141",
"2U    c #434243",
"2V    c #434442",
"2W    c #4C4B4B",
"2X    c #4A4A49",
"2Y    c #494848",
"2Z    c #424247",
"2&    c #454C65",
"3     c #726751",
"30    c #86785D",
"31    c #8E8064",
"32    c #736F6E",
"33    c #585447",
"34    c #73694C",
"35    c #9C8D73",
"36    c #948568",
"37    c #474645",
"38    c #665927",
"39    c #756B56",
"3a    c #8C7D66",
"3b    c #8E783D",
"3c    c #75581E",
"3d    c #62582F",
"3e    c #776851",
"3f    c #564C3C",
"3g    c #181A29",
"3h    c #151527",
"3i    c #373637",
"3j    c #383738",
"3k    c #373937",
"3l    c #383838",
"3m    c #383A39",
"3n    c #393A3A",
"3o    c #3B3A3B",
"3p    c #3B3B3B",
"3q    c #3D3D3C",
"3r    c #3D3E3E",
"3s    c #403E3E",
"3t    c #40403F",
"3u    c #494947",
"3v    c #464545",
"3w    c #434343",
"3x    c #404045",
"3y    c #24264E",
"3z    c #2A2C4E",
"3A    c #685C4A",
"3B    c #83745A",
"3C    c #D2CC9C",
"3D    c #C3C3AA",
"3E    c #8C7A57",
"3F    c #928368",
"3G    c #A19578",
"3H    c #A7A08E",
"3I    c #837F7A",
"3J    c #8B7C64",
"3K    c #8F8068",
"3L    c #8C7D65",
"3M    c #65687C",
"3N    c #524A3C",
"3O    c #70634C",
"3P    c #796B50",
"3Q    c #73664C",
"3R    c #484F69",
"3S    c #2A2C30",
"3T    c #333433",
"3U    c #333233",
"3V    c #343434",
"3W    c #343435",
"3X    c #353636",
"3Y    c #363637",
"3Z    c #373837",
"3&    c #393938",
"4     c #39393A",
"40    c #3A3B3B",
"41    c #3B3C3B",
"42    c #3E3D3D",
"43    c #3E3F3F",
"44    c #454747",
"45    c #424443",
"46    c #424141",
"47    c #363747",
"48    c #222547",
"49    c #1C1D36",
"4a    c #35394C",
"4b    c #717473",
"4c    c #FEFEB5",
"4d    c #FFEB9F",
"4e    c #957F53",
"4f    c #767476",
"4g    c #CDC8AA",
"4h    c #FEFFD7",
"4i    c #EBC872",
"4j    c #807565",
"4k    c #877860",
"4l    c #DCD6A6",
"4m    c #E2E4B7",
"4n    c #A48D5C",
"4o    c #776951",
"4p    c #74664D",
"4q    c #574F4F",
"4r    c #3C4265",
"4s    c #2E2F34",
"4t    c #2F2F31",
"4u    c #303030",
"4v    c #303130",
"4w    c #323232",
"4x    c #323333",
"4y    c #333333",
"4z    c #363636",
"4A    c #373737",
"4B    c #393939",
"4C    c #3B3A3A",
"4D    c #3C3C3D",
"4E    c #444443",
"4F    c #424342",
"4G    c #424040",
"4H    c #3D3D3E",
"4I    c #252B3E",
"4J    c #201E1D",
"4K    c #615540",
"4L    c #796546",
"4M    c #A8762D",
"4N    c #C99031",
"4O    c #6D6439",
"4P    c #534B3B",
"4Q    c #C8A363",
"4R    c #F9CF82",
"4S    c #B39045",
"4T    c #41424D",
"4U    c #454D62",
"4V    c #F6EDB1",
"4W    c #FEFFB0",
"4X    c #7D6242",
"4Y    c #4D5163",
"4Z    c #5D6070",
"4&    c #2D2E52",
"5     c #202244",
"50    c #232634",
"51    c #2C2C2C",
"52    c #2E2D2C",
"53    c #2F2D2D",
"54    c #2F2F2E",
"55    c #313132",
"56    c #323332",
"57    c #353534",
"58    c #353735",
"59    c #383739",
"5a    c #3B393A",
"5b    c #3B3C3C",
"5c    c #414242",
"5d    c #3F403F",
"5e    c #3E3E42",
"5f    c #464751",
"5g    c #564C36",
"5h    c #6F6147",
"5i    c #726347",
"5j    c #46495A",
"5k    c #393325",
"5l    c #615640",
"5m    c #7A6B52",
"5n    c #61563B",
"5o    c #3C3B31",
"5p    c #5F521D",
"5q    c #605641",
"5r    c #706149",
"5s    c #9E6E24",
"5t    c #A3732A",
"5u    c #6B5A25",
"5v    c #574C3A",
"5w    c #4F4737",
"5x    c #1F2038",
"5y    c #1C1E39",
"5z    c #232329",
"5A    c #4C3F2B",
"5B    c #CA9A3D",
"5C    c #B09347",
"5D    c #897E4F",
"5E    c #696345",
"5F    c #5D4C34",
"5G    c #443930",
"5H    c #333434",
"5I    c #333535",
"5J    c #353537",
"5K    c #383737",
"5L    c #3A3839",
"5M    c #424241",
"5N    c #404040",
"5O    c #3F3F3E",
"5P    c #2F314E",
"5Q    c #2C3052",
"5R    c #3C373D",
"5S    c #6A5D41",
"5T    c #7F724C",
"5U    c #A69C5F",
"5V    c #656965",
"5W    c #675B42",
"5X    c #726349",
"5Y    c #74654C",
"5Z    c #65605F",
"5&    c #403C3B",
"6     c #5E543E",
"60    c #6E6248",
"61    c #72644C",
"62    c #555359",
"63    c #2B2A24",
"64    c #463E2A",
"65    c #685A42",
"66    c #695A41",
"67    c #444143",
"68    c #191D2A",
"69    c #252627",
"6a    c #2A292A",
"6b    c #FFC046",
"6c    c #FFEC75",
"6d    c #FEFFA6",
"6e    c #FFFFB2",
"6f    c #FEEB7F",
"6g    c #FFB951",
"6h    c #F39235",
"6i    c #7A4A20",
"6j    c #363536",
"6k    c #383939",
"6l    c #414241",
"6m    c #3D3D44",
"6n    c #26294E",
"6o    c #26284E",
"6p    c #292D4B",
"6q    c #596073",
"6r    c #BEBF7C",
"6s    c #FFFF85",
"6t    c #F6D861",
"6u    c #7E704B",
"6v    c #D1CE7F",
"6w    c #E6E593",
"6x    c #B8A852",
"6y    c #6F6046",
"6z    c #716348",
"6A    c #94885C",
"6B    c #7F827D",
"6C    c #675F44",
"6D    c #65593F",
"6E    c #685A41",
"6F    c #67593E",
"6G    c #57596F",
"6H    c #25272B",
"6I    c #292A2A",
"6J    c #2B2A2A",
"6K    c #C99D43",
"6L    c #FEE36E",
"6M    c #FEFC95",
"6N    c #FFF28E",
"6O    c #FED167",
"6P    c #FEAA46",
"6Q    c #AF601F",
"6R    c #3F3326",
"6S    c #373636",
"6T    c #3A3A3A",
"6U    c #434142",
"6V    c #3F3F3F",
"6W    c #24262F",
"6X    c #1A1B25",
"6Y    c #38302C",
"6Z    c #4F4531",
"6&    c #BFA34B",
"7     c #E8C95C",
"70    c #D09C2E",
"71    c #454548",
"72    c #565D68",
"73    c #F6F991",
"74    c #FEFF90",
"75    c #A38341",
"76    c #5B5F71",
"77    c #65666E",
"78    c #F2F291",
"79    c #FEFF91",
"7a    c #C1AD52",
"7b    c #64563E",
"7c    c #675940",
"7d    c #48434B",
"7e    c #323456",
"7f    c #2A2C43",
"7g    c #2C2C2D",
"7h    c #2C2D2D",
"7i    c #B67D34",
"7j    c #FEC254",
"7k    c #FECF63",
"7l    c #FEC35B",
"7m    c #FFAB47",
"7n    c #B1601F",
"7o    c #3E3327",
"7p    c #363435",
"7q    c #383637",
"7r    c #3B3B3A",
"7s    c #424142",
"7t    c #333B51",
"7u    c #393427",
"7v    c #615137",
"7w    c #67573C",
"7x    c #584C35",
"7y    c #2B2E34",
"7z    c #5B4D1C",
"7A    c #5F513A",
"7B    c #64563D",
"7C    c #A27A2B",
"7D    c #AB803C",
"7E    c #7F6418",
"7F    c #41392C",
"7G    c #463F2E",
"7H    c #FEE671",
"7I    c #FEF27D",
"7J    c #735C30",
"7K    c #3B4057",
"7L    c #41465D",
"7M    c #2F335B",
"7N    c #1E2041",
"7O    c #242740",
"7P    c #2F2E30",
"7Q    c #2F2F2F",
"7R    c #77542E",
"7S    c #FFA53C",
"7T    c #FFA640",
"7U    c #FE9E3C",
"7V    c #EF7A28",
"7W    c #F17B27",
"7X    c #674731",
"7Y    c #353536",
"7Z    c #434444",
"7&    c #404046",
"8     c #3C3E4A",
"80    c #3B4155",
"81    c #584A34",
"82    c #645539",
"83    c #65553A",
"84    c #595351",
"85    c #423E3C",
"86    c #4F4530",
"87    c #66573E",
"88    c #474445",
"89    c #34302A",
"8a    c #373123",
"8b    c #5E523A",
"8c    c #64553E",
"8d    c #69583B",
"8e    c #644B20",
"8f    c #56491A",
"8g    c #4E442F",
"8h    c #554934",
"8i    c #252430",
"8j    c #1B1D37",
"8k    c #202130",
"8l    c #323132",
"8m    c #313232",
"8n    c #4C3C31",
"8o    c #FE902C",
"8p    c #FE8C2D",
"8q    c #C6681F",
"8r    c #DA6A21",
"8s    c #FE8328",
"8t    c #FE8428",
"8u    c #CA6928",
"8v    c #4E3E36",
"8w    c #3A3938",
"8x    c #3B3A3C",
"8y    c #3B3B3C",
"8z    c #2E2F4E",
"8A    c #22244A",
"8B    c #21213B",
"8C    c #54493C",
"8D    c #3B3851",
"8E    c #363958",
"8F    c #4C433A",
"8G    c #64543B",
"8H    c #65573D",
"8I    c #64573F",
"8J    c #494F69",
"8K    c #544835",
"8L    c #594D36",
"8M    c #64573E",
"8N    c #68583F",
"8O    c #53566C",
"8P    c #36322A",
"8Q    c #3A3323",
"8R    c #5F523A",
"8S    c #63553B",
"8T    c #4A4137",
"8U    c #222739",
"8V    c #2F2F32",
"8W    c #343535",
"8X    c #ED7927",
"8Y    c #C2621A",
"8Z    c #403326",
"8&    c #503D32",
"9     c #F77321",
"90    c #FF7E27",
"91    c #FF7E25",
"92    c #F07625",
"93    c #8F542C",
"94    c #403C3A",
"95    c #3C3C3C",
"96    c #3E3E3D",
"97    c #3D3E3F",
"98    c #434447",
"99    c #272B4B",
"9a    c #191C33",
"9b    c #3A425C",
"9c    c #48547C",
"9d    c #202346",
"9e    c #242649",
"9f    c #33364C",
"9g    c #716D69",
"9h    c #605953",
"9i    c #282A4E",
"9j    c #2A2E52",
"9k    c #453C34",
"9l    c #66563F",
"9m    c #66573F",
"9n    c #594D45",
"9o    c #454D70",
"9p    c #514635",
"9q    c #564A35",
"9r    c #605239",
"9s    c #63543C",
"9t    c #605D63",
"9u    c #2F3545",
"9v    c #383938",
"9w    c #393839",
"9x    c #794622",
"9y    c #473828",
"9z    c #262626",
"9A    c #60412B",
"9B    c #F67220",
"9C    c #FE7A24",
"9D    c #FF7923",
"9E    c #FF7821",
"9F    c #D66924",
"9G    c #654934",
"9H    c #403F40",
"9I    c #3F3F40",
"9J    c #444446",
"9K    c #323437",
"9L    c #2F2F38",
"9M    c #3A3B45",
"9N    c #1D2038",
"9O    c #1E1F3B",
"9P    c #212131",
"9Q    c #333646",
"9R    c #323957",
"9S    c #202144",
"9T    c #222346",
"9U    c #2C3148",
"9V    c #656B7C",
"9W    c #68686F",
"9X    c #24274B",
"9Y    c #24254A",
"9Z    c #332D36",
"9&    c #60523B",
"a     c #63533B",
"a0    c #534945",
"a1    c #464966",
"a2    c #303242",
"a3    c #3C3C3B",
"a4    c #313333",
"a5    c #1F1F20",
"a6    c #212223",
"a7    c #7B431F",
"a8    c #F8711F",
"a9    c #FC7521",
"aa    c #FF7521",
"ab    c #FD7421",
"ac    c #F9711E",
"ad    c #9D562C",
"ae    c #414243",
"af    c #4C4C4B",
"ag    c #4A4A4B",
"ah    c #4A4949",
"ai    c #474948",
"aj    c #474647",
"ak    c #464746",
"al    c #464445",
"am    c #403E41",
"an    c #403F41",
"ao    c #444244",
"ap    c #39393D",
"aq    c #222232",
"ar    c #1C1C2F",
"as    c #2F3039",
"at    c #37393B",
"au    c #2F3143",
"av    c #23274A",
"aw    c #23273E",
"ax    c #4A5270",
"ay    c #59617F",
"az    c #3B3D5C",
"aA    c #1E1F41",
"aB    c #212443",
"aC    c #3B3B3E",
"aD    c #3E3F3E",
"aE    c #232323",
"aF    c #202020",
"aG    c #20201F",
"aH    c #9F4F1A",
"aI    c #EF6D1C",
"aJ    c #F5711E",
"aK    c #F7711E",
"aL    c #F6711E",
"aM    c #914C18",
"aN    c #464340",
"aO    c #4B4D4D",
"aP    c #4B4C4B",
"aQ    c #4B4A4A",
"aR    c #484A49",
"aS    c #484847",
"aT    c #464747",
"aU    c #454544",
"aV    c #454445",
"aW    c #444345",
"aX    c #404042",
"aY    c #292930",
"aZ    c #222231",
"a&    c #33353A",
"b     c #414142",
"b0    c #3E3F41",
"b1    c #2C2F4B",
"b2    c #222446",
"b3    c #242642",
"b4    c #434143",
"b5    c #424242",
"b6    c #323231",
"b7    c #212121",
"b8    c #212221",
"b9    c #2A2522",
"ba    c #B75819",
"bb    c #E8691B",
"bc    c #ED6D1B",
"bd    c #A0531C",
"be    c #47433D",
"bf    c #4F5050",
"bg    c #4F4F4F",
"bh    c #4D4F4E",
"bi    c #4C4A4B",
"bj    c #494949",
"bk    c #454647",
"bl    c #474746",
"bm    c #454645",
"bn    c #444545",
"bo    c #353639",
"bp    c #2A2A31",
"bq    c #2B2C35",
"br    c #444445",
"bs    c #444645",
"bt    c #444644",
"bu    c #242524",
"bv    c #242422",
"bw    c #242323",
"bx    c #382B21",
"by    c #D06019",
"bz    c #884717",
"bA    c #47423B",
"bB    c #474849",
"bC    c #49484A",
"bD    c #515151",
"bE    c #515051",
"bF    c #504F4F",
"bG    c #4C4C4D",
"bH    c #4D4B4B",
"bI    c #494A49",
"bJ    c #4A4848",
"bK    c #48494A",
"bL    c #494748",
"bM    c #474748",
"bN    c #494847",
"bO    c #484747",
"bP    c #484748",
"bQ    c #484947",
"bR    c #2B292A",
"bS    c #252524",
"bT    c #242525",
"bU    c #242625",
"bV    c #3D2D20",
"bW    c #2E2822",
"bX    c #313031",
"bY    c #454443",
"bZ    c #4A4A4A",
"   0 1 2 3 4 5 6 7 8 9 a b c d e f g h i j j k l m m n o p q r s t u f g h i j j k",
" v w x y z A B C D E F G H I J K L M N O P Q R S T U V W X X Y X Z &0  X00 X010102",
"030405060708 k090a0b0c0d0e0f0g0h0i0j0k0l0m0n0o0p0q0r0s0t0u0u0v0w0w0x0y0z0A0B0C0D0E",
"0F0G0H0I r0J0K0L0M0N0O0P0Q0R0S0T0U0V0W0X0Y0Z0&1 10111213141415161718191a1b1c1d1e1f",
"0J t0K1g0 1h1i1j1k1l1m1n1o1p1q1r1s1t1u1v1w1x1y1z1A1B1C1D1E1F1G1H1G1I1G1J1K1L141M14",
"1N1O1P1Q1R1S1T1U1V1W1X1Y1Z1&2 202122232425262728292a2b2c2d2e2f2g2h2i2j2k2j2l1F2m1I",
"2n0y2o1a162p2q2r2s2t2u2v2w2x2y2z2A2B2C2D2E2F2G2H2I2J2K2L2M2N2N2O2P2Q2R2c2S2T2T2U2V",
"2W2X2Y2p1G2Z2&3 303132333435363738393a3b3c3d3e3f3g3h3i3j3j3k3l3m3n3o3p3q2P3r3s3t2g",
"3u2p3v3w3x3y3z3A3B3C3D3E3F3G3H3I3J3K3L3M3N3O3P3Q3R3S3T3U3V3W3X3Y3Z3j3&4 40412L4243",
"441E45464748494a4b4c4d4e4f4g4h4i4j4k4l4m4n4o4p4q4r4s4t4u4v4w4x4y3V4z3i4A3j4B4C2L4D",
"4E4F4G434H4I4J4K4L4M4N4O4P4Q4R4S4T4U4V4W4X4Y4Z4&5 50515253544u55564y57584A593m5a5b",
"2k5c5d2Q5e5f5g5h5i5j5k5l5m5n5o5p5q5r5s5t5u5v5w5x5y5z5A5B5C5D5E5F5G4x5H5I5J3i5K5L3p",
"5M5N5O5P5Q5R5S5T5U5V5W5X5Y5Z5&6 606162636465666768696a6b6c6d6e6f6g6h6i5I6j4z3j6k4B",
"6l2g6m6n6o6p6q6r6s6t6u3O6v6w6x6y6z6A6B6C6D6E6F6G6H6I6J6K6L6M6N6O6P6Q6R3V4z6S3l3l6T",
"6U2S6V6W6X6Y6Z6&7 707172737475767778797a7b7c7d7e7f7g7h7i7j7k7l7m7n7o5H7p4z7q5K3n7r",
"2j7s5N7t7u7v7w7x7y7z7A7B7C7D7E7F7G7H7I7J7K7L7M7N7O7P7Q7R7S7T7U7V7W7X7Y3Y5K3&3n3p41",
"7Z7&8 808182838485866F8788898a8b8c8d8e8f8g8h8i8j8k8l8m8n8o8p8q8r8s8t8u8v8w4C8x8y4D",
"2m8z8A8B8C828D8E8F8G8H8I8J8K8L8M8N8O8P8Q8R8S8T8U8V578W4z8X8Y8Z8&9 9091929394959697",
"98990m9a9b9c9d9e9f9g9h9i9j9k9l9m9n9o9p9q9r9s9t9u9v599v9w9x9y9z529A9B9C9D9E9F9G9H9I",
"159J9K9L1G9M9N9O9P9Q9R9S9T9U9V9W9X9Y9Z9&a a0a1a25b7r3p402Na3a4a5a6a7a8a9aaabacadae",
"afagahaiajakalamanaoapaqarasatauav9XawaxayazaAaBaCaDaD5O5O9I3paEaFaGaHaIaJaKaLaMaN",
"1QaOaPaQ1aaRaS1MaT1J1LaUaVaW3waXaYaZa&b b0b1b2b37s5Mb46l6Ub b5b6b7b8b9babbbcbdbe2p",
"bfbgbh0y0t0tbiagahbj1414ai1Makbk1Lblbm1LbnbobpbqaVbrbraV9Jbsbt97bubvbwbxbybzbAbBbC",
" &bDbEbF1h1P0x0xbG0ybH1eaQbIaQ19bJbKbjbj1613bLbMbNbOaSbP16bQ157ZbRbSbTbUbVbWbXbYbZ"};
