/* XPM */
static char *CFACE_xpm[]={
"41 24 750 2",
"      c #696A6A",
" 0    c #696969",
" 1    c #686767",
" 2    c #676867",
" 3    c #656565",
" 4    c #646464",
" 5    c #636363",
" 6    c #626262",
" 7    c #616060",
" 8    c #605F60",
" 9    c #5F5E5E",
" a    c #5F5E5F",
" b    c #5E5E5E",
" c    c #5D5D5D",
" d    c #5D5C5D",
" e    c #5B5B5C",
" f    c #5B5C5C",
" g    c #5B5A5A",
" h    c #5A5B5B",
" i    c #595958",
" j    c #585759",
" k    c #585857",
" l    c #585957",
" m    c #565756",
" n    c #575757",
" o    c #575657",
" p    c #555556",
" q    c #555557",
" r    c #555757",
" s    c #5C5D55",
" t    c #5C5D5C",
" u    c #5B5B5B",
" v    c #5A5A59",
" w    c #5A5858",
" x    c #595959",
" y    c #595858",
" z    c #656564",
" A    c #626363",
" B    c #626261",
" C    c #626162",
" D    c #616061",
" E    c #5E5D5D",
" F    c #5D5E5D",
" G    c #5C5C5C",
" H    c #5C5B5B",
" I    c #5A5B5C",
" J    c #585859",
" K    c #595859",
" L    c #585757",
" M    c #555756",
" N    c #555655",
" O    c #555656",
" P    c #555554",
" Q    c #555454",
" R    c #545454",
" S    c #535354",
" T    c #545353",
" U    c #535353",
" V    c #525153",
" W    c #525352",
" X    c #535352",
" Y    c #515052",
" Z    c #505052",
" &    c #515152",
"0     c #535251",
"00    c #525251",
"01    c #525252",
"02    c #535153",
"03    c #535252",
"04    c #5F5F60",
"05    c #5F5F5E",
"06    c #5E5D5C",
"07    c #5B5C5B",
"08    c #5A5B5A",
"09    c #5A595B",
"0a    c #5A5958",
"0b    c #575857",
"0c    c #565757",
"0d    c #575755",
"0e    c #565556",
"0f    c #555553",
"0g    c #545354",
"0h    c #545253",
"0i    c #515051",
"0j    c #515150",
"0k    c #4F504F",
"0l    c #4F5050",
"0m    c #4E4E4F",
"0n    c #4F4E4F",
"0o    c #4E4F4D",
"0p    c #4D4D4E",
"0q    c #4E4D4E",
"0r    c #4E4C4E",
"0s    c #4C4D4D",
"0t    c #4C4C4C",
"0u    c #4C4C4D",
"0v    c #4D4D4D",
"0w    c #4E4D4D",
"0x    c #4D4C4C",
"0y    c #4D4E4C",
"0z    c #4D4E4E",
"0A    c #4E4E4D",
"0B    c #4F4F4F",
"0C    c #4E4F50",
"0D    c #5B5A5B",
"0E    c #59595A",
"0F    c #565858",
"0G    c #565657",
"0H    c #545555",
"0I    c #535355",
"0J    c #505152",
"0K    c #515050",
"0L    c #4E4F4E",
"0M    c #4E4F4F",
"0N    c #4C4C4B",
"0O    c #4C4B4C",
"0P    c #4B4B4C",
"0Q    c #4B4C4A",
"0R    c #4B4B4A",
"0S    c #4A4A49",
"0T    c #4A4A4A",
"0U    c #494A4A",
"0V    c #48494A",
"0W    c #4A494A",
"0X    c #484849",
"0Y    c #484848",
"0Z    c #494849",
"0&    c #6A6C56",
"1     c #4A4848",
"10    c #494A49",
"11    c #494B49",
"12    c #4B4A4C",
"13    c #4B4C4B",
"14    c #565655",
"15    c #4F5051",
"16    c #4E4C4D",
"17    c #4B4D4D",
"18    c #4C4B4A",
"19    c #4B4B4B",
"1a    c #49494A",
"1b    c #494949",
"1c    c #494749",
"1d    c #484748",
"1e    c #474746",
"1f    c #464646",
"1g    c #464746",
"1h    c #454547",
"1i    c #454646",
"1j    c #464545",
"1k    c #444444",
"1l    c #454544",
"1m    c #434343",
"1n    c #434445",
"1o    c #5C5B4F",
"1p    c #84856B",
"1q    c #BEC073",
"1r    c #F4F370",
"1s    c #F4F270",
"1t    c #4A4C42",
"1u    c #454545",
"1v    c #454645",
"1w    c #474646",
"1x    c #474747",
"1y    c #484746",
"1z    c #484949",
"1A    c #535152",
"1B    c #A5A065",
"1C    c #50504C",
"1D    c #494847",
"1E    c #474847",
"1F    c #464645",
"1G    c #454444",
"1H    c #434444",
"1I    c #424342",
"1J    c #434242",
"1K    c #414241",
"1L    c #424241",
"1M    c #414040",
"1N    c #404140",
"1O    c #58584A",
"1P    c #828274",
"1Q    c #BDBD85",
"1R    c #EDED7D",
"1S    c #F6F36C",
"1T    c #E8E24C",
"1U    c #C7B944",
"1V    c #A69247",
"1W    c #FDFAAA",
"1X    c #76763D",
"1Y    c #424141",
"1Z    c #444243",
"1&    c #444443",
"2     c #4E4D4C",
"20    c #4B4C4C",
"21    c #4A4B4B",
"22    c #F3E259",
"23    c #E3E17A",
"24    c #6E6F52",
"25    c #424442",
"26    c #424343",
"27    c #404142",
"28    c #404040",
"29    c #3F3E3F",
"2a    c #3E403F",
"2b    c #3D3D3D",
"2c    c #3D3E3E",
"2d    c #3E3E3C",
"2e    c #484A45",
"2f    c #5C5A47",
"2g    c #807F73",
"2h    c #BCBC86",
"2i    c #E6E682",
"2j    c #F6F57B",
"2k    c #EDE661",
"2l    c #D4C550",
"2m    c #B29E56",
"2n    c #9C855B",
"2o    c #907A55",
"2p    c #8C7351",
"2q    c #88714D",
"2r    c #E0D89B",
"2s    c #BDBC48",
"2t    c #3E3E3E",
"2u    c #3E3F40",
"2v    c #41413F",
"2w    c #414141",
"2x    c #424341",
"2y    c #4A4C4B",
"2z    c #F2D549",
"2A    c #FFDA4F",
"2B    c #FFFA6D",
"2C    c #A6A55D",
"2D    c #45453F",
"2E    c #3E3D3E",
"2F    c #3A3B3B",
"2G    c #3B3A3A",
"2H    c #3B3B39",
"2I    c #3A393A",
"2J    c #38383A",
"2K    c #393839",
"2L    c #C1C089",
"2M    c #FAF877",
"2N    c #F1EA5D",
"2O    c #DED05E",
"2P    c #BBA967",
"2Q    c #AC976E",
"2R    c #A18B6A",
"2S    c #9A8463",
"2T    c #96805D",
"2U    c #907B58",
"2V    c #8B7552",
"2W    c #887150",
"2X    c #846E4B",
"2Y    c #ADA061",
"2Z    c #F3F37C",
"2&    c #3C3B3B",
"3     c #3D3C3C",
"30    c #3D3D3E",
"31    c #3F3F3F",
"32    c #484948",
"33    c #474647",
"34    c #434344",
"35    c #EDCE45",
"36    c #FEB037",
"37    c #FFB438",
"38    c #FEE859",
"39    c #D4CE62",
"3a    c #646544",
"3b    c #383839",
"3c    c #373738",
"3d    c #373636",
"3e    c #353635",
"3f    c #363534",
"3g    c #353435",
"3h    c #A7A662",
"3i    c #DFD96D",
"3j    c #A89474",
"3k    c #A69273",
"3l    c #A48F6E",
"3m    c #9F896A",
"3n    c #9A8564",
"3o    c #96805E",
"3p    c #907B5A",
"3q    c #8C7655",
"3r    c #887050",
"3s    c #846D4B",
"3t    c #826B48",
"3u    c #8B7648",
"3v    c #FFFEA9",
"3w    c #696A35",
"3x    c #393939",
"3y    c #3A3A3B",
"3z    c #3B3B3B",
"3A    c #3D3C3D",
"3B    c #3D3E3D",
"3C    c #ECCB43",
"3D    c #FFCF45",
"3E    c #FDB12F",
"3F    c #FA9427",
"3G    c #FEC443",
"3H    c #F8E35B",
"3I    c #9B994D",
"3J    c #333433",
"3K    c #323332",
"3L    c #313332",
"3M    c #303130",
"3N    c #2F2F30",
"3O    c #777741",
"3P    c #E6E276",
"3Q    c #9C8A6C",
"3R    c #9B8869",
"3S    c #988566",
"3T    c #968161",
"3U    c #927D5C",
"3V    c #8F7959",
"3W    c #8A7554",
"3X    c #887051",
"3Y    c #846E4E",
"3Z    c #826C49",
"3&    c #7E6747",
"4     c #7B6644",
"40    c #E3DE93",
"41    c #BAB93C",
"42    c #343435",
"43    c #3A3939",
"44    c #3B3A3B",
"45    c #3B3C3C",
"46    c #3D3D3C",
"47    c #444445",
"48    c #403F3E",
"49    c #3C3E3D",
"4a    c #EDC640",
"4b    c #FED84A",
"4c    c #FEDC45",
"4d    c #FFB732",
"4e    c #FB9B27",
"4f    c #FDAB34",
"4g    c #FFD84D",
"4h    c #D1C75A",
"4i    c #494936",
"4j    c #2F2F2E",
"4k    c #2E2E2E",
"4l    c #2C2D2C",
"4m    c #2C2C2D",
"4n    c #5A5A32",
"4o    c #F9F975",
"4p    c #907E5E",
"4q    c #8F7D60",
"4r    c #8D7B5C",
"4s    c #8C7859",
"4t    c #897455",
"4u    c #BFB485",
"4v    c #E0DB9E",
"4w    c #CEC989",
"4x    c #7A6545",
"4y    c #7A6544",
"4z    c #796240",
"4A    c #735D3C",
"4B    c #BBAC67",
"4C    c #EBEC67",
"4D    c #242424",
"4E    c #2D2F2D",
"4F    c #363636",
"4G    c #383838",
"4H    c #3A3938",
"4I    c #393B3B",
"4J    c #3A3C3B",
"4K    c #424242",
"4L    c #404041",
"4M    c #3F4040",
"4N    c #3B3C3D",
"4O    c #EBC33E",
"4P    c #FED547",
"4Q    c #FED841",
"4R    c #FFD642",
"4S    c #FFCE3D",
"4T    c #FEAC2C",
"4U    c #FC9928",
"4V    c #FBB639",
"4W    c #F2D251",
"4X    c #898241",
"4Y    c #2B2A2A",
"4Z    c #292A29",
"4&    c #292929",
"5     c #2A2928",
"50    c #FFFE84",
"51    c #918249",
"52    c #7F6E51",
"53    c #7E6C4F",
"54    c #7F6B4C",
"55    c #7C6849",
"56    c #C8C18A",
"57    c #FFFFB1",
"58    c #F1F19F",
"59    c #5B492E",
"5a    c #705B39",
"5b    c #6E5738",
"5c    c #6B5635",
"5d    c #8D793F",
"5e    c #FFFE8C",
"5f    c #525119",
"5g    c #1A1819",
"5h    c #323231",
"5i    c #363737",
"5j    c #383837",
"5k    c #393A39",
"5l    c #3F3E3E",
"5m    c #3E3C3C",
"5n    c #3B3C3B",
"5o    c #EBC13C",
"5p    c #FFD547",
"5q    c #FED740",
"5r    c #FFD540",
"5s    c #FED33F",
"5t    c #FECD3C",
"5u    c #FEBB36",
"5v    c #FBB641",
"5w    c #FBAE2F",
"5x    c #D9972A",
"5y    c #44402E",
"5z    c #292927",
"5A    c #E4E469",
"5B    c #9F9244",
"5C    c #7A674A",
"5D    c #7A6648",
"5E    c #796547",
"5F    c #776344",
"5G    c #9F8C55",
"5H    c #F1DC61",
"5I    c #DCC73E",
"5J    c #554525",
"5K    c #6D5838",
"5L    c #695334",
"5M    c #685131",
"5N    c #ECEA86",
"5O    c #9A9A2C",
"5P    c #181818",
"5Q    c #222223",
"5R    c #383938",
"5S    c #3F403F",
"5T    c #3E3F3F",
"5U    c #3C3C3D",
"5V    c #ECBC39",
"5W    c #FFD748",
"5X    c #FFD63F",
"5Y    c #FFD53F",
"5Z    c #FED13D",
"5&    c #FFDA54",
"6     c #FED75F",
"60    c #FAAB2A",
"61    c #AA7223",
"62    c #40382C",
"63    c #2B2C2B",
"64    c #2A2B2B",
"65    c #2B2A2B",
"66    c #C3C465",
"67    c #C6BD44",
"68    c #776345",
"69    c #756144",
"6a    c #746043",
"6b    c #745F41",
"6c    c #76633E",
"6d    c #4F4319",
"6e    c #362D17",
"6f    c #453720",
"6g    c #6A5535",
"6h    c #6A5334",
"6i    c #695233",
"6j    c #675032",
"6k    c #C6BE62",
"6l    c #E2E259",
"6m    c #191A19",
"6n    c #1C1C1B",
"6o    c #333434",
"6p    c #393B39",
"6q    c #414140",
"6r    c #403F3F",
"6s    c #3B3B3C",
"6t    c #EDBA38",
"6u    c #FED345",
"6v    c #FFD43E",
"6w    c #FEDD59",
"6x    c #FFC743",
"6y    c #E49924",
"6z    c #6D502B",
"6A    c #2E302F",
"6B    c #2E2F2D",
"6C    c #2D2D2D",
"6D    c #2D2E2D",
"6E    c #2C2D2E",
"6F    c #2D2C2C",
"6G    c #96964E",
"6H    c #D5D05D",
"6I    c #745F43",
"6J    c #725E41",
"6K    c #735D3F",
"6L    c #715D3D",
"6M    c #6F5B3B",
"6N    c #6A5538",
"6O    c #685336",
"6P    c #6A5536",
"6Q    c #6A5434",
"6R    c #685333",
"6S    c #664F30",
"6T    c #8E7D44",
"6U    c #FFFF77",
"6V    c #44451A",
"6W    c #1B1B1A",
"6X    c #2A2929",
"6Y    c #39393A",
"6Z    c #434243",
"6&    c #3F3E3D",
"7     c #ECB638",
"70    c #FED957",
"71    c #FFDD50",
"72    c #FFDB57",
"73    c #FAB42C",
"74    c #C68527",
"75    c #453E32",
"76    c #323232",
"77    c #303131",
"78    c #2F3031",
"79    c #2F2F31",
"7a    c #303031",
"7b    c #70713E",
"7c    c #F0EE66",
"7d    c #705C3F",
"7e    c #705B3E",
"7f    c #705B3C",
"7g    c #6F583B",
"7h    c #6D583A",
"7i    c #6C5639",
"7j    c #6C5537",
"7k    c #695436",
"7l    c #675332",
"7m    c #665030",
"7n    c #654E2F",
"7o    c #66512F",
"7p    c #F6F37D",
"7q    c #8C8D27",
"7r    c #1A1B1B",
"7s    c #202020",
"7t    c #383937",
"7u    c #444544",
"7v    c #424243",
"7w    c #3E3F3E",
"7x    c #ECB535",
"7y    c #FFEB7A",
"7z    c #FECC44",
"7A    c #EB9F24",
"7B    c #7E5D2F",
"7C    c #373638",
"7D    c #343536",
"7E    c #353535",
"7F    c #353334",
"7G    c #333334",
"7H    c #343433",
"7I    c #323433",
"7J    c #333234",
"7K    c #525337",
"7L    c #FEFF6B",
"7M    c #81703D",
"7N    c #6D583B",
"7O    c #6D5739",
"7P    c #6B5539",
"7Q    c #6A5335",
"7R    c #675133",
"7S    c #655131",
"7T    c #6F5B36",
"7U    c #8A7B52",
"7V    c #A69A6E",
"7W    c #EFEE95",
"7X    c #D4D44E",
"7Y    c #1C1C1C",
"7Z    c #303030",
"7&    c #454644",
"8     c #EDB035",
"80    c #FEB42B",
"81    c #CA8929",
"82    c #534739",
"83    c #3A3A3A",
"84    c #393A38",
"85    c #373737",
"86    c #363637",
"87    c #353636",
"88    c #363536",
"89    c #FFFE70",
"8a    c #98883C",
"8b    c #6B5638",
"8c    c #6A5638",
"8d    c #6A5435",
"8e    c #695435",
"8f    c #84734E",
"8g    c #9C8C71",
"8h    c #CAC398",
"8i    c #D8D392",
"8j    c #FFFE8B",
"8k    c #FFFF65",
"8l    c #F0F03C",
"8m    c #C7C623",
"8n    c #AAAA29",
"8o    c #23251C",
"8p    c #1D1C1E",
"8q    c #232221",
"8r    c #474648",
"8s    c #454746",
"8t    c #464445",
"8u    c #444344",
"8v    c #E59C2D",
"8w    c #996E32",
"8x    c #3E3E3F",
"8y    c #383939",
"8z    c #2F2D2E",
"8A    c #3B3A39",
"8B    c #3A3B3A",
"8C    c #393A3A",
"8D    c #3A3A39",
"8E    c #3A3839",
"8F    c #DFDF65",
"8G    c #AB9E3E",
"8H    c #7D6A4C",
"8I    c #97896E",
"8J    c #BCB49B",
"8K    c #DAD39D",
"8L    c #F5F39A",
"8M    c #FEFE74",
"8N    c #FFFE47",
"8O    c #D4D425",
"8P    c #B1B019",
"8Q    c #6A6B18",
"8R    c #555618",
"8S    c #1D1D1E",
"8T    c #1E1D1E",
"8U    c #1F1E1E",
"8V    c #1F1F20",
"8W    c #393938",
"8X    c #494848",
"8Y    c #4A4742",
"8Z    c #434342",
"8&    c #414343",
"9     c #414142",
"90    c #38393A",
"91    c #2A292A",
"92    c #3C3D3E",
"93    c #3C3C3C",
"94    c #3C3D3C",
"95    c #C2C26F",
"96    c #F9FA8D",
"97    c #FFFD85",
"98    c #FEFB53",
"99    c #E2DF26",
"9a    c #B9B719",
"9b    c #737218",
"9c    c #1D1D1D",
"9d    c #1E1E1E",
"9e    c #1E1D1D",
"9f    c #1E1F1F",
"9g    c #1F1E1F",
"9h    c #1E201F",
"9i    c #20211F",
"9j    c #212021",
"9k    c #2D2D2E",
"9l    c #414242",
"9m    c #4B4A4A",
"9n    c #474849",
"9o    c #464745",
"9p    c #1F1F1F",
"9q    c #232322",
"9r    c #343534",
"9s    c #7C7B3C",
"9t    c #9A9633",
"9u    c #6F6B28",
"9v    c #2C2C1D",
"9w    c #1F201E",
"9x    c #1E1E1F",
"9y    c #1E201E",
"9z    c #1F1F1E",
"9A    c #201F20",
"9B    c #20201F",
"9C    c #1F201F",
"9D    c #202021",
"9E    c #202121",
"9F    c #212222",
"9G    c #212121",
"9H    c #212221",
"9I    c #4D4C4B",
"9J    c #4B4A4B",
"9K    c #4A4B49",
"9L    c #4A484A",
"9M    c #484847",
"9N    c #484747",
"9O    c #464647",
"9P    c #202221",
"9Q    c #222222",
"9R    c #2C2C2B",
"9S    c #3B393A",
"9T    c #444442",
"9U    c #434142",
"9V    c #212120",
"9W    c #212020",
"9X    c #202222",
"9Y    c #222221",
"9Z    c #222122",
"9&    c #212321",
"a     c #212122",
"a0    c #222322",
"a1    c #232223",
"a2    c #242224",
"a3    c #4E4E4E",
"a4    c #4D4C4D",
"a5    c #49494B",
"a6    c #212322",
"a7    c #232321",
"a8    c #232222",
"a9    c #252625",
"aa    c #454546",
"ab    c #454446",
"ac    c #272829",
"ad    c #222321",
"ae    c #232323",
"af    c #222324",
"ag    c #232423",
"ah    c #242323",
"ai    c #232424",
"aj    c #232524",
"ak    c #242525",
"al    c #262627",
"am    c #535253",
"an    c #525151",
"ao    c #505051",
"ap    c #504E4F",
"aq    c #4F4F4E",
"ar    c #4C4D4C",
"as    c #252324",
"at    c #252423",
"au    c #232324",
"av    c #252424",
"aw    c #302F30",
"ax    c #474848",
"ay    c #373535",
"az    c #232325",
"aA    c #232525",
"aB    c #252524",
"aC    c #252425",
"aD    c #252525",
"aE    c #262525",
"aF    c #262425",
"aG    c #262526",
"aH    c #262626",
"aI    c #272626",
"   0 1 2 3 4 4 5 6 7 8 9 a b c d e f g h i i j k l m n m o p q r p s t h u v w x y",
" z A B C D 8 E F G H I x J K L n M N O P Q R S T U V W X Y Z & & Y0 0001010203 U03",
"0405060708090a0b0c0d0e0f0g0h0200000i0j0k0l0m0n0o0p0q0r0s0t0u0v0w0x0v0y0z0A0q0B0l0C",
"0D0E i0F0G0H0I W0 0J0K0L0M0z0z0N0O0P0Q0R0S0T0S0U0V0W0X0Y0Z0X0B0&1 100S0W110T12130t",
"140H R0101150B0m161718191a1b1c1d1e1f1g1h1i1j1k1l1k1m1n1o1p1q1r1s1t1u1v1w1x1y1d1z0Z",
"1A0i0l0p0u1B1C0S1D1E1F1u1u1G1H1I1J1K1K1L1M1M1N1O1P1Q1R1S1T1U1V1W1X1Y1Y1J1Z1&1&1f1F",
"0n2 20211a2223241&25262728292a2b2c2d2e2f2g2h2i2j2k2l2m2n2o2p2q2r2s2t292u2v1K2w2x1J",
"2y1b0Y1e1u2z2A2B2C2D2E2b2F2G2H2I2J2K2L2M2N2O2P2Q2R2S2T2U2V2W2X2Y2Z2G2&3 2c3031281N",
"32331v342635363738393a3b3c3d3e3f3g3g3h3i3j3k3l3m3n3o3p3q3r3s3t3u3v3w3x2I3y3z3A3B29",
"1f1u1m2w293C3D3E3F3G3H3I3J3K3L3M3M3N3O3P3Q3R3S3T3U3V3W3X3Y3Z3&4 4041423c3b43444546",
"471I2848494a4b4c4d4e4f4g4h4i4j4k4l4m4n4o4p4q4r4s4t4u4v4w4x4y4z4A4B4C4D4E4F4G4H4I4J",
"4K4L4M2t4N4O4P4Q4R4S4T4U4V4W4X4Y4Z4&5 505152535455565758595a5b5c5d5e5f5g5h5i5j5k2G",
"4K4M5l5m5n5o5p5q5r5s5t5u5v5w5x5y4&5z4&5A5B5C5D5E5F5G5H5I5J5K5c5L5M5N5O5P5Q5i4G5R3y",
"1Y5S5T5U2G5V5W5X5Y5Z5&6 60616263644Z65666768696a6b6c6d6e6f6g6h6i6j6k6l6m6n6o5j4G6p",
"4K6q6r3 6s6t6u6v5s6w6x6y6z6A6B6C6D6E6F6G6H6I6J6K6L6M6N6O6P6Q6R6j6S6T6U6V6W6X5R6Y44",
"6Z272w6&2b7 7071727374757676777778797a7b7c7d7e7f7g7h7i7j7k7l6j7m7n7o7p7q7r7s7t442F",
"7u7v1L287w7x7y7z7A7B7C4F7D7E7F7G7H7I7J7K7L7M7N7O7O7P6P7Q6i7R7S7T7U7V7W7X7Y7Y7Z2&2b",
"7&1m1m4K1N8 8081824G83844G858586873e8888898a8b8c8b8d8e8f8g8h8i8j8k8l8m8n8o8p8q2&6&",
"8r8s8t8u4K8v8w5S8x8y8z8A5n8B446Y8C8D5k8E8F8G8H8I8J8K8L8M8N8O8P8Q8R8S8S8T8T8U8V8W28",
"8X0X1e1i1k8Y8Z8&9 908V918C2E92933A5U5U9495969798999a9b8R9c8T9d9e9f9g9d9h9g9i9j9k9l",
"0t9m329n1E1g9o1l47839p8V9q9r2c1N5S4M314M9s9t9u9v9w9x9y9z9g9p9A9p9B9C9D9E7s9F9G9H2E",
"0v0t9I9J9K9L9M9N9O2b9H9D9P9Q9R9S9T344K1m9U9U2E9Q9G9V9W9E7s9G9X9Q9Y9Z9Z9&a a0a1a288",
"0l0Ba3a4a40P219Ja52ca05Qa6a7a8a93c471vaaab1v7uac9Q9qadae9Faea1aeafagahaiajahakakal",
"amanao0Kapaq0qa3ar1Kakasataiagauavaw1jax0Y8X0Yayau4D4DazavaAajaBakaCaDaEaFaGaEaHaI"};
