/* XPM */
static char *X_xpm[]={
"32 32 161 2",
"      c #929192",
" 0    c #9E9D9D",
" 1    c #9D9C9C",
" 2    c #9B9B9C",
" 3    c #9C9D9D",
" 4    c #9C9C9B",
" 5    c #9D9C9B",
" 6    c #9A9C9B",
" 7    c #9A9B9A",
" 8    c #9B9B9B",
" 9    c #999A9A",
" a    c #999A99",
" b    c #9A9B9B",
" c    c #9A9A9A",
" d    c #9A999A",
" e    c #989998",
" f    c #99989A",
" g    c #989898",
" h    c #999898",
" i    c #989798",
" j    c #979898",
" k    c #969796",
" l    c #979796",
" m    c #979797",
" n    c #969596",
" o    c #979696",
" p    c #898A89",
" q    c #C1C1C0",
" r    c #C0C1C0",
" s    c #C0C0C1",
" t    c #C0C1C1",
" u    c #C1C0C0",
" v    c #C0C0C0",
" w    c #C1C1C1",
" x    c #C1C0C1",
" y    c #C0C0C2",
" z    c #BFC0C1",
" A    c #BFC1C0",
" B    c #929393",
" C    c #9E9EA0",
" D    c #939493",
" E    c #999A9B",
" F    c #C2C1C1",
" G    c #C0C2C0",
" H    c #929292",
" I    c #99999A",
" J    c #C2C1C0",
" K    c #C2C0C0",
" L    c #C1BFC1",
" M    c #929290",
" N    c #979798",
" O    c #909090",
" P    c #C1C2C0",
" Q    c #C1C0C2",
" R    c #939293",
" S    c #BFBFBF",
" T    c #959696",
" U    c #939393",
" V    c #959695",
" W    c #8F8E8E",
" X    c #979896",
" Y    c #919191",
" Z    c #949594",
" &    c #BFC1C1",
"0     c #908F90",
"00    c #939593",
"01    c #C1C1C2",
"02    c #C0C2C1",
"03    c #BFBFC0",
"04    c #8B8B8C",
"05    c #989897",
"06    c #8A8A8B",
"07    c #969695",
"08    c #C0BFBF",
"09    c #8B8D8C",
"0a    c #959594",
"0b    c #BEBFC0",
"0c    c #8A8B8B",
"0d    c #919290",
"0e    c #C0C1C2",
"0f    c #AEAFAF",
"0g    c #C0C0BF",
"0h    c #89898A",
"0i    c #949494",
"0j    c #BFBFBE",
"0k    c #C1C1BF",
"0l    c #8C8B8C",
"0m    c #939292",
"0n    c #BEBFBF",
"0o    c #8C8B8B",
"0p    c #8E8D8E",
"0q    c #C0BFC1",
"0r    c #BFBFBD",
"0s    c #878687",
"0t    c #8E8E8D",
"0u    c #C2C0C1",
"0v    c #BEBCBE",
"0w    c #888889",
"0x    c #919090",
"0y    c #BDBDBD",
"0z    c #868785",
"0A    c #BEBEBE",
"0B    c #898889",
"0C    c #8B8C8A",
"0D    c #BDBFBF",
"0E    c #868786",
"0F    c #8B8B8B",
"0G    c #BEC0BF",
"0H    c #BDBCBC",
"0I    c #858384",
"0J    c #8D8E8D",
"0K    c #BDBDBE",
"0L    c #828283",
"0M    c #8E8D8D",
"0N    c #858587",
"0O    c #8D8D8D",
"0P    c #BDBEBD",
"0Q    c #858584",
"0R    c #89898B",
"0S    c #BDBDBC",
"0T    c #818281",
"0U    c #868787",
"0V    c #BEBFBE",
"0W    c #BFBEBF",
"0X    c #BEBDBD",
"0Y    c #BFBEBE",
"0Z    c #BEBDBF",
"0&    c #BDBEBE",
"1     c #BCBCBE",
"10    c #BCBDBC",
"11    c #BCBCBD",
"12    c #BCBEBE",
"13    c #BCBEBC",
"14    c #BAB9BA",
"15    c #848384",
"16    c #7E7D7C",
"17    c #898888",
"18    c #878789",
"19    c #888988",
"1a    c #878887",
"1b    c #888887",
"1c    c #878688",
"1d    c #878787",
"1e    c #868685",
"1f    c #868686",
"1g    c #858785",
"1h    c #848585",
"1i    c #858485",
"1j    c #858685",
"1k    c #838484",
"1l    c #848584",
"1m    c #838384",
"1n    c #838383",
"1o    c #838382",
"1p    c #838283",
"1q    c #838381",
"1r    c #838282",
"1s    c #818181",
"1t    c #828181",
"1u    c #818082",
"1v    c #777877",
"   0 1 2 3 4 5 6 7 8 9 a 9 b c d e f g g h i g j k l m n o o m p",
" 8 q r s t u v u w r r x u x s w w w w x y z v s q s r s r t A B",
" C q r v r u u x r t w r u r s u s t w v v s r x t r q q t t w D",
" E r r v x t t u s F G q r r s u t w u t v v v u r r q w w x t H",
" I x u s v u q r s r r q r r q t x w q r u v w u J q r G K t L M",
" N r w w w w u s t u s r x t x s w w w u u q w s s v v r w q q O",
" j v w s P v F u r q x t q r q w u v u J r t s Q x w t s x v v R",
" 7 x w r u s t q x r q q t Q v w s x w v q w q x s t x r J u S B",
" T r q r t t v F x w q u w q v q x s s w r w P w x s q u v v A U",
" V w w x u u s s w x s v v q x q x s t v u v v w F u v u w w v W",
" X v r t r r v q w u q s w v w u u q q v v t r v x w x x u r v Y",
" Z w w u w t s s r q v x w r x x w r v v x t w s t x s r t w &0 ",
"00 s01 r v w s02 P v u u J r x x t w t F r x v r r r u x r q0304",
"05 q w v x w w v v v x r u t x v t v r v q x v s r u q q w s S06",
"0708 v r q s t q w u r q01 x s s v u u r t q s u r v u x v q z09",
"0a v q r u w r t v u r r u r x u s r K v v u v x s v v q q t0b0c",
"0d L r0e x v q t s v v w s r x0f w s t r v r u s t u s r q x0g0h",
"0i0g w t t x x F u s x s s q w s w u Q q r v x v x v x w r v0j06",
" R0k w t w u s K t s s x v x v s x x r s r w s G v w0e q t r030l",
"0m v q r w w v x q r v w q s r s w q r r t q s t s x w v u t0n0o",
"0p0q t w u v s q r v q w r u v s w t t q t r s u r x q q t w0r0s",
"0t & v0u u v v s x s s r u s q w u r v w w t t G s v r q u w0v0w",
"0x v0e w P x w r v s u w s t r t s u q x u u v s w s v q J t0y0z",
"0x S s v w x t q q u q w u t t u q t w u w x x u r s s w y x0A0B",
"0C S w w t t u w s t u x s t t F w s t q u x s v t r v u s t0D0E",
"0F0G t r s x q s x q t w w w01 x r s v r t r q r v s u q q q0H0I",
"0J0n w x v s w w x u q q t s w u x t t w t u u r r r q t s v0K0L",
"0M08 q v r J v s s u s u w w v t q s v w w F x u u w x w r r0A0N",
"0O S s w t t x q t t q P w w v v J q x v0u w s r q x v t t v0P0Q",
"0R v w x q s x u t r x u u v t q u q t w r w u x t q t w u w0S0T",
"0U0S0A0n0j0A S0j0A0V0r0A0W0P0X0Y0A0Z0X0&0y1 0y0P0y10111210131415",
"161718191a1b1a1c1d1e1f1g1e1e1h1i1j1k151l1m1k1n1o1p1q1r1n1s1t1u1v"};
