/* XPM */
static char *CPST_xpm[]={
"32 32 763 2",
"      c #621D1C",
" 0    c #762221",
" 1    c #802523",
" 2    c #832725",
" 3    c #802525",
" 4    c #802623",
" 5    c #7E2523",
" 6    c #7C2522",
" 7    c #7B2422",
" 8    c #792321",
" 9    c #762421",
" a    c #742220",
" b    c #722120",
" c    c #6E211F",
" d    c #6D201F",
" e    c #6B1F1D",
" f    c #844828",
" g    c #AE8831",
" h    c #77391F",
" i    c #641E1C",
" j    c #611D1B",
" k    c #601B1B",
" l    c #5F1C1B",
" m    c #5D1B1A",
" n    c #5D1C1A",
" o    c #5B1C19",
" p    c #5C1B19",
" q    c #5B1B19",
" r    c #591A19",
" s    c #5A1919",
" t    c #591A18",
" u    c #71211F",
" v    c #7D2424",
" w    c #7E2424",
" x    c #7D2423",
" y    c #AB602C",
" z    c #DAB978",
" A    c #B37842",
" B    c #8C492A",
" C    c #864924",
" D    c #7D491C",
" E    c #7B491A",
" F    c #83591C",
" G    c #826116",
" H    c #7F6115",
" I    c #8B6C17",
" J    c #B29439",
" K    c #F9CD43",
" L    c #BF9648",
" M    c #67251D",
" N    c #5F1C1A",
" O    c #5D1D1B",
" P    c #5C1C19",
" Q    c #5B1C1A",
" R    c #5A1A1A",
" S    c #581A19",
" T    c #571918",
" U    c #561819",
" V    c #7A2322",
" W    c #792422",
" X    c #782322",
" Y    c #782422",
" Z    c #BF6C17",
" &    c #F0AC18",
"0     c #D5B75D",
"00    c #8B6D21",
"01    c #82561D",
"02    c #73391C",
"03    c #7C4319",
"04    c #6D3119",
"05    c #6F311B",
"06    c #631E1B",
"07    c #6C2B1E",
"08    c #A3791D",
"09    c #865428",
"0a    c #B09135",
"0b    c #9F7E3D",
"0c    c #69301D",
"0d    c #5A1B19",
"0e    c #581B19",
"0f    c #571A19",
"0g    c #561A18",
"0h    c #561A19",
"0i    c #551A18",
"0j    c #551918",
"0k    c #752221",
"0l    c #742221",
"0m    c #752321",
"0n    c #732221",
"0o    c #722121",
"0p    c #7A2A1F",
"0q    c #BC981F",
"0r    c #8C5E24",
"0s    c #AB9864",
"0t    c #8E5747",
"0u    c #671F1D",
"0v    c #651E1D",
"0w    c #763621",
"0x    c #87502B",
"0y    c #956525",
"0z    c #895620",
"0A    c #7D501A",
"0B    c #77471F",
"0C    c #B39532",
"0D    c #A68641",
"0E    c #6B391E",
"0F    c #541A17",
"0G    c #561A17",
"0H    c #551917",
"0I    c #541A18",
"0J    c #531A19",
"0K    c #541918",
"0L    c #541917",
"0M    c #551817",
"0N    c #71221F",
"0O    c #702120",
"0P    c #6E2120",
"0Q    c #6E201F",
"0R    c #6B5910",
"0S    c #691E1C",
"0T    c #6A281B",
"0U    c #8A732F",
"0V    c #B79A84",
"0W    c #854C2C",
"0X    c #D1BC7F",
"0Y    c #FDF2B5",
"0Z    c #FDF487",
"0&    c #C8B848",
"1     c #A89A29",
"10    c #9C8E1A",
"11    c #8A7314",
"12    c #612C18",
"13    c #68351C",
"14    c #BBA25B",
"15    c #B1964D",
"16    c #916C28",
"17    c #9E7D25",
"18    c #5E2719",
"19    c #521718",
"1a    c #521918",
"1b    c #531817",
"1c    c #531717",
"1d    c #6F211F",
"1e    c #6D201E",
"1f    c #6B211D",
"1g    c #6C1F1E",
"1h    c #6A1F1D",
"1i    c #681E1D",
"1j    c #6B5814",
"1k    c #661F1C",
"1l    c #631D1C",
"1m    c #621E1B",
"1n    c #845F1B",
"1o    c #BFB664",
"1p    c #FDFDE7",
"1q    c #FFFFFE",
"1r    c #F8F1A6",
"1s    c #B4AA42",
"1t    c #928922",
"1u    c #817A12",
"1v    c #79750B",
"1w    c #7C7309",
"1x    c #5C2C13",
"1y    c #531918",
"1z    c #5A2816",
"1A    c #5D3411",
"1B    c #786114",
"1C    c #A79822",
"1D    c #FEDA32",
"1E    c #B97513",
"1F    c #501816",
"1G    c #521717",
"1H    c #511816",
"1I    c #511817",
"1J    c #6B1F1E",
"1K    c #681F1D",
"1L    c #661F1E",
"1M    c #661E1D",
"1N    c #631E1C",
"1O    c #6F5A10",
"1P    c #601E1B",
"1Q    c #66261A",
"1R    c #D2B73A",
"1S    c #DFCD5F",
"1T    c #C3BC75",
"1U    c #E9D667",
"1V    c #F5F467",
"1W    c #C6C13F",
"1X    c #847E15",
"1Y    c #75710C",
"1Z    c #716B09",
"1&    c #6B6708",
"2     c #655E04",
"20    c #6C6307",
"21    c #5C4A07",
"22    c #5D440B",
"23    c #562E10",
"24    c #A27C1F",
"25    c #D99510",
"26    c #7B3D14",
"27    c #4F1815",
"28    c #501817",
"29    c #4F1816",
"2a    c #671E1E",
"2b    c #651E1C",
"2c    c #641D1B",
"2d    c #611D1C",
"2e    c #756011",
"2f    c #5D1C19",
"2g    c #886419",
"2h    c #AD9B30",
"2i    c #A8993C",
"2j    c #AE9D4A",
"2k    c #E9B415",
"2l    c #FEC719",
"2m    c #FEBB12",
"2n    c #716405",
"2o    c #655B05",
"2p    c #635B04",
"2q    c #666203",
"2r    c #6C640B",
"2s    c #674E0C",
"2t    c #4C1716",
"2u    c #4D1615",
"2v    c #4D1716",
"2w    c #6A481A",
"2x    c #522712",
"2y    c #4D1616",
"2z    c #4C1614",
"2A    c #4F1617",
"2B    c #621C1C",
"2C    c #601D1B",
"2D    c #601C1A",
"2E    c #5E1C19",
"2F    c #715E10",
"2G    c #591B18",
"2H    c #561B18",
"2I    c #7A6D0E",
"2J    c #92871A",
"2K    c #857917",
"2L    c #7F7316",
"2M    c #B9930D",
"2N    c #FEBC0F",
"2O    c #ECAC0C",
"2P    c #5D560A",
"2Q    c #84792F",
"2R    c #665816",
"2S    c #595205",
"2T    c #735A0C",
"2U    c #706605",
"2V    c #4B1614",
"2W    c #491615",
"2X    c #491715",
"2Y    c #705915",
"2Z    c #4B1B13",
"2&    c #4C1714",
"3     c #4C1615",
"30    c #4B1615",
"31    c #4D1715",
"32    c #601C1B",
"33    c #5E1C1A",
"34    c #5E1D1B",
"35    c #5B1B1A",
"36    c #591C1A",
"37    c #735E0F",
"38    c #592416",
"39    c #706705",
"3a    c #70650C",
"3b    c #716B14",
"3c    c #6F6A08",
"3d    c #666103",
"3e    c #75670D",
"3f    c #88600F",
"3g    c #574F02",
"3h    c #524A02",
"3i    c #524C02",
"3j    c #555001",
"3k    c #5E5903",
"3l    c #6D6509",
"3m    c #4E2013",
"3n    c #481514",
"3o    c #4B1B16",
"3p    c #675012",
"3q    c #491513",
"3r    c #491514",
"3s    c #4A1714",
"3t    c #4A1615",
"3u    c #581B18",
"3v    c #67550F",
"3w    c #521917",
"3x    c #5A2914",
"3y    c #635904",
"3z    c #66620C",
"3A    c #655E10",
"3B    c #625A16",
"3C    c #62640B",
"3D    c #635A0D",
"3E    c #5D5803",
"3F    c #625A02",
"3G    c #5C5603",
"3H    c #585001",
"3I    c #544B02",
"3J    c #585102",
"3K    c #635C03",
"3L    c #4D2212",
"3M    c #471614",
"3N    c #5A2D15",
"3O    c #57390F",
"3P    c #481513",
"3Q    c #481614",
"3R    c #5C1B1A",
"3S    c #5A1C18",
"3T    c #581A18",
"3U    c #571A18",
"3V    c #531818",
"3W    c #6B5313",
"3X    c #501916",
"3Y    c #4E1715",
"3Z    c #706604",
"3&    c #656016",
"4     c #625E0B",
"40    c #625918",
"41    c #635A19",
"42    c #636602",
"43    c #676201",
"44    c #675E01",
"45    c #615801",
"46    c #5A5102",
"47    c #574E03",
"48    c #615A04",
"49    c #471C11",
"4a    c #441412",
"4b    c #5D3F14",
"4c    c #4C2410",
"4d    c #461514",
"4e    c #461414",
"4f    c #481413",
"4g    c #461614",
"4h    c #521916",
"4i    c #675210",
"4j    c #4D1815",
"4k    c #4C1814",
"4l    c #7E631B",
"4m    c #6B6512",
"4n    c #635D14",
"4o    c #625A14",
"4p    c #665C17",
"4q    c #5C510A",
"4r    c #646803",
"4s    c #686502",
"4t    c #675E02",
"4u    c #625903",
"4v    c #5D5304",
"4w    c #5C480A",
"4x    c #421512",
"4y    c #421413",
"4z    c #5E4A10",
"4A    c #451612",
"4B    c #441413",
"4C    c #441512",
"4D    c #471414",
"4E    c #571B18",
"4F    c #561817",
"4G    c #521818",
"4H    c #501917",
"4I    c #7A492E",
"4J    c #AD912F",
"4K    c #805833",
"4L    c #7B5726",
"4M    c #97771F",
"4N    c #736C06",
"4O    c #695F1A",
"4P    c #665A1A",
"4Q    c #62530B",
"4R    c #646110",
"4S    c #646806",
"4T    c #8D7C0A",
"4U    c #6D6303",
"4V    c #665D04",
"4W    c #635707",
"4X    c #4B280E",
"4Y    c #411312",
"4Z    c #451B11",
"4&    c #5C4710",
"5     c #421412",
"50    c #431512",
"51    c #451413",
"52    c #451513",
"53    c #461513",
"54    c #A7620E",
"55    c #EBAA19",
"56    c #7D5B12",
"57    c #5F3712",
"58    c #634B09",
"59    c #686509",
"5a    c #6A6119",
"5b    c #665D1B",
"5c    c #6A570C",
"5d    c #656410",
"5e    c #666908",
"5f    c #6C6803",
"5g    c #706704",
"5h    c #6B5F04",
"5i    c #5D4809",
"5j    c #3D1211",
"5k    c #3F1410",
"5l    c #512A13",
"5m    c #51360E",
"5n    c #411313",
"5o    c #411512",
"5p    c #431412",
"5q    c #521817",
"5r    c #4F1717",
"5s    c #4D1816",
"5t    c #551F13",
"5u    c #7F4F12",
"5v    c #5A4707",
"5w    c #491E11",
"5x    c #431612",
"5y    c #441712",
"5z    c #644C0B",
"5A    c #777206",
"5B    c #645D0F",
"5C    c #67630B",
"5D    c #5A5607",
"5E    c #6A6E05",
"5F    c #746B03",
"5G    c #6E6104",
"5H    c #583F0A",
"5I    c #694E0F",
"5J    c #44230E",
"5K    c #3D1412",
"5L    c #614513",
"5M    c #46210F",
"5N    c #411311",
"5O    c #411412",
"5P    c #421311",
"5Q    c #431312",
"5R    c #441312",
"5S    c #511917",
"5T    c #4F1715",
"5U    c #4E1716",
"5V    c #4B1715",
"5W    c #491614",
"5X    c #471514",
"5Y    c #4A1F11",
"5Z    c #5A4907",
"5&    c #451D10",
"6     c #401411",
"60    c #3F1412",
"61    c #4C270E",
"62    c #675A10",
"63    c #786A07",
"64    c #766C06",
"65    c #746407",
"66    c #655008",
"67    c #3A2408",
"68    c #37100F",
"69    c #3A1310",
"6a    c #56370F",
"6b    c #75550F",
"6c    c #8E710F",
"6d    c #4B1D11",
"6e    c #3F1211",
"6f    c #401313",
"6g    c #421312",
"6h    c #441513",
"6i    c #511815",
"6j    c #4F1615",
"6k    c #451614",
"6l    c #491F11",
"6m    c #5A4C06",
"6n    c #431C10",
"6o    c #3E1412",
"6p    c #5F520F",
"6q    c #3C1210",
"6r    c #3C1211",
"6s    c #3B130F",
"6t    c #36110E",
"6u    c #180707",
"6v    c #210A09",
"6w    c #34100E",
"6x    c #42220F",
"6y    c #8F740B",
"6z    c #FAB00E",
"6A    c #7F470D",
"6B    c #3F1312",
"6C    c #401412",
"6D    c #421313",
"6E    c #2A0D0B",
"6F    c #320F0D",
"6G    c #4F1716",
"6H    c #4A1514",
"6I    c #461413",
"6J    c #451514",
"6K    c #451F10",
"6L    c #534B06",
"6M    c #421B0F",
"6N    c #3E170F",
"6O    c #5B4E0D",
"6P    c #3A130F",
"6Q    c #35120E",
"6R    c #241408",
"6S    c #3B2F06",
"6T    c #473C04",
"6U    c #352906",
"6V    c #3D2609",
"6W    c #82530A",
"6X    c #3E190D",
"6Y    c #3B1210",
"6Z    c #3F1311",
"6&    c #411212",
"7     c #401212",
"70    c #421213",
"71    c #2A0C0B",
"72    c #1E0808",
"73    c #4B1616",
"74    c #491515",
"75    c #481613",
"76    c #45200E",
"77    c #514909",
"78    c #442211",
"79    c #5C4A0F",
"7a    c #3A120F",
"7b    c #3C150F",
"7c    c #43280C",
"7d    c #564506",
"7e    c #443A03",
"7f    c #251706",
"7g    c #1B0908",
"7h    c #1F0908",
"7i    c #1C0808",
"7j    c #190806",
"7k    c #1B0808",
"7l    c #1F0A09",
"7m    c #250B0A",
"7n    c #240A0A",
"7o    c #300F0D",
"7p    c #2E0D0C",
"7q    c #1E0909",
"7r    c #4C1616",
"7s    c #4B1515",
"7t    c #471513",
"7u    c #492410",
"7v    c #E89F16",
"7w    c #C48713",
"7x    c #65470B",
"7y    c #4C3809",
"7z    c #42240C",
"7A    c #36100F",
"7B    c #180806",
"7C    c #220A08",
"7D    c #1C0908",
"7E    c #32100E",
"7F    c #3C130F",
"7G    c #38110F",
"7H    c #33100F",
"7I    c #2C0D0B",
"7J    c #240C09",
"7K    c #1B0807",
"7L    c #1D0807",
"7M    c #1D0808",
"7N    c #471613",
"7O    c #431413",
"7P    c #401410",
"7Q    c #431911",
"7R    c #F9B90B",
"7S    c #FFB50B",
"7T    c #66380E",
"7U    c #3B110F",
"7V    c #3A1211",
"7W    c #2F100C",
"7X    c #300F0C",
"7Y    c #35110E",
"7Z    c #200A08",
"7&    c #39110F",
"8     c #3D1212",
"80    c #3E1312",
"81    c #310F0E",
"82    c #2E0E0C",
"83    c #250C0B",
"84    c #1F0909",
"85    c #4A1614",
"86    c #461613",
"87    c #401311",
"88    c #3D1311",
"89    c #68380F",
"8a    c #6C3C0F",
"8b    c #3B1310",
"8c    c #3A1210",
"8d    c #280C0A",
"8e    c #1B0708",
"8f    c #371110",
"8g    c #300E0D",
"8h    c #240B09",
"8i    c #3D1310",
"8j    c #3E1211",
"8k    c #3E1310",
"8l    c #401312",
"8m    c #401310",
"8n    c #3E1411",
"8o    c #3B1311",
"8p    c #3C1310",
"8q    c #3C1111",
"8r    c #1E0907",
"8s    c #391210",
"8t    c #3A1110",
"8u    c #3A1111",
"8v    c #300E0E",
"8w    c #3F1212",
"8x    c #421211",
"8y    c #4A1716",
"8z    c #542413",
"8A    c #8C670F",
"8B    c #8C680F",
"8C    c #8A680E",
"8D    c #94740C",
"8E    c #9A7B0C",
"8F    c #5F350F",
"8G    c #3E1311",
"8H    c #6E4A0F",
"8I    c #97790B",
"8J    c #67430F",
"8K    c #3B120F",
"8L    c #1E0807",
"8M    c #34190A",
"8N    c #84630D",
"8O    c #8A6A0B",
"8P    c #542E0F",
"8Q    c #55310D",
"8R    c #623A0F",
"8S    c #491414",
"8T    c #471515",
"8U    c #7F5A0E",
"8V    c #7F5B0F",
"8W    c #E8D608",
"8X    c #7D5A0F",
"8Y    c #7E590E",
"8Z    c #542911",
"8&    c #4C2010",
"9     c #D5C007",
"90    c #A5880B",
"91    c #75500D",
"92    c #B0950A",
"93    c #CDB809",
"94    c #3D1210",
"95    c #33100D",
"96    c #534207",
"97    c #D2BC06",
"98    c #7F5D0C",
"99    c #78570C",
"9a    c #CEB507",
"9b    c #8B6A0C",
"9c    c #350F0E",
"9d    c #6A5706",
"9e    c #87650C",
"9f    c #401211",
"9g    c #411411",
"9h    c #4A1616",
"9i    c #491415",
"9j    c #D6C309",
"9k    c #411413",
"9l    c #AC900C",
"9m    c #6F4A0F",
"9n    c #3E1212",
"9o    c #98790C",
"9p    c #7F5E0D",
"9q    c #290D0C",
"9r    c #CEBD06",
"9s    c #472010",
"9t    c #3D1111",
"9u    c #CEB707",
"9v    c #492010",
"9w    c #765B09",
"9x    c #7E620B",
"9y    c #481615",
"9z    c #471413",
"9A    c #D5C308",
"9B    c #431514",
"9C    c #DBC709",
"9D    c #4F2810",
"9E    c #C8B109",
"9F    c #453307",
"9G    c #B09A08",
"9H    c #3C1311",
"9I    c #3E1110",
"9J    c #7A570E",
"9K    c #7E5D0D",
"9L    c #735F07",
"9M    c #401213",
"9N    c #421314",
"9O    c #481515",
"9P    c #D5C409",
"9Q    c #D0BA09",
"9R    c #3F1213",
"9S    c #512711",
"9T    c #CBB707",
"9U    c #4B3408",
"9V    c #B19B08",
"9W    c #8C6C0C",
"9X    c #6A4D0C",
"9Y    c #6E5807",
"9Z    c #736008",
"9&    c #210A0A",
"a     c #290C0B",
"a0    c #2D0E0C",
"a1    c #D7C40A",
"a2    c #BEA609",
"a3    c #653D0F",
"a4    c #8C7709",
"a5    c #CCB808",
"a6    c #C7B109",
"a7    c #3B2608",
"a8    c #6A5807",
"a9    c #1F0807",
"aa    c #210A08",
"ab    c #240B0A",
"ac    c #381110",
"ad    c #4A1515",
"ae    c #D6C409",
"af    c #451312",
"ag    c #603710",
"ah    c #76520F",
"ai    c #582E11",
"aj    c #7C590F",
"ak    c #D4C208",
"al    c #2E1809",
"am    c #1F0809",
"an    c #866A0B",
"ao    c #C3AC0A",
"ap    c #69430F",
"aq    c #623B10",
"ar    c #9E810B",
"as    c #968407",
"at    c #1E0908",
"au    c #6A5907",
"av    c #806D07",
"aw    c #412E09",
"ax    c #412D08",
"ay    c #422E08",
"az    c #281009",
"aA    c #22090A",
"aB    c #2B0D0C",
"aC    c #AE940C",
"aD    c #451512",
"aE    c #441313",
"aF    c #552810",
"aG    c #A1840C",
"aH    c #C8B30A",
"aI    c #95750D",
"aJ    c #4C2111",
"aK    c #230909",
"aL    c #1F0A08",
"aM    c #B79E0B",
"aN    c #BDA40B",
"aO    c #5F460B",
"aP    c #503B08",
"aQ    c #B2A206",
"aR    c #B2A107",
"aS    c #B2A208",
"aT    c #AA9907",
"aU    c #361E08",
"aV    c #21080A",
"   0 1 2 3 4 5 6 7 8 9 a b c d e f g h i j k l m n o p q r s r t",
" u v w x x y z A B C D E F G H I J K L M N O P q Q R r r S T S U",
" 8 V W X Y Z &0 0001 E02030405060708090a0b0c0d S0e0f0g0h0i0i0j0i",
"0k0l0m0n0o0p0q0r0s0t0u0v i0w0x0y0z0A0d t0B0C0D0E0F0G0H0I0J0K0L0M",
" b0N0O0P0Q d0R0S0T0U0V0W0X0Y0Z0&1 1011120j0L131415161718191a1b1c",
"1d1e1f1g1h1i1j1k1l1m1n1o1p1q1r1s1t1u1v1w1x1y1z1A1B1C1D1E1F1G1H1I",
"1h1J1K1L1M1N1O1P l1Q1R1S1T1U1V1W1X1Y1Z1&2 2021222324252627272829",
"2a0v2b2c  2d2e2f o2g2h2i2j2k2l2m2n2o2p2q2r2s2t2u2v2w2x2y2z2v2u2A",
"2c2B2C2D2E P2F2G2H2I2J2K2L2M2N2O2P2Q2R2S2T2U2V2W2X2Y2Z2&3 2V3031",
"323334 n3536370j38393a3b3c3d3e3f3g3h3i3j3k3l3m3n3o3p3q3r3r3s303t",
" m n Q r3u0i3v3w3x3y3z3A3B3C3D3E3F3G3H3I3J3K3L3M3N3O3P3Q2W3Q3r2W",
"3R3S3T3U0F3V3W3X3Y3Z3&4 40412P42434445464748494a4b4c4d4e4f4g3n2W",
" S0g0j0F1b4h4i4j4k4l4m4n4o4p4q3C4r4s4t4u4v4w4x4y4z4A4B4C4d3M4g4D",
"4E4F0H4G4H4I4J4K4L4M4N4O4P4p4Q4R4S4T4U4V4W4X4Y4Z4&5 504a5152534e",
"0K4G1H1H31545556575258595a5b5c5d5e5f5g5h5i5j5k5l5m5n5o5p5p524d51",
"5q5q5r5s4j5t5u5v5w5x5y5z5A5B5C5D5E5F5G5H5I5J5K5L5M5N5O5P5Q4B5R53",
"5S5T5U5s5V5W5X5Y5Z5&6 606162636465666768696a6b6c6d6e4Y6f4Y6g6h52",
"6i6j3 5V2V3n6k4A6l6m6n5k6o6p6q6r6s6t6u6v6w6x6y6z6A6e6B6C6g6D6E6F",
"6G2v2&6H5W3M6I6J5o6K6L6M6N6O6q6P696Q6R6S6T6U6V6W6X6Y6Z6&7 707172",
"2v317374754D6h4y6g6 767778797a7b7c7d7e7f7g7h7i7i7j7k7l7m7n7o7p7q",
"7r7s3r3r7t514B5p5O6C6o7u7v7w7x7y7z7A7B7C7D7E7F7G7H7I7J7K7D7L7M7q",
"2&3s3r3n7N4B7O6D5N7P607Q7R7S7T7U7V7W6u7X7Y7Z7&6r8 806B8 81828384",
"7s853Q538652505 876B6Z88898a8b8b8c8d8e8f8c8g8h8i888j8k8l5N6 4Y8j",
"7s3n3P5X4e4B7O5o5N8l8m8n5j6r8o8p8q7h8r8s8t8u6v8v8j8k8w6Z6B8l8x5p",
"8y5W8z8A8B8C8D8E8F6C8G8H8I8J888o8K8L8M8N8O8P7Y728Q8R6B606Z6g5n7O",
"6H8S8T8U8V8W8X8Y8Z8&9 909192939495969798999a9b9c9d9e6Z9f6&6g9g7O",
"9h9i7N6I6J9j4y9k6g9l9m6o8j9n9o9p9q9r9s949t8p9u9v9w9x8w6Z7 5n5n4y",
"2W3n9y9z4d9A9B5 5n9C876B6Z8G9D9E9F9G9H8j8j9I9o9J9K9L7E874Y9M9k9N",
"9O3r3n8T519P5p5 7O9Q879R6C6B9S9T9U9V8w8G5j8i9W9X9Y9Z9&a a05j6g7O",
"2W9y3r7N5Xa15p5p5pa2a37 6Z8791a47ga58G6B6e8wa6a7a89Za984aaabac6Z",
"ad3q8T534Daeaf5Q4yag9jahaiajakalamanaoapaqarasatauavawaxayazaAaB",
"853n5W3n6IaCaD4aaE6gaFaGaHaIaJaKaL5japaMaNaO7M8LaPaQaRaSaTaUaV7Z"};
